<svg width="279" height="524" viewBox="0 0 279 524" fill="none" xmlns="http://www.w3.org/2000/svg">
<path opacity="0.05" fill-rule="evenodd" clip-rule="evenodd" d="M189.991 524H166.818C163.916 511.572 158.89 480.511 173.88 457.157C192.579 427.294 237.456 421.695 237.456 421.695C237.456 421.695 251.013 464.156 231.847 494.018C221.572 510.026 204.044 519.062 189.991 524ZM279 392.57V438.839L242.264 402.114C234.971 394.824 234.976 383.014 242.274 375.73L245.59 372.42C249.241 368.776 255.161 368.776 258.812 372.42L279 392.57ZM279 249.415V321.779C262.923 324.007 249.914 322.257 249.914 322.257C249.914 322.257 247.727 277.631 273.863 253.606C275.509 252.093 277.226 250.699 279 249.415ZM0 235.045C7.32504e-05 247.823 2.32528 262.35 10.2628 274.717C29.4292 304.579 73.8392 310.179 73.8392 310.179C73.8392 310.179 87.396 267.718 68.2295 237.856C49.0631 208.461 4.65307 202.395 4.65307 202.395C4.65307 202.395 -0.000103625 216.969 0 235.045ZM145.707 0.376953C145.707 0.376953 185.373 20.8329 192.976 55.4759C200.909 89.789 173.143 125.422 173.143 125.422C173.143 125.422 133.477 104.966 125.874 70.3229C118.271 35.6799 145.707 0.376953 145.707 0.376953ZM37.3979 127.716C37.3979 127.716 79.938 114.185 109.856 133.316C139.775 151.979 145.384 196.773 145.384 196.773C145.384 196.773 102.844 210.304 72.9259 191.174C43.0076 172.043 37.3979 127.716 37.3979 127.716ZM37.3979 504.727C37.3979 504.727 79.938 518.259 109.856 499.128C139.307 479.998 145.384 435.671 145.384 435.671C145.384 435.671 102.844 422.14 72.926 441.27C43.0076 460.401 37.3979 504.727 37.3979 504.727ZM195.382 338.174C195.382 338.174 208.939 295.714 189.773 265.852C170.606 236.456 126.196 230.391 126.196 230.391C126.196 230.391 112.64 272.851 131.806 302.713C150.972 332.575 195.382 338.174 195.382 338.174ZM123.881 338.618C93.9622 319.488 51.4221 333.019 51.4221 333.019C51.4221 333.019 57.0318 377.346 86.9501 396.476C116.868 415.606 159.409 402.075 159.409 402.075C159.409 402.075 153.799 357.282 123.881 338.618ZM253.748 186.123C246.145 151.48 206.479 131.024 206.479 131.024C206.479 131.024 179.043 166.327 186.645 200.97C194.248 235.613 233.915 256.069 233.915 256.069C233.915 256.069 261.681 220.436 253.748 186.123Z" fill="#3E7672"/>
</svg>
