<svg width="56" height="56" viewBox="0 0 56 56" fill="none" xmlns="http://www.w3.org/2000/svg">
<path d="M54.2525 53.3749H52.5025V32.8999L53.6829 33.9114C53.8602 34.052 54.0852 34.1185 54.3105 34.0968C54.5358 34.075 54.7439 33.9669 54.8912 33.7949C55.0384 33.623 55.1133 33.4007 55.1001 33.1747C55.0869 32.9488 54.9866 32.7367 54.8204 32.5831L36.4453 16.8331C36.2869 16.6975 36.0852 16.623 35.8766 16.623C35.668 16.623 35.4663 16.6975 35.3078 16.8331L16.9328 32.5831C16.8406 32.6562 16.7641 32.7472 16.7079 32.8506C16.6517 32.954 16.6169 33.0676 16.6056 33.1848C16.5943 33.3019 16.6068 33.4201 16.6422 33.5323C16.6777 33.6445 16.7354 33.7484 16.812 33.8378C16.8885 33.9272 16.9823 34.0002 17.0877 34.0525C17.1932 34.1048 17.308 34.1353 17.4255 34.1422C17.543 34.149 17.6607 34.1321 17.7715 34.0925C17.8823 34.0528 17.9839 33.9912 18.0703 33.9114L19.2525 32.8999V53.3749H17.5025C17.2704 53.3749 17.0478 53.467 16.8838 53.6311C16.7197 53.7952 16.6275 54.0178 16.6275 54.2499C16.6275 54.4819 16.7197 54.7045 16.8838 54.8686C17.0478 55.0327 17.2704 55.1249 17.5025 55.1249H54.2525C54.4845 55.1249 54.7071 55.0327 54.8712 54.8686C55.0353 54.7045 55.1275 54.4819 55.1275 54.2499C55.1275 54.0178 55.0353 53.7952 54.8712 53.6311C54.7071 53.467 54.4845 53.3749 54.2525 53.3749ZM42.0025 52.4999C42.0025 52.7319 41.9103 52.9545 41.7462 53.1186C41.5821 53.2827 41.3595 53.3749 41.1275 53.3749C40.8954 53.3749 40.6728 53.2827 40.5088 53.1186C40.3447 52.9545 40.2525 52.7319 40.2525 52.4999V43.7499C40.2525 43.5178 40.1603 43.2952 39.9962 43.1311C39.8321 42.967 39.6095 42.8749 39.3775 42.8749H32.3775C32.1454 42.8749 31.9228 42.967 31.7588 43.1311C31.5947 43.2952 31.5025 43.5178 31.5025 43.7499V52.4999C31.5025 52.7319 31.4103 52.9545 31.2462 53.1186C31.0821 53.2827 30.8595 53.3749 30.6275 53.3749C30.3954 53.3749 30.1728 53.2827 30.0088 53.1186C29.8447 52.9545 29.7525 52.7319 29.7525 52.4999V43.7499C29.7525 43.0537 30.029 42.386 30.5213 41.8937C31.0136 41.4014 31.6813 41.1249 32.3775 41.1249H39.3775C40.0737 41.1249 40.7413 41.4014 41.2336 41.8937C41.7259 42.386 42.0025 43.0537 42.0025 43.7499V52.4999Z" fill="#4ABD7F"/>
<path d="M39.0845 26.0208C39.9508 25.3516 40.5862 24.4283 40.9019 23.3801C41.2176 22.3319 41.1977 21.2113 40.845 20.1749C40.4924 19.1386 39.8246 18.2384 38.9351 17.6003C38.0456 16.9622 36.9789 16.6182 35.8842 16.6162C34.7895 16.6143 33.7216 16.9546 32.8298 17.5895C31.9381 18.2245 31.2671 19.1223 30.9108 20.1574C30.5545 21.1924 30.5306 22.313 30.8426 23.3623C31.1546 24.4116 31.7867 25.3372 32.6506 26.0095C31.4283 26.5025 30.3314 27.262 29.4397 28.2326C28.548 29.2031 27.884 30.3604 27.496 31.62C26.9792 31.141 26.393 30.7428 25.7574 30.4387C26.5358 29.8156 27.1015 28.9661 27.3762 28.0076C27.651 27.0491 27.6212 26.0289 27.291 25.088C26.9608 24.1472 26.3465 23.3321 25.5331 22.7555C24.7196 22.1788 23.7471 21.8691 22.75 21.8691C21.7529 21.8691 20.7804 22.1788 19.9669 22.7555C19.1535 23.3321 18.5392 24.1472 18.209 25.088C17.8788 26.0289 17.8491 27.0491 18.1238 28.0076C18.3985 28.9661 18.9642 29.8156 19.7426 30.4387C19.1072 30.7428 18.5211 31.1407 18.004 31.6191C17.6155 30.3598 16.9503 29.2033 16.057 28.2344C15.1638 27.2655 14.0651 26.5085 12.8415 26.0191C13.707 25.3482 14.3411 24.4234 14.6549 23.3742C14.9688 22.325 14.9466 21.2039 14.5917 20.1679C14.2367 19.1319 13.5666 18.2329 12.6753 17.5967C11.7839 16.9604 10.7159 16.6188 9.62083 16.6197C8.52571 16.6206 7.45828 16.9639 6.56798 17.6016C5.67769 18.2393 5.0091 19.1395 4.65581 20.1761C4.30252 21.2126 4.28223 22.3337 4.59776 23.3824C4.9133 24.4311 5.54888 25.3548 6.41551 26.0243C4.77055 26.7216 3.36764 27.8884 2.38219 29.3787C1.39675 30.869 0.872507 32.6167 0.875009 34.4033V42.0001C0.875009 42.6963 1.15157 43.364 1.64385 43.8562C2.13614 44.3485 2.80382 44.6251 3.50001 44.6251H42C42.6962 44.6251 43.3639 44.3485 43.8562 43.8562C44.3484 43.364 44.625 42.6963 44.625 42.0001V34.4033C44.6284 32.6161 44.1046 30.8675 43.1191 29.3764C42.1336 27.8854 40.7302 26.7182 39.0845 26.0208V26.0208ZM35.875 18.3751C36.5672 18.3751 37.2439 18.5804 37.8195 18.9649C38.3951 19.3495 38.8437 19.8962 39.1086 20.5357C39.3735 21.1752 39.4428 21.879 39.3078 22.5579C39.1727 23.2368 38.8394 23.8605 38.3499 24.35C37.8604 24.8394 37.2368 25.1728 36.5578 25.3078C35.8789 25.4429 35.1752 25.3736 34.5356 25.1087C33.8961 24.8438 33.3495 24.3952 32.9649 23.8196C32.5803 23.244 32.375 22.5673 32.375 21.8751C32.375 20.9468 32.7438 20.0566 33.4001 19.4002C34.0565 18.7438 34.9468 18.3751 35.875 18.3751V18.3751ZM19.6875 26.6876C19.6875 26.0819 19.8671 25.4898 20.2036 24.9862C20.5401 24.4825 21.0184 24.09 21.578 23.8582C22.1376 23.6264 22.7534 23.5658 23.3475 23.6839C23.9415 23.8021 24.4872 24.0938 24.9155 24.5221C25.3438 24.9504 25.6355 25.4961 25.7537 26.0901C25.8718 26.6842 25.8112 27.3 25.5794 27.8596C25.3476 28.4192 24.9551 28.8975 24.4514 29.234C23.9478 29.5705 23.3557 29.7501 22.75 29.7501C21.9378 29.7501 21.1588 29.4274 20.5845 28.8531C20.0102 28.2788 19.6875 27.4998 19.6875 26.6876ZM9.62501 18.3751C10.3172 18.3751 10.9939 18.5804 11.5695 18.9649C12.1451 19.3495 12.5937 19.8962 12.8586 20.5357C13.1235 21.1752 13.1928 21.879 13.0578 22.5579C12.9227 23.2368 12.5894 23.8605 12.0999 24.35C11.6104 24.8394 10.9868 25.1728 10.3078 25.3078C9.62889 25.4429 8.92516 25.3736 8.28562 25.1087C7.64608 24.8438 7.09945 24.3952 6.71486 23.8196C6.33028 23.244 6.12501 22.5673 6.12501 21.8751C6.12501 20.9468 6.49376 20.0566 7.15013 19.4002C7.80651 18.7438 8.69675 18.3751 9.62501 18.3751V18.3751ZM2.62501 42.0001V34.4033C2.59975 32.5428 3.29676 30.745 4.56953 29.3877C5.8423 28.0304 7.5917 27.2193 9.45001 27.1251C11.1995 27.0895 12.8994 27.7069 14.2184 28.8568C15.5373 30.0067 16.3806 31.6066 16.5839 33.3446C16.5839 33.3665 16.5996 33.384 16.604 33.405C16.0425 34.4304 15.7488 35.581 15.75 36.7501V42.8751H3.50001C3.26794 42.8751 3.04538 42.7829 2.88129 42.6188C2.7172 42.4547 2.62501 42.2322 2.62501 42.0001ZM17.5 36.7501C17.5 35.3577 18.0531 34.0223 19.0377 33.0378C20.0223 32.0532 21.3576 31.5001 22.75 31.5001C24.1424 31.5001 25.4778 32.0532 26.4623 33.0378C27.4469 34.0223 28 35.3577 28 36.7501V42.8751H17.5V36.7501ZM42.875 42.0001C42.875 42.2322 42.7828 42.4547 42.6187 42.6188C42.4546 42.7829 42.2321 42.8751 42 42.8751H29.75V36.7501C29.7515 35.5817 29.4584 34.4318 28.8978 33.4067C28.8978 33.3857 28.9153 33.3682 28.9179 33.3463C29.1312 31.6128 29.9771 30.019 31.2934 28.8709C32.6097 27.7227 34.3035 27.101 36.05 27.1251C37.9083 27.2193 39.6577 28.0304 40.9305 29.3877C42.2033 30.745 42.9003 32.5428 42.875 34.4033V42.0001Z" fill="#1F1F1F"/>
<path d="M22.75 3.04326C22.0605 2.35438 21.2418 1.80827 20.341 1.43621C19.4401 1.06415 18.4747 0.873444 17.5 0.87501C14.0656 0.87501 11.375 3.90863 11.375 7.78226C11.375 11.8755 14.2887 17.255 22.4647 20.0769C22.6495 20.1412 22.8505 20.1412 23.0353 20.0769C31.2113 17.255 34.125 11.8755 34.125 7.78226C34.125 3.90863 31.4344 0.87501 28 0.87501C27.0253 0.873444 26.0599 1.06415 25.159 1.43621C24.2582 1.80827 23.4395 2.35438 22.75 3.04326V3.04326ZM32.375 7.78226C32.375 11.2271 29.8375 15.7798 22.75 18.3225C15.6625 15.7798 13.125 11.2271 13.125 7.78226C13.125 5.25001 14.7612 2.62501 17.5 2.62501C18.3761 2.62401 19.2405 2.82578 20.0256 3.21454C20.8107 3.6033 21.4952 4.1685 22.0255 4.86588C22.1057 4.98409 22.2136 5.08086 22.3398 5.14774C22.466 5.21463 22.6067 5.2496 22.7496 5.2496C22.8924 5.2496 23.0331 5.21463 23.1593 5.14774C23.2855 5.08086 23.3934 4.98409 23.4736 4.86588C24.0041 4.16853 24.6888 3.60337 25.474 3.21462C26.2593 2.82587 27.1238 2.62407 28 2.62501C30.7388 2.62501 32.375 5.25001 32.375 7.78226Z" fill="#1F1F1F"/>
</svg>
