<svg width="56" height="56" viewBox="0 0 56 56" fill="none" xmlns="http://www.w3.org/2000/svg">
<path d="M52.5 21H24.5C23.8038 21 23.1361 21.2766 22.6438 21.7688C22.1516 22.2611 21.875 22.9288 21.875 23.625V46.375C21.875 47.0712 22.1516 47.7389 22.6438 48.2312C23.1361 48.7234 23.8038 49 24.5 49H38.2375L45.892 54.103C46.0237 54.1902 46.1766 54.2401 46.3345 54.2474C46.4923 54.2548 46.6492 54.2192 46.7884 54.1446C46.9277 54.0699 47.0441 53.959 47.1254 53.8235C47.2066 53.688 47.2497 53.533 47.25 53.375V49H52.5C53.1962 49 53.8639 48.7234 54.3562 48.2312C54.8484 47.7389 55.125 47.0712 55.125 46.375V23.625C55.125 22.9288 54.8484 22.2611 54.3562 21.7688C53.8639 21.2766 53.1962 21 52.5 21ZM35.6501 40.8345C35.5707 40.9227 35.4741 40.9939 35.3662 41.0436C35.2584 41.0933 35.1416 41.1205 35.0229 41.1236C34.9042 41.1267 34.7861 41.1056 34.6758 41.0616C34.5655 41.0177 34.4654 40.9517 34.3814 40.8678L29.1314 35.6178C28.972 35.4527 28.8838 35.2317 28.8858 35.0023C28.8878 34.7729 28.9798 34.5534 29.142 34.3912C29.3043 34.2289 29.5237 34.1369 29.7531 34.1349C29.9826 34.1329 30.2036 34.2211 30.3686 34.3805L34.9668 38.9778L42.2249 30.9138C42.3815 30.7466 42.5974 30.6475 42.8263 30.6378C43.0551 30.628 43.2787 30.7084 43.4489 30.8617C43.6192 31.015 43.7225 31.2289 43.7367 31.4575C43.751 31.6862 43.675 31.9113 43.5251 32.0845L35.6501 40.8345ZM47.9001 32.0845L40.0251 40.8345C39.949 40.9225 39.8561 40.9944 39.7518 41.0461C39.6475 41.0977 39.534 41.128 39.4179 41.1353C39.3017 41.1425 39.1853 41.1265 39.0754 41.0882C38.9656 41.0499 38.8644 40.9901 38.7779 40.9122C38.6915 40.8344 38.6214 40.74 38.5718 40.6348C38.5222 40.5295 38.4942 40.4154 38.4892 40.2991C38.4843 40.1829 38.5026 40.0668 38.543 39.9577C38.5835 39.8486 38.6453 39.7487 38.7249 39.6637L46.5999 30.9138C46.7565 30.7466 46.9724 30.6475 47.2013 30.6378C47.4301 30.628 47.6537 30.7084 47.8239 30.8617C47.9942 31.015 48.0975 31.2289 48.1117 31.4575C48.126 31.6862 48.05 31.9113 47.9001 32.0845Z" fill="#4ABD7F"/>
<path d="M42 1.75H14C13.3038 1.75 12.6361 2.02656 12.1438 2.51884C11.6516 3.01113 11.375 3.67881 11.375 4.375V12.25H3.5C2.80381 12.25 2.13613 12.5266 1.64384 13.0188C1.15156 13.5111 0.875 14.1788 0.875 14.875V32.375C0.875 33.0712 1.15156 33.7389 1.64384 34.2312C2.13613 34.7234 2.80381 35 3.5 35H16.625V39.375C16.625 39.5334 16.668 39.6889 16.7494 39.8248C16.8308 39.9607 16.9475 40.0719 17.0872 40.1466C17.2269 40.2214 17.3842 40.2568 17.5425 40.2491C17.7007 40.2414 17.8538 40.1909 17.9856 40.103L25.6375 35H31.5C32.1962 35 32.8639 34.7234 33.3562 34.2312C33.8484 33.7389 34.125 33.0712 34.125 32.375V24.5H42C42.6962 24.5 43.3639 24.2234 43.8562 23.7312C44.3484 23.2389 44.625 22.5712 44.625 21.875V4.375C44.625 3.67881 44.3484 3.01113 43.8562 2.51884C43.3639 2.02656 42.6962 1.75 42 1.75ZM31.5 33.25H25.375C25.2022 33.2503 25.0333 33.3014 24.8894 33.397L18.375 37.7396V34.125C18.375 33.8929 18.2828 33.6704 18.1187 33.5063C17.9546 33.3422 17.7321 33.25 17.5 33.25H3.5C3.26794 33.25 3.04538 33.1578 2.88128 32.9937C2.71719 32.8296 2.625 32.6071 2.625 32.375V14.875C2.625 14.6429 2.71719 14.4204 2.88128 14.2563C3.04538 14.0922 3.26794 14 3.5 14H11.375V17.5H7C6.76794 17.5 6.54538 17.5922 6.38128 17.7563C6.21719 17.9204 6.125 18.1429 6.125 18.375C6.125 18.6071 6.21719 18.8296 6.38128 18.9937C6.54538 19.1578 6.76794 19.25 7 19.25H11.375V21.875C11.3779 22.1738 11.4324 22.4698 11.536 22.75H7C6.76794 22.75 6.54538 22.8422 6.38128 23.0063C6.21719 23.1704 6.125 23.3929 6.125 23.625C6.125 23.8571 6.21719 24.0796 6.38128 24.2437C6.54538 24.4078 6.76794 24.5 7 24.5H25.1125L32.375 29.3431V32.375C32.375 32.6071 32.2828 32.8296 32.1187 32.9937C31.9546 33.1578 31.7321 33.25 31.5 33.25ZM42.875 21.875C42.875 22.1071 42.7828 22.3296 42.6187 22.4937C42.4546 22.6578 42.2321 22.75 42 22.75H33.25C33.0179 22.75 32.7954 22.8422 32.6313 23.0063C32.4672 23.1704 32.375 23.3929 32.375 23.625V27.2396L25.8606 22.897C25.7167 22.8014 25.5478 22.7503 25.375 22.75H14C13.7679 22.75 13.5454 22.6578 13.3813 22.4937C13.2172 22.3296 13.125 22.1071 13.125 21.875V4.375C13.125 4.14294 13.2172 3.92038 13.3813 3.75628C13.5454 3.59219 13.7679 3.5 14 3.5H42C42.2321 3.5 42.4546 3.59219 42.6187 3.75628C42.7828 3.92038 42.875 4.14294 42.875 4.375V21.875Z" fill="#1F1F1F"/>
<path d="M25.375 28H7C6.76794 28 6.54538 28.0922 6.38128 28.2563C6.21719 28.4204 6.125 28.6429 6.125 28.875C6.125 29.1071 6.21719 29.3296 6.38128 29.4937C6.54538 29.6578 6.76794 29.75 7 29.75H25.375C25.6071 29.75 25.8296 29.6578 25.9937 29.4937C26.1578 29.3296 26.25 29.1071 26.25 28.875C26.25 28.6429 26.1578 28.4204 25.9937 28.2563C25.8296 28.0922 25.6071 28 25.375 28Z" fill="#1F1F1F"/>
<path d="M22.6992 16.625C22.5262 16.625 22.357 16.6763 22.2131 16.7725C22.0692 16.8686 21.9571 17.0053 21.8908 17.1652C21.8246 17.325 21.8073 17.501 21.841 17.6707C21.8748 17.8404 21.9581 17.9963 22.0805 18.1187C22.2029 18.2411 22.3588 18.3244 22.5285 18.3582C22.6982 18.3919 22.8742 18.3746 23.0341 18.3084C23.194 18.2422 23.3306 18.13 23.4268 17.9861C23.5229 17.8422 23.5742 17.6731 23.5742 17.5C23.5742 17.2679 23.482 17.0454 23.3179 16.8813C23.1538 16.7172 22.9313 16.625 22.6992 16.625Z" fill="#1F1F1F"/>
<path d="M28.875 18.375C29.3582 18.375 29.75 17.9832 29.75 17.5C29.75 17.0168 29.3582 16.625 28.875 16.625C28.3918 16.625 28 17.0168 28 17.5C28 17.9832 28.3918 18.375 28.875 18.375Z" fill="#1F1F1F"/>
<path d="M22.7702 7.00038C21.9506 6.98809 21.1544 7.27422 20.5302 7.80547C19.9059 8.33672 19.496 9.07683 19.377 9.88788C19.3548 10.0438 19.3437 10.2011 19.3438 10.3586C19.3438 10.5907 19.4359 10.8133 19.6 10.9773C19.7641 11.1414 19.9867 11.2336 20.2187 11.2336C20.4508 11.2336 20.6734 11.1414 20.8375 10.9773C21.0016 10.8133 21.0937 10.5907 21.0937 10.3586C21.0934 10.2831 21.0987 10.2076 21.1095 10.1329C21.1632 9.74911 21.3539 9.39772 21.6464 9.1436C21.939 8.88949 22.3136 8.74982 22.7011 8.75038H22.7335C23.1596 8.75479 23.5664 8.92827 23.8646 9.23267C24.1628 9.53706 24.3278 9.94743 24.3234 10.3735C24.319 10.7996 24.1455 11.2064 23.8411 11.5046C23.5367 11.8028 23.1263 11.9678 22.7002 11.9634C22.4682 11.9634 22.2456 12.0556 22.0815 12.2197C21.9174 12.3838 21.8252 12.6063 21.8252 12.8384V14.8754C21.8252 15.1074 21.9174 15.33 22.0815 15.4941C22.2456 15.6582 22.4682 15.7504 22.7002 15.7504C22.9323 15.7504 23.1549 15.6582 23.319 15.4941C23.4831 15.33 23.5752 15.1074 23.5752 14.8754V13.597C24.3554 13.3867 25.0335 12.9021 25.485 12.2321C25.9366 11.562 26.1313 10.7516 26.0334 9.94959C25.9356 9.14757 25.5517 8.40776 24.9522 7.866C24.3528 7.32424 23.5781 7.01689 22.7702 7.00038Z" fill="#1F1F1F"/>
<path d="M28.875 7C28.6429 7 28.4204 7.09219 28.2563 7.25628C28.0922 7.42038 28 7.64294 28 7.875V14.875C28 15.1071 28.0922 15.3296 28.2563 15.4937C28.4204 15.6578 28.6429 15.75 28.875 15.75C29.1071 15.75 29.3296 15.6578 29.4937 15.4937C29.6578 15.3296 29.75 15.1071 29.75 14.875V7.875C29.75 7.64294 29.6578 7.42038 29.4937 7.25628C29.3296 7.09219 29.1071 7 28.875 7Z" fill="#1F1F1F"/>
<path d="M35.875 18.375C36.3582 18.375 36.75 17.9832 36.75 17.5C36.75 17.0168 36.3582 16.625 35.875 16.625C35.3918 16.625 35 17.0168 35 17.5C35 17.9832 35.3918 18.375 35.875 18.375Z" fill="#1F1F1F"/>
<path d="M35.875 7C35.6429 7 35.4204 7.09219 35.2563 7.25628C35.0922 7.42038 35 7.64294 35 7.875V14.875C35 15.1071 35.0922 15.3296 35.2563 15.4937C35.4204 15.6578 35.6429 15.75 35.875 15.75C36.1071 15.75 36.3296 15.6578 36.4937 15.4937C36.6578 15.3296 36.75 15.1071 36.75 14.875V7.875C36.75 7.64294 36.6578 7.42038 36.4937 7.25628C36.3296 7.09219 36.1071 7 35.875 7Z" fill="#1F1F1F"/>
</svg>
