<svg width="136" height="331" viewBox="0 0 136 331" fill="none" xmlns="http://www.w3.org/2000/svg">
<path opacity="0.3" fill-rule="evenodd" clip-rule="evenodd" d="M0 246.408C0.699773 246.887 1.35702 247.32 1.96065 247.707C3.16327 248.478 4.15352 249.063 4.84378 249.457C5.18892 249.654 5.45911 249.803 5.64337 249.902C5.7355 249.952 5.80617 249.99 5.85399 250.015L5.90842 250.044L5.92247 250.051L5.92613 250.053L5.92714 250.053C5.9274 250.053 5.92757 250.054 6.05229 249.812L5.92757 250.054L6.12845 250.157L6.26717 249.979L6.24161 249.959C6.2673 249.979 6.26738 249.978 6.26746 249.978L6.26814 249.977L6.27069 249.974L6.28036 249.962L6.31779 249.913C6.35062 249.87 6.39899 249.806 6.46173 249.721C6.58719 249.553 6.77011 249.304 7.00095 248.98C7.46259 248.332 8.11599 247.382 8.88481 246.175C10.4222 243.762 12.4225 240.319 14.2741 236.197C17.9742 227.959 21.0963 216.975 18.7042 206.076C16.312 195.177 8.88168 186.528 2.07632 180.614C1.37586 180.005 0.681716 179.425 0 178.875V179.576C0.566453 180.039 1.14072 180.522 1.7193 181.025C8.48698 186.906 15.8167 195.46 18.1725 206.193C20.5283 216.926 17.4574 227.781 13.7775 235.974C11.9391 240.067 9.95259 243.487 8.42577 245.883C7.66247 247.081 7.01436 248.023 6.55754 248.664C6.32913 248.985 6.14857 249.231 6.02538 249.396L5.9754 249.463L5.90248 249.424C5.72156 249.326 5.4549 249.179 5.1134 248.984C4.43039 248.595 3.44823 248.014 2.25429 247.249C1.56728 246.808 0.810316 246.308 0 245.747V246.408ZM44.637 331C44.729 330.874 44.8349 330.728 44.9533 330.561C45.415 329.913 46.0684 328.963 46.8372 327.757C48.3746 325.344 50.3749 321.9 52.2265 317.778C55.9266 309.54 59.0487 298.557 56.6566 287.657C54.2644 276.758 46.8341 268.109 40.0287 262.195C36.6233 259.236 33.3672 256.955 30.9623 255.415C29.7597 254.644 28.7694 254.058 28.0792 253.665C27.734 253.468 27.4639 253.319 27.2796 253.219C27.1874 253.169 27.1168 253.132 27.069 253.107L27.0145 253.078L27.0005 253.071L26.9968 253.069L26.9958 253.068C26.9958 253.068 26.9957 253.068 26.9943 253.071C26.9928 253.074 26.9897 253.079 26.9837 253.091L26.9954 253.068L26.7948 252.965L26.656 253.143L26.8707 253.31C26.656 253.143 26.6559 253.143 26.6557 253.143L26.655 253.144L26.6525 253.147L26.6427 253.16L26.6048 253.209C26.5716 253.253 26.5227 253.317 26.4592 253.402C26.3323 253.572 26.1472 253.823 25.9138 254.15C25.4469 254.803 24.7863 255.76 24.0094 256.975C22.4558 259.404 20.4362 262.866 18.5717 267.002C14.846 275.264 11.723 286.249 14.2191 297.047C16.6116 307.945 24.0416 316.594 30.8467 322.507C34.2521 325.467 37.5081 327.747 39.913 329.288C41.0777 330.034 42.0431 330.607 42.7299 331H43.8465C43.6658 330.902 43.4021 330.757 43.0658 330.565C42.3828 330.176 41.4006 329.595 40.2067 328.83C37.8185 327.3 34.5847 325.035 31.2037 322.097C24.436 316.216 17.1063 307.662 14.7505 296.929L14.7498 296.926C12.2923 286.297 15.3621 275.444 19.0679 267.225C20.9191 263.12 22.925 259.68 24.4679 257.268C25.2393 256.062 25.8946 255.113 26.3567 254.466C26.5877 254.143 26.7704 253.895 26.8951 253.728L26.9473 253.658L27.0205 253.698C27.2014 253.796 27.4681 253.943 27.8096 254.137C28.4926 254.527 29.4747 255.108 30.6687 255.873C33.0569 257.403 36.2906 259.668 39.6717 262.606C46.4394 268.487 53.7691 277.041 56.1249 287.774C58.4807 298.508 55.4098 309.362 51.7299 317.555C49.8915 321.648 47.905 325.068 46.3782 327.464C45.6149 328.662 44.9668 329.604 44.5099 330.246C44.2815 330.566 44.101 330.812 43.9778 330.977L43.9606 331H44.637ZM0 65.3004V64.7248C0.681997 64.4893 1.37739 64.2385 2.08293 63.9714C10.5265 60.775 20.3871 55.2669 26.1798 46.0171L26.1814 46.0145C32.1203 36.7624 32.9978 25.5415 32.3792 16.6071C32.0701 12.1436 31.3883 8.26004 30.7837 5.49271C30.4815 4.10925 30.1987 3.00528 29.9916 2.24792C29.8881 1.86923 29.8036 1.57727 29.745 1.38034L29.7215 1.30157L29.6388 1.31357C29.4346 1.34344 29.1328 1.3898 28.744 1.45547C27.9663 1.58679 26.8408 1.79535 25.4522 2.10382C22.6747 2.72083 18.8469 3.73715 14.647 5.33392C9.90608 7.13643 4.70214 9.67432 0 13.2044V12.5259C4.67146 9.08028 9.79581 6.59603 14.4536 4.82516C18.6835 3.21695 22.5375 2.19376 25.3342 1.57245C26.7328 1.26178 27.8675 1.05148 28.6533 0.918762C29.0463 0.852417 29.352 0.80545 29.5599 0.774994C29.6639 0.759796 29.7434 0.748688 29.7972 0.741394L29.8583 0.733215L29.874 0.731171L29.8781 0.730652L29.8792 0.730499C29.8795 0.730469 29.8797 0.730438 29.9138 1.00046C30.173 0.917694 30.1731 0.917877 30.1732 0.918152L30.1735 0.91922L30.1747 0.923157L30.1795 0.938232L30.1977 0.996857L30.2263 1.09042C30.238 1.12906 30.2516 1.17404 30.2668 1.22522C30.3264 1.42581 30.4121 1.72165 30.5167 2.1044C30.7259 2.86984 31.011 3.98297 31.3155 5.37656C31.9243 8.1633 32.6109 12.0737 32.9222 16.5695C33.5443 25.5538 32.6702 36.9131 26.6398 46.308C20.7546 55.7041 10.764 61.2672 2.27563 64.4805C1.50358 64.7727 0.743647 65.0457 0 65.3004ZM29.9138 1.00046L29.8797 0.730438L30.1042 0.702148L30.173 0.917694L29.9138 1.00046ZM66.2483 248.611C75.6616 254.629 87.0428 255.501 96.0445 254.88C100.549 254.569 104.467 253.884 107.26 253.277C108.656 252.973 109.771 252.688 110.538 252.479C110.922 252.375 111.218 252.289 111.419 252.23C111.52 252.2 111.596 252.177 111.648 252.161L111.707 252.143L111.722 252.138L111.726 252.137L111.727 252.137C111.727 252.136 111.727 252.136 111.645 251.877L111.727 252.136L111.943 252.068L111.915 251.843L111.645 251.877C111.915 251.843 111.915 251.843 111.915 251.842L111.914 251.841L111.914 251.837L111.912 251.821L111.904 251.76C111.896 251.707 111.885 251.627 111.87 251.524C111.84 251.316 111.792 251.011 111.726 250.619C111.593 249.835 111.382 248.702 111.071 247.306C110.448 244.515 109.423 240.669 107.812 236.447C104.592 228.011 99.0172 218.041 89.6037 212.023C80.1902 206.004 68.8084 205.132 59.8063 205.753C55.3016 206.063 51.3835 206.748 48.5913 207.356C47.195 207.66 46.0797 207.944 45.3127 208.153C44.9292 208.258 44.6328 208.343 44.4318 208.403C44.3313 208.432 44.2547 208.456 44.203 208.472L44.1443 208.49L44.1292 208.494L44.1252 208.496L44.1241 208.496C44.1239 208.496 44.1237 208.496 44.2062 208.756L44.1237 208.496L43.908 208.565L43.9361 208.789L44.2062 208.756C43.9361 208.789 43.9361 208.79 43.9362 208.79L43.9363 208.791L43.9369 208.795L43.9389 208.811L43.9471 208.873C43.9511 208.902 43.9563 208.94 43.9627 208.985C43.9679 209.022 43.9739 209.065 43.9808 209.112C44.0112 209.321 44.0583 209.629 44.1248 210.025C44.2578 210.817 44.4685 211.96 44.7798 213.367C45.4023 216.181 46.4275 220.055 48.039 224.294C51.2588 232.766 56.8333 242.737 66.2483 248.611ZM111.332 251.603L111.343 251.685L111.264 251.708C111.067 251.767 110.775 251.851 110.395 251.954C109.636 252.161 108.53 252.443 107.144 252.745C104.371 253.348 100.48 254.029 96.0071 254.337C87.0547 254.954 75.8111 254.079 66.5403 248.151L66.5378 248.15C57.2694 242.369 51.7504 232.528 48.5477 224.101C46.9478 219.891 45.9295 216.044 45.3112 213.249C45.0021 211.852 44.7932 210.719 44.6616 209.935C44.5958 209.543 44.5493 209.239 44.5194 209.033L44.5071 208.948L44.5864 208.925C44.7837 208.866 45.0762 208.782 45.4557 208.678C46.2146 208.472 47.3208 208.19 48.707 207.888C51.4799 207.285 55.3712 206.604 59.8438 206.296C68.7961 205.678 80.0397 206.554 89.3105 212.481C98.5813 218.409 104.101 228.251 107.303 236.641C108.903 240.833 109.921 244.653 110.54 247.425C110.849 248.811 111.058 249.934 111.189 250.71C111.255 251.098 111.302 251.399 111.332 251.603ZM88.6275 137.858L88.8867 137.94C88.6275 137.858 88.6274 137.858 88.6273 137.858L88.627 137.859L88.6258 137.863L88.621 137.878L88.6028 137.937C88.5869 137.988 88.5635 138.065 88.5337 138.165C88.4741 138.366 88.3884 138.662 88.2838 139.044C88.0746 139.81 87.7895 140.923 87.485 142.316C86.8762 145.103 86.1896 149.014 85.8783 153.509C85.2562 162.494 86.1304 173.853 92.161 183.248L92.1621 183.25C98.1926 192.498 108.181 198.061 116.633 201.311C120.862 202.937 124.716 203.987 127.513 204.631C128.911 204.953 130.046 205.174 130.831 205.314C131.224 205.384 131.53 205.434 131.738 205.467C131.842 205.483 131.921 205.495 131.975 205.503L132.036 205.512L132.052 205.514L132.056 205.514L132.057 205.514C132.057 205.514 132.057 205.514 132.094 205.245L132.057 205.514L132.284 205.545L132.353 205.328L132.094 205.245C132.353 205.328 132.353 205.327 132.354 205.327L132.354 205.326L132.355 205.322L132.36 205.307L132.378 205.248C132.394 205.197 132.417 205.12 132.447 205.02C132.507 204.82 132.592 204.524 132.697 204.141C132.906 203.375 133.191 202.262 133.496 200.869C134.105 198.082 134.791 194.172 135.103 189.676C135.725 180.691 134.851 169.332 128.82 159.937C122.789 150.542 112.8 144.979 104.347 141.765C100.117 140.157 96.2631 139.134 93.4663 138.512C92.0677 138.202 90.933 137.991 90.1472 137.859C89.7542 137.792 89.4485 137.745 89.2406 137.715C89.1366 137.7 89.0571 137.689 89.0033 137.681L88.9422 137.673L88.9265 137.671L88.9224 137.671L88.9213 137.67C88.9212 137.67 88.9211 137.67 88.9194 137.683L88.9208 137.67L88.6963 137.642L88.6275 137.858ZM89.0555 138.32L89.079 138.241L89.1617 138.253C89.3659 138.283 89.6677 138.33 90.0565 138.395C90.8342 138.527 91.9597 138.735 93.3483 139.044C96.1258 139.661 99.9536 140.677 104.153 142.274C112.56 145.47 122.423 150.979 128.362 160.231C134.301 169.483 135.178 180.704 134.56 189.638C134.25 194.102 133.569 197.985 132.964 200.753C132.662 202.136 132.379 203.24 132.172 203.997C132.068 204.376 131.984 204.668 131.925 204.865L131.903 204.941L131.822 204.929C131.618 204.897 131.316 204.848 130.927 204.778C130.149 204.64 129.023 204.421 127.635 204.101C124.857 203.461 121.029 202.418 116.828 200.803C108.421 197.57 98.558 192.061 92.6188 182.954C86.6802 173.702 85.8027 162.481 86.4213 153.547C86.7304 149.083 87.4122 145.2 88.0168 142.433C88.319 141.049 88.6019 139.945 88.8089 139.188C88.9124 138.809 88.9969 138.517 89.0555 138.32ZM12.7915 120.16L13.016 120.189L12.9819 120.459L12.7227 120.376L12.7915 120.16ZM56.1525 188.033L56.379 188.064L56.4486 187.846L56.1893 187.763C56.4486 187.846 56.4486 187.846 56.4487 187.846L56.4491 187.844L56.4503 187.84L56.4551 187.825L56.4733 187.767C56.4892 187.715 56.5125 187.639 56.5423 187.538C56.602 187.338 56.6876 187.042 56.7922 186.659C57.0015 185.894 57.2866 184.781 57.591 183.387C58.1998 180.6 58.8865 176.69 59.1978 172.194C59.8199 163.21 58.9457 151.85 52.915 142.455C46.8845 133.06 36.895 127.497 28.4421 124.283C24.2122 122.675 20.3582 121.652 17.5615 121.031C16.1629 120.72 15.0282 120.51 14.2424 120.377C13.8494 120.311 13.5437 120.264 13.3358 120.233C13.2318 120.218 13.1523 120.207 13.0985 120.2L13.0374 120.191L13.0217 120.189L13.0176 120.189L13.0165 120.189C13.0162 120.189 13.016 120.189 12.9819 120.459C12.7227 120.376 12.7226 120.376 12.7225 120.376L12.7222 120.377L12.721 120.381L12.7162 120.396L12.698 120.455C12.682 120.507 12.6587 120.583 12.6289 120.683C12.5693 120.884 12.4836 121.18 12.379 121.563C12.1698 122.328 11.8847 123.441 11.5802 124.835C10.9714 127.621 10.2848 131.532 9.9735 136.028C9.35139 145.012 10.2256 156.372 16.2562 165.767L16.2573 165.768C22.2878 175.016 32.2765 180.579 40.7282 183.829C44.9577 185.455 48.8112 186.506 51.6077 187.15C53.0061 187.472 54.1407 187.692 54.9264 187.832C55.3193 187.903 55.625 187.953 55.8329 187.985C55.867 187.99 55.8986 187.995 55.9274 188C55.9863 188.009 56.034 188.016 56.07 188.021L56.1311 188.03L56.1468 188.032L56.1509 188.033L56.152 188.033C56.1523 188.033 56.1525 188.033 56.1893 187.763L56.1525 188.033ZM56.0206 187.383L55.9977 187.46L55.917 187.447C55.7127 187.415 55.4109 187.366 55.022 187.297C54.2442 187.158 53.1186 186.939 51.7299 186.619C48.9521 185.98 45.1239 184.936 40.9236 183.321C32.5157 180.088 22.6525 174.579 16.7134 165.471C10.7753 156.219 9.8979 144.999 10.5165 136.065C10.8256 131.602 11.5074 127.718 12.112 124.951C12.4142 123.567 12.697 122.463 12.9041 121.706C13.0076 121.327 13.0921 121.035 13.1507 120.839L13.1742 120.76L13.2569 120.772C13.4611 120.802 13.7629 120.848 14.1517 120.914C14.9294 121.045 16.0549 121.254 17.4435 121.562C20.221 122.179 24.0488 123.195 28.2487 124.792C36.6554 127.988 46.5179 133.497 52.457 142.749C58.3959 152.001 59.2734 163.222 58.6548 172.157C58.3457 176.62 57.6638 180.504 57.0593 183.271C56.757 184.654 56.4742 185.758 56.2672 186.516C56.1637 186.894 56.0791 187.186 56.0206 187.383ZM57.49 120.412C66.9033 126.43 78.2846 127.302 87.2863 126.681C91.791 126.37 95.7091 125.685 98.5013 125.078C99.8976 124.774 101.013 124.489 101.78 124.28C102.163 124.176 102.46 124.09 102.661 124.031C102.715 124.015 102.762 124.001 102.802 123.989C102.837 123.978 102.866 123.969 102.89 123.962L102.948 123.944L102.963 123.939L102.967 123.938L102.968 123.938C102.969 123.937 102.969 123.937 102.886 123.678L102.969 123.937L103.185 123.869L103.156 123.644L102.886 123.678C103.156 123.644 103.156 123.644 103.156 123.643L103.156 123.642L103.156 123.638L103.154 123.622L103.145 123.561L103.132 123.467C103.127 123.426 103.12 123.379 103.112 123.325C103.081 123.117 103.034 122.812 102.968 122.42C102.835 121.636 102.624 120.503 102.313 119.107C101.69 116.316 100.665 112.47 99.0535 108.248C95.8333 99.8118 90.2589 89.8421 80.8455 83.8236C71.432 77.8051 60.0501 76.9327 51.0481 77.5535C46.5434 77.8642 42.6253 78.5495 39.833 79.157C38.4367 79.4609 37.3214 79.7454 36.5545 79.9542C36.171 80.0586 35.8745 80.1441 35.6736 80.2036C35.6213 80.2191 35.5755 80.2328 35.5363 80.2447L35.4448 80.2725L35.386 80.2907L35.3709 80.2955L35.367 80.2967L35.3659 80.2971C35.3656 80.2971 35.3654 80.2972 35.4479 80.5565L35.3654 80.2972L35.1497 80.3658L35.1779 80.5904L35.2449 80.5821C35.1779 80.5905 35.1779 80.5907 35.1779 80.5909L35.1781 80.592L35.1786 80.5961L35.1807 80.612L35.1888 80.6736L35.1909 80.6891C35.1982 80.7426 35.2087 80.8175 35.2225 80.9127C35.253 81.1223 35.3001 81.4304 35.3666 81.8263C35.4995 82.6179 35.7102 83.7607 36.0215 85.1678C36.644 87.9818 37.6693 91.8555 39.2807 96.0954C42.5006 104.567 48.075 114.538 57.49 120.412ZM102.573 123.404L102.585 123.486L102.506 123.509C102.309 123.567 102.016 123.652 101.637 123.755C100.878 123.962 99.7718 124.244 98.3856 124.546C95.6127 125.149 91.7213 125.83 87.2488 126.138C78.2965 126.755 67.0529 125.88 57.7821 119.952L57.7795 119.951C48.5111 114.17 42.9922 104.329 39.7895 95.902C38.1896 91.6924 37.1712 87.845 36.553 85.0503C36.2439 83.6531 36.0349 82.5196 35.9033 81.7361C35.8375 81.3444 35.7911 81.0402 35.7611 80.8343L35.751 80.7641L35.7489 80.7491L35.8281 80.7255C36.0254 80.6671 36.318 80.5827 36.6974 80.4794C37.4563 80.2728 38.5625 79.9906 39.9488 79.6889C42.7217 79.0855 46.613 78.405 51.0855 78.0965C60.0378 77.4791 71.2815 78.3549 80.5523 84.2822C89.8231 90.2095 95.3425 100.052 98.545 108.442C100.145 112.634 101.163 116.454 101.781 119.226C102.091 120.612 102.299 121.735 102.431 122.511C102.497 122.899 102.543 123.2 102.573 123.404ZM89.3105 55.8523C80.0397 61.7796 68.7961 62.6554 59.8438 62.0379C55.3712 61.7295 51.4799 61.049 48.707 60.4456C47.3208 60.144 46.2146 59.8617 45.4557 59.6551C45.0762 59.5518 44.7837 59.4674 44.5863 59.409L44.5097 59.3861L44.5221 59.3064C44.5541 59.1026 44.6036 58.8013 44.673 58.4132C44.812 57.6371 45.0312 56.5136 45.3517 55.1277C45.9927 52.3555 47.0384 48.535 48.6567 44.3431C51.8959 35.9525 57.4153 26.1096 66.5403 20.1821C75.8111 14.2548 87.0547 13.379 96.0071 13.9965C100.48 14.3049 104.371 14.9854 107.144 15.5888C108.53 15.8904 109.636 16.1727 110.395 16.3793C110.775 16.4826 111.067 16.567 111.264 16.6254L111.343 16.6489L111.332 16.7307C111.302 16.9344 111.255 17.2356 111.189 17.6236C111.058 18.3997 110.849 19.523 110.54 20.9088C109.921 23.6807 108.903 27.5008 107.303 31.6923C104.101 40.0821 98.5813 49.925 89.3105 55.8523ZM43.9366 59.5405C43.9366 59.5408 43.9365 59.541 44.2062 59.5779L43.9365 59.541L43.9054 59.7679L44.1237 59.8373L44.204 59.5847C44.1594 59.7251 44.1396 59.7875 44.1309 59.8152C44.1239 59.8374 44.124 59.8374 44.1241 59.8375L44.1252 59.8378L44.1291 59.8391L44.1442 59.8438L44.203 59.862C44.2547 59.8779 44.3313 59.9011 44.4318 59.9309C44.6328 59.9904 44.9292 60.0759 45.3127 60.1803C46.0797 60.3891 47.195 60.6736 48.5913 60.9774C51.3835 61.5851 55.3016 62.2703 59.8063 62.581C68.8084 63.2018 80.1902 62.3294 89.6037 56.3109C99.0171 50.2924 104.592 40.3227 107.812 31.8864C109.423 27.6648 110.448 23.8185 111.071 21.0272C111.382 19.6314 111.593 18.4989 111.726 17.7146C111.792 17.3224 111.84 17.0173 111.87 16.8098C111.885 16.706 111.896 16.6266 111.904 16.573L111.912 16.512L111.914 16.4963L111.914 16.4922L111.915 16.4911C111.915 16.4908 111.915 16.4906 111.645 16.4565L111.915 16.4906L111.943 16.2658L111.727 16.1971L111.645 16.4565C111.727 16.1971 111.727 16.197 111.727 16.1969L111.726 16.1966L111.722 16.1953L111.707 16.1906L111.648 16.1724C111.596 16.1565 111.52 16.1333 111.419 16.1035C111.218 16.044 110.922 15.9585 110.538 15.8541C109.771 15.6453 108.656 15.3608 107.26 15.0569C104.467 14.4493 100.549 13.7641 96.0445 13.4534C87.0424 12.8326 75.6606 13.705 66.2471 19.7235L66.2455 19.7246C56.9792 25.743 51.4053 35.7119 48.1489 44.1471C46.5194 48.3682 45.4667 52.2141 44.8214 55.0051C44.4987 56.4008 44.2777 57.5331 44.1373 58.3173C44.0671 58.7094 44.017 59.0145 43.9844 59.222C43.9681 59.3257 43.9562 59.4051 43.9483 59.4586L43.9395 59.5196L43.9373 59.5353L43.9367 59.5394L43.9366 59.5405Z" fill="black"/>
</svg>
