<svg width="226" height="218" viewBox="0 0 226 218" fill="none" xmlns="http://www.w3.org/2000/svg">
<path fill-rule="evenodd" clip-rule="evenodd" d="M58.4956 0C59.1317 16.8428 54.6013 31.0323 54.6013 31.0323C54.6013 31.0323 16.8486 26.2725 0.555358 0.886887C0.366523 0.592672 0.181424 0.297019 0 0H58.4956ZM95.6394 0C96.5658 8.3448 98.949 17.0055 103.878 24.6859C120.172 50.0716 157.924 54.8314 157.924 54.8314C157.924 54.8314 167.58 24.5892 156.72 0H95.6394ZM212.4 0C203.211 19.4594 204.282 41.3 204.282 41.3C204.282 41.3 213.667 42.5627 225.831 41.2809V0H212.4ZM225.831 97.9026L211.846 83.9434C208.742 80.8454 203.709 80.8454 200.605 83.9434L197.787 86.757C191.582 92.9496 191.578 102.989 197.778 109.186L225.831 137.231V97.9026ZM23.6228 196.417C23.6228 196.417 59.7859 207.92 85.2192 191.657C110.255 175.394 115.421 137.713 115.421 137.713C115.421 137.713 79.2583 126.21 53.8249 142.472C28.3916 158.735 23.6228 196.417 23.6228 196.417ZM97.1411 55.2085C71.7077 38.9458 35.5447 50.4486 35.5447 50.4486C35.5447 50.4486 40.3134 88.1305 65.7468 104.393C91.1802 120.656 127.343 109.153 127.343 109.153C127.343 109.153 122.575 71.0745 97.1411 55.2085ZM139.645 155.977C123.352 181.363 134.877 217.458 134.877 217.458C134.877 217.458 172.629 212.698 188.922 187.313C205.216 161.927 193.691 125.832 193.691 125.832C193.691 125.832 155.541 130.592 139.645 155.977Z" fill="#F4F5F7"/>
</svg>
