<svg width="212" height="251" viewBox="0 0 212 251" fill="none" xmlns="http://www.w3.org/2000/svg">
<path fill-rule="evenodd" clip-rule="evenodd" d="M-2.01853e-07 146.821C10.9499 124.14 36.3098 111.062 36.3098 111.062C36.3098 111.062 59.6329 141.073 53.1699 170.523C46.7068 199.973 12.9866 217.362 12.9866 217.362C12.9866 217.362 5.34508 207.556 -2.01853e-07 193.729V146.821ZM42.2044 251C43.0792 242.46 45.4566 233.554 50.5113 225.679C66.8046 200.69 104.557 195.533 104.557 195.533C104.557 195.533 114.38 226.3 103.067 251H42.2044ZM146.34 251C144.35 238.214 143.545 217.911 153.834 201.88C170.128 176.891 207.88 171.734 207.88 171.734C207.88 171.734 219.405 207.829 203.112 233.215C198.194 240.877 191.322 246.66 184.122 251H146.34ZM87.9713 0C87.9713 0 54.2511 17.3894 47.7881 46.8393C41.0441 76.0086 64.6482 106.3 64.6482 106.3C64.6482 106.3 98.3684 88.9104 104.831 59.4606C111.294 30.0108 87.9713 0 87.9713 0ZM180.044 108.25C180.044 108.25 143.881 96.7476 118.448 113.01C93.0144 128.876 88.2456 166.955 88.2456 166.955C88.2456 166.955 124.409 178.458 149.842 162.195C175.275 145.932 180.044 108.25 180.044 108.25Z" fill="#F4F5F7"/>
</svg>
