<svg width="58" height="58" viewBox="0 0 58 58" fill="none" xmlns="http://www.w3.org/2000/svg">
<path d="M40.7812 37.6094H33.5312V40.3281H38.9687V39.4219C38.9688 39.2727 39.0056 39.1258 39.076 38.9943C39.1464 38.8628 39.2482 38.7506 39.3723 38.6679L40.8024 37.7144C40.7932 37.6799 40.7861 37.6448 40.7812 37.6094V37.6094Z" fill="#4ABD7F"/>
<path d="M44.4062 43.0469H46.2188V45.7656H44.4062V43.0469Z" fill="#4ABD7F"/>
<path d="M40.7812 39.9072V45.766H42.5938V42.141C42.5937 42.022 42.6171 41.9041 42.6627 41.7942C42.7082 41.6842 42.775 41.5843 42.8591 41.5001C42.9433 41.416 43.0432 41.3492 43.1532 41.3037C43.2631 41.2581 43.381 41.2347 43.5 41.2348H47.125C47.244 41.2347 47.3619 41.2581 47.4718 41.3037C47.5818 41.3492 47.6817 41.416 47.7659 41.5001C47.85 41.5843 47.9168 41.6842 47.9623 41.7942C48.0079 41.9041 48.0313 42.022 48.0312 42.141V45.766H49.8438V39.9072L45.3125 36.8867L40.7812 39.9072Z" fill="#4ABD7F"/>
<path d="M31.7188 41.2339V36.7027C31.7187 36.5836 31.7421 36.4658 31.7877 36.3558C31.8332 36.2459 31.9 36.1459 31.9841 36.0618C32.0683 35.9776 32.1682 35.9109 32.2782 35.8653C32.3881 35.8198 32.506 35.7964 32.625 35.7964H40.7812V34.5096L35.3438 31.4023L29.9062 34.5096V45.7652H38.9688V42.1402H32.625C32.506 42.1402 32.3881 42.1168 32.2782 42.0712C32.1682 42.0257 32.0683 41.959 31.9841 41.8748C31.9 41.7906 31.8332 41.6907 31.7877 41.5808C31.7421 41.4708 31.7187 41.3529 31.7188 41.2339V41.2339Z" fill="#4ABD7F"/>
<path d="M42.5931 33.9848V36.5206L44.8092 35.0433C44.9579 34.9437 45.1329 34.8906 45.3118 34.8906C45.4908 34.8906 45.6658 34.9437 45.8145 35.0433L48.0306 36.5206V31.751L43.4993 28.7305L39.2617 31.5553L42.1365 33.198C42.2751 33.2773 42.3904 33.3918 42.4706 33.5299C42.5508 33.6681 42.5931 33.825 42.5931 33.9848V33.9848ZM45.3118 32.1723H46.2181C46.4584 32.1723 46.689 32.2677 46.8589 32.4377C47.0289 32.6077 47.1243 32.8382 47.1243 33.0785C47.1243 33.3189 47.0289 33.5494 46.8589 33.7193C46.689 33.8893 46.4584 33.9848 46.2181 33.9848H45.3118C45.0715 33.9848 44.841 33.8893 44.671 33.7193C44.5011 33.5494 44.4056 33.3189 44.4056 33.0785C44.4056 32.8382 44.5011 32.6077 44.671 32.4377C44.841 32.2677 45.0715 32.1723 45.3118 32.1723Z" fill="#4ABD7F"/>
<path d="M39.875 22.2031C36.4695 22.2031 33.1404 23.213 30.3088 25.105C27.4772 26.997 25.2702 29.6862 23.967 32.8325C22.6637 35.9789 22.3227 39.441 22.9871 42.7811C23.6515 46.1212 25.2914 49.1893 27.6995 51.5974C30.1076 54.0055 33.1757 55.6454 36.5158 56.3098C39.8559 56.9742 43.318 56.6332 46.4643 55.3299C49.6107 54.0267 52.2999 51.8197 54.1919 48.9881C56.0839 46.1565 57.0938 42.8274 57.0938 39.4219C57.0886 34.8568 55.2728 30.4801 52.0448 27.2521C48.8168 24.0241 44.4401 22.2083 39.875 22.2031V22.2031ZM48.0313 52.1094H31.7188C31.4784 52.1094 31.2479 52.0139 31.0779 51.8439C30.908 51.674 30.8125 51.4435 30.8125 51.2031C30.8125 50.9628 30.908 50.7323 31.0779 50.5623C31.2479 50.3924 31.4784 50.2969 31.7188 50.2969H48.0313C48.2716 50.2969 48.5021 50.3924 48.6721 50.5623C48.842 50.7323 48.9375 50.9628 48.9375 51.2031C48.9375 51.4435 48.842 51.674 48.6721 51.8439C48.5021 52.0139 48.2716 52.1094 48.0313 52.1094ZM53.4688 46.6719C53.4688 46.7909 53.4454 46.9088 53.3998 47.0187C53.3543 47.1287 53.2876 47.2286 53.2034 47.3128C53.1192 47.3969 53.0193 47.4637 52.9094 47.5092C52.7994 47.5547 52.6815 47.5782 52.5625 47.5781H27.1875C26.9472 47.5781 26.7166 47.4826 26.5467 47.3127C26.3767 47.1427 26.2813 46.9122 26.2813 46.6719C26.2813 46.4315 26.3767 46.201 26.5467 46.0311C26.7166 45.8611 26.9472 45.7656 27.1875 45.7656H28.0938V33.9844C28.0938 33.8246 28.136 33.6677 28.2162 33.5296C28.2964 33.3914 28.4117 33.2769 28.5504 33.1976L34.8942 29.5726C35.0311 29.4943 35.186 29.4531 35.3438 29.4531C35.5015 29.4531 35.6564 29.4943 35.7933 29.5726L37.5151 30.5565C37.7529 30.3724 41.4519 27.9206 42.9973 26.8866C43.1461 26.7871 43.321 26.7339 43.5 26.7339C43.679 26.7339 43.8539 26.7871 44.0027 26.8866L49.4402 30.5116C49.5643 30.5944 49.6661 30.7065 49.7365 30.838C49.8069 30.9696 49.8437 31.1164 49.8438 31.2656V37.6094C49.8389 37.6448 49.8318 37.6799 49.8226 37.7144L51.2527 38.6679C51.3768 38.7506 51.4786 38.8628 51.549 38.9943C51.6194 39.1258 51.6562 39.2727 51.6563 39.4219V45.7656H52.5625C52.6815 45.7656 52.7994 45.789 52.9094 45.8345C53.0193 45.8801 53.1192 45.9468 53.2034 46.031C53.2876 46.1151 53.3543 46.2151 53.3998 46.325C53.4454 46.435 53.4688 46.5529 53.4688 46.6719V46.6719Z" fill="#4ABD7F"/>
<path d="M23.5626 1.35938C17.5559 1.36613 11.7971 3.75529 7.54968 8.0027C3.30227 12.2501 0.913112 18.0089 0.906355 24.0156C0.89157 28.8465 2.43689 33.5531 5.31238 37.435L2.78612 43.6097C2.71998 43.7725 2.70252 43.951 2.73586 44.1235C2.76919 44.296 2.85188 44.4551 2.97389 44.5815C3.0959 44.7079 3.25199 44.7962 3.4232 44.8356C3.59441 44.8751 3.77338 44.8639 3.9384 44.8036L10.3684 42.4344C14.2098 45.2025 18.8278 46.6856 23.5626 46.6719C29.5714 46.6719 35.3341 44.2849 39.583 40.036C43.8319 35.7871 46.2189 30.0244 46.2189 24.0156C46.2189 18.0068 43.8319 12.2441 39.583 7.99524C35.3341 3.74637 29.5714 1.35938 23.5626 1.35938V1.35938ZM10.199 40.5653L5.24334 42.3911L7.1855 37.6439C7.22476 37.5353 7.24657 37.4212 7.25011 37.3058V34.8906C7.25011 33.6889 7.7275 32.5363 8.57728 31.6865C9.42705 30.8368 10.5796 30.3594 11.7814 30.3594C12.9831 30.3594 14.1357 30.8368 14.9854 31.6865C15.8352 32.5363 16.3126 33.6889 16.3126 34.8906V36.5456C16.3126 36.5614 16.3208 36.5744 16.3216 36.59C15.7205 37.7444 15.4066 39.0266 15.4064 40.3281V43.2071C13.8603 42.5468 12.3998 41.702 11.0565 40.691C10.9354 40.6002 10.7935 40.5411 10.6437 40.5191C10.4939 40.4972 10.341 40.5131 10.199 40.5653V40.5653ZM8.15636 24.9219C8.15636 24.2049 8.36896 23.5041 8.76728 22.9079C9.1656 22.3118 9.73175 21.8472 10.3941 21.5728C11.0565 21.2984 11.7854 21.2267 12.4886 21.3665C13.1917 21.5064 13.8377 21.8516 14.3446 22.3586C14.8516 22.8656 15.1968 23.5115 15.3367 24.2147C15.4766 24.9179 15.4048 25.6467 15.1304 26.3091C14.8561 26.9715 14.3914 27.5376 13.7953 27.936C13.1992 28.3343 12.4983 28.5469 11.7814 28.5469C10.8203 28.5458 9.89882 28.1636 9.21922 27.484C8.53963 26.8044 8.15738 25.883 8.15636 24.9219V24.9219ZM12.6876 12.2344C12.6876 11.5174 12.9002 10.8166 13.2985 10.2204C13.6968 9.6243 14.263 9.15968 14.9254 8.88531C15.5878 8.61094 16.3166 8.53916 17.0198 8.67903C17.723 8.8189 18.3689 9.16415 18.8759 9.67111C19.3828 10.1781 19.7281 10.824 19.868 11.5272C20.0078 12.2304 19.936 12.9592 19.6617 13.6216C19.3873 14.284 18.9227 14.8501 18.3265 15.2485C17.7304 15.6468 17.0296 15.8594 16.3126 15.8594C15.3515 15.8583 14.4301 15.4761 13.7505 14.7965C13.0709 14.1169 12.6886 13.1955 12.6876 12.2344V12.2344ZM27.1876 12.2344C27.1876 11.5174 27.4002 10.8166 27.7985 10.2204C28.1968 9.6243 28.763 9.15968 29.4254 8.88531C30.0878 8.61094 30.8166 8.53916 31.5198 8.67903C32.223 8.8189 32.8689 9.16415 33.3759 9.67111C33.8828 10.1781 34.2281 10.824 34.368 11.5272C34.5078 12.2304 34.436 12.9592 34.1617 13.6216C33.8873 14.284 33.4227 14.8501 32.8265 15.2485C32.2304 15.6468 31.5296 15.8594 30.8126 15.8594C29.8515 15.8583 28.9301 15.4761 28.2505 14.7965C27.5709 14.1169 27.1886 13.1955 27.1876 12.2344V12.2344ZM35.3439 28.5469C34.6269 28.5469 33.926 28.3343 33.3299 27.936C32.7338 27.5376 32.2692 26.9715 31.9948 26.3091C31.7204 25.6467 31.6486 24.9179 31.7885 24.2147C31.9284 23.5115 32.2736 22.8656 32.7806 22.3586C33.2876 21.8516 33.9335 21.5064 34.6367 21.3665C35.3398 21.2267 36.0687 21.2984 36.7311 21.5728C37.3935 21.8472 37.9596 22.3118 38.3579 22.9079C38.7563 23.5041 38.9689 24.2049 38.9689 24.9219C38.9678 25.883 38.5856 26.8044 37.906 27.484C37.2264 28.1636 36.3049 28.5458 35.3439 28.5469V28.5469ZM29.9064 24.9219C29.907 25.7955 30.1183 26.6562 30.5224 27.4308C30.9266 28.2053 31.5116 28.871 32.2279 29.3713C31.3382 29.8739 30.5829 30.5838 30.0262 31.4408C29.4695 32.2977 29.1279 33.2764 29.0304 34.2936C28.3841 33.705 27.6475 33.224 26.8487 32.869C27.563 32.3288 28.1324 31.62 28.5059 30.8061C28.8795 29.9922 29.0456 29.0984 28.9894 28.2046C28.9332 27.3108 28.6565 26.4448 28.1839 25.6841C27.7114 24.9233 27.0577 24.2915 26.2814 23.845V22.2031C26.2805 21.2445 26.5839 20.3104 27.1479 19.5353C27.7119 18.7602 28.5074 18.1842 29.4198 17.8901C30.3321 17.5961 31.3143 17.5992 32.2247 17.8991C33.1352 18.199 33.927 18.7801 34.486 19.5588C33.2102 19.7634 32.0488 20.4153 31.2097 21.3979C30.3706 22.3806 29.9086 23.6297 29.9064 24.9219V24.9219ZM27.1876 28.5469C27.1876 29.2638 26.975 29.9647 26.5767 30.5608C26.1784 31.1569 25.6122 31.6216 24.9498 31.8959C24.2875 32.1703 23.5586 32.2421 22.8554 32.1022C22.1522 31.9623 21.5063 31.6171 20.9993 31.1101C20.4924 30.6032 20.1471 29.9573 20.0073 29.2541C19.8674 28.5509 19.9392 27.822 20.2135 27.1596C20.4879 26.4973 20.9525 25.9311 21.5487 25.5328C22.1448 25.1345 22.8456 24.9219 23.5626 24.9219C24.5237 24.9229 25.4451 25.3051 26.1247 25.9847C26.8043 26.6643 27.1866 27.5858 27.1876 28.5469V28.5469ZM20.8439 23.845C20.0675 24.2915 19.4139 24.9233 18.9413 25.6841C18.4687 26.4448 18.192 27.3108 18.1358 28.2046C18.0796 29.0984 18.2457 29.9922 18.6193 30.8061C18.9928 31.6201 19.5622 32.3288 20.2765 32.869C19.4778 33.2241 18.7412 33.705 18.0949 34.2936C17.9973 33.2764 17.6557 32.2977 17.099 31.4408C16.5424 30.5839 15.7871 29.8739 14.8973 29.3713C15.7845 28.7522 16.4664 27.882 16.8556 26.8726C17.2447 25.8631 17.3234 24.7604 17.0814 23.706C16.8394 22.6515 16.2878 21.6934 15.4975 20.9547C14.7071 20.2159 13.714 19.7302 12.6457 19.5599C13.2039 18.781 13.9951 18.1995 14.9052 17.8994C15.8153 17.5993 16.7972 17.5961 17.7092 17.8901C18.6213 18.1842 19.4163 18.7604 19.9797 19.5356C20.5431 20.3107 20.8457 21.2448 20.8439 22.2031V23.845ZM17.2189 43.8714V40.3281C17.2189 38.6457 17.8872 37.0321 19.0769 35.8424C20.2666 34.6527 21.8801 33.9844 23.5626 33.9844C25.2451 33.9844 26.8586 34.6527 28.0483 35.8424C29.238 37.0321 29.9064 38.6457 29.9064 40.3281V43.869C25.7803 45.1887 21.3454 45.1895 17.2189 43.8713V43.8714ZM31.7189 43.1959V40.3281C31.7184 39.0336 31.4077 37.7581 30.8126 36.6085V34.8906C30.8126 33.6889 31.29 32.5363 32.1398 31.6865C32.9896 30.8368 34.1421 30.3594 35.3439 30.3594C36.5456 30.3594 37.6982 30.8368 38.5479 31.6865C39.3977 32.5363 39.8751 33.6889 39.8751 34.8906V36.9685C37.7146 39.6883 34.9118 41.8283 31.7189 43.1959V43.1959ZM41.6596 34.3378C41.5689 33.3126 41.2302 32.3248 40.6727 31.4596C40.1153 30.5944 39.3558 29.8777 38.4598 29.3713C39.3196 28.7712 39.9871 27.935 40.3819 26.9637C40.7767 25.9924 40.8817 24.9276 40.6843 23.8979C40.4869 22.8682 39.9956 21.9177 39.2697 21.1612C38.5437 20.4047 37.6143 19.8747 36.5936 19.635C36.0428 18.3911 35.1051 17.3582 33.92 16.6901C34.8697 16.0289 35.5837 15.0819 35.9581 13.987C36.3326 12.892 36.3479 11.7061 36.002 10.6018C35.656 9.49751 34.9668 8.53238 34.0346 7.84677C33.1023 7.16116 31.9756 6.79083 30.8184 6.78965C29.6612 6.78847 28.5338 7.1565 27.6001 7.84021C26.6665 8.52391 25.9753 9.48765 25.6271 10.5912C25.2789 11.6948 25.2918 12.8807 25.664 13.9765C26.0362 15.0722 26.7483 16.0206 27.6966 16.6838C26.7182 17.2357 25.9038 18.0374 25.3367 19.0071C24.7696 19.9769 24.4701 21.0798 24.4689 22.2031V23.1912C23.8696 23.0821 23.2556 23.0821 22.6564 23.1912V22.2031C22.6551 21.0797 22.3556 19.9768 21.7885 19.0071C21.2214 18.0374 20.407 17.2356 19.4286 16.6838C20.3769 16.0204 21.0888 15.0717 21.4607 13.9758C21.8326 12.8799 21.8451 11.6939 21.4963 10.5904C21.1476 9.48686 20.4559 8.5234 19.5217 7.8402C18.5876 7.15699 17.4599 6.78968 16.3026 6.7917C15.1453 6.79372 14.0188 7.16498 13.0871 7.85145C12.1553 8.53792 11.467 9.50379 11.1221 10.6085C10.7773 11.7132 10.7939 12.8992 11.1696 13.9938C11.5454 15.0884 12.2606 16.0346 13.2112 16.6946C12.0252 17.3619 11.0853 18.393 10.5302 19.6354C9.50973 19.8753 8.5805 20.4055 7.85481 21.162C7.12912 21.9186 6.638 22.869 6.44079 23.8986C6.24358 24.9282 6.34871 25.9929 6.74348 26.9641C7.13825 27.9352 7.80577 28.7713 8.66541 29.3713C7.7703 29.8771 7.01145 30.5928 6.45413 31.4568C5.8968 32.3208 5.55768 33.3072 5.46593 34.3313C3.66025 31.1936 2.71278 27.6358 2.71886 24.0156C2.7158 20.8215 3.44687 17.6694 4.85562 14.8027C6.26437 11.936 8.31311 9.43143 10.8436 7.48235C13.3742 5.53328 16.3188 4.19185 19.4501 3.56165C22.5815 2.93145 25.8158 3.02934 28.9033 3.84776C31.9908 4.66618 34.8489 6.18323 37.2569 8.28177C39.665 10.3803 41.5585 13.0042 42.7913 15.9508C44.0241 18.8975 44.5632 22.088 44.367 25.2761C44.1708 28.4642 43.2445 31.5646 41.6596 34.3378V34.3378Z" fill="#1F1F1F"/>
</svg>
