<svg width="56" height="56" viewBox="0 0 56 56" fill="none" xmlns="http://www.w3.org/2000/svg">
<path d="M33.7447 35.8304C39.0261 34.0804 40.9074 30.6994 40.9074 28.1191C40.9351 27.5498 40.849 26.9807 40.6542 26.445C40.4593 25.9094 40.1597 25.418 39.7727 24.9996C39.3857 24.5811 38.9191 24.244 38.4003 24.008C37.8815 23.772 37.3209 23.6418 36.7512 23.6251C35.5494 23.6197 34.3855 24.0446 33.4699 24.8229C32.5543 24.0446 31.3904 23.6197 30.1887 23.6251C29.6189 23.6418 29.0583 23.772 28.5395 24.008C28.0207 24.244 27.5541 24.5811 27.1671 24.9996C26.7802 25.418 26.4805 25.9094 26.2856 26.445C26.0908 26.9807 26.0047 27.5498 26.0324 28.1191C26.0324 30.6994 27.9137 34.0804 33.1952 35.8304C33.3735 35.8899 33.5663 35.8899 33.7447 35.8304Z" fill="#4ABD7F"/>
<path d="M52.5 33.25H43.75C43.0538 33.25 42.3861 33.5266 41.8938 34.0188C41.4016 34.5111 41.125 35.1788 41.125 35.875V39.375H19.25C18.5538 39.375 17.8861 39.6516 17.3938 40.1438C16.9016 40.6361 16.625 41.3038 16.625 42V52.5C16.625 52.9641 16.8094 53.4092 17.1376 53.7374C17.4658 54.0656 17.9109 54.25 18.375 54.25H21C21.4641 54.25 21.9092 54.0656 22.2374 53.7374C22.5656 53.4092 22.75 52.9641 22.75 52.5V46.375H25.375V52.5C25.375 52.9641 25.5594 53.4092 25.8876 53.7374C26.2158 54.0656 26.6609 54.25 27.125 54.25H29.75C30.2141 54.25 30.6592 54.0656 30.9874 53.7374C31.3156 53.4092 31.5 52.9641 31.5 52.5V46.375H41.125V49.875C41.125 50.5712 41.4016 51.2389 41.8938 51.7312C42.3861 52.2234 43.0538 52.5 43.75 52.5H52.5C53.1962 52.5 53.8639 52.2234 54.3562 51.7312C54.8484 51.2389 55.125 50.5712 55.125 49.875V35.875C55.125 35.1788 54.8484 34.5111 54.3562 34.0188C53.8639 33.5266 53.1962 33.25 52.5 33.25ZM49.875 46.375C49.875 46.6071 49.7828 46.8296 49.6187 46.9937C49.4546 47.1578 49.2321 47.25 49 47.25H47.25C47.0179 47.25 46.7954 47.1578 46.6313 46.9937C46.4672 46.8296 46.375 46.6071 46.375 46.375V39.375C46.375 39.1429 46.4672 38.9204 46.6313 38.7563C46.7954 38.5922 47.0179 38.5 47.25 38.5H49C49.2321 38.5 49.4546 38.5922 49.6187 38.7563C49.7828 38.9204 49.875 39.1429 49.875 39.375V46.375Z" fill="#4ABD7F"/>
<path d="M19.8417 45.3417C20.0265 45.4055 20.2273 45.4055 20.4122 45.3417C34.3947 40.5126 39.3769 31.3829 39.3769 24.4459C39.4405 22.441 38.9827 20.454 38.0484 18.679C37.114 16.9041 35.7351 15.4019 34.0464 14.3195C33.6738 10.881 32.0492 7.69977 29.4823 5.38182C26.9154 3.06388 23.5855 1.77122 20.1269 1.75011C16.6575 1.73648 13.3077 3.01739 10.7325 5.3424C8.15734 7.6674 6.54195 10.8693 6.20217 14.3221C4.5149 15.405 3.13731 16.907 2.20395 18.6814C1.27059 20.4558 0.813366 22.442 0.876921 24.4459C0.876921 31.3829 5.85917 40.5126 19.8417 45.3417ZM20.1269 3.50011C22.9757 3.51687 25.7308 4.51895 27.9247 6.33624C30.1185 8.15352 31.6159 10.674 32.1625 13.4699C31.2551 13.1744 30.3073 13.0215 29.3529 13.0166C28.7619 11.0285 27.5445 9.28448 25.8821 8.04431C24.2196 6.80413 22.201 6.13415 20.1269 6.13415C18.0528 6.13415 16.0342 6.80413 14.3718 8.04431C12.7093 9.28448 11.4919 11.0285 10.9009 13.0166C9.94657 13.0215 8.99875 13.1744 8.0913 13.4699C8.61177 10.6614 10.1018 8.12483 12.3015 6.30276C14.5011 4.48068 17.2707 3.48878 20.1269 3.50011V3.50011ZM27.5504 13.1374C24.691 13.5532 22.066 14.9527 20.1269 17.095C18.1879 14.9527 15.5628 13.5532 12.7034 13.1374C13.2431 11.5992 14.2472 10.2666 15.5771 9.32384C16.9069 8.38108 18.4968 7.87471 20.1269 7.87471C21.757 7.87471 23.3469 8.38108 24.6768 9.32384C26.0066 10.2666 27.0108 11.5992 27.5504 13.1374V13.1374ZM10.9394 14.7649C12.5799 14.7612 14.1986 15.1396 15.6674 15.8701C17.1362 16.6007 18.4147 17.6632 19.4015 18.9736C19.4863 19.086 19.5959 19.1771 19.7219 19.2399C19.8478 19.3026 19.9866 19.3353 20.1274 19.3353C20.2681 19.3353 20.4069 19.3026 20.5328 19.2399C20.6588 19.1771 20.7684 19.086 20.8532 18.9736C21.8466 17.6706 23.1263 16.6136 24.5935 15.8843C26.0607 15.1549 27.676 14.7728 29.3144 14.7675C33.9755 14.7675 37.6269 19.0191 37.6269 24.4485C37.6269 30.7362 33.0235 39.0417 20.1269 43.59C7.2303 39.0391 2.62692 30.7336 2.62692 24.4459C2.62692 19.0165 6.2783 14.7649 10.9394 14.7649Z" fill="#1F1F1F"/>
<path d="M19.25 29.6262V34.1254C19.25 34.3575 19.3422 34.58 19.5063 34.7441C19.6704 34.9082 19.8929 35.0004 20.125 35.0004C20.3571 35.0004 20.5796 34.9082 20.7437 34.7441C20.9078 34.58 21 34.3575 21 34.1254V29.6262C21.8248 29.4132 22.5437 28.9067 23.0218 28.2017C23.4999 27.4966 23.7045 26.6414 23.5971 25.7963C23.4898 24.9512 23.0779 24.1743 22.4387 23.6111C21.7995 23.048 20.9769 22.7373 20.125 22.7373C19.2731 22.7373 18.4505 23.048 17.8113 23.6111C17.1721 24.1743 16.7602 24.9512 16.6529 25.7963C16.5456 26.6414 16.7501 27.4966 17.2282 28.2017C17.7063 28.9067 18.4252 29.4132 19.25 29.6262ZM20.125 24.5004C20.4711 24.5004 20.8095 24.6031 21.0973 24.7953C21.385 24.9876 21.6093 25.2609 21.7418 25.5807C21.8743 25.9005 21.9089 26.2524 21.8414 26.5918C21.7739 26.9313 21.6072 27.2431 21.3624 27.4879C21.1177 27.7326 20.8059 27.8993 20.4664 27.9668C20.1269 28.0343 19.7751 27.9997 19.4553 27.8672C19.1355 27.7348 18.8622 27.5104 18.6699 27.2227C18.4776 26.9349 18.375 26.5965 18.375 26.2504C18.375 25.7863 18.5594 25.3412 18.8876 25.013C19.2158 24.6848 19.6609 24.5004 20.125 24.5004V24.5004Z" fill="#1F1F1F"/>
</svg>
