<svg width="56" height="56" viewBox="0 0 56 56" fill="none" xmlns="http://www.w3.org/2000/svg">
<path d="M20.7608 20.7625C17.9448 23.5785 16.0271 27.1663 15.2502 31.0722C14.4733 34.9781 14.872 39.0267 16.396 42.7059C17.92 46.3852 20.5009 49.5299 23.8121 51.7424C27.1234 53.9549 31.0164 55.1359 34.9988 55.1359C38.9812 55.1359 42.8742 53.9549 46.1855 51.7424C49.4967 49.5299 52.0775 46.3852 53.6016 42.7059C55.1256 39.0267 55.5243 34.9781 54.7474 31.0722C53.9705 27.1663 52.0528 23.5785 49.2368 20.7625C45.4575 16.9923 40.3371 14.875 34.9988 14.875C29.6605 14.875 24.5401 16.9923 20.7608 20.7625ZM40.5988 47.8341C37.5686 49.1521 34.1699 49.3558 31.004 48.4091C27.8381 47.4625 25.109 45.4265 23.2998 42.6614C21.4905 39.8963 20.7176 36.5804 21.1178 33.3003C21.5181 30.0202 23.0656 26.9874 25.4867 24.7385H23.8618C23.6297 24.7385 23.4072 24.6463 23.2431 24.4822C23.079 24.3181 22.9868 24.0955 22.9868 23.8635C22.9868 23.6314 23.079 23.4089 23.2431 23.2448C23.4072 23.0807 23.6297 22.9885 23.8618 22.9885H27.5744C27.8065 22.9885 28.029 23.0807 28.1931 23.2448C28.3572 23.4089 28.4494 23.6314 28.4494 23.8635V27.5752C28.4494 27.8073 28.3572 28.0299 28.1931 28.1939C28.029 28.358 27.8065 28.4502 27.5744 28.4502C27.3424 28.4502 27.1198 28.358 26.9557 28.1939C26.7916 28.0299 26.6994 27.8073 26.6994 27.5752V26.0002C25.4495 27.1417 24.4524 28.532 23.772 30.0819C23.0916 31.6318 22.7431 33.307 22.7488 34.9996C22.7501 37.0333 23.2573 39.0346 24.2249 40.8234C25.1924 42.6122 26.5897 44.1321 28.291 45.2463C29.9923 46.3605 31.944 47.0338 33.9704 47.2058C35.9968 47.3777 38.0341 47.0427 39.8988 46.2311C40.0047 46.1809 40.1196 46.1525 40.2366 46.1476C40.3537 46.1427 40.4706 46.1613 40.5803 46.2024C40.69 46.2435 40.7904 46.3062 40.8754 46.3868C40.9604 46.4674 41.0284 46.5643 41.0753 46.6717C41.1222 46.7791 41.147 46.8948 41.1484 47.0119C41.1497 47.1291 41.1275 47.2453 41.083 47.3537C41.0386 47.4621 40.9728 47.5605 40.8897 47.643C40.8065 47.7256 40.7076 47.7905 40.5988 47.8341ZM44.3674 44.3682C44.2033 44.5323 43.9808 44.6244 43.7488 44.6244C43.5168 44.6244 43.2943 44.5323 43.1302 44.3682L34.3802 35.6182C34.2161 35.4542 34.1238 35.2316 34.1238 34.9996V21.8746C34.1238 21.6425 34.216 21.42 34.3801 21.2559C34.5442 21.0918 34.7667 20.9996 34.9988 20.9996C35.2309 20.9996 35.4534 21.0918 35.6175 21.2559C35.7816 21.42 35.8738 21.6425 35.8738 21.8746V34.6374L44.3674 43.131C44.5315 43.2951 44.6236 43.5176 44.6236 43.7496C44.6236 43.9816 44.5315 44.2041 44.3674 44.3682ZM50.1302 34.381C50.2952 34.2216 50.5162 34.1334 50.7456 34.1354C50.9751 34.1374 51.1945 34.2294 51.3568 34.3916C51.519 34.5539 51.611 34.7733 51.613 35.0027C51.615 35.2322 51.5268 35.4532 51.3674 35.6182L48.7424 38.2432C48.6611 38.3247 48.5646 38.3894 48.4583 38.4335C48.352 38.4776 48.238 38.5003 48.1229 38.5003C48.0078 38.5003 47.8939 38.4776 47.7876 38.4335C47.6813 38.3894 47.5847 38.3247 47.5034 38.2432L44.8784 35.6182C44.719 35.4532 44.6308 35.2322 44.6328 35.0027C44.6348 34.7733 44.7268 34.5539 44.8891 34.3916C45.0513 34.2294 45.2708 34.1374 45.5002 34.1354C45.7296 34.1334 45.9506 34.2216 46.1157 34.381L47.2488 35.5124V34.9996C47.2488 32.6155 46.5535 30.2831 45.248 28.2882C43.9425 26.2933 42.0835 24.7225 39.8988 23.7681C39.79 23.7245 39.6911 23.6596 39.6079 23.577C39.5247 23.4945 39.459 23.3961 39.4145 23.2877C39.3701 23.1793 39.3479 23.0631 39.3492 22.9459C39.3505 22.8288 39.3754 22.7131 39.4223 22.6057C39.4692 22.4983 39.5371 22.4014 39.6222 22.3208C39.7072 22.2402 39.8076 22.1775 39.9173 22.1364C40.027 22.0953 40.1439 22.0767 40.261 22.0816C40.378 22.0865 40.4929 22.1149 40.5988 22.1651C43.0956 23.2555 45.2201 25.0505 46.7121 27.3301C48.2041 29.6098 48.9988 32.2751 48.9988 34.9996V35.5124L50.1302 34.381Z" fill="#4ABD7F"/>
<path d="M36.75 5.51775V2.625H38.5C38.7321 2.625 38.9546 2.53281 39.1187 2.36872C39.2828 2.20462 39.375 1.98206 39.375 1.75C39.375 1.51794 39.2828 1.29538 39.1187 1.13128C38.9546 0.967187 38.7321 0.875 38.5 0.875H1.75C1.51794 0.875 1.29538 0.967187 1.13128 1.13128C0.967187 1.29538 0.875 1.51794 0.875 1.75C0.875 1.98206 0.967187 2.20462 1.13128 2.36872C1.29538 2.53281 1.51794 2.625 1.75 2.625H3.5V5.51775C3.50034 6.10779 3.69947 6.68051 4.06525 7.1435L16.3739 22.7351L4.1125 37.45C3.71724 37.922 3.50044 38.5179 3.5 39.1335V42.875H1.75C1.51794 42.875 1.29538 42.9672 1.13128 43.1313C0.967187 43.2954 0.875 43.5179 0.875 43.75C0.875 43.9821 0.967187 44.2046 1.13128 44.3687C1.29538 44.5328 1.51794 44.625 1.75 44.625H38.5C38.7321 44.625 38.9546 44.5328 39.1187 44.3687C39.2828 44.2046 39.375 43.9821 39.375 43.75C39.375 43.5179 39.2828 43.2954 39.1187 43.1313C38.9546 42.9672 38.7321 42.875 38.5 42.875H36.75V39.1335C36.7486 38.5188 36.5319 37.9241 36.1375 37.4526L23.8761 22.7351L36.1847 7.14525C36.5505 6.68159 36.7496 6.10832 36.75 5.51775ZM17.9104 23.625H19.25V34.335L5.894 38.045L17.9104 23.625ZM5.25 42.875V40.04L20.125 35.9082L35 40.04V42.875H5.25ZM34.3569 38.045L21 34.335V23.625H22.3396L34.3569 38.045ZM22.3256 21.875H17.9244L11.0171 13.125H29.2329L22.3256 21.875ZM34.811 6.05938L30.6145 11.375H9.6355L5.4355 6.0585C5.31487 5.9041 5.24955 5.71369 5.25 5.51775V2.625H35V5.51775C34.9997 5.7144 34.9331 5.9052 34.811 6.05938Z" fill="#1F1F1F"/>
</svg>
