<svg width="56" height="56" viewBox="0 0 56 56" fill="none" xmlns="http://www.w3.org/2000/svg">
<path d="M52.0623 27.125H11.8123C11.6393 27.125 11.4701 27.1764 11.3263 27.2725C11.1824 27.3687 11.0703 27.5053 11.0041 27.6652C10.9379 27.825 10.9206 28.0009 10.9543 28.1707C10.988 28.3404 11.0714 28.4963 11.1937 28.6186L16.1873 33.6123V52.5C16.1873 53.1962 16.4639 53.8639 16.9562 54.3562C17.4484 54.8484 18.1161 55.125 18.8123 55.125H52.0623C52.7585 55.125 53.4262 54.8484 53.9185 54.3562C54.4108 53.8639 54.6873 53.1962 54.6873 52.5V29.75C54.6873 29.0538 54.4108 28.3861 53.9185 27.8938C53.4262 27.4016 52.7585 27.125 52.0623 27.125ZM24.9373 34.125H38.0623C38.2944 34.125 38.5169 34.2172 38.681 34.3813C38.8451 34.5454 38.9373 34.7679 38.9373 35C38.9373 35.2321 38.8451 35.4546 38.681 35.6187C38.5169 35.7828 38.2944 35.875 38.0623 35.875H24.9373C24.7052 35.875 24.4827 35.7828 24.3186 35.6187C24.1545 35.4546 24.0623 35.2321 24.0623 35C24.0623 34.7679 24.1545 34.5454 24.3186 34.3813C24.4827 34.2172 24.7052 34.125 24.9373 34.125ZM24.9373 40.25H29.3123C29.5444 40.25 29.7669 40.3422 29.931 40.5063C30.0951 40.6704 30.1873 40.8929 30.1873 41.125C30.1873 41.3571 30.0951 41.5796 29.931 41.7437C29.7669 41.9078 29.5444 42 29.3123 42H24.9373C24.7052 42 24.4827 41.9078 24.3186 41.7437C24.1545 41.5796 24.0623 41.3571 24.0623 41.125C24.0623 40.8929 24.1545 40.6704 24.3186 40.5063C24.4827 40.3422 24.7052 40.25 24.9373 40.25ZM40.6873 48.125H24.9373C24.7052 48.125 24.4827 48.0328 24.3186 47.8687C24.1545 47.7046 24.0623 47.4821 24.0623 47.25C24.0623 47.0179 24.1545 46.7954 24.3186 46.6313C24.4827 46.4672 24.7052 46.375 24.9373 46.375H40.6873C40.9194 46.375 41.1419 46.4672 41.306 46.6313C41.4701 46.7954 41.5623 47.0179 41.5623 47.25C41.5623 47.4821 41.4701 47.7046 41.306 47.8687C41.1419 48.0328 40.9194 48.125 40.6873 48.125ZM45.9373 48.125H44.1873C43.9552 48.125 43.7327 48.0328 43.5686 47.8687C43.4045 47.7046 43.3123 47.4821 43.3123 47.25C43.3123 47.0179 43.4045 46.7954 43.5686 46.6313C43.7327 46.4672 43.9552 46.375 44.1873 46.375H45.9373C46.1694 46.375 46.3919 46.4672 46.556 46.6313C46.7201 46.7954 46.8123 47.0179 46.8123 47.25C46.8123 47.4821 46.7201 47.7046 46.556 47.8687C46.3919 48.0328 46.1694 48.125 45.9373 48.125ZM45.9373 42H32.8123C32.5802 42 32.3577 41.9078 32.1936 41.7437C32.0295 41.5796 31.9373 41.3571 31.9373 41.125C31.9373 40.8929 32.0295 40.6704 32.1936 40.5063C32.3577 40.3422 32.5802 40.25 32.8123 40.25H45.9373C46.1694 40.25 46.3919 40.3422 46.556 40.5063C46.7201 40.6704 46.8123 40.8929 46.8123 41.125C46.8123 41.3571 46.7201 41.5796 46.556 41.7437C46.3919 41.9078 46.1694 42 45.9373 42ZM45.9373 35.875H41.5623C41.3302 35.875 41.1077 35.7828 40.9436 35.6187C40.7795 35.4546 40.6873 35.2321 40.6873 35C40.6873 34.7679 40.7795 34.5454 40.9436 34.3813C41.1077 34.2172 41.3302 34.125 41.5623 34.125H45.9373C46.1694 34.125 46.3919 34.2172 46.556 34.3813C46.7201 34.5454 46.8123 34.7679 46.8123 35C46.8123 35.2321 46.7201 35.4546 46.556 35.6187C46.3919 35.7828 46.1694 35.875 45.9373 35.875Z" fill="#4ABD7F"/>
<path d="M44.1859 20.1247C44.1876 18.4079 43.6831 16.7286 42.7357 15.2969C41.7882 13.8651 40.4398 12.7444 38.8589 12.0747C39.9481 11.3414 40.7727 10.2774 41.2112 9.03978C41.6498 7.80214 41.679 6.45633 41.2945 5.20084C40.9101 3.94534 40.1324 2.84661 39.0761 2.0667C38.0198 1.28678 36.7408 0.866961 35.4277 0.869149C34.1147 0.871338 32.8371 1.29542 31.7834 2.07885C30.7297 2.86228 29.9557 3.9636 29.5754 5.22037C29.1952 6.47714 29.2288 7.82284 29.6715 9.05901C30.1141 10.2952 30.9423 11.3564 32.0339 12.0861C30.4331 12.8029 29.0754 13.9698 28.1261 15.4447C27.1769 16.9195 26.6771 18.6386 26.6877 20.3925V20.9997C26.6877 21.6959 26.9642 22.3636 27.4565 22.8559C27.9488 23.3482 28.6165 23.6247 29.3127 23.6247H41.5627C42.2589 23.6247 42.9265 23.3482 43.4188 22.8559C43.9111 22.3636 44.1877 21.6959 44.1877 20.9997L44.1859 20.1247ZM31.0609 6.99974C31.0609 6.13445 31.3175 5.28859 31.7982 4.56913C32.279 3.84966 32.9623 3.28891 33.7617 2.95777C34.5611 2.62664 35.4408 2.54 36.2894 2.70881C37.1381 2.87762 37.9177 3.2943 38.5295 3.90615C39.1414 4.51801 39.558 5.29756 39.7269 6.14622C39.8957 6.99489 39.809 7.87456 39.4779 8.67398C39.1468 9.47341 38.586 10.1567 37.8665 10.6374C37.1471 11.1182 36.3012 11.3747 35.4359 11.3747C34.276 11.3734 33.164 10.912 32.3439 10.0918C31.5237 9.27163 31.0623 8.15964 31.0609 6.99974V6.99974ZM42.4359 20.9997C42.4359 21.2318 42.3437 21.4544 42.1796 21.6185C42.0155 21.7826 41.793 21.8747 41.5609 21.8747H29.3109C29.0789 21.8747 28.8563 21.7826 28.6922 21.6185C28.5281 21.4544 28.4359 21.2318 28.4359 20.9997V20.3942C28.4177 19.4568 28.5845 18.525 28.9268 17.6521C29.2691 16.7791 29.7802 15.9823 30.4307 15.3071C31.0813 14.6319 31.8586 14.0916 32.7182 13.7171C33.5778 13.3427 34.5028 13.1414 35.4403 13.1247C37.2961 13.1259 39.0754 13.8639 40.3872 15.1765C41.699 16.4892 42.4359 18.269 42.4359 20.1247V20.9997Z" fill="#1F1F1F"/>
<path d="M3.93766 41.3948V42.0003C3.93766 42.6965 4.21422 43.3641 4.70651 43.8564C5.19879 44.3487 5.86647 44.6253 6.56266 44.6253H18.8127C19.5089 44.6253 20.1765 44.3487 20.6688 43.8564C21.1611 43.3641 21.4377 42.6965 21.4377 42.0003V41.1253C21.4372 39.409 20.932 37.7308 19.985 36.2994C19.038 34.8681 17.691 33.7468 16.1115 33.0753C17.2006 32.3418 18.0251 31.2777 18.4635 30.04C18.9018 28.8023 18.9309 27.4565 18.5463 26.2011C18.1617 24.9456 17.3838 23.847 16.3274 23.0672C15.271 22.2874 13.9919 21.8678 12.6789 21.8701C11.3659 21.8725 10.0884 22.2967 9.03475 23.0803C7.98115 23.8639 7.20723 24.9653 6.82714 26.2221C6.44705 27.4789 6.48091 28.8246 6.92372 30.0607C7.36654 31.2968 8.19486 32.3579 9.28654 33.0875C7.68513 33.804 6.32676 34.9708 5.37701 36.4459C4.42725 37.9209 3.92715 39.6404 3.93766 41.3948V41.3948ZM8.31266 28.0003C8.31266 27.135 8.56925 26.2891 9.04998 25.5697C9.53071 24.8502 10.214 24.2894 11.0134 23.9583C11.8128 23.6272 12.6925 23.5405 13.5412 23.7093C14.3898 23.8782 15.1694 24.2948 15.7813 24.9067C16.3931 25.5185 16.8098 26.2981 16.9786 27.1468C17.1474 27.9954 17.0608 28.8751 16.7296 29.6745C16.3985 30.4739 15.8377 31.1572 15.1183 31.638C14.3988 32.1187 13.553 32.3753 12.6877 32.3753C11.5278 32.3739 10.4158 31.9125 9.5956 31.0923C8.77543 30.2722 8.31405 29.1602 8.31266 28.0003V28.0003ZM12.692 34.1253C13.6111 34.125 14.5213 34.306 15.3704 34.6577C16.2196 35.0095 16.991 35.5252 17.6408 36.1753C18.2905 36.8254 18.8057 37.5972 19.1569 38.4465C19.5081 39.2959 19.6885 40.2062 19.6877 41.1253V42.0003C19.6877 42.2323 19.5955 42.4549 19.4314 42.619C19.2673 42.7831 19.0447 42.8753 18.8127 42.8753H6.56266C6.3306 42.8753 6.10804 42.7831 5.94394 42.619C5.77985 42.4549 5.68766 42.2323 5.68766 42.0003V41.3948C5.66946 40.4573 5.83627 39.5255 6.17856 38.6526C6.52086 37.7797 7.03191 36.9828 7.68248 36.3076C8.33305 35.6324 9.11037 35.0921 9.96997 34.7177C10.8296 34.3432 11.7546 34.1419 12.692 34.1253V34.1253Z" fill="#1F1F1F"/>
<path d="M3.9375 18.375H20.5625C21.2587 18.375 21.9264 18.0984 22.4187 17.6062C22.9109 17.1139 23.1875 16.4462 23.1875 15.75V7.36225L28.1811 2.36863C28.3035 2.24625 28.3868 2.09036 28.4205 1.92065C28.4543 1.75094 28.4369 1.57504 28.3707 1.41518C28.3045 1.25531 28.1924 1.11867 28.0485 1.02252C27.9047 0.926375 27.7355 0.875037 27.5625 0.875H3.9375C3.24131 0.875 2.57363 1.15156 2.08134 1.64384C1.58906 2.13613 1.3125 2.80381 1.3125 3.5V15.75C1.3125 16.4462 1.58906 17.1139 2.08134 17.6062C2.57363 18.0984 3.24131 18.375 3.9375 18.375ZM3.0625 3.5C3.0625 3.26794 3.15469 3.04538 3.31878 2.88128C3.48288 2.71719 3.70544 2.625 3.9375 2.625H25.4503L21.6939 6.38138C21.5298 6.54543 21.4375 6.76795 21.4375 7V15.75C21.4375 15.9821 21.3453 16.2046 21.1812 16.3687C21.0171 16.5328 20.7946 16.625 20.5625 16.625H3.9375C3.70544 16.625 3.48288 16.5328 3.31878 16.3687C3.15469 16.2046 3.0625 15.9821 3.0625 15.75V3.5Z" fill="#1F1F1F"/>
<path d="M7.4375 7.875H17.0625C17.2946 7.875 17.5171 7.78281 17.6812 7.61872C17.8453 7.45462 17.9375 7.23206 17.9375 7C17.9375 6.76794 17.8453 6.54538 17.6812 6.38128C17.5171 6.21719 17.2946 6.125 17.0625 6.125H7.4375C7.20544 6.125 6.98288 6.21719 6.81878 6.38128C6.65469 6.54538 6.5625 6.76794 6.5625 7C6.5625 7.23206 6.65469 7.45462 6.81878 7.61872C6.98288 7.78281 7.20544 7.875 7.4375 7.875V7.875Z" fill="#1F1F1F"/>
<path d="M7.4375 13.125H17.0625C17.2946 13.125 17.5171 13.0328 17.6812 12.8687C17.8453 12.7046 17.9375 12.4821 17.9375 12.25C17.9375 12.0179 17.8453 11.7954 17.6812 11.6313C17.5171 11.4672 17.2946 11.375 17.0625 11.375H7.4375C7.20544 11.375 6.98288 11.4672 6.81878 11.6313C6.65469 11.7954 6.5625 12.0179 6.5625 12.25C6.5625 12.4821 6.65469 12.7046 6.81878 12.8687C6.98288 13.0328 7.20544 13.125 7.4375 13.125V13.125Z" fill="#1F1F1F"/>
</svg>
