<svg width="129" height="332" viewBox="0 0 129 332" fill="none" xmlns="http://www.w3.org/2000/svg">
<path opacity="0.1" d="M-72.0289 141.683L-72.213 141.483L-72.2145 141.484L-72.0289 141.683ZM-28.0737 130.398L-27.8019 130.385L-27.813 130.158L-28.0375 130.128L-28.0737 130.398ZM-86.9848 184.552L-87.2568 184.562L-87.248 184.791L-87.0211 184.821L-86.9848 184.552ZM59.3937 19.9525L59.2471 19.7232L59.2455 19.7243L59.3937 19.9525ZM104.645 16.4562L104.915 16.4903L104.943 16.2655L104.727 16.1968L104.645 16.4562ZM37.2062 59.5777L36.9365 59.5407L36.9054 59.7676L37.1237 59.837L37.2062 59.5777ZM85.3901 183.101L85.161 183.248L85.1621 183.25L85.3901 183.101ZM81.8868 137.94L81.9208 137.67L81.6963 137.642L81.6275 137.857L81.8868 137.94ZM125.094 205.245L125.057 205.514L125.284 205.545L125.353 205.327L125.094 205.245ZM9.48526 165.619L9.25623 165.766L9.25729 165.768L9.48526 165.619ZM5.98195 120.458L6.01598 120.188L5.79151 120.16L5.72269 120.376L5.98195 120.458ZM49.1893 187.763L49.1525 188.033L49.379 188.063L49.4486 187.846L49.1893 187.763ZM50.6355 120.181L50.7821 119.952L50.7795 119.951L50.6355 120.181ZM95.8864 123.678L95.9689 123.937L96.1849 123.868L96.1564 123.644L95.8864 123.678ZM28.4479 80.5563L28.3654 80.2969L28.1497 80.3655L28.1779 80.5901L28.4479 80.5563ZM59.3937 248.38L59.5403 248.151L59.5378 248.15L59.3937 248.38ZM104.645 251.877L104.727 252.136L104.943 252.067L104.915 251.843L104.645 251.877ZM37.2062 208.755L37.1237 208.496L36.908 208.565L36.9361 208.789L37.2062 208.755ZM-30.4677 215.405L-30.2019 215.347L-30.2026 215.344L-30.4677 215.405ZM-0.947708 249.811L-1.07243 250.053L-0.871552 250.157L-0.732834 249.978L-0.947708 249.811ZM-18.0817 171.728L-17.957 171.487L-18.1576 171.383L-18.2964 171.561L-18.0817 171.728ZM7.48467 296.987L7.75051 296.928L7.74983 296.925L7.48467 296.987ZM37.0047 331.393L36.88 331.634L37.0808 331.738L37.2196 331.56L37.0047 331.393ZM19.8707 253.31L19.9954 253.068L19.7948 252.964L19.656 253.142L19.8707 253.31ZM19.4104 46.1613L19.1814 46.0143L19.1798 46.0168L19.4104 46.1613ZM22.9138 1.00018L23.173 0.917419L23.1042 0.701874L22.8797 0.730164L22.9138 1.00018ZM-20.2936 68.3047L-20.5529 68.3875L-20.4841 68.6028L-20.2599 68.5748L-20.2936 68.3047ZM-71.8447 141.884C-63.7461 134.44 -52.8257 131.629 -43.902 130.685C-39.4437 130.214 -35.4931 130.21 -32.6574 130.323C-31.2397 130.38 -30.1012 130.467 -29.3179 130.538C-28.9262 130.574 -28.6234 130.607 -28.4189 130.63C-28.3167 130.642 -28.239 130.651 -28.1871 130.658C-28.1612 130.661 -28.1417 130.663 -28.1288 130.665C-28.1223 130.666 -28.1176 130.667 -28.1144 130.667C-28.1128 130.667 -28.1117 130.667 -28.111 130.667C-28.1106 130.668 -28.1104 130.668 -28.1102 130.668C-28.11 130.668 -28.11 130.668 -28.0737 130.398C-28.0375 130.128 -28.0376 130.128 -28.0379 130.128C-28.0382 130.128 -28.0386 130.128 -28.039 130.128C-28.04 130.128 -28.0414 130.128 -28.0431 130.127C-28.0467 130.127 -28.052 130.126 -28.0589 130.125C-28.0726 130.124 -28.093 130.121 -28.1199 130.118C-28.1735 130.111 -28.2531 130.101 -28.3572 130.089C-28.5654 130.066 -28.8723 130.033 -29.2681 129.996C-30.0597 129.924 -31.2076 129.837 -32.6356 129.78C-35.4911 129.665 -39.4689 129.669 -43.9592 130.144C-52.9325 131.093 -63.9897 133.924 -72.213 141.483L-71.8447 141.884ZM-28.0737 130.398C-28.3456 130.411 -28.3456 130.411 -28.3456 130.411C-28.3456 130.412 -28.3455 130.412 -28.3455 130.412C-28.3455 130.413 -28.3454 130.414 -28.3454 130.416C-28.3452 130.419 -28.345 130.424 -28.3447 130.43C-28.3441 130.443 -28.3433 130.463 -28.3423 130.489C-28.3402 130.541 -28.3374 130.619 -28.3344 130.722C-28.3284 130.928 -28.3218 131.233 -28.3191 131.626C-28.3136 132.414 -28.324 133.556 -28.3872 134.974C-28.5137 137.811 -28.8519 141.75 -29.6983 146.155C-31.3923 154.972 -35.1153 165.622 -43.2139 173.066L-42.8455 173.467C-34.6222 165.908 -30.8672 155.124 -29.1637 146.258C-28.3113 141.821 -27.9709 137.855 -27.8435 134.998C-27.7797 133.57 -27.7693 132.418 -27.7748 131.623C-27.7775 131.225 -27.7843 130.916 -27.7903 130.707C-27.7934 130.602 -27.7962 130.522 -27.7984 130.468C-27.7994 130.441 -27.8003 130.42 -27.8009 130.406C-27.8012 130.399 -27.8015 130.394 -27.8016 130.39C-27.8017 130.389 -27.8018 130.387 -27.8018 130.386C-27.8018 130.386 -27.8019 130.385 -27.8019 130.385C-27.8019 130.385 -27.8019 130.385 -28.0737 130.398ZM-43.2139 173.066C-51.3124 180.51 -62.2328 183.321 -71.1566 184.264C-75.6148 184.735 -79.5655 184.74 -82.4012 184.626C-83.8189 184.569 -84.9574 184.483 -85.7407 184.411C-86.1323 184.375 -86.4352 184.343 -86.6396 184.319C-86.7419 184.308 -86.8195 184.298 -86.8714 184.292C-86.8974 184.288 -86.9169 184.286 -86.9298 184.284C-86.9362 184.283 -86.941 184.283 -86.9442 184.282C-86.9457 184.282 -86.9469 184.282 -86.9476 184.282C-86.948 184.282 -86.9482 184.282 -86.9484 184.282C-86.9485 184.282 -86.9486 184.282 -86.9848 184.552C-87.0211 184.821 -87.0209 184.821 -87.0206 184.821C-87.0204 184.821 -87.02 184.821 -87.0195 184.822C-87.0186 184.822 -87.0172 184.822 -87.0154 184.822C-87.0119 184.823 -87.0066 184.823 -86.9997 184.824C-86.9859 184.826 -86.9656 184.828 -86.9387 184.832C-86.885 184.839 -86.8055 184.848 -86.7014 184.86C-86.4931 184.884 -86.1863 184.917 -85.7905 184.953C-84.9989 185.026 -83.851 185.113 -82.423 185.17C-79.5675 185.284 -75.5897 185.28 -71.0994 184.805C-62.1261 183.857 -51.0689 181.025 -42.8455 173.467L-43.2139 173.066ZM-86.9848 184.552C-86.7129 184.541 -86.7129 184.541 -86.7129 184.541C-86.7129 184.541 -86.7129 184.54 -86.7129 184.54C-86.713 184.539 -86.713 184.538 -86.7131 184.537C-86.7132 184.533 -86.7133 184.529 -86.7136 184.522C-86.714 184.509 -86.7146 184.489 -86.7154 184.463C-86.7169 184.411 -86.719 184.332 -86.7209 184.229C-86.7249 184.023 -86.7286 183.718 -86.7277 183.323C-86.7259 182.535 -86.7055 181.391 -86.631 179.97C-86.4821 177.129 -86.117 173.185 -85.2527 168.777C-83.5225 159.952 -79.7992 149.301 -71.8433 141.882L-72.2145 141.484C-80.2929 149.017 -84.0476 159.801 -85.7868 168.672C-86.6572 173.111 -87.0246 177.081 -87.1746 179.942C-87.2496 181.372 -87.2702 182.526 -87.272 183.322C-87.2729 183.721 -87.2691 184.03 -87.2651 184.24C-87.2631 184.345 -87.2611 184.425 -87.2595 184.479C-87.2587 184.506 -87.258 184.527 -87.2576 184.541C-87.2573 184.547 -87.2571 184.553 -87.257 184.556C-87.2569 184.558 -87.2569 184.56 -87.2569 184.56C-87.2568 184.561 -87.2568 184.561 -87.2568 184.562C-87.2568 184.562 -87.2568 184.562 -86.9848 184.552ZM59.5403 20.1818C68.8111 14.2545 80.0547 13.3788 89.0071 13.9962C93.4796 14.3046 97.3709 14.9851 100.144 15.5885C101.53 15.8902 102.636 16.1724 103.395 16.379C103.775 16.4823 104.067 16.5667 104.264 16.6252C104.363 16.6544 104.438 16.6771 104.488 16.6924C104.513 16.7001 104.532 16.706 104.544 16.7098C104.55 16.7118 104.555 16.7132 104.558 16.7142C104.559 16.7147 104.561 16.715 104.561 16.7152C104.562 16.7153 104.562 16.7154 104.562 16.7155C104.562 16.7155 104.562 16.7155 104.645 16.4562C104.727 16.1968 104.727 16.1967 104.727 16.1967C104.726 16.1966 104.726 16.1965 104.726 16.1963C104.725 16.196 104.723 16.1956 104.722 16.1951C104.718 16.194 104.713 16.1924 104.707 16.1903C104.693 16.1862 104.674 16.1801 104.648 16.1721C104.596 16.1562 104.52 16.133 104.419 16.1032C104.218 16.0437 103.922 15.9583 103.538 15.8539C102.771 15.6451 101.656 15.3605 100.26 15.0567C97.4673 14.4491 93.5492 13.7638 89.0445 13.4532C80.0424 12.8323 68.6606 13.7047 59.2471 19.7232L59.5403 20.1818ZM104.645 16.4562C104.375 16.422 104.375 16.422 104.375 16.4221C104.375 16.4223 104.375 16.4226 104.375 16.4229C104.374 16.4237 104.374 16.4248 104.374 16.4264C104.374 16.4295 104.373 16.4343 104.372 16.4408C104.371 16.4537 104.368 16.4732 104.364 16.4991C104.357 16.551 104.346 16.6285 104.332 16.7304C104.302 16.9341 104.255 17.2353 104.189 17.6234C104.058 18.3994 103.849 19.5227 103.54 20.9085C102.921 23.6804 101.903 27.5005 100.303 31.692C97.1007 40.0818 91.5813 49.9247 82.3105 55.852L82.6037 56.3106C92.0171 50.2921 97.5915 40.3224 100.812 31.8861C102.423 27.6646 103.448 23.8182 104.071 21.0269C104.382 19.6311 104.593 18.4986 104.726 17.7143C104.792 17.3222 104.84 17.017 104.87 16.8095C104.885 16.7057 104.896 16.6264 104.904 16.5728C104.907 16.5459 104.91 16.5255 104.912 16.5117C104.913 16.5049 104.913 16.4996 104.914 16.496C104.914 16.4942 104.914 16.4929 104.914 16.4919C104.915 16.4915 104.915 16.4911 104.915 16.4908C104.915 16.4905 104.915 16.4903 104.645 16.4562ZM82.3105 55.852C73.0397 61.7793 61.7961 62.6551 52.8438 62.0377C48.3712 61.7292 44.4799 61.0487 41.707 60.4453C40.3208 60.1437 39.2146 59.8614 38.4557 59.6548C38.0762 59.5515 37.7837 59.4671 37.5863 59.4087C37.4877 59.3795 37.4128 59.3568 37.3629 59.3414C37.3379 59.3337 37.3191 59.3279 37.3067 59.324C37.3005 59.3221 37.2959 59.3206 37.2929 59.3197C37.2914 59.3192 37.2903 59.3188 37.2895 59.3186C37.2892 59.3185 37.289 59.3184 37.2888 59.3184C37.2887 59.3183 37.2886 59.3183 37.2062 59.5777C37.1237 59.837 37.1238 59.8371 37.1241 59.8372C37.1244 59.8372 37.1247 59.8374 37.1252 59.8375C37.1261 59.8378 37.1274 59.8382 37.1291 59.8388C37.1326 59.8398 37.1376 59.8414 37.1442 59.8435C37.1575 59.8477 37.1771 59.8538 37.203 59.8617C37.2547 59.8776 37.3313 59.9008 37.4318 59.9306C37.6328 59.9901 37.9292 60.0756 38.3127 60.18C39.0797 60.3888 40.195 60.6733 41.5913 60.9772C44.3835 61.5848 48.3016 62.27 52.8063 62.5807C61.8084 63.2015 73.1902 62.3291 82.6037 56.3106L82.3105 55.852ZM37.2062 59.5777C37.4758 59.6147 37.4758 59.6146 37.4758 59.6145C37.4758 59.6143 37.4759 59.6141 37.4759 59.6137C37.476 59.613 37.4762 59.6118 37.4764 59.6102C37.4768 59.6071 37.4775 59.6023 37.4784 59.5958C37.4803 59.5829 37.4831 59.5634 37.4869 59.5374C37.4945 59.4856 37.5061 59.408 37.5221 59.3061C37.5541 59.1023 37.6036 58.8011 37.673 58.413C37.812 57.6368 38.0312 56.5134 38.3517 55.1274C38.9927 52.3552 40.0384 48.5347 41.6567 44.3428C44.8961 35.9518 50.416 26.1081 59.542 20.1808L59.2455 19.7243C49.9792 25.7428 44.4053 35.7117 41.1489 44.1468C39.5194 48.3679 38.4667 52.2139 37.8214 55.0048C37.4987 56.4005 37.2777 57.5329 37.1373 58.317C37.0671 58.7091 37.017 59.0142 36.9844 59.2217C36.9681 59.3254 36.9562 59.4048 36.9483 59.4584C36.9444 59.4852 36.9415 59.5056 36.9395 59.5193C36.9385 59.5262 36.9378 59.5315 36.9373 59.535C36.9371 59.5368 36.9369 59.5382 36.9367 59.5391C36.9367 59.5396 36.9366 59.54 36.9366 59.5403C36.9366 59.5405 36.9365 59.5407 37.2062 59.5777ZM85.6191 182.954C79.6802 173.702 78.8027 162.481 79.4213 153.547C79.7304 149.083 80.4122 145.2 81.0168 142.432C81.319 141.049 81.6018 139.945 81.8089 139.188C81.9124 138.809 81.9969 138.517 82.0555 138.32C82.0847 138.222 82.1075 138.147 82.1229 138.097C82.1306 138.072 82.1364 138.053 82.1403 138.041C82.1423 138.035 82.1437 138.03 82.1447 138.027C82.1451 138.026 82.1455 138.024 82.1457 138.024C82.1458 138.023 82.1459 138.023 82.146 138.023C82.146 138.023 82.146 138.023 81.8868 137.94C81.6275 137.857 81.6274 137.857 81.6273 137.858C81.6273 137.858 81.6272 137.858 81.627 137.859C81.6267 137.86 81.6263 137.861 81.6258 137.863C81.6247 137.866 81.6231 137.871 81.621 137.878C81.6169 137.891 81.6107 137.911 81.6028 137.936C81.5869 137.988 81.5635 138.065 81.5337 138.165C81.4741 138.365 81.3884 138.661 81.2838 139.044C81.0746 139.809 80.7895 140.923 80.485 142.316C79.8762 145.103 79.1896 149.013 78.8783 153.509C78.2562 162.493 79.1304 173.853 85.161 183.248L85.6191 182.954ZM81.8868 137.94C81.8527 138.21 81.8527 138.21 81.8529 138.21C81.8531 138.21 81.8533 138.21 81.8537 138.21C81.8544 138.21 81.8556 138.21 81.8571 138.211C81.8603 138.211 81.8651 138.212 81.8716 138.213C81.8845 138.214 81.904 138.217 81.93 138.22C81.982 138.227 82.0596 138.238 82.1617 138.253C82.3659 138.283 82.6677 138.329 83.0565 138.395C83.8342 138.526 84.9597 138.735 86.3483 139.043C89.1258 139.66 92.9536 140.677 97.1535 142.274C105.56 145.47 115.423 150.978 121.362 160.231L121.82 159.937C115.789 150.542 105.8 144.979 97.3469 141.765C93.117 140.157 89.2631 139.133 86.4663 138.512C85.0677 138.201 83.933 137.991 83.1472 137.858C82.7542 137.792 82.4485 137.745 82.2406 137.715C82.1366 137.699 82.0571 137.688 82.0033 137.681C81.9765 137.677 81.9561 137.675 81.9422 137.673C81.9353 137.672 81.9301 137.671 81.9265 137.671C81.9247 137.671 81.9233 137.67 81.9224 137.67C81.9219 137.67 81.9215 137.67 81.9213 137.67C81.921 137.67 81.9208 137.67 81.8868 137.94ZM121.362 160.231C127.301 169.483 128.178 180.704 127.56 189.638C127.25 194.101 126.569 197.985 125.964 200.752C125.662 202.136 125.379 203.24 125.172 203.997C125.068 204.376 124.984 204.668 124.925 204.865C124.896 204.963 124.873 205.038 124.858 205.088C124.85 205.113 124.844 205.131 124.841 205.144C124.839 205.15 124.837 205.155 124.836 205.158C124.836 205.159 124.835 205.16 124.835 205.161C124.835 205.161 124.835 205.161 124.835 205.162C124.835 205.162 124.835 205.162 125.094 205.245C125.353 205.327 125.353 205.327 125.354 205.327C125.354 205.327 125.354 205.326 125.354 205.326C125.354 205.325 125.355 205.324 125.355 205.322C125.356 205.318 125.358 205.313 125.36 205.307C125.364 205.294 125.37 205.274 125.378 205.248C125.394 205.197 125.417 205.12 125.447 205.02C125.507 204.819 125.592 204.523 125.697 204.141C125.906 203.375 126.191 202.262 126.496 200.869C127.105 198.082 127.791 194.171 128.103 189.676C128.725 180.691 127.851 169.332 121.82 159.937L121.362 160.231ZM125.094 205.245C125.131 204.975 125.131 204.975 125.131 204.975C125.131 204.975 125.13 204.975 125.13 204.975C125.129 204.975 125.128 204.975 125.127 204.974C125.123 204.974 125.119 204.973 125.112 204.972C125.099 204.97 125.08 204.968 125.054 204.964C125.002 204.956 124.924 204.945 124.822 204.929C124.618 204.897 124.316 204.847 123.927 204.778C123.149 204.639 122.023 204.421 120.635 204.101C117.857 203.461 114.029 202.417 109.828 200.802C101.42 197.569 91.5571 192.06 85.618 182.952L85.1621 183.25C91.1926 192.498 101.181 198.06 109.633 201.31C113.862 202.937 117.716 203.987 120.513 204.631C121.911 204.953 123.046 205.174 123.831 205.314C124.224 205.384 124.53 205.434 124.738 205.466C124.842 205.483 124.921 205.495 124.975 205.502C125.002 205.506 125.022 205.509 125.036 205.511C125.043 205.512 125.048 205.513 125.052 205.513C125.053 205.514 125.055 205.514 125.056 205.514C125.056 205.514 125.057 205.514 125.057 205.514C125.057 205.514 125.057 205.514 125.094 205.245ZM9.71429 165.472C3.77536 156.22 2.89787 144.999 3.5165 136.065C3.82557 131.601 4.50742 127.718 5.11199 124.951C5.41424 123.567 5.69704 122.463 5.90406 121.706C6.00757 121.327 6.09211 121.035 6.15066 120.838C6.17992 120.74 6.2027 120.665 6.21808 120.615C6.22578 120.59 6.23162 120.572 6.23551 120.559C6.23746 120.553 6.23891 120.548 6.23987 120.545C6.24034 120.544 6.24069 120.543 6.24091 120.542C6.24103 120.542 6.2411 120.542 6.24116 120.541C6.2412 120.541 6.2412 120.541 5.98195 120.458C5.72269 120.376 5.72263 120.376 5.72254 120.376C5.72247 120.376 5.72235 120.377 5.72221 120.377C5.72192 120.378 5.7215 120.379 5.72095 120.381C5.71987 120.385 5.71828 120.39 5.7162 120.396C5.71204 120.409 5.70593 120.429 5.69797 120.455C5.68204 120.506 5.65874 120.583 5.62892 120.683C5.56929 120.884 5.48363 121.18 5.37902 121.562C5.16979 122.328 4.88468 123.441 4.58023 124.834C3.97142 127.621 3.28481 131.532 2.9735 136.027C2.35139 145.012 3.22556 156.371 9.25623 165.766L9.71429 165.472ZM5.98195 120.458C5.94791 120.728 5.94793 120.728 5.94807 120.728C5.94825 120.728 5.94849 120.728 5.94885 120.729C5.94958 120.729 5.95074 120.729 5.95232 120.729C5.95547 120.729 5.96029 120.73 5.96676 120.731C5.9797 120.733 5.99924 120.735 6.02521 120.739C6.07716 120.746 6.15483 120.757 6.25693 120.771C6.46111 120.801 6.76291 120.848 7.15172 120.913C7.92937 121.045 9.0549 121.253 10.4435 121.562C13.221 122.179 17.0488 123.195 21.2487 124.792C29.6554 127.988 39.5179 133.497 45.457 142.749L45.915 142.455C39.8845 133.06 29.895 127.497 21.4421 124.283C17.2122 122.675 13.3582 121.652 10.5615 121.03C9.16293 120.72 8.0282 120.509 7.24236 120.377C6.84943 120.31 6.54369 120.263 6.33575 120.233C6.23179 120.218 6.15228 120.207 6.09854 120.199C6.07167 120.196 6.05125 120.193 6.03743 120.191C6.03053 120.19 6.02527 120.19 6.02169 120.189C6.0199 120.189 6.01852 120.189 6.01758 120.189C6.0171 120.189 6.0167 120.188 6.01646 120.188C6.01617 120.188 6.01598 120.188 5.98195 120.458ZM45.457 142.749C51.3959 152.001 52.2734 163.222 51.6548 172.156C51.3457 176.62 50.6638 180.503 50.0593 183.271C49.757 184.654 49.4742 185.758 49.2672 186.515C49.1637 186.894 49.0791 187.186 49.0206 187.383C48.9913 187.481 48.9686 187.556 48.9532 187.606C48.9455 187.631 48.9396 187.65 48.9357 187.662C48.9338 187.668 48.9323 187.673 48.9314 187.676C48.9309 187.677 48.9306 187.679 48.9303 187.679C48.9302 187.68 48.9302 187.68 48.9301 187.68C48.9301 187.68 48.9301 187.68 49.1893 187.763C49.4486 187.846 49.4486 187.846 49.4487 187.845C49.4488 187.845 49.4489 187.845 49.4491 187.844C49.4493 187.843 49.4498 187.842 49.4503 187.84C49.4514 187.837 49.453 187.832 49.4551 187.825C49.4592 187.812 49.4653 187.792 49.4733 187.767C49.4892 187.715 49.5125 187.638 49.5423 187.538C49.602 187.338 49.6876 187.042 49.7922 186.659C50.0015 185.894 50.2866 184.78 50.591 183.387C51.1998 180.6 51.8865 176.69 52.1978 172.194C52.8199 163.209 51.9457 151.85 45.915 142.455L45.457 142.749ZM49.1893 187.763C49.2261 187.493 49.2261 187.493 49.226 187.493C49.2258 187.493 49.2255 187.493 49.2252 187.493C49.2244 187.493 49.2233 187.493 49.2217 187.493C49.2186 187.492 49.2137 187.492 49.2072 187.491C49.1943 187.489 49.1747 187.486 49.1488 187.482C49.0968 187.475 49.0191 187.463 48.917 187.447C48.7127 187.415 48.4109 187.366 48.022 187.296C47.2442 187.158 46.1186 186.939 44.7299 186.619C41.9521 185.979 38.1239 184.936 33.9236 183.321C25.5156 180.088 15.6523 174.579 9.71323 165.471L9.25729 165.768C15.2878 175.016 25.2765 180.579 33.7282 183.829C37.9577 185.455 41.8112 186.505 44.6077 187.149C46.0061 187.472 47.1407 187.692 47.9264 187.832C48.3193 187.902 48.625 187.952 48.8329 187.985C48.9368 188.001 49.0163 188.013 49.07 188.021C49.0969 188.025 49.1173 188.028 49.1311 188.03C49.138 188.031 49.1432 188.031 49.1468 188.032C49.1486 188.032 49.15 188.032 49.1509 188.032C49.1514 188.032 49.1518 188.032 49.152 188.032C49.1523 188.033 49.1525 188.033 49.1893 187.763ZM50.4889 120.411C59.9024 126.429 71.2842 127.302 80.2863 126.681C84.791 126.37 88.7091 125.685 91.5013 125.077C92.8976 124.773 94.0129 124.489 94.7799 124.28C95.1634 124.176 95.4598 124.09 95.6608 124.031C95.7613 124.001 95.8379 123.978 95.8896 123.962C95.9154 123.954 95.9351 123.948 95.9483 123.944C95.955 123.942 95.96 123.94 95.9634 123.939C95.9652 123.938 95.9665 123.938 95.9674 123.938C95.9678 123.937 95.9682 123.937 95.9685 123.937C95.9687 123.937 95.9689 123.937 95.8864 123.678C95.8039 123.418 95.8039 123.418 95.8038 123.418C95.8036 123.419 95.8034 123.419 95.803 123.419C95.8023 123.419 95.8012 123.419 95.7997 123.42C95.7967 123.421 95.7921 123.422 95.7859 123.424C95.7735 123.428 95.7547 123.434 95.7297 123.441C95.6797 123.457 95.6049 123.48 95.5062 123.509C95.3089 123.567 95.0163 123.652 94.6369 123.755C93.878 123.962 92.7718 124.244 91.3856 124.545C88.6127 125.149 84.7213 125.829 80.2488 126.138C71.2965 126.755 60.0529 125.879 50.7821 119.952L50.4889 120.411ZM95.8864 123.678C96.1564 123.644 96.1564 123.643 96.1564 123.643C96.1563 123.643 96.1563 123.642 96.1562 123.642C96.1561 123.641 96.1559 123.64 96.1557 123.638C96.1552 123.634 96.1546 123.629 96.1536 123.622C96.1518 123.608 96.1491 123.588 96.1455 123.561C96.1381 123.508 96.127 123.428 96.1118 123.324C96.0813 123.117 96.0342 122.812 95.9677 122.42C95.8347 121.635 95.624 120.503 95.3127 119.107C94.6902 116.316 93.6649 112.469 92.0535 108.248C88.8333 99.8115 83.2589 89.8418 73.8455 83.8233L73.5523 84.2819C82.8231 90.2092 88.3425 100.052 91.545 108.442C93.1449 112.633 94.1632 116.454 94.7815 119.225C95.0905 120.611 95.2995 121.734 95.4311 122.511C95.4969 122.899 95.5433 123.2 95.5733 123.404C95.5882 123.505 95.5991 123.583 95.6062 123.635C95.6097 123.661 95.6123 123.68 95.614 123.693C95.6148 123.7 95.6155 123.704 95.6159 123.708C95.6161 123.709 95.6162 123.71 95.6163 123.711C95.6164 123.711 95.6164 123.712 95.6164 123.712C95.6164 123.712 95.6164 123.712 95.8864 123.678ZM73.8455 83.8233C64.432 77.8048 53.0501 76.9324 44.0481 77.5533C39.5434 77.8639 35.6253 78.5492 32.833 79.1568C31.4367 79.4606 30.3214 79.7451 29.5545 79.9539C29.171 80.0583 28.8745 80.1438 28.6736 80.2034C28.5731 80.2331 28.4965 80.2564 28.4448 80.2723C28.4189 80.2802 28.3993 80.2863 28.386 80.2905C28.3794 80.2925 28.3743 80.2941 28.3709 80.2952C28.3692 80.2957 28.3679 80.2962 28.367 80.2964C28.3665 80.2966 28.3661 80.2967 28.3659 80.2968C28.3656 80.2969 28.3654 80.2969 28.4479 80.5563C28.5304 80.8156 28.5304 80.8156 28.5306 80.8156C28.5307 80.8155 28.531 80.8154 28.5313 80.8153C28.532 80.8151 28.5331 80.8148 28.5346 80.8143C28.5377 80.8133 28.5423 80.8119 28.5485 80.8099C28.5609 80.8061 28.5797 80.8002 28.6046 80.7925C28.6546 80.7772 28.7295 80.7545 28.8281 80.7253C29.0254 80.6668 29.318 80.5824 29.6974 80.4791C30.4563 80.2725 31.5625 79.9903 32.9488 79.6886C35.7217 79.0853 39.613 78.4047 44.0855 78.0963C53.0378 77.4789 64.2815 78.3546 73.5523 84.2819L73.8455 83.8233ZM28.4479 80.5563C28.1779 80.5901 28.1779 80.5903 28.1779 80.5906C28.178 80.5908 28.178 80.5912 28.1781 80.5917C28.1782 80.5927 28.1784 80.594 28.1786 80.5958C28.1791 80.5995 28.1797 80.6048 28.1807 80.6117C28.1825 80.6256 28.1852 80.6462 28.1888 80.6733C28.1962 80.7275 28.2073 80.8076 28.2225 80.9124C28.253 81.122 28.3001 81.4301 28.3666 81.826C28.4995 82.6177 28.7102 83.7604 29.0215 85.1676C29.644 87.9816 30.6693 91.8552 32.2807 96.0951C35.5008 104.567 41.0756 114.539 50.4915 120.412L50.7795 119.951C41.5111 114.169 35.9922 104.328 32.7895 95.9017C31.1896 91.6921 30.1712 87.8447 29.553 85.05C29.2439 83.6528 29.0349 82.5193 28.9033 81.7358C28.8375 81.3441 28.7911 81.0399 28.7611 80.8341C28.7462 80.7311 28.7353 80.6528 28.7282 80.6004C28.7247 80.5742 28.7221 80.5545 28.7204 80.5415C28.7196 80.5349 28.7189 80.5301 28.7185 80.5269C28.7183 80.5253 28.7182 80.5242 28.7181 80.5234C28.718 80.523 28.718 80.5228 28.718 80.5226C28.718 80.5225 28.718 80.5224 28.4479 80.5563ZM59.2471 248.61C68.6606 254.628 80.0424 255.501 89.0445 254.88C93.5492 254.569 97.4673 253.884 100.26 253.276C101.656 252.972 102.771 252.688 103.538 252.479C103.922 252.375 104.218 252.289 104.419 252.23C104.52 252.2 104.596 252.177 104.648 252.161C104.674 252.153 104.693 252.147 104.707 252.143C104.713 252.141 104.718 252.139 104.722 252.138C104.723 252.137 104.725 252.137 104.726 252.137C104.726 252.136 104.726 252.136 104.727 252.136C104.727 252.136 104.727 252.136 104.645 251.877C104.562 251.617 104.562 251.617 104.562 251.617C104.562 251.618 104.562 251.618 104.561 251.618C104.561 251.618 104.559 251.618 104.558 251.619C104.555 251.62 104.55 251.621 104.544 251.623C104.532 251.627 104.513 251.633 104.488 251.641C104.438 251.656 104.363 251.679 104.264 251.708C104.067 251.766 103.775 251.851 103.395 251.954C102.636 252.161 101.53 252.443 100.144 252.744C97.3709 253.348 93.4796 254.028 89.0071 254.337C80.0547 254.954 68.8111 254.078 59.5403 248.151L59.2471 248.61ZM104.645 251.877C104.915 251.843 104.915 251.842 104.915 251.842C104.915 251.842 104.915 251.841 104.914 251.841C104.914 251.84 104.914 251.839 104.914 251.837C104.913 251.833 104.913 251.828 104.912 251.821C104.91 251.807 104.907 251.787 104.904 251.76C104.896 251.707 104.885 251.627 104.87 251.523C104.84 251.316 104.792 251.011 104.726 250.619C104.593 249.834 104.382 248.702 104.071 247.306C103.448 244.515 102.423 240.668 100.812 236.447C97.5915 228.011 92.0172 218.041 82.6037 212.022L82.3105 212.481C91.5813 218.408 97.1007 228.251 100.303 236.641C101.903 240.832 102.921 244.653 103.54 247.424C103.849 248.81 104.058 249.934 104.189 250.71C104.255 251.098 104.302 251.399 104.332 251.603C104.346 251.704 104.357 251.782 104.364 251.834C104.368 251.86 104.371 251.879 104.372 251.892C104.373 251.899 104.374 251.903 104.374 251.907C104.374 251.908 104.374 251.909 104.375 251.91C104.375 251.91 104.375 251.911 104.375 251.911C104.375 251.911 104.375 251.911 104.645 251.877ZM82.6037 212.022C73.1902 206.004 61.8084 205.131 52.8063 205.752C48.3016 206.063 44.3835 206.748 41.5913 207.356C40.195 207.66 39.0797 207.944 38.3127 208.153C37.9292 208.257 37.6328 208.343 37.4318 208.402C37.3313 208.432 37.2547 208.455 37.203 208.471C37.1771 208.479 37.1575 208.485 37.1443 208.489C37.1376 208.492 37.1326 208.493 37.1292 208.494C37.1274 208.495 37.1261 208.495 37.1252 208.495C37.1247 208.496 37.1244 208.496 37.1241 208.496C37.1239 208.496 37.1237 208.496 37.2062 208.755C37.2887 209.015 37.2887 209.015 37.2888 209.015C37.289 209.015 37.2892 209.014 37.2896 209.014C37.2903 209.014 37.2914 209.014 37.2929 209.013C37.2959 209.012 37.3005 209.011 37.3067 209.009C37.3191 209.005 37.3379 208.999 37.3629 208.992C37.4129 208.976 37.4877 208.953 37.5864 208.924C37.7837 208.866 38.0762 208.781 38.4557 208.678C39.2146 208.472 40.3208 208.189 41.707 207.888C44.4799 207.284 48.3712 206.604 52.8438 206.295C61.7961 205.678 73.0397 206.554 82.3105 212.481L82.6037 212.022ZM37.2062 208.755C36.9361 208.789 36.9361 208.789 36.9362 208.79C36.9362 208.79 36.9363 208.79 36.9363 208.791C36.9364 208.792 36.9366 208.793 36.9369 208.795C36.9373 208.798 36.938 208.804 36.9389 208.811C36.9407 208.825 36.9434 208.845 36.9471 208.872C36.9544 208.926 36.9655 209.007 36.9808 209.111C37.0112 209.321 37.0583 209.629 37.1248 210.025C37.2578 210.817 37.4685 211.959 37.7798 213.367C38.4023 216.181 39.4275 220.054 41.039 224.294C44.259 232.766 49.8338 242.738 59.2497 248.611L59.5378 248.15C50.2694 242.368 44.7504 232.527 41.5477 224.101C39.9478 219.891 38.9295 216.044 38.3112 213.249C38.0021 211.852 37.7932 210.718 37.6616 209.935C37.5958 209.543 37.5493 209.239 37.5194 209.033C37.5044 208.93 37.4936 208.852 37.4865 208.799C37.4829 208.773 37.4803 208.754 37.4787 208.74C37.4778 208.734 37.4772 208.729 37.4768 208.726C37.4766 208.724 37.4764 208.723 37.4763 208.722C37.4763 208.722 37.4762 208.722 37.4762 208.722C37.4762 208.721 37.4762 208.721 37.2062 208.755ZM-30.7336 215.464C-28.3414 226.363 -20.9111 235.012 -14.1057 240.926C-10.7003 243.885 -7.44426 246.166 -5.03935 247.707C-3.83673 248.477 -2.84648 249.063 -2.15622 249.457C-1.81108 249.654 -1.54089 249.802 -1.35663 249.902C-1.2645 249.952 -1.19383 249.989 -1.14601 250.015C-1.1221 250.027 -1.1039 250.037 -1.09158 250.043C-1.08542 250.047 -1.08073 250.049 -1.07753 250.051C-1.07594 250.051 -1.07471 250.052 -1.07387 250.053C-1.07344 250.053 -1.07307 250.053 -1.07286 250.053C-1.0726 250.053 -1.07243 250.053 -0.947708 249.811C-0.822983 249.57 -0.823013 249.569 -0.82312 249.569C-0.823288 249.569 -0.823502 249.569 -0.823822 249.569C-0.824478 249.569 -0.825516 249.568 -0.82692 249.567C-0.829727 249.566 -0.83403 249.564 -0.839783 249.561C-0.851318 249.555 -0.868729 249.546 -0.89183 249.533C-0.938049 249.509 -1.00706 249.472 -1.09752 249.423C-1.27844 249.325 -1.5451 249.179 -1.8866 248.984C-2.56961 248.594 -3.55177 248.013 -4.74571 247.248C-7.13393 245.718 -10.3676 243.453 -13.7487 240.515C-20.5164 234.634 -27.8461 226.08 -30.2019 215.347L-30.7336 215.464ZM-0.947708 249.811C-0.732834 249.978 -0.732712 249.978 -0.732544 249.978C-0.732391 249.978 -0.732147 249.978 -0.731857 249.977C-0.731262 249.976 -0.730423 249.975 -0.729309 249.974C-0.727112 249.971 -0.723877 249.967 -0.719635 249.961C-0.711151 249.95 -0.698624 249.934 -0.682205 249.912C-0.649384 249.869 -0.601013 249.805 -0.538269 249.721C-0.412811 249.553 -0.229889 249.304 0.000946045 248.98C0.462593 248.331 1.11599 247.382 1.88481 246.175C3.42225 243.762 5.42246 240.319 7.27406 236.197C10.9742 227.959 14.0963 216.975 11.7042 206.076L11.1725 206.193C13.5283 216.926 10.4574 227.781 6.77754 235.974C4.93913 240.066 2.95259 243.486 1.42577 245.883C0.662468 247.081 0.0143585 248.022 -0.442459 248.664C-0.670868 248.985 -0.851425 249.231 -0.974625 249.396C-1.03622 249.478 -1.08348 249.541 -1.1152 249.583C-1.13107 249.603 -1.14305 249.619 -1.151 249.629C-1.15497 249.635 -1.15793 249.638 -1.15987 249.641C-1.16084 249.642 -1.16156 249.643 -1.162 249.644C-1.16223 249.644 -1.16238 249.644 -1.16249 249.644C-1.16258 249.644 -1.1626 249.644 -0.947708 249.811ZM11.7042 206.076C9.31197 195.177 1.88168 186.528 -4.92368 180.614C-8.32912 177.654 -11.5852 175.374 -13.9901 173.833C-15.1927 173.063 -16.183 172.477 -16.8732 172.083C-17.2184 171.886 -17.4885 171.738 -17.6728 171.638C-17.765 171.588 -17.8356 171.55 -17.8834 171.525C-17.9073 171.512 -17.9255 171.503 -17.9379 171.496C-17.944 171.493 -17.9487 171.491 -17.9519 171.489C-17.9535 171.488 -17.9547 171.488 -17.9556 171.487C-17.956 171.487 -17.9564 171.487 -17.9566 171.487C-17.9568 171.487 -17.957 171.487 -18.0817 171.728C-18.2065 171.97 -18.2064 171.97 -18.2063 171.97C-18.2061 171.97 -18.2059 171.971 -18.2056 171.971C-18.205 171.971 -18.2039 171.972 -18.2025 171.972C-18.1997 171.974 -18.1954 171.976 -18.1897 171.979C-18.1781 171.985 -18.1607 171.994 -18.1376 172.006C-18.0914 172.031 -18.0224 172.068 -17.9319 172.116C-17.751 172.214 -17.4843 172.361 -17.1428 172.556C-16.4598 172.945 -15.4777 173.526 -14.2837 174.291C-11.8955 175.822 -8.66177 178.087 -5.2807 181.025C1.48698 186.906 8.81673 195.459 11.1725 206.193L11.7042 206.076ZM-18.0817 171.728C-18.2964 171.561 -18.2965 171.561 -18.2967 171.562C-18.2968 171.562 -18.2971 171.562 -18.2974 171.562C-18.298 171.563 -18.2988 171.564 -18.2999 171.566C-18.3022 171.569 -18.3055 171.573 -18.3097 171.578C-18.3183 171.589 -18.331 171.606 -18.3476 171.628C-18.3808 171.671 -18.4297 171.736 -18.4932 171.821C-18.6201 171.99 -18.8052 172.241 -19.0386 172.568C-19.5055 173.222 -20.1661 174.179 -20.943 175.393C-22.4966 177.822 -24.5162 181.285 -26.3807 185.42C-30.1066 193.683 -33.2297 204.669 -30.7329 215.467L-30.2026 215.344C-32.6601 204.716 -29.5903 193.863 -25.8845 185.644C-24.0333 181.538 -22.0274 178.099 -20.4845 175.686C-19.7131 174.48 -19.0578 173.531 -18.5957 172.885C-18.3647 172.561 -18.182 172.313 -18.0573 172.147C-17.995 172.063 -17.9472 172 -17.9151 171.958C-17.899 171.937 -17.8869 171.921 -17.8788 171.911C-17.8748 171.906 -17.8718 171.902 -17.8698 171.899C-17.8688 171.898 -17.8681 171.897 -17.8677 171.896C-17.8674 171.896 -17.8673 171.896 -17.8672 171.896C-17.8671 171.896 -17.8671 171.896 -18.0817 171.728ZM7.21885 297.045C9.61105 307.944 17.0413 316.593 23.8467 322.507C27.2521 325.467 30.5081 327.747 32.913 329.288C34.1157 330.058 35.1059 330.644 35.7962 331.038C36.1413 331.235 36.4115 331.383 36.5958 331.483C36.6879 331.533 36.7586 331.571 36.8064 331.596C36.8303 331.609 36.8485 331.618 36.8608 331.625C36.867 331.628 36.8717 331.63 36.8749 331.632C36.8765 331.633 36.8777 331.633 36.8785 331.634C36.879 331.634 36.8793 331.634 36.8795 331.634C36.8798 331.634 36.88 331.634 37.0047 331.393C37.1294 331.151 37.1294 331.151 37.1293 331.151C37.1291 331.151 37.1289 331.15 37.1286 331.15C37.1279 331.15 37.1269 331.149 37.1255 331.149C37.1227 331.147 37.1184 331.145 37.1126 331.142C37.1011 331.136 37.0837 331.127 37.0606 331.115C37.0144 331.09 36.9453 331.053 36.8549 331.005C36.674 330.907 36.4073 330.76 36.0658 330.565C35.3828 330.176 34.4006 329.595 33.2067 328.83C30.8185 327.299 27.5847 325.034 24.2037 322.096C17.436 316.215 10.1063 307.662 7.7505 296.928L7.21885 297.045ZM37.0047 331.393C37.2196 331.56 37.2197 331.559 37.2199 331.559C37.22 331.559 37.2202 331.559 37.2205 331.558C37.2211 331.558 37.222 331.556 37.2231 331.555C37.2253 331.552 37.2285 331.548 37.2328 331.542C37.2412 331.531 37.2538 331.515 37.2702 331.494C37.303 331.45 37.3514 331.387 37.4141 331.302C37.5396 331.134 37.7225 330.885 37.9533 330.561C38.415 329.913 39.0684 328.963 39.8372 327.756C41.3746 325.343 43.3749 321.9 45.2265 317.778C48.9266 309.54 52.0487 298.556 49.6566 287.657L49.1249 287.774C51.4807 298.507 48.4098 309.362 44.7299 317.555C42.8915 321.648 40.905 325.068 39.3782 327.464C38.6149 328.662 37.9668 329.604 37.5099 330.245C37.2815 330.566 37.101 330.812 36.9778 330.977C36.9162 331.06 36.8689 331.122 36.8372 331.164C36.8213 331.185 36.8093 331.2 36.8014 331.211C36.7974 331.216 36.7945 331.22 36.7925 331.222C36.7915 331.223 36.7908 331.224 36.7904 331.225C36.7902 331.225 36.79 331.225 36.7899 331.225C36.7898 331.226 36.7898 331.226 37.0047 331.393ZM49.6566 287.657C47.2644 276.758 39.8341 268.109 33.0287 262.195C29.6233 259.236 26.3672 256.955 23.9623 255.414C22.7597 254.644 21.7694 254.058 21.0792 253.664C20.734 253.468 20.4639 253.319 20.2796 253.219C20.1874 253.169 20.1168 253.132 20.069 253.106C20.0451 253.094 20.0269 253.084 20.0145 253.078C20.0084 253.074 20.0037 253.072 20.0005 253.07C19.9989 253.07 19.9977 253.069 19.9968 253.068C19.9964 253.068 19.996 253.068 19.9958 253.068C19.9956 253.068 19.9954 253.068 19.8707 253.31C19.7459 253.552 19.746 253.552 19.7461 253.552C19.7462 253.552 19.7465 253.552 19.7468 253.552C19.7474 253.552 19.7485 253.553 19.7499 253.554C19.7527 253.555 19.757 253.557 19.7627 253.56C19.7743 253.566 19.7917 253.575 19.8148 253.588C19.861 253.612 19.93 253.649 20.0205 253.698C20.2014 253.796 20.4681 253.942 20.8096 254.137C21.4926 254.527 22.4747 255.108 23.6687 255.873C26.0569 257.403 29.2906 259.668 32.6717 262.606C39.4394 268.487 46.7691 277.041 49.1249 287.774L49.6566 287.657ZM19.8707 253.31C19.656 253.142 19.6559 253.142 19.6557 253.143C19.6556 253.143 19.6553 253.143 19.655 253.144C19.6544 253.144 19.6536 253.145 19.6525 253.147C19.6502 253.15 19.647 253.154 19.6427 253.16C19.6341 253.171 19.6214 253.187 19.6048 253.209C19.5716 253.252 19.5227 253.317 19.4592 253.402C19.3323 253.571 19.1472 253.823 18.9138 254.149C18.4469 254.803 17.7863 255.76 17.0094 256.974C15.4558 259.403 13.4362 262.866 11.5717 267.001C7.84585 275.264 4.72268 286.25 7.21952 297.048L7.74983 296.925C5.29225 286.297 8.36208 275.444 12.0679 267.225C13.9191 263.119 15.925 259.68 17.4679 257.268C18.2393 256.062 18.8946 255.113 19.3567 254.466C19.5877 254.142 19.7704 253.894 19.8951 253.728C19.9574 253.644 20.0052 253.581 20.0374 253.539C20.0534 253.518 20.0655 253.503 20.0736 253.492C20.0776 253.487 20.0806 253.483 20.0826 253.48C20.0836 253.479 20.0843 253.478 20.0847 253.478C20.085 253.477 20.0851 253.477 20.0852 253.477C20.0853 253.477 20.0853 253.477 19.8707 253.31ZM19.6395 46.3083C25.6701 36.9132 26.5443 25.5536 25.9222 16.5692C25.6109 12.0734 24.9243 8.16302 24.3155 5.37628C24.011 3.9827 23.7259 2.86957 23.5167 2.10413C23.4121 1.72137 23.3264 1.42554 23.2668 1.22495C23.237 1.12466 23.2137 1.04819 23.1977 0.996582C23.1898 0.970795 23.1837 0.951202 23.1795 0.937958C23.1774 0.931335 23.1758 0.9263 23.1747 0.922882C23.1742 0.921143 23.1738 0.91983 23.1735 0.918945C23.1734 0.918488 23.1732 0.918091 23.1732 0.917877C23.1731 0.917603 23.173 0.917419 22.9138 1.00018C22.6545 1.08298 22.6545 1.08301 22.6545 1.08313C22.6546 1.08331 22.6547 1.08353 22.6548 1.08386C22.655 1.08459 22.6554 1.08569 22.6558 1.08719C22.6568 1.09021 22.6582 1.09482 22.6602 1.10101C22.6641 1.1134 22.6699 1.13211 22.6776 1.15704C22.693 1.20691 22.7158 1.28162 22.745 1.38007C22.8036 1.577 22.8881 1.86896 22.9916 2.24765C23.1987 3.005 23.4815 4.10898 23.7837 5.49243C24.3883 8.25977 25.0701 12.1433 25.3792 16.6068C25.9978 25.5412 25.1203 36.7621 19.1814 46.0143L19.6395 46.3083ZM22.9138 1.00018C22.8797 0.730164 22.8795 0.730194 22.8792 0.730225C22.879 0.730255 22.8786 0.730316 22.8781 0.730377C22.8772 0.730499 22.8758 0.730682 22.874 0.730896C22.8704 0.731354 22.8652 0.732056 22.8583 0.732941C22.8445 0.734772 22.824 0.737457 22.7972 0.741119C22.7434 0.748413 22.6639 0.759521 22.5599 0.774719C22.352 0.805176 22.0463 0.852142 21.6533 0.918488C20.8675 1.05121 19.7328 1.26151 18.3342 1.57217C15.5375 2.19348 11.6835 3.21667 7.45361 4.82489C-0.999283 8.03864 -10.9888 13.6018 -17.0193 22.9967L-16.5613 23.2907C-10.6222 14.0384 -0.759705 8.52988 7.64704 5.33365C11.8469 3.73688 15.6747 2.72055 18.4522 2.10355C19.8408 1.79507 20.9663 1.58652 21.744 1.4552C22.1328 1.38953 22.4346 1.34317 22.6388 1.31329C22.7409 1.29834 22.8186 1.28754 22.8705 1.28046C22.8965 1.27692 22.916 1.27435 22.9289 1.27264C22.9354 1.27179 22.9402 1.27118 22.9434 1.27078C22.945 1.27057 22.9461 1.27042 22.9469 1.27032C22.9472 1.27029 22.9475 1.27026 22.9476 1.27023C22.9478 1.2702 22.9478 1.2702 22.9138 1.00018ZM-17.0193 22.9967C-23.05 32.3917 -23.9242 43.7513 -23.3021 52.7357C-22.9908 57.2315 -22.3041 61.1419 -21.6953 63.9286C-21.3909 65.3222 -21.1058 66.4353 -20.8965 67.2008C-20.7919 67.5835 -20.7063 67.8794 -20.6466 68.08C-20.6168 68.1803 -20.5935 68.2567 -20.5776 68.3083C-20.5696 68.3341 -20.5635 68.3537 -20.5594 68.367C-20.5573 68.3736 -20.5557 68.3786 -20.5546 68.382C-20.554 68.3838 -20.5536 68.3851 -20.5533 68.386C-20.5532 68.3864 -20.5531 68.3868 -20.553 68.3871C-20.5529 68.3873 -20.5529 68.3875 -20.2936 68.3047C-20.0343 68.222 -20.0344 68.2219 -20.0344 68.2218C-20.0345 68.2216 -20.0345 68.2214 -20.0346 68.221C-20.0349 68.2203 -20.0352 68.2192 -20.0357 68.2177C-20.0366 68.2147 -20.0381 68.2101 -20.04 68.2039C-20.0439 68.1915 -20.0498 68.1728 -20.0575 68.1479C-20.0729 68.098 -20.0956 68.0233 -20.1249 67.9249C-20.1834 67.7279 -20.268 67.4359 -20.3715 67.0573C-20.5785 66.2999 -20.8613 65.196 -21.1636 63.8125C-21.7681 61.0451 -22.45 57.1616 -22.7591 52.6981C-23.3777 43.7637 -22.5002 32.5428 -16.5613 23.2907L-17.0193 22.9967ZM-20.2936 68.3047C-20.2599 68.5748 -20.2597 68.5748 -20.2594 68.5747C-20.2592 68.5747 -20.2588 68.5746 -20.2583 68.5746C-20.2574 68.5745 -20.256 68.5743 -20.2542 68.5741C-20.2505 68.5736 -20.2452 68.5729 -20.2383 68.572C-20.2243 68.5702 -20.2037 68.5675 -20.1766 68.5638C-20.1223 68.5565 -20.042 68.5455 -19.937 68.5302C-19.727 68.4998 -19.4183 68.4529 -19.0216 68.3865C-18.2284 68.2538 -17.0834 68.0435 -15.6735 67.7328C-12.8539 67.1116 -8.9726 66.0884 -4.72437 64.4802C3.76463 61.2666 13.7561 55.703 19.6411 46.3057L19.1798 46.0168C13.3871 55.2667 3.52654 60.7747 -4.91707 63.9711C-9.13513 65.5679 -12.9902 66.5843 -15.7906 67.2013C-17.1906 67.5098 -18.3264 67.7183 -19.1115 67.8496C-19.504 67.9153 -19.8088 67.9617 -20.015 67.9916C-20.1182 68.0065 -20.1967 68.0173 -20.2491 68.0244C-20.2754 68.0279 -20.2952 68.0305 -20.3082 68.0322C-20.3148 68.0331 -20.3196 68.0337 -20.3228 68.0341C-20.3244 68.0343 -20.3256 68.0345 -20.3263 68.0345C-20.3267 68.0346 -20.327 68.0346 -20.3271 68.0346C-20.3273 68.0347 -20.3273 68.0347 -20.2936 68.3047Z" fill="black"/>
</svg>
