<svg width="191" height="61" viewBox="0 0 191 61" fill="none" xmlns="http://www.w3.org/2000/svg">
<path d="M30.6925 30.2021C28.1881 32.5044 23.948 31.934 23.948 31.934C23.948 31.934 23.7384 27.6577 26.2429 25.3555C28.7473 23.0533 32.9874 23.6237 32.9874 23.6237C32.9874 23.6237 33.1528 27.9077 30.6925 30.2021Z" fill="#4ABD7F"/>
<path d="M10.527 48.8826C7.66005 50.7158 3.58365 49.4192 3.58365 49.4192C3.58365 49.4192 4.1212 45.1716 6.98812 43.3384C9.85504 41.5052 13.9314 42.8018 13.9314 42.8018C13.9314 42.8018 13.3491 47.0494 10.527 48.8826Z" fill="#4ABD7F"/>
<path d="M6.53808 23.8463C8.37471 26.7078 7.07563 30.7766 7.07563 30.7766C7.07563 30.7766 2.82005 30.24 0.983429 27.3785C-0.853191 24.5169 0.44588 20.4482 0.44588 20.4482C0.44588 20.4482 4.70146 21.0294 6.53808 23.8463Z" fill="#4ABD7F"/>
<path d="M18.1849 26.529C20.0216 29.3905 18.7225 33.4592 18.7225 33.4592C18.7225 33.4592 14.4669 32.9227 12.6303 30.0612C10.7937 27.1996 12.0927 23.1309 12.0927 23.1309C12.0927 23.1309 16.3483 23.7121 18.1849 26.529Z" fill="#4ABD7F"/>
<path d="M11.8708 33.5018C9.00392 31.6686 4.92752 32.9652 4.92752 32.9652C4.92752 32.9652 5.46507 37.2128 8.33199 39.046C11.1989 40.8792 15.2753 39.5825 15.2753 39.5825C15.2753 39.5825 14.7378 35.2902 11.8708 33.5018Z" fill="#4ABD7F"/>
<path d="M10.527 13.8287C7.66005 11.9955 3.58365 13.2921 3.58365 13.2921C3.58365 13.2921 4.1212 17.5397 6.98812 19.3729C9.85504 21.2061 13.9314 19.9094 13.9314 19.9094C13.9314 19.9094 13.3939 15.6171 10.527 13.8287Z" fill="#4ABD7F"/>
<path d="M24.3153 18.8889C23.5868 15.5693 19.7858 13.6091 19.7858 13.6091C19.7858 13.6091 17.1567 16.992 17.8853 20.3116C18.6138 23.6313 22.4148 25.5915 22.4148 25.5915C22.4148 25.5915 25.0756 22.177 24.3153 18.8889Z" fill="#4ABD7F"/>
<path d="M18.4919 6.36969C17.7634 3.05003 13.9624 1.08984 13.9624 1.08984C13.9624 1.08984 11.3333 4.47274 12.0618 7.7924C12.7904 11.1121 16.5914 13.0722 16.5914 13.0722C16.5914 13.0722 19.2521 9.65774 18.4919 6.36969Z" fill="#4ABD7F"/>
<path d="M16.662 44.8607C14.8254 47.7222 16.1245 51.791 16.1245 51.791C16.1245 51.791 20.3801 51.2544 22.2167 48.3929C24.0533 45.5314 22.7542 41.4626 22.7542 41.4626C22.7542 41.4626 18.4539 41.9992 16.662 44.8607Z" fill="#4ABD7F"/>
<path fill-rule="evenodd" clip-rule="evenodd" d="M29.5539 41.4851V35.6502C29.5539 35.1563 29.955 34.7559 30.4498 34.7559H30.9286C31.9061 34.7559 32.7032 35.5378 32.7202 36.5133L33.1217 59.5553C33.1304 60.0552 32.7268 60.4651 32.2259 60.4651H29.1617C28.6456 60.4651 28.2363 60.031 28.2674 59.5169L29.1172 45.4867L23.2149 39.5863C22.5161 38.8877 22.5165 37.756 23.2159 37.058L23.5336 36.7408C23.8835 36.3916 24.4508 36.3916 24.8006 36.7408L29.5539 41.4851Z" fill="#4ABD7F"/>
<path d="M38.4018 1.53128C34.2165 0.059271 29.6616 0.00680095 25.4435 1.38201L24.8047 1.59024C24.2168 1.78192 23.8959 2.41302 24.0879 2.99985L24.5052 4.2749C24.6972 4.86173 25.3295 5.18206 25.9174 4.99038L26.5561 4.78215C30.0244 3.65142 33.7696 3.69456 37.2108 4.90488C40.6519 6.1152 43.5969 8.42505 45.5888 11.4762C47.4727 14.362 48.4046 17.7583 48.2626 21.19C48.2331 21.9039 48.3764 22.6541 48.7465 23.3415L52.8787 31.0161C52.9873 31.2178 52.8409 31.4621 52.6116 31.4621C50.4649 31.4621 48.7247 33.1991 48.7247 35.3417V41.2544C48.7247 41.5365 48.466 41.7482 48.1889 41.6928L44.5878 40.974C42.0931 40.476 39.7655 42.3805 39.7655 44.9199V50.4645C39.7655 51.0819 40.2669 51.5823 40.8854 51.5823H42.2293C42.8478 51.5823 43.3492 51.0819 43.3492 50.4645V44.9199C43.3492 44.6377 43.6078 44.4261 43.885 44.4814L47.486 45.2003C49.9808 45.6983 52.3083 43.7937 52.3083 41.2544V35.3417C52.3083 35.1746 52.4441 35.039 52.6116 35.039C55.5513 35.039 57.427 31.9075 56.0354 29.3229L51.9032 21.6482C51.8674 21.5818 51.8374 21.4781 51.8432 21.3376C52.0159 17.1639 50.8825 13.0332 48.5912 9.52342C46.1687 5.81257 42.587 3.00329 38.4018 1.53128Z" fill="#4ABD7F"/>
<path fill-rule="evenodd" clip-rule="evenodd" d="M38.2732 1.89692C34.1683 0.453172 29.7008 0.401708 25.5636 1.75051L24.9249 1.95875C24.5401 2.0842 24.331 2.49661 24.4563 2.8793L24.8735 4.15435C24.9989 4.53737 25.4122 4.74743 25.7973 4.62188L26.436 4.41364C29.9852 3.25652 33.8178 3.30066 37.3394 4.53924C40.8609 5.77782 43.8747 8.14167 45.9133 11.2643C47.8414 14.2177 48.7952 17.6938 48.6499 21.206C48.6229 21.8578 48.754 22.5378 49.0878 23.1577L53.22 30.8324C53.4681 31.2933 53.133 31.8497 52.6116 31.8497C50.6783 31.8497 49.1123 33.4138 49.1123 35.3417V41.2544C49.1123 41.782 48.6291 42.1759 48.113 42.0729L44.5119 41.3541C42.2561 40.9038 40.1531 42.6259 40.1531 44.9199V50.4645C40.1531 50.8671 40.4803 51.1947 40.8854 51.1947H42.2293C42.6344 51.1947 42.9616 50.8671 42.9616 50.4645V44.9199C42.9616 44.3923 43.4448 43.9983 43.9609 44.1013L47.5619 44.8202C49.8177 45.2705 51.9207 43.5483 51.9207 41.2544V35.3417C51.9207 34.9598 52.2307 34.6515 52.6116 34.6515C55.2592 34.6515 56.9461 31.832 55.6941 29.5066L51.5619 21.832C51.4901 21.6985 51.4475 21.5248 51.4559 21.3215C51.6253 17.2284 50.5138 13.1774 48.2667 9.7353C45.8908 6.09595 42.378 3.34066 38.2732 1.89692ZM25.3233 1.0135C29.6224 -0.388106 34.2648 -0.334631 38.5304 1.16564C42.796 2.66591 46.4465 5.52918 48.9158 9.31154C51.2512 12.8889 52.4065 17.0993 52.2305 21.3536C52.2273 21.4295 52.2439 21.4633 52.2444 21.4644L56.3766 29.1392C57.8945 31.9583 55.8791 35.3666 52.6959 35.4259V41.2544C52.6959 44.0392 50.1438 46.1261 47.4102 45.5804L43.8091 44.8615C43.7708 44.8539 43.7368 44.8832 43.7368 44.9199V50.4645C43.7368 51.2966 43.0612 51.9699 42.2293 51.9699H40.8854C40.0536 51.9699 39.3779 51.2966 39.3779 50.4645V44.9199C39.3779 42.1351 41.93 40.0482 44.6637 40.5939L48.2647 41.3127C48.303 41.3204 48.3371 41.2911 48.3371 41.2544V35.3417C48.3371 33.0313 50.176 31.1508 52.4711 31.0768L48.4052 23.5252C47.9988 22.7704 47.8432 21.9501 47.8753 21.174C48.014 17.8229 47.104 14.5062 45.2642 11.6881C43.319 8.70844 40.443 6.45258 37.0822 5.27052C33.7213 4.08847 30.0636 4.04633 26.6763 5.15066L26.0376 5.35889C25.2468 5.6167 24.3955 5.18609 24.1368 4.39545L23.7195 3.1204C23.4607 2.32944 23.8935 1.47965 24.6846 1.22174L25.3233 1.0135ZM52.5374 31.1999C52.5373 31.1997 52.5372 31.1996 52.5372 31.1994Z" fill="#4ABD7F"/>
<path d="M71.2563 30.9819V19.6203L69.7574 19.4168V18.214H72.4221C72.7551 18.214 73.1499 18.1955 73.6063 18.1585C74.4205 18.1092 75.0867 18.0845 75.6048 18.0845C77.2085 18.0845 78.4359 18.3991 79.2871 19.0282C80.1507 19.6574 80.5824 20.7244 80.5824 22.2294C80.5824 23.167 80.348 23.9873 79.8793 24.6905C79.4105 25.3813 78.7813 25.9118 77.9918 26.2819C77.2023 26.652 76.3388 26.837 75.4012 26.837H74.476C74.0196 26.837 73.705 26.8493 73.5323 26.874V30.9819L75.8638 31.278V32.2402H69.5909V31.278L71.2563 30.9819ZM73.5323 25.5972C73.9271 25.6589 74.513 25.6897 75.2902 25.6897C76.2031 25.6897 76.9309 25.4183 77.4737 24.8755C78.0165 24.3328 78.2879 23.4446 78.2879 22.2109C78.2879 21.224 77.998 20.4777 77.4182 19.9719C76.8507 19.4661 76.0489 19.2256 75.0126 19.2503C74.3095 19.2996 73.816 19.3551 73.5323 19.4168V25.5972ZM83.1643 29.4831L83.6269 30.5563C83.96 30.8524 84.2684 31.0683 84.5522 31.204C84.8359 31.3274 85.1875 31.389 85.6069 31.389C86.2114 31.389 86.6863 31.2657 87.0317 31.019C87.3771 30.7599 87.5498 30.3836 87.5498 29.8902C87.5375 29.5201 87.3648 29.2179 87.0317 28.9835C86.711 28.7491 86.2052 28.4777 85.5144 28.1693L85.0518 27.9658C84.1266 27.5217 83.4049 27.0467 82.8868 26.5409C82.3687 26.0351 82.1096 25.4122 82.1096 24.672C82.1096 24.0552 82.307 23.5309 82.7017 23.0991C83.0965 22.6674 83.5961 22.3466 84.2006 22.1369C84.8174 21.9272 85.4465 21.8224 86.088 21.8224C86.6308 21.8224 87.1798 21.884 87.7349 22.0074C88.29 22.1184 88.7341 22.2541 89.0672 22.4145V24.561H88.0125L87.5869 23.5062C87.1551 23.0498 86.6616 22.8216 86.1065 22.8216C85.5761 22.8216 85.1443 22.9326 84.8112 23.1547C84.4905 23.3644 84.3301 23.6851 84.3301 24.1169C84.3301 24.4376 84.435 24.7213 84.6447 24.9681C84.8667 25.2025 85.1135 25.3937 85.3848 25.5417C85.6686 25.6897 86.1559 25.9303 86.8467 26.2634C87.4882 26.5594 87.9939 26.8247 88.364 27.059C88.7465 27.2934 89.0672 27.5957 89.3263 27.9658C89.5853 28.3235 89.7148 28.7676 89.7148 29.2981C89.7148 30.3343 89.3139 31.1238 88.5121 31.6666C87.7102 32.1971 86.6863 32.4623 85.4404 32.4623C84.8729 32.4623 84.2869 32.3883 83.6825 32.2402C83.0903 32.1045 82.5722 31.9133 82.1281 31.6666V29.4831H83.1643ZM91.7786 35.0344C92.0747 35.1207 92.3893 35.1577 92.7224 35.1454C93.2651 35.1454 93.7709 34.9172 94.2397 34.4607C94.7085 34.0043 95.0909 33.258 95.387 32.2217H94.9429L91.353 23.5247L90.4648 23.3212V22.1369H95.0539V23.3212L93.8511 23.5247L95.8311 29.15L96.2752 30.6304L96.7193 29.1315L98.4032 23.5062L97.0523 23.3212V22.1369H101.197V23.3212L100.254 23.4877C99.5874 25.4245 98.9213 27.2811 98.2551 29.0575C97.589 30.8339 97.1325 32.0305 96.8858 32.6473C96.4417 33.7576 96.0099 34.6211 95.5905 35.2379C95.1711 35.8547 94.6838 36.2803 94.1287 36.5147C93.7463 36.8231 93.2898 36.9773 92.7594 36.9773C92.5743 36.9773 92.3769 36.965 92.1672 36.9403C91.9699 36.9156 91.8403 36.8848 91.7786 36.8478V35.0344ZM107.233 21.8594C107.739 21.8347 108.257 21.8655 108.787 21.9519C109.33 22.0382 109.731 22.1554 109.99 22.3035V24.746H108.843L108.288 23.3952C107.979 23.1608 107.523 23.0436 106.918 23.0436C106.116 23.0436 105.463 23.3767 104.957 24.0429C104.463 24.709 104.217 25.6095 104.217 26.7445C104.217 27.6574 104.359 28.4345 104.642 29.076C104.938 29.7175 105.327 30.1986 105.808 30.5193C106.289 30.8401 106.813 31.0005 107.381 31.0005C107.85 31.0005 108.331 30.9511 108.824 30.8524C109.318 30.7414 109.688 30.6057 109.934 30.4453L110.323 31.352C109.928 31.6974 109.392 31.9688 108.713 32.1662C108.047 32.3513 107.325 32.4438 106.548 32.4438C105.598 32.4438 104.778 32.2279 104.087 31.7961C103.396 31.3644 102.866 30.7661 102.496 30.0012C102.138 29.224 101.959 28.342 101.959 27.3551C101.959 26.2695 102.187 25.3197 102.644 24.5055C103.1 23.6789 103.723 23.0375 104.513 22.581C105.315 22.1246 106.221 21.884 107.233 21.8594ZM113.087 31.093V19.3058L111.644 18.9172V17.9365L114.901 17.5479L115.363 17.7329L115.345 21.8779L115.252 23.2287C115.746 22.8092 116.307 22.4885 116.936 22.2665C117.565 22.0321 118.158 21.9149 118.713 21.9149C119.539 21.9149 120.168 22.0876 120.6 22.433C121.044 22.7784 121.346 23.2904 121.507 23.9688C121.667 24.6473 121.741 25.554 121.729 26.689V31.093L123.024 31.2965V32.2402H118.01V31.2965L119.453 31.093V27.3551C119.453 26.3929 119.416 25.6527 119.342 25.1346C119.268 24.6042 119.089 24.1971 118.805 23.9133C118.522 23.6173 118.084 23.4692 117.491 23.4692C116.653 23.4692 115.943 23.6789 115.363 24.0984V31.093L116.511 31.2965V32.2402H111.755V31.2965L113.087 31.093ZM129.546 21.8224C131.075 21.8224 132.241 22.2911 133.043 23.2287C133.845 24.1539 134.246 25.3937 134.246 26.948C134.246 28.0336 134.03 28.9958 133.598 29.8347C133.166 30.6612 132.574 31.3089 131.822 31.7776C131.069 32.2341 130.218 32.4623 129.268 32.4623C127.677 32.4623 126.474 31.975 125.66 31.0005C124.846 30.0136 124.438 28.7306 124.438 27.1516C124.438 26.066 124.667 25.1223 125.123 24.3204C125.58 23.5186 126.19 22.9018 126.955 22.47C127.732 22.0382 128.596 21.8224 129.546 21.8224ZM129.361 22.9326C127.695 22.9326 126.863 24.2526 126.863 26.8925C126.863 28.1015 127.072 29.1377 127.492 30.0012C127.911 30.8648 128.534 31.3027 129.361 31.315C130.261 31.3274 130.896 30.9696 131.267 30.2418C131.649 29.5139 131.84 28.4715 131.84 27.1146C131.84 25.8686 131.637 24.8632 131.23 24.0984C130.835 23.3212 130.212 22.9326 129.361 22.9326ZM137.283 31.093V19.3058L135.932 18.9172V17.9365L139.133 17.5479L139.559 17.7329V31.0745L141.169 31.2965V32.2402H135.914V31.2965L137.283 31.093ZM147.417 21.8224C148.947 21.8224 150.113 22.2911 150.915 23.2287C151.717 24.1539 152.117 25.3937 152.117 26.948C152.117 28.0336 151.902 28.9958 151.47 29.8347C151.038 30.6612 150.446 31.3089 149.693 31.7776C148.941 32.2341 148.09 32.4623 147.14 32.4623C145.548 32.4623 144.346 31.975 143.532 31.0005C142.717 30.0136 142.31 28.7306 142.31 27.1516C142.31 26.066 142.538 25.1223 142.995 24.3204C143.451 23.5186 144.062 22.9018 144.827 22.47C145.604 22.0382 146.468 21.8224 147.417 21.8224ZM147.232 22.9326C145.567 22.9326 144.734 24.2526 144.734 26.8925C144.734 28.1015 144.944 29.1377 145.363 30.0012C145.783 30.8648 146.406 31.3027 147.232 31.315C148.133 31.3274 148.768 30.9696 149.138 30.2418C149.521 29.5139 149.712 28.4715 149.712 27.1146C149.712 25.8686 149.508 24.8632 149.101 24.0984C148.707 23.3212 148.084 22.9326 147.232 22.9326ZM158.504 21.7853C159.651 21.7853 160.57 22.0382 161.261 22.544C161.508 22.1493 162.057 21.9519 162.908 21.9519H163.889V23.6173H162.094C162.304 24.0367 162.408 24.5363 162.408 25.1161C162.408 25.8933 162.217 26.5594 161.835 27.1146C161.452 27.6697 160.94 28.0891 160.299 28.3728C159.657 28.6442 158.942 28.7799 158.152 28.7799C157.511 28.7799 156.913 28.6936 156.358 28.5209C156.284 28.7183 156.247 28.9218 156.247 29.1315C156.247 29.3412 156.247 29.4584 156.247 29.4831C156.247 29.8285 156.339 30.0876 156.524 30.2603C156.721 30.433 157.03 30.5255 157.449 30.5378C157.856 30.5625 158.609 30.5749 159.707 30.5749C161.187 30.5749 162.199 30.8277 162.742 31.3335C163.284 31.8393 163.556 32.5486 163.556 33.4615C163.556 34.2017 163.334 34.837 162.89 35.3675C162.445 35.9102 161.829 36.3235 161.039 36.6072C160.262 36.891 159.368 37.0328 158.356 37.0328C157.061 37.0328 155.994 36.8231 155.155 36.4037C154.316 35.9843 153.896 35.2996 153.896 34.3497C153.896 33.8439 154.045 33.369 154.341 32.9249C154.649 32.4931 155.013 32.1539 155.432 31.9072C155.112 31.7961 154.877 31.6604 154.729 31.5001C154.581 31.3274 154.489 31.1547 154.452 30.9819C154.427 30.7969 154.415 30.5625 154.415 30.2788C154.415 30.0197 154.526 29.6805 154.748 29.2611C154.97 28.8293 155.241 28.4715 155.562 28.1878C154.526 27.5957 154.008 26.6766 154.008 25.4307C154.008 24.6288 154.217 23.9565 154.637 23.4137C155.056 22.8709 155.605 22.4638 156.284 22.1924C156.962 21.921 157.702 21.7853 158.504 21.7853ZM158.152 22.8401C157.573 22.8401 157.11 23.0128 156.765 23.3582C156.419 23.7036 156.247 24.2341 156.247 24.9496C156.247 25.7514 156.419 26.3991 156.765 26.8925C157.11 27.386 157.653 27.6327 158.393 27.6327C159.047 27.6327 159.516 27.4353 159.799 27.0405C160.083 26.6458 160.225 26.066 160.225 25.3011C160.225 23.6604 159.534 22.8401 158.152 22.8401ZM156.395 32.1292C156.111 32.5363 155.969 33.0483 155.969 33.6651C155.969 34.4052 156.228 34.9542 156.746 35.3119C157.264 35.682 157.924 35.8671 158.726 35.8671C159.664 35.8671 160.373 35.719 160.854 35.423C161.348 35.1269 161.594 34.6581 161.594 34.0166C161.594 33.5849 161.526 33.2395 161.391 32.9804C161.255 32.7213 161.014 32.5301 160.669 32.4068C160.324 32.2834 159.83 32.2217 159.189 32.2217L157.893 32.2032C157.252 32.2032 156.752 32.1786 156.395 32.1292ZM167.379 17.0853C167.835 17.0853 168.181 17.2086 168.415 17.4554C168.662 17.6897 168.785 18.0105 168.785 18.4176C168.785 18.874 168.619 19.2503 168.286 19.5463C167.952 19.8424 167.564 19.9904 167.12 19.9904C166.737 19.9904 166.404 19.8671 166.121 19.6203C165.849 19.3736 165.713 19.0529 165.713 18.6581C165.713 18.2264 165.886 17.8563 166.232 17.5479C166.577 17.2395 166.959 17.0853 167.379 17.0853ZM168.582 22.0999V31.093L169.988 31.2965V32.2402H164.936V31.2965L166.361 31.093V24.3389L165.14 23.4507V22.7846L168.045 21.9149L168.582 22.0999ZM176.515 21.8594C177.021 21.8347 177.539 21.8655 178.07 21.9519C178.612 22.0382 179.013 22.1554 179.272 22.3035V24.746H178.125L177.57 23.3952C177.262 23.1608 176.805 23.0436 176.201 23.0436C175.399 23.0436 174.745 23.3767 174.239 24.0429C173.746 24.709 173.499 25.6095 173.499 26.7445C173.499 27.6574 173.641 28.4345 173.925 29.076C174.221 29.7175 174.609 30.1986 175.09 30.5193C175.572 30.8401 176.096 31.0005 176.663 31.0005C177.132 31.0005 177.613 30.9511 178.107 30.8524C178.6 30.7414 178.97 30.6057 179.217 30.4453L179.606 31.352C179.211 31.6974 178.674 31.9688 177.996 32.1662C177.329 32.3513 176.608 32.4438 175.831 32.4438C174.881 32.4438 174.06 32.2279 173.37 31.7961C172.679 31.3644 172.148 30.7661 171.778 30.0012C171.42 29.224 171.242 28.342 171.242 27.3551C171.242 26.2695 171.47 25.3197 171.926 24.5055C172.383 23.6789 173.006 23.0375 173.795 22.581C174.597 22.1246 175.504 21.884 176.515 21.8594ZM185.423 21.9149C186.62 21.9149 187.545 22.1801 188.199 22.7106C188.853 23.241 189.179 24.1292 189.179 25.3752V31.2965H190.327V32.0367C190.105 32.1724 189.815 32.2772 189.457 32.3513C189.099 32.4376 188.748 32.4808 188.402 32.4808C187.958 32.4808 187.637 32.3944 187.44 32.2217C187.243 32.0367 187.138 31.7406 187.125 31.3335C186.447 32.0984 185.491 32.4808 184.257 32.4808C183.628 32.4808 183.067 32.3636 182.573 32.1292C182.08 31.8825 181.698 31.5432 181.426 31.1115C181.155 30.6797 181.019 30.1924 181.019 29.6496C181.019 28.8355 181.321 28.1631 181.926 27.6327C182.53 27.1022 183.283 26.7198 184.183 26.4854C185.084 26.2387 185.991 26.1153 186.903 26.1153V25.5602C186.903 24.7213 186.712 24.1354 186.33 23.8023C185.947 23.4692 185.38 23.3027 184.627 23.3027C184.22 23.3027 183.758 23.3705 183.24 23.5062C182.721 23.6419 182.271 23.8146 181.889 24.0244L181.463 23.0066C181.883 22.6612 182.481 22.396 183.258 22.2109C184.048 22.0136 184.769 21.9149 185.423 21.9149ZM186.903 27.2256C185.978 27.2256 185.146 27.3921 184.405 27.7252C183.678 28.0583 183.314 28.5887 183.314 29.3166C183.314 30.5132 183.949 31.1115 185.22 31.1115C185.516 31.1115 185.818 31.0498 186.126 30.9264C186.447 30.8031 186.7 30.655 186.885 30.4823L186.903 27.2256Z" fill="#1B1136"/>
<path d="M69.6117 46.2715H70.3524V43.5153H72.6702L74.0055 46.2715H74.857L73.426 43.3339C73.8325 43.1693 74.1449 42.9022 74.3632 42.5327C74.5816 42.1632 74.6908 41.7416 74.6908 41.268C74.6908 40.7003 74.5379 40.2115 74.2322 39.8017C73.9265 39.3919 73.4898 39.1433 72.9221 39.056C72.8314 39.0392 72.7408 39.0291 72.6501 39.0257C72.5627 39.019 72.4838 39.0157 72.4132 39.0157H69.6117V46.2715ZM70.3524 42.8099V39.7261H72.3931C72.4535 39.7261 72.5241 39.7295 72.6047 39.7362C72.6887 39.7396 72.7676 39.7496 72.8415 39.7664C73.2144 39.8471 73.4882 40.0335 73.6628 40.3257C73.8409 40.6146 73.9299 40.9287 73.9299 41.268C73.9299 41.6039 73.8409 41.918 73.6628 42.2102C73.4882 42.5025 73.2144 42.6872 72.8415 42.7645C72.7676 42.7813 72.6887 42.7931 72.6047 42.7998C72.5241 42.8065 72.4535 42.8099 72.3931 42.8099H70.3524ZM78.2719 46.4226C78.7993 46.4226 79.2713 46.2933 79.6878 46.0347C80.1077 45.776 80.4251 45.4082 80.6401 44.9312L79.9498 44.6641C79.6038 45.3628 79.0344 45.7122 78.2417 45.7122C77.6975 45.7122 77.2709 45.5425 76.9618 45.2033C76.6561 44.864 76.4882 44.3819 76.4579 43.7571H80.7459C80.7728 42.7964 80.5629 42.044 80.1161 41.4998C79.6727 40.9522 79.0479 40.6785 78.2417 40.6785C77.7176 40.6785 77.2625 40.796 76.8762 41.0312C76.4932 41.2663 76.1959 41.6005 75.9843 42.0339C75.7727 42.4672 75.6669 42.9812 75.6669 43.5757C75.6669 44.1502 75.7727 44.6507 75.9843 45.0773C76.1993 45.5039 76.5016 45.8348 76.8913 46.0699C77.2843 46.3051 77.7445 46.4226 78.2719 46.4226ZM78.2618 41.3587C79.2864 41.3587 79.8558 41.9516 79.97 43.1374H76.4731C76.5302 42.563 76.7116 42.1229 77.0172 41.8172C77.3229 41.5115 77.7378 41.3587 78.2618 41.3587ZM81.7115 46.2715H82.4572V43.3692C82.4572 42.7544 82.595 42.2724 82.8704 41.923C83.1459 41.5737 83.5456 41.399 84.0696 41.399C84.4492 41.399 84.7549 41.4914 84.9867 41.6761C85.2185 41.8575 85.3864 42.1061 85.4906 42.4219C85.5947 42.7376 85.6468 43.0954 85.6468 43.4951V46.2715H86.3925V43.2785C86.3925 42.9728 86.3539 42.6671 86.2766 42.3614C86.2027 42.0557 86.0818 41.7769 85.9138 41.525C85.7459 41.273 85.5225 41.0715 85.2437 40.9203C84.9649 40.7692 84.6205 40.6936 84.2107 40.6936C83.8211 40.6936 83.4683 40.7692 83.1526 40.9203C82.8402 41.0681 82.5832 41.2898 82.3816 41.5854V40.8296H81.7115V46.2715ZM89.257 46.4226C90.2077 46.4226 90.898 46.0716 91.328 45.3695V46.2715H91.9881V42.8905C91.9881 42.6889 91.978 42.4907 91.9578 42.2959C91.9377 42.1011 91.894 41.9247 91.8268 41.7668C91.6824 41.4141 91.4355 41.1454 91.0861 40.9606C90.7401 40.7725 90.3185 40.6785 89.8214 40.6785C89.2235 40.6785 88.7364 40.8128 88.3601 41.0816C87.9839 41.3503 87.732 41.7282 87.6043 42.2153L88.3249 42.4269C88.429 42.0641 88.6087 41.7987 88.864 41.6308C89.1227 41.4628 89.4384 41.3788 89.8113 41.3788C90.3286 41.3788 90.6981 41.4998 90.9198 41.7416C91.1415 41.9801 91.2558 42.3446 91.2625 42.835C91.0206 42.8686 90.7536 42.9039 90.4613 42.9409C90.1724 42.9778 89.8819 43.0198 89.5896 43.0668C89.2974 43.1139 89.0286 43.1676 88.7834 43.2281C88.3769 43.3356 88.0444 43.5153 87.7857 43.7672C87.5271 44.0158 87.3977 44.3635 87.3977 44.8102C87.3977 45.0991 87.4666 45.3662 87.6043 45.6114C87.7421 45.8566 87.9486 46.0531 88.2241 46.2009C88.5029 46.3487 88.8472 46.4226 89.257 46.4226ZM89.3427 45.7827C89.0505 45.7827 88.8153 45.7357 88.6373 45.6416C88.4626 45.5442 88.3349 45.4216 88.2543 45.2738C88.1771 45.1226 88.1384 44.9681 88.1384 44.8102C88.1384 44.5146 88.2375 44.2929 88.4357 44.1451C88.6339 43.9973 88.8489 43.8898 89.0807 43.8226C89.3797 43.742 89.7273 43.6765 90.1237 43.6261C90.5201 43.5757 90.8963 43.5287 91.2524 43.485C91.2524 43.6093 91.2474 43.7521 91.2373 43.9133C91.2306 44.0712 91.2121 44.2173 91.1819 44.3517C91.1113 44.7615 90.9165 45.1025 90.5974 45.3746C90.2816 45.6467 89.8634 45.7827 89.3427 45.7827ZM96.2626 46.2715V45.6215C95.8729 45.6853 95.5454 45.6954 95.28 45.6517C95.018 45.608 94.8265 45.4737 94.7056 45.2486C94.6418 45.131 94.6065 44.9967 94.5998 44.8455C94.5964 44.691 94.5948 44.4995 94.5948 44.2711V41.4645H96.2626V40.8296H94.5948V39.318H93.8591V40.8296H92.6951V41.4645H93.8591V44.3013C93.8591 44.5667 93.8625 44.8035 93.8692 45.0118C93.8792 45.2201 93.933 45.4233 94.0304 45.6215C94.1513 45.8633 94.3277 46.0414 94.5595 46.1556C94.7946 46.2698 95.06 46.3336 95.3556 46.3471C95.6546 46.3605 95.9569 46.3353 96.2626 46.2715ZM98.8917 46.4226C99.8424 46.4226 100.533 46.0716 100.963 45.3695V46.2715H101.623V42.8905C101.623 42.6889 101.613 42.4907 101.592 42.2959C101.572 42.1011 101.529 41.9247 101.461 41.7668C101.317 41.4141 101.07 41.1454 100.721 40.9606C100.375 40.7725 99.9532 40.6785 99.4561 40.6785C98.8581 40.6785 98.371 40.8128 97.9948 41.0816C97.6186 41.3503 97.3667 41.7282 97.239 42.2153L97.9595 42.4269C98.0637 42.0641 98.2434 41.7987 98.4987 41.6308C98.7574 41.4628 99.0731 41.3788 99.446 41.3788C99.9633 41.3788 100.333 41.4998 100.555 41.7416C100.776 41.9801 100.89 42.3446 100.897 42.835C100.655 42.8686 100.388 42.9039 100.096 42.9409C99.8071 42.9778 99.5165 43.0198 99.2243 43.0668C98.932 43.1139 98.6633 43.1676 98.4181 43.2281C98.0116 43.3356 97.6791 43.5153 97.4204 43.7672C97.1617 44.0158 97.0324 44.3635 97.0324 44.8102C97.0324 45.0991 97.1013 45.3662 97.239 45.6114C97.3767 45.8566 97.5833 46.0531 97.8588 46.2009C98.1376 46.3487 98.4819 46.4226 98.8917 46.4226ZM98.9774 45.7827C98.6851 45.7827 98.45 45.7357 98.2719 45.6416C98.0973 45.5442 97.9696 45.4216 97.889 45.2738C97.8117 45.1226 97.7731 44.9681 97.7731 44.8102C97.7731 44.5146 97.8722 44.2929 98.0704 44.1451C98.2686 43.9973 98.4836 43.8898 98.7154 43.8226C99.0143 43.742 99.362 43.6765 99.7584 43.6261C100.155 43.5757 100.531 43.5287 100.887 43.485C100.887 43.6093 100.882 43.7521 100.872 43.9133C100.865 44.0712 100.847 44.2173 100.817 44.3517C100.746 44.7615 100.551 45.1025 100.232 45.3746C99.9163 45.6467 99.498 45.7827 98.9774 45.7827ZM104.75 46.2715H109.895V45.5661H105.985L109.93 39.187V39.0157H104.851V39.7261H108.716L104.75 46.1153V46.2715ZM113.223 46.4075C113.613 46.4075 113.964 46.3336 114.276 46.1858C114.592 46.0347 114.851 45.8113 115.052 45.5157V46.2715H115.717V40.8296H114.977V43.7319C114.977 44.3467 114.839 44.8287 114.563 45.1781C114.288 45.5274 113.888 45.7021 113.364 45.7021C112.985 45.7021 112.679 45.6114 112.447 45.43C112.215 45.2453 112.047 44.995 111.943 44.6792C111.839 44.3635 111.787 44.0057 111.787 43.606V40.8296H111.041V43.8226C111.041 44.1283 111.078 44.434 111.152 44.7397C111.229 45.0454 111.352 45.3242 111.52 45.5761C111.688 45.8281 111.911 46.0296 112.19 46.1808C112.472 46.3319 112.817 46.4075 113.223 46.4075ZM117.121 46.2715H117.786V45.5106C117.981 45.7928 118.227 46.0162 118.526 46.1808C118.825 46.342 119.173 46.4226 119.569 46.4226C120.08 46.4226 120.515 46.2967 120.875 46.0447C121.234 45.7894 121.508 45.4451 121.696 45.0118C121.887 44.5785 121.983 44.0897 121.983 43.5455C121.983 43.0047 121.887 42.5176 121.696 42.0843C121.508 41.6509 121.236 41.3083 120.88 41.0564C120.523 40.8044 120.097 40.6785 119.6 40.6785C119.223 40.6785 118.889 40.749 118.597 40.8901C118.308 41.0278 118.065 41.221 117.866 41.4695V39.0157H117.121V46.2715ZM119.494 45.7323C119.108 45.7323 118.788 45.6383 118.537 45.4502C118.285 45.2587 118.096 44.9984 117.972 44.6692C117.848 44.34 117.786 43.9654 117.786 43.5455C117.786 42.9039 117.925 42.3816 118.204 41.9785C118.486 41.572 118.911 41.3688 119.479 41.3688C119.868 41.3688 120.189 41.4645 120.441 41.656C120.696 41.8474 120.886 42.1078 121.011 42.437C121.135 42.7662 121.197 43.1357 121.197 43.5455C121.197 43.9587 121.133 44.3299 121.006 44.6591C120.881 44.9883 120.693 45.2503 120.441 45.4451C120.189 45.6366 119.873 45.7323 119.494 45.7323ZM124.647 46.4226C125.597 46.4226 126.287 46.0716 126.717 45.3695V46.2715H127.378V42.8905C127.378 42.6889 127.367 42.4907 127.347 42.2959C127.327 42.1011 127.283 41.9247 127.216 41.7668C127.072 41.4141 126.825 41.1454 126.476 40.9606C126.13 40.7725 125.708 40.6785 125.211 40.6785C124.613 40.6785 124.126 40.8128 123.75 41.0816C123.373 41.3503 123.121 41.7282 122.994 42.2153L123.714 42.4269C123.818 42.0641 123.998 41.7987 124.253 41.6308C124.512 41.4628 124.828 41.3788 125.201 41.3788C125.718 41.3788 126.088 41.4998 126.309 41.7416C126.531 41.9801 126.645 42.3446 126.652 42.835C126.41 42.8686 126.143 42.9039 125.851 42.9409C125.562 42.9778 125.271 43.0198 124.979 43.0668C124.687 43.1139 124.418 43.1676 124.173 43.2281C123.766 43.3356 123.434 43.5153 123.175 43.7672C122.917 44.0158 122.787 44.3635 122.787 44.8102C122.787 45.0991 122.856 45.3662 122.994 45.6114C123.132 45.8566 123.338 46.0531 123.614 46.2009C123.892 46.3487 124.237 46.4226 124.647 46.4226ZM124.732 45.7827C124.44 45.7827 124.205 45.7357 124.027 45.6416C123.852 45.5442 123.724 45.4216 123.644 45.2738C123.567 45.1226 123.528 44.9681 123.528 44.8102C123.528 44.5146 123.627 44.2929 123.825 44.1451C124.023 43.9973 124.238 43.8898 124.47 43.8226C124.769 43.742 125.117 43.6765 125.513 43.6261C125.91 43.5757 126.286 43.5287 126.642 43.485C126.642 43.6093 126.637 43.7521 126.627 43.9133C126.62 44.0712 126.602 44.2173 126.571 44.3517C126.501 44.7615 126.306 45.1025 125.987 45.3746C125.671 45.6467 125.253 45.7827 124.732 45.7827Z" fill="#97A9A5"/>
</svg>
