<svg width="387" height="133" viewBox="0 0 387 133" fill="none" xmlns="http://www.w3.org/2000/svg">
<path d="M50.4002 51.1894C46.5002 54.6894 40.0002 53.7894 40.0002 53.7894C40.0002 53.7894 39.7002 47.1894 43.5002 43.5894C47.3002 39.9894 53.9002 40.9894 53.9002 40.9894C53.9002 40.9894 54.2002 47.5894 50.4002 51.1894Z" fill="#28AE66"/>
<path d="M19.2 79.9895C14.8 82.7895 8.5 80.7895 8.5 80.7895C8.5 80.7895 9.3 74.1895 13.8 71.3895C18.2 68.5895 24.5 70.5895 24.5 70.5895C24.5 70.5895 23.6 77.1895 19.2 79.9895Z" fill="#28AE66"/>
<path d="M13.0999 41.3894C15.8999 45.7894 13.8999 52.0894 13.8999 52.0894C13.8999 52.0894 7.29985 51.2894 4.49985 46.8894C1.69985 42.4894 3.69985 36.0894 3.69985 36.0894C3.69985 36.0894 10.2999 36.9894 13.0999 41.3894Z" fill="#28AE66"/>
<path d="M31.0999 45.4896C33.8999 49.8896 31.8999 56.1896 31.8999 56.1896C31.8999 56.1896 25.2999 55.3896 22.4999 50.9896C19.6999 46.5896 21.6999 40.2896 21.6999 40.2896C21.6999 40.2896 28.1999 41.0896 31.0999 45.4896Z" fill="#28AE66"/>
<path d="M21.3001 56.2894C16.9001 53.4894 10.6001 55.4894 10.6001 55.4894C10.6001 55.4894 11.4001 62.0894 15.9001 64.8894C20.4001 67.6894 26.6001 65.6894 26.6001 65.6894C26.6001 65.6894 25.7001 58.9894 21.3001 56.2894Z" fill="#28AE66"/>
<path d="M19.2 25.8895C14.8 23.0895 8.5 25.0895 8.5 25.0895C8.5 25.0895 9.3 31.6895 13.8 34.4895C18.2 37.2895 24.5 35.2895 24.5 35.2895C24.5 35.2895 23.7 28.6895 19.2 25.8895Z" fill="#28AE66"/>
<path d="M40.4999 33.6894C39.3999 28.5894 33.4999 25.5894 33.4999 25.5894C33.4999 25.5894 29.3999 30.7894 30.5999 35.8894C31.7999 40.9894 37.5999 43.9894 37.5999 43.9894C37.5999 43.9894 41.6999 38.7894 40.4999 33.6894Z" fill="#28AE66"/>
<path d="M31.4999 14.3896C30.3999 9.28955 24.4999 6.28955 24.4999 6.28955C24.4999 6.28955 20.3999 11.4896 21.5999 16.5896C22.7999 21.6896 28.5999 24.6896 28.5999 24.6896C28.5999 24.6896 32.6999 19.4896 31.4999 14.3896Z" fill="#28AE66"/>
<path d="M28.7 73.7894C25.9 78.1894 27.9 84.4894 27.9 84.4894C27.9 84.4894 34.5 83.6894 37.3 79.2894C40.1 74.8894 38.1 68.5894 38.1 68.5894C38.1 68.5894 31.5 69.3894 28.7 73.7894Z" fill="#28AE66"/>
<path d="M63.0998 78.7896C62.0998 79.0896 61.5998 80.0895 61.7998 81.0895C62.0998 82.0895 63.0998 82.6895 64.0998 82.3895L63.5998 80.5895L63.0998 78.7896Z" fill="#28AE66"/>
<path d="M91.8 49.4894C91.8 49.1894 91.8 48.7894 91.6 48.3894C91.2 47.2894 90.6 46.4894 90.2 45.8894C89.3 44.7894 88 43.7894 87.3 43.0894C85.7 41.4894 84.3 39.6894 83 37.6894C82.7 37.1894 82.4 36.6894 82.1 36.1894L81.7 35.3894L81.6 35.2894L81.5 35.1894C81.5 35.0894 81.5 34.7894 81.5 34.1894C81.6 33.5894 81.7 32.8894 81.7 32.1894C81.8 30.7894 81.8 29.4894 81.6 28.0894C81.5 27.3894 81.4 26.6894 81.3 26.0894V25.9894C81.2 25.4894 81.1 24.7894 80.9 24.0894C80.6 22.6894 80.1 21.3894 79.6 20.1894C79.6 20.1894 79.6 20.1894 79.6 20.0894C79.5 19.8894 79.4 19.7894 79.3 19.5894C78.6 17.8894 77.7 16.2894 76.7 14.7894C72.9 8.58937 67.3 4.18937 60.7 1.78937C54 -0.510625 46.8 -0.610626 40.1 1.58937L39.1 1.98937C38.6 2.08937 38.3 2.78937 38.4 3.28937L39.1 5.38937C39.2 5.88937 39.9 6.18937 40.4 6.08937L41.4 5.68937C47.2 3.78937 53.4 3.88937 59.2 5.78937C63.1 7.18937 66.7 9.38937 69.6 12.2894C69.9 12.5894 71.5 14.4894 72.3 15.4894C73 16.3894 73.6 17.3894 74.2 18.3894C74.4 18.6894 74.6 19.0894 74.7 19.3894C75.5 20.9894 76.1 22.6894 76.6 24.3894L76.7 24.6894C76.8 25.1894 76.9 25.7894 77 26.3894C77.1 26.9894 77.1 27.4894 77.2 28.0894C77.3 29.2894 77.3 30.3894 77.2 31.4894C77.2 32.0894 77.1 32.5894 77 33.1894V33.2894C76.9 33.7894 76.7 34.7894 77 35.9894V36.0894C77 36.0894 77 36.0894 77 36.1894C77 36.1894 77 36.2894 77 36.3894C77 36.4894 77.1 36.6894 77.2 36.8894L77.3 37.1894C77.3 37.1894 77.3 37.2894 77.4 37.2894L77.5 37.4894C77.5 37.4894 77.5 37.5894 77.6 37.5894L78.1 38.3894C78.4 38.9894 78.7 39.4894 79.1 40.0894C80.5 42.2894 82.1 44.4894 84 46.4894C85.1 47.5894 85.8 48.0894 86.5 48.9894C86.6 49.1894 86.8 49.2894 86.8 49.4894C86.6 49.6894 86.4 49.8894 85.9 50.2894C85.4 50.6894 84.8 51.1894 84.2 51.8894L85 52.5894L84.2 51.8894L84.1 51.9894C83.9 52.2894 83.6 52.6894 83.3 53.2894C83 53.9894 82.9 54.6894 83 55.3894V55.4894C83.2 56.6894 83.7 57.5894 83.9 57.9894V58.0894C84.2 58.5894 84.5 59.0894 84.7 59.5894C84.8 59.6894 84.8 59.7894 84.8 59.8894C83.7 59.7894 82.7 60.3894 82.3 61.3894C81.8 62.5894 82.4 63.8894 83.5 64.4894C83.5 64.4894 83.6 64.4894 83.7 64.5894C83.8 64.6894 83.8 64.6894 83.8 64.6894C83.8 64.6894 83.8 64.6894 83.9 64.7894C84 64.8894 84.1 64.9894 84.1 65.0894C84.1 65.0894 84.1 65.0894 84.1 65.1894C84 65.2894 83.9 65.3894 83.8 65.5894C83.7 65.7894 83.5 65.9894 83.4 66.1894C83.1 66.6894 82.8 67.2894 82.6 67.9894C82.4 68.8894 82.5 69.7894 82.7 70.3894V70.4894C82.8 70.6894 82.9 70.9894 83 71.1894C83.1 71.3894 83.2 71.5894 83.2 71.7894C83.5 72.4894 83.7 73.1894 83.9 73.7894C84 74.3894 84.1 74.9894 84 75.4894C84 75.9894 83.8 76.2894 83.6 76.4894L83.5 76.5894L83.2 76.7894C83.1 76.7894 83 76.8894 82.9 76.8894H82.8H82.7H82.6L82 77.0894C82 77.0894 82 77.0894 81.9 77.0894H81.8C81.8 77.0894 81.7 77.0894 81.6 77.0894H81.5C81.4 77.0894 81.3 77.0894 81.1 77.0894C81 77.0894 80.7 77.0894 80.5 77.1894C79.8 77.1894 79 77.1894 78.2 77.1894C76.7 77.1894 74.9 77.0894 73.2 77.0894C71.5 77.0894 69.7 77.0894 68 77.2894C67.1 77.3894 66.2 77.4894 65.3 77.6894C65.3 77.6894 65.3 77.6894 65.2 77.6894C65 77.7894 64.8 77.7894 64.6 77.8894C64.4 77.9894 64.2 77.9894 64 78.0894H63.9V78.1894V78.0894L62.7 78.4894L63.3 80.2894L63.8 82.0894L64.9 81.7894C65.3 81.6894 65.7 81.6894 66 81.5894C66.8 81.4894 67.5 81.3894 68.3 81.2894C69.8 81.1894 71.4 81.1894 73 81.2894C74.6 81.3894 76.3 81.4894 78 81.5894C78.9 81.5894 79.8 81.5894 80.6 81.5894C80.6 81.5894 80.6 81.5894 80.7 81.5894C80.9 81.5894 81.7 81.5894 82.2 81.4894H82.3C82.3 81.4894 82.3 81.4894 82.4 81.4894C82.5 81.4894 82.7 81.4894 82.9 81.3894L83.5 81.1894L83.8 81.0894C83.9 81.0894 84 80.9894 84.1 80.9894L84.4 80.8894C84.6 80.7894 84.9 80.6894 85.2 80.4894H85.3L85.9 80.0894C85.9 80.0894 86 80.0894 86 79.9894V79.6894L86.4 80.2894C86.8 79.9894 87.1 79.5894 87.1 79.5894C88.1 78.5894 88.6 77.1894 88.7 75.9894C88.8 74.8894 88.7 73.7894 88.5 72.7894C88.3 71.7894 88 70.8894 87.7 69.9894C87.7 69.8894 87.6 69.8894 87.6 69.7894C87.6 69.6894 87.5 69.5894 87.5 69.4894C87.5 69.3894 87.4 69.3894 87.4 69.2894C87.4 69.2894 87.4 69.2894 87.4 69.1894C87.4 69.1894 87.4 69.1894 87.4 69.0894C87.4 68.9894 87.5 68.8894 87.6 68.6894C87.8 68.3894 88 68.1894 88.3 67.6894C88.3 67.6894 88.3 67.5894 88.4 67.5894C88.7 67.1894 89.1 66.3894 89.2 65.3894L88.3 65.2894L89.2 65.3894V65.2894C89.2 64.2894 88.9 63.5894 88.8 63.1894C89 62.9894 89.2 62.7894 89.3 62.5894C89.8 61.8894 90 61.1894 90 60.3894C90 59.1894 89.6 58.1894 89.3 57.5894C89 56.8894 88.6 56.1894 88.4 55.7894L87.5 56.2894L88.4 55.7894C88.3 55.5894 88.2 55.3894 88.1 55.1894V55.0894C88.1 55.0894 88.1 55.0894 88.1 54.9894C88.2 54.8894 88.4 54.6894 88.5 54.5894C88.7 54.3894 89 54.1894 89.1 54.0894C89.5 53.7894 90.3 53.1894 90.9 52.3894C90.9 52.3894 90.9 52.3894 90.9 52.2894C90.9 52.2894 91.1 51.9894 91.3 51.5894L91.4 51.2894C91.5 51.1894 91.5 51.0894 91.5 50.9894L90.5 50.6894L91.5 50.9894L91.6 50.6894C91.7 50.3894 91.7 50.0894 91.7 49.9894C91.7 49.8894 91.7 49.7894 91.7 49.7894C91.8 49.5894 91.8 49.5894 91.8 49.4894ZM80.7 35.1894L81.4 34.6894L80.7 35.1894ZM84.4 64.7894V64.8894C84.4 64.8894 84.4 64.8894 84.4 64.7894ZM84.4 65.0894V64.9894V65.0894ZM87 69.1894L86.5 68.9894L87 69.1894Z" fill="#28AE66"/>
<mask id="mask0" mask-type="alpha" maskUnits="userSpaceOnUse" x="0" y="29" width="98" height="49">
<rect y="29.9893" width="98" height="48" fill="#C4C4C4"/>
</mask>
<g mask="url(#mask0)">
<path d="M53.0998 94.6894C52.8998 93.8894 52.6998 60.8895 52.6998 60.8895C52.6998 59.3895 52.1998 58.1895 50.6998 58.1895H48.5998V68.5895L40.2998 60.2895L36.8998 63.6895L49 76.4895C49 76.4895 50.1998 81.9895 47.2998 87.1894L45.5998 94.5895C45.4998 95.8895 45.3998 97.2894 44.0998 98.1894C41.4998 99.9894 38.9998 102.189 36.3998 104.089C35.0998 104.989 34.1998 106.389 32.3998 106.589C29.7998 106.789 27.3998 107.889 25.0998 109.089C23.4998 109.989 21.6998 110.489 19.7998 110.289C18.9998 110.189 18.1998 109.989 17.4998 110.089C13.7998 110.689 10.1998 111.389 6.4998 111.989C6.2998 111.989 6.0998 112.289 5.7998 112.389C5.8998 112.489 5.8998 112.489 5.9998 112.589C9.6998 112.089 13.3998 111.489 17.0998 110.989C17.0998 111.089 17.1998 111.189 17.1998 111.289C14.8998 112.289 12.5998 113.389 10.2998 114.389C13.2998 113.589 16.0998 112.289 19.1998 111.889C18.0998 113.289 16.9998 114.589 15.9998 115.889C14.9998 117.189 13.9998 118.589 12.8998 119.889C12.6998 120.089 12.4998 120.189 12.1998 120.389C11.9998 120.589 11.7998 120.789 11.6998 120.989C11.7998 121.089 11.8998 121.189 12.0998 121.289C13.3998 119.989 14.7998 118.689 15.8998 117.289C17.2998 115.389 18.6998 113.389 20.9998 112.489C24.4998 111.089 28.0998 109.789 31.7998 108.489C31.1998 109.889 30.3998 110.889 30.1998 112.089C29.6998 114.389 28.2998 115.389 26.0998 115.989C24.1998 116.489 22.7998 117.889 21.9998 120.089C25.5998 116.589 26.5998 115.989 28.9998 115.789C27.9998 119.989 27.5998 124.289 25.5998 128.189C25.6998 128.189 25.7998 128.289 25.8998 128.289C26.4998 127.089 26.9998 125.889 27.6998 124.589C27.9998 125.689 28.2998 126.689 28.5998 127.689C28.5998 125.889 28.2998 124.189 28.6998 122.489C29.2998 119.489 30.0998 116.489 31.0998 113.589C31.8998 111.089 33.6998 109.189 35.6998 107.589C38.3998 105.589 41.0998 103.589 43.6998 101.489C43.4998 102.689 43.0998 103.789 42.6998 104.789C42.1998 105.989 41.7998 107.289 41.1998 108.489C39.7998 110.989 37.4998 112.789 35.0998 114.289C32.8998 115.789 32.3998 117.889 33.9998 119.889C34.5998 120.689 35.0998 121.489 35.4998 122.389C36.9998 125.389 37.7998 128.589 36.7998 131.989C36.8998 131.989 36.9998 131.989 37.0998 131.989C37.2998 131.289 37.4998 130.589 37.6998 129.889C37.5998 129.489 37.4998 129.189 37.4998 128.789C37.4998 125.489 36.6998 122.489 34.8998 119.589C33.5998 117.489 33.8998 116.489 35.9998 115.189C37.4998 114.289 39.0998 113.589 40.2998 112.389C41.6998 110.989 42.7998 109.189 43.9998 107.589C44.4998 106.889 44.8998 106.089 45.3998 105.389C45.9998 104.489 46.9998 104.289 47.9998 104.989C46.5998 107.089 45.0998 109.089 43.7998 111.189C42.2998 113.589 41.4998 116.189 41.2998 119.089C41.1998 121.589 40.3998 123.889 39.2998 126.189C39.1998 126.389 39.1998 126.589 39.0998 126.689C39.6998 125.689 40.3998 124.589 41.0998 123.489C41.3998 125.989 41.6998 128.289 41.9998 130.589C41.2998 123.989 41.1998 117.489 45.2998 111.689C44.7998 114.589 44.3998 117.589 43.8998 120.489C44.5998 118.389 44.9998 116.189 45.5998 114.089C45.9998 112.589 46.1998 110.789 47.7998 109.889C48.5998 109.389 49.3998 108.789 50.1998 108.289C50.6998 111.189 50.9998 114.189 51.6998 117.189C52.0998 118.789 51.3998 119.589 50.3998 120.589C49.6998 121.189 49.0998 121.789 48.4998 122.489C47.9998 122.989 47.4998 123.489 46.9998 123.989C47.0998 123.989 47.0998 124.089 47.1998 124.089C48.7998 122.689 50.3998 121.289 52.1998 119.689C52.3998 122.589 52.4998 125.289 52.5998 127.989C52.5998 128.389 52.3998 129.089 51.9998 129.289C50.8998 130.189 49.6998 130.889 48.4998 131.689C48.4998 131.689 48.4998 131.789 48.5998 131.789C49.7998 131.189 51.0998 130.489 52.4998 129.789C51.9998 131.489 51.7998 133.189 51.0998 134.589C50.2998 135.989 48.9998 136.989 47.8998 138.189C47.8998 138.189 47.8998 138.189 47.9998 138.189C48.8998 137.489 49.8998 136.789 50.7998 136.089C50.4998 138.589 50.1998 140.889 49.8998 143.289C50.5998 140.189 51.2998 137.089 51.9998 133.989C52.0998 133.989 52.1998 133.989 52.2998 134.089C52.3998 134.489 52.5998 134.889 52.6998 135.289C52.6998 133.989 52.7998 132.689 52.8998 131.389C52.9998 130.189 53.2998 128.889 53.2998 127.689C53.2998 117.289 53.2998 106.889 53.2998 96.4895" fill="#28AE66"/>
</g>
<path d="M50.4162 65.1609C50.5709 66.708 50.2615 68.255 50.1068 69.8021C49.8748 72.0453 51.9633 58.1284 51.7312 60.3716C51.5765 61.764 51.2671 63.311 51.1124 64.9354L49.0239 70.9897C48.7918 73.5423 49.1012 76.1515 48.9465 78.7041C48.7918 81.2568 48.5598 83.732 48.4051 86.2847C48.173 89.2241 48.0957 92.2408 47.7862 95.1802C47.7089 96.1858 47.6315 97.2687 46.626 97.9649C44.6148 99.3572 42.681 101.059 40.6698 102.529C39.6642 103.225 38.9681 104.308 37.5757 104.462C35.5646 104.617 33.7081 105.468 31.929 106.396C30.6914 107.092 29.299 107.479 27.8293 107.325C27.2105 107.247 26.5917 107.092 26.0502 107.17C23.1882 107.634 20.4035 108.175 17.5415 108.64C17.3868 108.64 17.2321 108.872 17 108.949C17.0774 109.026 17.0774 109.026 17.1547 109.104C20.0167 108.717 22.8788 108.253 25.7408 107.866C25.7408 107.943 25.8182 108.021 25.8182 108.098C24.0391 108.872 22.26 109.722 20.4809 110.496C22.8014 109.877 24.9673 108.872 27.3652 108.562C26.5143 109.645 25.6635 110.651 24.8899 111.656C24.1164 112.662 23.3429 113.745 22.492 114.75C22.3373 114.905 22.1826 114.982 21.9506 115.137C21.7958 115.292 21.6411 115.447 21.5638 115.601C21.6411 115.679 21.7185 115.756 21.8732 115.833C22.8788 114.828 23.9617 113.822 24.8126 112.739C25.8955 111.269 26.9785 109.722 28.7576 109.026C31.4649 107.943 34.2496 106.938 37.1116 105.932C36.6475 107.015 36.0287 107.789 35.874 108.717C35.4872 110.496 34.4043 111.27 32.7025 111.734C31.2328 112.12 30.1499 113.203 29.5311 114.905C32.3158 112.198 33.0893 111.734 34.9458 111.579C34.1722 114.828 33.8628 118.154 32.3158 121.171C32.3931 121.171 32.4705 121.248 32.5478 121.248C33.0119 120.32 33.3987 119.391 33.9402 118.386C34.1722 119.237 34.4043 120.01 34.6363 120.784C34.6363 119.391 34.4043 118.077 34.7137 116.762C35.1778 114.441 35.7966 112.12 36.5702 109.877C37.189 107.943 38.5813 106.474 40.1284 105.236C42.2169 103.689 44.3054 102.142 46.3166 100.518C46.1618 101.446 45.8524 102.297 45.543 103.07C45.1563 103.998 44.8469 105.004 44.3827 105.932C43.2998 107.866 41.5207 109.258 39.6642 110.419C37.9625 111.579 37.5757 113.203 38.8134 114.75C39.2775 115.369 39.6642 115.988 39.9737 116.684C41.1339 119.005 41.7528 121.48 40.9792 124.11C41.0566 124.11 41.1339 124.11 41.2113 124.11C41.366 123.569 41.5207 123.027 41.6754 122.486C41.5981 122.176 41.5207 121.944 41.5207 121.635C41.5207 119.082 40.9019 116.762 39.5095 114.518C38.504 112.894 38.736 112.12 40.3604 111.115C41.5207 110.419 42.7583 109.877 43.6866 108.949C44.7695 107.866 45.6204 106.474 46.5486 105.236C46.9354 104.695 47.2448 104.076 47.6315 103.534C48.0957 102.838 48.8692 102.683 49.6427 103.225C48.5598 104.849 47.3995 106.396 46.3939 108.021C45.2336 109.877 44.6148 111.888 44.4601 114.132C44.3827 116.065 43.7639 117.844 42.913 119.624C42.8357 119.778 42.8357 119.933 42.7583 120.01C43.2225 119.237 43.7639 118.386 44.3054 117.535C44.5374 119.469 44.7695 121.248 45.0016 123.027C44.4601 117.922 44.3827 112.894 47.5542 108.407C47.1674 110.651 46.858 112.971 46.4713 115.214C47.0127 113.59 47.3221 111.888 47.7862 110.264C48.0957 109.104 48.2504 107.711 49.488 107.015C50.1068 106.628 50.7256 106.164 51.3445 105.777C51.7312 108.021 51.9633 110.341 52.5047 112.662C52.8142 113.899 52.2727 114.518 51.4992 115.292C50.9577 115.756 50.4936 116.22 50.0295 116.762C49.6427 117.148 49.2559 117.535 48.8692 117.922C48.9465 117.922 48.9465 117.999 49.0239 117.999C50.2615 116.916 51.4992 115.833 52.8915 114.596C53.0462 116.839 53.1236 118.927 53.2009 121.016C53.2009 121.325 53.0462 121.867 52.7368 122.021C51.8859 122.718 50.9577 123.259 50.0295 123.878C50.0295 123.878 50.0295 123.955 50.1068 123.955C51.035 123.491 52.0406 122.95 53.1236 122.408C52.7368 123.723 52.5821 125.038 52.0406 126.121C51.4218 127.204 50.4162 127.978 49.5654 128.906C49.5654 128.906 49.5654 128.906 49.6427 128.906C50.3389 128.364 51.1124 127.823 51.8086 127.281C51.5765 129.215 51.3445 130.994 51.1124 132.851C51.6539 130.453 52.1953 128.055 52.7368 125.657C52.8142 125.657 52.8915 125.657 52.9689 125.734C53.0462 126.044 53.2009 126.353 53.2783 126.663C53.2783 125.657 53.3556 124.651 53.433 123.646C53.5103 122.718 53.7424 121.712 53.7424 120.784C53.7424 103.921 53 86.6649 53 69.8021C53 62.2989 51.1898 69.4927 51.1124 61.9895C51.1124 61.7574 51.1124 61.448 50.9577 61.2933L50.4162 65.1609Z" fill="#28AE66"/>
<path d="M320.9 54.7893C320.9 55.4893 321.2 55.9893 321.8 56.3893C322.4 56.7893 323.2 56.9893 324.1 56.9893C324.9 56.9893 325.6 56.8893 326.2 56.6893C326.9 56.4893 327.4 56.1893 328 55.8893V53.2893C327.4 53.0893 326.8 52.8893 326.2 52.7893C325.6 52.6893 325 52.5893 324.3 52.5893C323.2 52.5893 322.4 52.7893 321.8 53.1893C321.1 53.5893 320.9 54.0893 320.9 54.7893ZM322.8 60.2893C320.9 60.2893 319.4 59.7893 318.2 58.7893C317 57.7893 316.4 56.4893 316.4 54.8893C316.4 53.1893 317 51.8893 318.3 50.9893C319.6 50.0893 321.3 49.5893 323.6 49.5893C324.3 49.5893 325 49.6893 325.8 49.7893C326.5 49.8893 327.2 50.0893 327.9 50.2893V49.0893C327.9 48.0893 327.6 47.2893 327 46.7893C326.4 46.2893 325.5 45.9893 324.2 45.9893C323.5 45.9893 322.7 46.0893 321.8 46.3893C320.9 46.5893 320 46.9893 318.9 47.4893L317.2 44.0893C318.6 43.4893 319.9 42.9893 321.2 42.6893C322.5 42.3893 323.8 42.1893 325 42.1893C327.4 42.1893 329.2 42.7893 330.5 43.8893C331.8 44.9893 332.5 46.5893 332.5 48.6893V60.0893H328V58.8893C327.3 59.3893 326.5 59.7893 325.6 59.9893C324.8 60.1893 323.9 60.2893 322.8 60.2893ZM308 56.2893C308.8 56.2893 309.5 56.0893 310.2 55.7893C310.9 55.4893 311.6 54.9893 312.2 54.2893L315 57.1893C314.1 58.1893 313 58.9893 311.8 59.4893C310.5 59.9893 309.2 60.2893 307.9 60.2893C306.6 60.2893 305.4 60.0893 304.3 59.5893C303.2 59.0893 302.2 58.4893 301.4 57.6893C300.6 56.8893 300 55.8893 299.5 54.7893C299 53.6893 298.8 52.4893 298.8 51.1893C298.8 49.8893 299 48.6893 299.5 47.5893C300 46.4893 300.6 45.4893 301.4 44.6893C302.2 43.8893 303.2 43.1893 304.3 42.6893C305.4 42.1893 306.7 41.9893 307.9 41.9893C309.3 41.9893 310.6 42.2893 311.9 42.7893C313.2 43.2893 314.3 44.0893 315.2 45.0893L312.4 48.0893C311.8 47.3893 311.1 46.8893 310.4 46.4893C309.7 46.0893 308.9 45.9893 308.1 45.9893C306.8 45.9893 305.7 46.4893 304.7 47.4893C303.8 48.4893 303.4 49.6893 303.4 51.0893C303.4 52.4893 303.9 53.6893 304.8 54.6893C305.5 55.7893 306.6 56.2893 308 56.2893ZM295.8 42.4893V59.9893H291.2V42.4893H295.8ZM293.5 40.3893C292.8 40.3893 292.2 40.0893 291.6 39.5893C291 39.0893 290.8 38.4893 290.8 37.6893C290.8 36.8893 291.1 36.3893 291.6 35.7893C292.1 35.2893 292.7 34.9893 293.5 34.9893C294.2 34.9893 294.8 35.2893 295.4 35.7893C295.9 36.2893 296.2 36.8893 296.2 37.6893C296.2 38.4893 295.9 38.9893 295.4 39.5893C294.8 40.0893 294.2 40.3893 293.5 40.3893ZM273.8 51.0893C273.8 52.4893 274.3 53.6893 275.2 54.6893C276.2 55.6893 277.4 56.1893 278.8 56.1893C279.6 56.1893 280.4 56.0893 281.1 55.7893C281.8 55.4893 282.4 55.0893 282.9 54.5893V47.6893C282.4 47.1893 281.8 46.7893 281.1 46.5893C280.4 46.2893 279.6 46.1893 278.8 46.1893C277.4 46.1893 276.2 46.6893 275.2 47.5893C274.3 48.4893 273.8 49.6893 273.8 51.0893ZM278.1 60.0893C276.9 60.0893 275.7 59.8893 274.6 59.3893C273.5 58.8893 272.6 58.2893 271.8 57.4893C271 56.6893 270.4 55.7893 269.9 54.6893C269.5 53.5893 269.2 52.3893 269.2 51.1893C269.2 49.9893 269.4 48.7893 269.9 47.6893C270.4 46.5893 271 45.5893 271.8 44.7893C272.6 43.9893 273.6 43.3893 274.7 42.8893C275.8 42.3893 277 42.1893 278.2 42.1893C279.1 42.1893 279.9 42.2893 280.7 42.5893C281.5 42.7893 282.3 43.1893 283 43.5893V42.4893H287.5V59.9893C287.5 62.2893 286.7 64.0893 285.2 65.2893C283.7 66.5893 281.6 67.1893 278.8 67.1893C277.5 67.1893 276.2 67.0893 274.9 66.7893C273.7 66.4893 272.5 66.0893 271.5 65.5893L273.1 61.9893C274.1 62.4893 275 62.7893 275.9 62.9893C276.8 63.1893 277.7 63.3893 278.7 63.3893C280.1 63.3893 281.1 63.0893 281.8 62.4893C282.5 61.8893 282.9 61.0893 282.9 59.8893V58.4893C282.2 58.9893 281.4 59.3893 280.6 59.6893C279.8 59.9893 279 60.0893 278.1 60.0893ZM257.7 56.2893C259 56.2893 260.2 55.7893 261.1 54.7893C262 53.7893 262.5 52.5893 262.5 51.1893C262.5 49.7893 262 48.5893 261.1 47.5893C260.2 46.5893 259 46.0893 257.7 46.0893C256.4 46.0893 255.2 46.5893 254.3 47.5893C253.4 48.5893 252.9 49.7893 252.9 51.1893C252.9 52.5893 253.4 53.7893 254.3 54.7893C255.2 55.7893 256.4 56.2893 257.7 56.2893ZM248.4 51.1893C248.4 49.8893 248.6 48.6893 249.1 47.5893C249.6 46.4893 250.3 45.4893 251.1 44.6893C252 43.8893 253 43.1893 254.1 42.6893C255.2 42.1893 256.5 41.9893 257.8 41.9893C259.1 41.9893 260.3 42.1893 261.5 42.6893C262.6 43.1893 263.6 43.7893 264.5 44.6893C265.4 45.4893 266 46.4893 266.5 47.5893C267 48.6893 267.2 49.8893 267.2 51.1893C267.2 52.4893 267 53.6893 266.5 54.7893C266 55.8893 265.4 56.8893 264.5 57.6893C263.7 58.4893 262.7 59.0893 261.5 59.5893C260.4 60.0893 259.1 60.2893 257.8 60.2893C256.5 60.2893 255.3 60.0893 254.1 59.5893C253 59.0893 252 58.4893 251.1 57.6893C250.3 56.8893 249.6 55.8893 249.1 54.7893C248.6 53.6893 248.4 52.4893 248.4 51.1893ZM245.6 35.3893V59.9893H241V36.3893L245.6 35.3893ZM228.8 56.2893C230.1 56.2893 231.3 55.7893 232.2 54.7893C233.1 53.7893 233.6 52.5893 233.6 51.1893C233.6 49.7893 233.1 48.5893 232.2 47.5893C231.3 46.5893 230.1 46.0893 228.8 46.0893C227.5 46.0893 226.3 46.5893 225.4 47.5893C224.5 48.5893 224 49.7893 224 51.1893C224 52.5893 224.5 53.7893 225.4 54.7893C226.3 55.7893 227.4 56.2893 228.8 56.2893ZM219.4 51.1893C219.4 49.8893 219.6 48.6893 220.1 47.5893C220.6 46.4893 221.3 45.4893 222.1 44.6893C223 43.8893 224 43.1893 225.1 42.6893C226.2 42.1893 227.5 41.9893 228.8 41.9893C230.1 41.9893 231.3 42.1893 232.5 42.6893C233.6 43.1893 234.6 43.7893 235.5 44.6893C236.4 45.4893 237 46.4893 237.5 47.5893C238 48.6893 238.2 49.8893 238.2 51.1893C238.2 52.4893 238 53.6893 237.5 54.7893C237 55.8893 236.4 56.8893 235.5 57.6893C234.7 58.4893 233.7 59.0893 232.5 59.5893C231.4 60.0893 230.1 60.2893 228.8 60.2893C227.5 60.2893 226.3 60.0893 225.1 59.5893C224 59.0893 223 58.4893 222.1 57.6893C221.3 56.8893 220.6 55.8893 220.1 54.7893C219.7 53.6893 219.4 52.4893 219.4 51.1893ZM200.3 59.9893V36.3893L204.9 35.3893V43.7893C205.6 43.1893 206.3 42.7893 207.1 42.4893C207.9 42.1893 208.8 42.0893 209.8 42.0893C211.8 42.0893 213.5 42.7893 214.8 44.0893C216.1 45.3893 216.8 47.0893 216.8 49.0893V59.9893H212.2V49.7893C212.2 48.6893 211.9 47.7893 211.2 47.0893C210.5 46.3893 209.7 46.0893 208.6 46.0893C207.8 46.0893 207.1 46.2893 206.5 46.5893C205.9 46.8893 205.4 47.2893 205 47.8893V59.9893H200.3ZM191 56.2893C191.8 56.2893 192.5 56.0893 193.2 55.7893C193.9 55.4893 194.6 54.9893 195.2 54.2893L198 57.1893C197.1 58.1893 196 58.9893 194.8 59.4893C193.5 59.9893 192.2 60.2893 190.9 60.2893C189.6 60.2893 188.4 60.0893 187.3 59.5893C186.2 59.0893 185.2 58.4893 184.4 57.6893C183.6 56.8893 183 55.8893 182.5 54.7893C182 53.6893 181.8 52.4893 181.8 51.1893C181.8 49.8893 182 48.6893 182.5 47.5893C183 46.4893 183.6 45.4893 184.4 44.6893C185.2 43.8893 186.2 43.1893 187.3 42.6893C188.4 42.1893 189.7 41.9893 190.9 41.9893C192.3 41.9893 193.6 42.2893 194.9 42.7893C196.2 43.2893 197.3 44.0893 198.2 45.0893L195.4 48.0893C194.8 47.3893 194.1 46.8893 193.4 46.4893C192.7 46.0893 191.9 45.9893 191.1 45.9893C189.8 45.9893 188.7 46.4893 187.7 47.4893C186.8 48.4893 186.4 49.6893 186.4 51.0893C186.4 52.4893 186.9 53.6893 187.8 54.6893C188.5 55.7893 189.6 56.2893 191 56.2893ZM168.4 60.7893L168.7 60.1893L161.9 42.4893H167L171.3 54.3893L176.3 42.4893H181.3L173.2 61.3893C172.3 63.4893 171.3 64.9893 170.1 65.8893C168.9 66.7893 167.4 67.1893 165.5 67.1893C165.1 67.1893 164.7 67.1893 164.3 67.0893C163.9 67.0893 163.6 66.9893 163.4 66.9893V62.9893C163.6 62.9893 163.9 63.0893 164.1 63.0893C164.3 63.0893 164.6 63.0893 165 63.0893C165.8 63.0893 166.5 62.8893 167.1 62.4893C167.6 62.1893 168.1 61.5893 168.4 60.7893ZM146 57.8893L148.3 54.7893C149.3 55.4893 150.3 55.9893 151.2 56.2893C152.1 56.5893 153 56.7893 154 56.7893C155 56.7893 155.9 56.5893 156.5 56.2893C157.1 55.9893 157.4 55.4893 157.4 54.9893C157.4 54.5893 157.2 54.1893 156.9 53.8893C156.6 53.5893 156 53.3893 155.3 53.2893L151.9 52.7893C150.2 52.4893 148.8 51.9893 147.9 51.0893C147 50.1893 146.6 49.0893 146.6 47.6893C146.6 45.9893 147.3 44.6893 148.6 43.6893C149.9 42.6893 151.7 42.1893 153.9 42.1893C155.2 42.1893 156.4 42.3893 157.6 42.7893C158.8 43.1893 160 43.6893 161.1 44.3893L158.9 47.3893C157.9 46.7893 157 46.3893 156.1 46.1893C155.2 45.8893 154.3 45.7893 153.4 45.7893C152.6 45.7893 151.9 45.9893 151.4 46.2893C150.9 46.5893 150.7 46.9893 150.7 47.4893C150.7 47.9893 150.9 48.2893 151.2 48.5893C151.6 48.7893 152.2 48.9893 153.1 49.0893L156.5 49.5893C158.2 49.7893 159.5 50.3893 160.4 51.2893C161.3 52.1893 161.8 53.2893 161.8 54.5893C161.8 55.3893 161.6 56.1893 161.2 56.8893C160.8 57.5893 160.3 58.1893 159.6 58.6893C158.9 59.1893 158.1 59.5893 157.2 59.8893C156.3 60.1893 155.2 60.2893 154.1 60.2893C152.5 60.2893 151 60.0893 149.6 59.6893C148.2 59.2893 147 58.6893 146 57.8893ZM136.1 40.5893H129.7V46.9893H136.1C137.2 46.9893 138 46.6893 138.6 46.0893C139.3 45.4893 139.6 44.6893 139.6 43.7893C139.6 42.8893 139.3 42.0893 138.6 41.4893C138 40.8893 137.2 40.5893 136.1 40.5893ZM124.9 59.9893V36.3893H136.7C137.8 36.3893 138.9 36.5893 139.9 36.9893C140.9 37.3893 141.7 37.8893 142.4 38.4893C143.1 39.0893 143.6 39.8893 144 40.8893C144.4 41.7893 144.6 42.7893 144.6 43.8893C144.6 44.9893 144.4 45.8893 144 46.7893C143.6 47.6893 143.1 48.3893 142.4 49.0893C141.7 49.7893 140.9 50.2893 139.9 50.5893C138.9 50.8893 137.9 51.0893 136.7 51.0893H129.8V59.9893H124.9Z" fill="#1F1F1F"/>
<path d="M126.336 90.1895V77.1357H132.005C133.273 77.1357 134.292 77.4838 135.063 78.18C135.834 78.8637 136.219 79.7713 136.219 80.9026C136.219 82.0339 135.828 82.9477 135.045 83.6439C134.274 84.3401 133.261 84.6882 132.005 84.6882H127.772V90.1895H126.336ZM131.893 78.4224H127.772V83.4388H131.893C132.776 83.4388 133.478 83.215 134 82.7674C134.522 82.3074 134.783 81.6921 134.783 80.9213C134.783 80.1505 134.522 79.5413 134 79.0937C133.478 78.6462 132.776 78.4224 131.893 78.4224ZM137.198 88.9027L138.037 88.0076C138.46 88.4054 138.932 88.7162 139.454 88.94C139.989 89.1514 140.53 89.257 141.077 89.257C141.822 89.257 142.432 89.1016 142.904 88.7908C143.377 88.48 143.613 88.076 143.613 87.5787C143.613 87.1809 143.47 86.8701 143.184 86.6463C142.91 86.4101 142.475 86.2485 141.878 86.1614L140.256 85.9376C139.324 85.8009 138.627 85.5274 138.167 85.1171C137.72 84.6944 137.496 84.1288 137.496 83.4201C137.496 82.6369 137.826 81.9904 138.484 81.4807C139.143 80.9586 139.983 80.6975 141.002 80.6975C141.673 80.6975 142.307 80.7969 142.904 80.9959C143.513 81.1948 144.104 81.5056 144.676 81.9283L143.948 82.8607C143.426 82.5126 142.917 82.2515 142.419 82.0775C141.934 81.9034 141.437 81.8164 140.927 81.8164C140.293 81.8164 139.771 81.9593 139.361 82.2453C138.963 82.5312 138.764 82.9042 138.764 83.3642C138.764 83.762 138.901 84.0728 139.174 84.2966C139.448 84.5079 139.889 84.6571 140.498 84.7442L142.121 84.9679C143.053 85.0923 143.749 85.372 144.209 85.8071C144.682 86.2298 144.918 86.7955 144.918 87.5041C144.918 87.9019 144.819 88.2811 144.62 88.6416C144.433 88.9897 144.166 89.2943 143.818 89.5554C143.482 89.8041 143.084 90.003 142.624 90.1522C142.164 90.2889 141.667 90.3573 141.132 90.3573C140.362 90.3573 139.634 90.233 138.951 89.9843C138.279 89.7232 137.695 89.3627 137.198 88.9027ZM148.471 91.4016L149.012 90.1708L145.208 80.8467H146.737L149.758 88.5111L153.021 80.8467H154.513L149.87 91.5881C149.472 92.4832 149.03 93.1297 148.546 93.5275C148.061 93.9253 147.445 94.1242 146.699 94.1242C146.525 94.1242 146.358 94.1118 146.196 94.0869C146.047 94.0745 145.922 94.0559 145.823 94.031V92.7816C145.947 92.8064 146.065 92.8251 146.177 92.8375C146.302 92.8499 146.445 92.8562 146.606 92.8562C147.029 92.8562 147.389 92.7381 147.688 92.5018C147.986 92.2656 148.247 91.8989 148.471 91.4016ZM159.795 89.1079C160.292 89.1079 160.771 89.0084 161.231 88.8095C161.691 88.6106 162.12 88.3184 162.518 87.933L163.375 88.8654C162.878 89.3378 162.319 89.7046 161.697 89.9657C161.075 90.2267 160.429 90.3573 159.758 90.3573C159.099 90.3573 158.477 90.233 157.893 89.9843C157.308 89.7357 156.805 89.3938 156.382 88.9587C155.96 88.5235 155.624 88.0076 155.375 87.4109C155.127 86.8141 155.002 86.1801 155.002 85.5087C155.002 84.8374 155.127 84.2096 155.375 83.6253C155.624 83.0285 155.96 82.5126 156.382 82.0775C156.805 81.6423 157.308 81.3004 157.893 81.0518C158.477 80.7907 159.099 80.6602 159.758 80.6602C160.429 80.6602 161.082 80.7907 161.716 81.0518C162.362 81.3129 162.928 81.6734 163.413 82.1334L162.536 83.1404C162.163 82.755 161.734 82.4566 161.249 82.2453C160.765 82.0339 160.274 81.9283 159.776 81.9283C159.304 81.9283 158.856 82.0215 158.434 82.208C158.011 82.3945 157.644 82.6493 157.333 82.9726C157.035 83.2958 156.799 83.675 156.625 84.1101C156.451 84.5452 156.364 85.0114 156.364 85.5087C156.364 86.0185 156.451 86.4971 156.625 86.9447C156.811 87.3798 157.054 87.759 157.352 88.0822C157.663 88.393 158.03 88.6416 158.452 88.8281C158.875 89.0146 159.322 89.1079 159.795 89.1079ZM164.992 90.1895V77.1357L166.372 76.8186V81.9469C166.733 81.5242 167.162 81.2072 167.659 80.9959C168.156 80.7721 168.709 80.6602 169.318 80.6602C170.375 80.6602 171.239 80.9959 171.911 81.6672C172.582 82.3385 172.918 83.2088 172.918 84.2779V90.1895H171.556V84.5577C171.556 83.7371 171.32 83.0845 170.848 82.5996C170.375 82.1147 169.741 81.8723 168.946 81.8723C168.386 81.8723 167.883 81.9966 167.435 82.2453C167 82.4939 166.646 82.8482 166.372 83.3082V90.1895H164.992ZM174.798 85.5087C174.798 84.8374 174.922 84.2034 175.171 83.6066C175.419 83.0099 175.755 82.4939 176.178 82.0588C176.613 81.6237 177.123 81.2818 177.707 81.0331C178.291 80.7845 178.913 80.6602 179.572 80.6602C180.231 80.6602 180.846 80.7845 181.418 81.0331C182.002 81.2818 182.506 81.6237 182.929 82.0588C183.364 82.4939 183.706 83.0099 183.954 83.6066C184.203 84.2034 184.327 84.8374 184.327 85.5087C184.327 86.1925 184.203 86.8328 183.954 87.4295C183.706 88.0263 183.364 88.5422 182.929 88.9773C182.506 89.4124 182.002 89.7543 181.418 90.003C180.846 90.2516 180.231 90.3759 179.572 90.3759C178.913 90.3759 178.291 90.2516 177.707 90.003C177.123 89.7543 176.613 89.4124 176.178 88.9773C175.755 88.5422 175.419 88.0263 175.171 87.4295C174.922 86.8328 174.798 86.1925 174.798 85.5087ZM179.572 89.1451C180.044 89.1451 180.486 89.0519 180.896 88.8654C181.319 88.6789 181.679 88.4241 181.977 88.1008C182.288 87.7652 182.531 87.3798 182.705 86.9447C182.879 86.4971 182.966 86.0185 182.966 85.5087C182.966 84.999 182.879 84.5266 182.705 84.0915C182.531 83.6439 182.288 83.2585 181.977 82.9353C181.679 82.612 181.319 82.3572 180.896 82.1707C180.486 81.9842 180.044 81.891 179.572 81.891C179.099 81.891 178.652 81.9842 178.229 82.1707C177.819 82.3572 177.458 82.612 177.148 82.9353C176.849 83.2585 176.607 83.6439 176.42 84.0915C176.246 84.5266 176.159 84.999 176.159 85.5087C176.159 86.0185 176.246 86.4971 176.42 86.9447C176.594 87.3798 176.831 87.7652 177.129 88.1008C177.44 88.4241 177.806 88.6789 178.229 88.8654C178.652 89.0519 179.099 89.1451 179.572 89.1451ZM186.727 88.1008V82.0215H184.713V80.8467H186.727V78.4783L188.088 78.124V80.8467H190.904V82.0215H188.088V87.7465C188.088 88.2438 188.2 88.6043 188.424 88.8281C188.648 89.0395 189.014 89.1451 189.524 89.1451C189.785 89.1451 190.015 89.1265 190.214 89.0892C190.426 89.0519 190.649 88.9897 190.886 88.9027V90.1149C190.649 90.2019 190.382 90.264 190.084 90.3013C189.798 90.3386 189.518 90.3573 189.244 90.3573C188.436 90.3573 187.815 90.1646 187.38 89.7792C186.945 89.3938 186.727 88.8343 186.727 88.1008ZM199.96 89.2011C199.438 89.5865 198.891 89.8786 198.319 90.0776C197.759 90.264 197.144 90.3573 196.473 90.3573C195.801 90.3573 195.167 90.233 194.571 89.9843C193.986 89.7357 193.477 89.3938 193.041 88.9587C192.619 88.5235 192.283 88.0138 192.034 87.4295C191.786 86.8328 191.661 86.1925 191.661 85.5087C191.661 84.8374 191.78 84.2096 192.016 83.6253C192.264 83.0409 192.594 82.5312 193.004 82.0961C193.414 81.661 193.899 81.3191 194.459 81.0704C195.031 80.8218 195.634 80.6975 196.268 80.6975C196.889 80.6975 197.467 80.8218 198.002 81.0704C198.549 81.3191 199.015 81.661 199.4 82.0961C199.798 82.5312 200.109 83.0409 200.333 83.6253C200.569 84.2096 200.687 84.8374 200.687 85.5087V85.9376H193.023C193.122 86.8576 193.501 87.6222 194.16 88.2314C194.819 88.8406 195.609 89.1451 196.529 89.1451C197.014 89.1451 197.486 89.0706 197.946 88.9214C198.406 88.7722 198.791 88.5608 199.102 88.2873L199.96 89.2011ZM196.23 81.9096C195.422 81.9096 194.72 82.1831 194.123 82.7301C193.539 83.2772 193.184 83.9796 193.06 84.8374H199.307C199.183 84.0169 198.829 83.3269 198.244 82.7674C197.672 82.1956 197.001 81.9096 196.23 81.9096ZM202.616 90.1895V80.8467H203.996V82.1707C204.27 81.6858 204.63 81.3129 205.078 81.0518C205.526 80.7783 206.035 80.6415 206.607 80.6415C206.781 80.6415 206.937 80.654 207.073 80.6788C207.21 80.6913 207.347 80.7223 207.484 80.7721V82.0402C207.322 81.9904 207.16 81.9531 206.999 81.9283C206.837 81.891 206.676 81.8723 206.514 81.8723C205.942 81.8723 205.439 82.0402 205.003 82.3758C204.568 82.6991 204.233 83.1715 203.996 83.7931V90.1895H202.616ZM211.518 90.3573C210.498 90.3573 209.666 90.0962 209.019 89.5741C208.385 89.0519 208.068 88.3744 208.068 87.5414C208.068 86.6711 208.404 85.9812 209.075 85.4714C209.746 84.9493 210.654 84.6882 211.798 84.6882C212.295 84.6882 212.774 84.7442 213.234 84.856C213.706 84.9679 214.141 85.1233 214.539 85.3223V84.0915C214.539 83.3455 214.328 82.7861 213.905 82.4131C213.482 82.0277 212.867 81.835 212.059 81.835C211.599 81.835 211.133 81.9034 210.66 82.0402C210.2 82.1645 209.69 82.3696 209.131 82.6555L208.609 81.5926C209.28 81.2694 209.902 81.0331 210.474 80.884C211.046 80.7348 211.617 80.6602 212.189 80.6602C213.37 80.6602 214.278 80.9399 214.912 81.4994C215.558 82.0588 215.882 82.8607 215.882 83.905V90.1895H214.539V89.2757C214.116 89.6362 213.65 89.9097 213.14 90.0962C212.643 90.2703 212.102 90.3573 211.518 90.3573ZM209.392 87.5041C209.392 88.0263 209.61 88.4552 210.045 88.7908C210.492 89.1141 211.064 89.2757 211.76 89.2757C212.32 89.2757 212.83 89.1887 213.29 89.0146C213.75 88.8406 214.166 88.5671 214.539 88.1941V86.4411C214.154 86.1801 213.737 85.9936 213.29 85.8817C212.854 85.7574 212.37 85.6952 211.835 85.6952C211.089 85.6952 210.492 85.8631 210.045 86.1987C209.61 86.522 209.392 86.9571 209.392 87.5041ZM218.187 94.0123V80.8467H219.548V81.8537C219.946 81.4683 220.4 81.1823 220.91 80.9959C221.432 80.7969 221.985 80.6975 222.569 80.6975C223.228 80.6975 223.844 80.8218 224.416 81.0704C224.987 81.3191 225.485 81.661 225.907 82.0961C226.33 82.5188 226.66 83.0285 226.896 83.6253C227.144 84.2096 227.269 84.8374 227.269 85.5087C227.269 86.1801 227.144 86.8141 226.896 87.4109C226.66 88.0076 226.33 88.5235 225.907 88.9587C225.485 89.3814 224.981 89.717 224.397 89.9657C223.825 90.2143 223.21 90.3386 222.551 90.3386C222.004 90.3386 221.475 90.2454 220.966 90.0589C220.456 89.8724 219.99 89.6051 219.567 89.257V94.0123H218.187ZM222.439 81.9096C221.855 81.9096 221.308 82.0277 220.798 82.2639C220.3 82.4877 219.89 82.8047 219.567 83.215V87.8398C219.89 88.2376 220.307 88.5546 220.816 88.7908C221.326 89.0146 221.867 89.1265 222.439 89.1265C223.421 89.1265 224.241 88.7846 224.9 88.1008C225.572 87.4046 225.907 86.5468 225.907 85.5274C225.907 85.0177 225.814 84.5452 225.628 84.1101C225.454 83.6626 225.211 83.2772 224.9 82.9539C224.59 82.6307 224.223 82.3758 223.8 82.1893C223.377 82.0029 222.924 81.9096 222.439 81.9096ZM229.877 79.0564C229.628 79.0564 229.41 78.9632 229.224 78.7767C229.037 78.5902 228.944 78.3727 228.944 78.124C228.944 77.8629 229.037 77.6454 229.224 77.4713C229.41 77.2848 229.628 77.1916 229.877 77.1916C230.138 77.1916 230.355 77.2848 230.529 77.4713C230.716 77.6454 230.809 77.8629 230.809 78.124C230.809 78.3727 230.716 78.5902 230.529 78.7767C230.355 78.9632 230.138 79.0564 229.877 79.0564ZM230.567 80.8467V90.1895H229.187V80.8467H230.567ZM235.866 90.3573C234.847 90.3573 234.014 90.0962 233.367 89.5741C232.733 89.0519 232.416 88.3744 232.416 87.5414C232.416 86.6711 232.752 85.9812 233.423 85.4714C234.095 84.9493 235.002 84.6882 236.146 84.6882C236.643 84.6882 237.122 84.7442 237.582 84.856C238.054 84.9679 238.49 85.1233 238.887 85.3223V84.0915C238.887 83.3455 238.676 82.7861 238.253 82.4131C237.831 82.0277 237.215 81.835 236.407 81.835C235.947 81.835 235.481 81.9034 235.008 82.0402C234.549 82.1645 234.039 82.3696 233.479 82.6555L232.957 81.5926C233.629 81.2694 234.25 81.0331 234.822 80.884C235.394 80.7348 235.966 80.6602 236.538 80.6602C237.719 80.6602 238.626 80.9399 239.26 81.4994C239.907 82.0588 240.23 82.8607 240.23 83.905V90.1895H238.887V89.2757C238.465 89.6362 237.998 89.9097 237.489 90.0962C236.991 90.2703 236.451 90.3573 235.866 90.3573ZM233.74 87.5041C233.74 88.0263 233.958 88.4552 234.393 88.7908C234.841 89.1141 235.413 89.2757 236.109 89.2757C236.668 89.2757 237.178 89.1887 237.638 89.0146C238.098 88.8406 238.514 88.5671 238.887 88.1941V86.4411C238.502 86.1801 238.085 85.9936 237.638 85.8817C237.203 85.7574 236.718 85.6952 236.183 85.6952C235.437 85.6952 234.841 85.8631 234.393 86.1987C233.958 86.522 233.74 86.9571 233.74 87.5041ZM247.232 79.0564C246.983 79.0564 246.766 78.9632 246.579 78.7767C246.393 78.5902 246.299 78.3727 246.299 78.124C246.299 77.8629 246.393 77.6454 246.579 77.4713C246.766 77.2848 246.983 77.1916 247.232 77.1916C247.493 77.1916 247.711 77.2848 247.885 77.4713C248.071 77.6454 248.164 77.8629 248.164 78.124C248.164 78.3727 248.071 78.5902 247.885 78.7767C247.711 78.9632 247.493 79.0564 247.232 79.0564ZM247.922 80.8467V90.1895H246.542V80.8467H247.922ZM254.543 90.1895V77.1357H260.212C261.48 77.1357 262.499 77.4838 263.27 78.18C264.041 78.8637 264.426 79.7713 264.426 80.9026C264.426 82.0339 264.035 82.9477 263.251 83.6439C262.481 84.3401 261.467 84.6882 260.212 84.6882H255.979V90.1895H254.543ZM260.1 78.4224H255.979V83.4388H260.1C260.983 83.4388 261.685 83.215 262.207 82.7674C262.729 82.3074 262.99 81.6921 262.99 80.9213C262.99 80.1505 262.729 79.5413 262.207 79.0937C261.685 78.6462 260.983 78.4224 260.1 78.4224ZM265.405 88.9027L266.244 88.0076C266.666 88.4054 267.139 88.7162 267.661 88.94C268.196 89.1514 268.736 89.257 269.283 89.257C270.029 89.257 270.639 89.1016 271.111 88.7908C271.583 88.48 271.82 88.076 271.82 87.5787C271.82 87.1809 271.677 86.8701 271.391 86.6463C271.117 86.4101 270.682 86.2485 270.085 86.1614L268.463 85.9376C267.531 85.8009 266.834 85.5274 266.374 85.1171C265.927 84.6944 265.703 84.1288 265.703 83.4201C265.703 82.6369 266.032 81.9904 266.691 81.4807C267.35 80.9586 268.189 80.6975 269.209 80.6975C269.88 80.6975 270.514 80.7969 271.111 80.9959C271.72 81.1948 272.311 81.5056 272.883 81.9283L272.155 82.8607C271.633 82.5126 271.123 82.2515 270.626 82.0775C270.141 81.9034 269.644 81.8164 269.134 81.8164C268.5 81.8164 267.978 81.9593 267.568 82.2453C267.17 82.5312 266.971 82.9042 266.971 83.3642C266.971 83.762 267.108 84.0728 267.381 84.2966C267.655 84.5079 268.096 84.6571 268.705 84.7442L270.328 84.9679C271.26 85.0923 271.956 85.372 272.416 85.8071C272.889 86.2298 273.125 86.7955 273.125 87.5041C273.125 87.9019 273.026 88.2811 272.827 88.6416C272.64 88.9897 272.373 89.2943 272.025 89.5554C271.689 89.8041 271.291 90.003 270.831 90.1522C270.371 90.2889 269.874 90.3573 269.339 90.3573C268.569 90.3573 267.841 90.233 267.158 89.9843C266.486 89.7232 265.902 89.3627 265.405 88.9027ZM276.678 91.4016L277.219 90.1708L273.414 80.8467H274.944L277.965 88.5111L281.228 80.8467H282.72L278.077 91.5881C277.679 92.4832 277.237 93.1297 276.753 93.5275C276.268 93.9253 275.652 94.1242 274.906 94.1242C274.732 94.1242 274.564 94.1118 274.403 94.0869C274.254 94.0745 274.129 94.0559 274.03 94.031V92.7816C274.154 92.8064 274.272 92.8251 274.384 92.8375C274.509 92.8499 274.651 92.8562 274.813 92.8562C275.236 92.8562 275.596 92.7381 275.895 92.5018C276.193 92.2656 276.454 91.8989 276.678 91.4016ZM288.002 89.1079C288.499 89.1079 288.978 89.0084 289.438 88.8095C289.898 88.6106 290.327 88.3184 290.724 87.933L291.582 88.8654C291.085 89.3378 290.526 89.7046 289.904 89.9657C289.282 90.2267 288.636 90.3573 287.964 90.3573C287.306 90.3573 286.684 90.233 286.1 89.9843C285.515 89.7357 285.012 89.3938 284.589 88.9587C284.166 88.5235 283.831 88.0076 283.582 87.4109C283.334 86.8141 283.209 86.1801 283.209 85.5087C283.209 84.8374 283.334 84.2096 283.582 83.6253C283.831 83.0285 284.166 82.5126 284.589 82.0775C285.012 81.6423 285.515 81.3004 286.1 81.0518C286.684 80.7907 287.306 80.6602 287.964 80.6602C288.636 80.6602 289.289 80.7907 289.923 81.0518C290.569 81.3129 291.135 81.6734 291.62 82.1334L290.743 83.1404C290.37 82.755 289.941 82.4566 289.456 82.2453C288.972 82.0339 288.48 81.9283 287.983 81.9283C287.511 81.9283 287.063 82.0215 286.64 82.208C286.218 82.3945 285.851 82.6493 285.54 82.9726C285.242 83.2958 285.006 83.675 284.832 84.1101C284.658 84.5452 284.571 85.0114 284.571 85.5087C284.571 86.0185 284.658 86.4971 284.832 86.9447C285.018 87.3798 285.26 87.759 285.559 88.0822C285.87 88.393 286.236 88.6416 286.659 88.8281C287.082 89.0146 287.529 89.1079 288.002 89.1079ZM293.199 90.1895V77.1357L294.579 76.8186V81.9469C294.939 81.5242 295.368 81.2072 295.866 80.9959C296.363 80.7721 296.916 80.6602 297.525 80.6602C298.582 80.6602 299.446 80.9959 300.117 81.6672C300.789 82.3385 301.124 83.2088 301.124 84.2779V90.1895H299.763V84.5577C299.763 83.7371 299.527 83.0845 299.055 82.5996C298.582 82.1147 297.948 81.8723 297.152 81.8723C296.593 81.8723 296.089 81.9966 295.642 82.2453C295.207 82.4939 294.852 82.8482 294.579 83.3082V90.1895H293.199ZM303.005 85.5087C303.005 84.8374 303.129 84.2034 303.378 83.6066C303.626 83.0099 303.962 82.4939 304.385 82.0588C304.82 81.6237 305.33 81.2818 305.914 81.0331C306.498 80.7845 307.12 80.6602 307.779 80.6602C308.438 80.6602 309.053 80.7845 309.625 81.0331C310.209 81.2818 310.713 81.6237 311.135 82.0588C311.571 82.4939 311.912 83.0099 312.161 83.6066C312.41 84.2034 312.534 84.8374 312.534 85.5087C312.534 86.1925 312.41 86.8328 312.161 87.4295C311.912 88.0263 311.571 88.5422 311.135 88.9773C310.713 89.4124 310.209 89.7543 309.625 90.003C309.053 90.2516 308.438 90.3759 307.779 90.3759C307.12 90.3759 306.498 90.2516 305.914 90.003C305.33 89.7543 304.82 89.4124 304.385 88.9773C303.962 88.5422 303.626 88.0263 303.378 87.4295C303.129 86.8328 303.005 86.1925 303.005 85.5087ZM307.779 89.1451C308.251 89.1451 308.693 89.0519 309.103 88.8654C309.525 88.6789 309.886 88.4241 310.184 88.1008C310.495 87.7652 310.738 87.3798 310.912 86.9447C311.086 86.4971 311.173 86.0185 311.173 85.5087C311.173 84.999 311.086 84.5266 310.912 84.0915C310.738 83.6439 310.495 83.2585 310.184 82.9353C309.886 82.612 309.525 82.3572 309.103 82.1707C308.693 81.9842 308.251 81.891 307.779 81.891C307.306 81.891 306.859 81.9842 306.436 82.1707C306.026 82.3572 305.665 82.612 305.354 82.9353C305.056 83.2585 304.814 83.6439 304.627 84.0915C304.453 84.5266 304.366 84.999 304.366 85.5087C304.366 86.0185 304.453 86.4971 304.627 86.9447C304.801 87.3798 305.037 87.7652 305.336 88.1008C305.647 88.4241 306.013 88.6789 306.436 88.8654C306.859 89.0519 307.306 89.1451 307.779 89.1451ZM322.339 89.2011C321.817 89.5865 321.27 89.8786 320.698 90.0776C320.139 90.264 319.523 90.3573 318.852 90.3573C318.181 90.3573 317.547 90.233 316.95 89.9843C316.366 89.7357 315.856 89.3938 315.421 88.9587C314.998 88.5235 314.662 88.0138 314.414 87.4295C314.165 86.8328 314.041 86.1925 314.041 85.5087C314.041 84.8374 314.159 84.2096 314.395 83.6253C314.644 83.0409 314.973 82.5312 315.383 82.0961C315.794 81.661 316.279 81.3191 316.838 81.0704C317.41 80.8218 318.013 80.6975 318.647 80.6975C319.268 80.6975 319.847 80.8218 320.381 81.0704C320.928 81.3191 321.394 81.661 321.78 82.0961C322.178 82.5312 322.488 83.0409 322.712 83.6253C322.948 84.2096 323.067 84.8374 323.067 85.5087V85.9376H315.402C315.502 86.8576 315.881 87.6222 316.54 88.2314C317.199 88.8406 317.988 89.1451 318.908 89.1451C319.393 89.1451 319.865 89.0706 320.325 88.9214C320.785 88.7722 321.171 88.5608 321.481 88.2873L322.339 89.2011ZM318.61 81.9096C317.801 81.9096 317.099 82.1831 316.502 82.7301C315.918 83.2772 315.564 83.9796 315.439 84.8374H321.687C321.562 84.0169 321.208 83.3269 320.624 82.7674C320.052 82.1956 319.38 81.9096 318.61 81.9096ZM332.305 90.1895V89.2011C331.908 89.5741 331.448 89.86 330.925 90.0589C330.416 90.2454 329.869 90.3386 329.284 90.3386C328.626 90.3386 328.01 90.2143 327.438 89.9657C326.866 89.717 326.369 89.3814 325.946 88.9587C325.524 88.5235 325.188 88.0076 324.939 87.4109C324.703 86.8141 324.585 86.1801 324.585 85.5087C324.585 84.8374 324.703 84.2096 324.939 83.6253C325.188 83.0285 325.524 82.5188 325.946 82.0961C326.369 81.661 326.866 81.3191 327.438 81.0704C328.023 80.8218 328.644 80.6975 329.303 80.6975C329.838 80.6975 330.36 80.7907 330.87 80.9772C331.392 81.1513 331.864 81.4123 332.287 81.7604V77.1357L333.667 76.8186V90.1895H332.305ZM325.946 85.4901C325.946 85.9998 326.033 86.4784 326.207 86.926C326.394 87.3736 326.643 87.759 326.953 88.0822C327.264 88.4054 327.631 88.6603 328.054 88.8468C328.476 89.0333 328.93 89.1265 329.415 89.1265C329.999 89.1265 330.54 89.0146 331.037 88.7908C331.547 88.5546 331.964 88.2314 332.287 87.8211V83.1963C331.964 82.7985 331.547 82.4877 331.037 82.2639C330.528 82.0277 329.987 81.9096 329.415 81.9096C328.445 81.9096 327.625 82.2515 326.953 82.9353C326.282 83.619 325.946 84.4706 325.946 85.4901ZM337.338 80.8467V86.4784C337.338 87.299 337.574 87.9517 338.046 88.4365C338.519 88.9214 339.153 89.1638 339.948 89.1638C340.508 89.1638 341.005 89.0395 341.44 88.7908C341.888 88.5298 342.248 88.1692 342.522 87.7092V80.8467H343.902V90.1895H342.522V89.1079C342.161 89.5305 341.732 89.8476 341.235 90.0589C340.75 90.2703 340.203 90.3759 339.594 90.3759C338.525 90.3759 337.655 90.0403 336.983 89.3689C336.312 88.6976 335.976 87.8273 335.976 86.7582V80.8467H337.338ZM346.248 90.1895V77.1357L347.628 76.8186V85.0612L352.514 80.8467H354.192L349.064 85.285L354.435 90.1895H352.551L347.628 85.7139V90.1895H346.248ZM358.045 90.3573C357.026 90.3573 356.193 90.0962 355.546 89.5741C354.912 89.0519 354.595 88.3744 354.595 87.5414C354.595 86.6711 354.931 85.9812 355.602 85.4714C356.274 84.9493 357.181 84.6882 358.325 84.6882C358.822 84.6882 359.301 84.7442 359.761 84.856C360.233 84.9679 360.669 85.1233 361.066 85.3223V84.0915C361.066 83.3455 360.855 82.7861 360.432 82.4131C360.01 82.0277 359.394 81.835 358.586 81.835C358.126 81.835 357.66 81.9034 357.187 82.0402C356.727 82.1645 356.218 82.3696 355.658 82.6555L355.136 81.5926C355.808 81.2694 356.429 81.0331 357.001 80.884C357.573 80.7348 358.145 80.6602 358.717 80.6602C359.898 80.6602 360.805 80.9399 361.439 81.4994C362.086 82.0588 362.409 82.8607 362.409 83.905V90.1895H361.066V89.2757C360.644 89.6362 360.177 89.9097 359.668 90.0962C359.17 90.2703 358.63 90.3573 358.045 90.3573ZM355.919 87.5041C355.919 88.0263 356.137 88.4552 356.572 88.7908C357.02 89.1141 357.592 89.2757 358.288 89.2757C358.847 89.2757 359.357 89.1887 359.817 89.0146C360.277 88.8406 360.693 88.5671 361.066 88.1941V86.4411C360.681 86.1801 360.264 85.9936 359.817 85.8817C359.382 85.7574 358.897 85.6952 358.362 85.6952C357.616 85.6952 357.02 85.8631 356.572 86.1987C356.137 86.522 355.919 86.9571 355.919 87.5041ZM369.078 89.1079C369.575 89.1079 370.054 89.0084 370.514 88.8095C370.974 88.6106 371.403 88.3184 371.801 87.933L372.659 88.8654C372.161 89.3378 371.602 89.7046 370.98 89.9657C370.359 90.2267 369.712 90.3573 369.041 90.3573C368.382 90.3573 367.76 90.233 367.176 89.9843C366.592 89.7357 366.088 89.3938 365.665 88.9587C365.243 88.5235 364.907 88.0076 364.658 87.4109C364.41 86.8141 364.285 86.1801 364.285 85.5087C364.285 84.8374 364.41 84.2096 364.658 83.6253C364.907 83.0285 365.243 82.5126 365.665 82.0775C366.088 81.6423 366.592 81.3004 367.176 81.0518C367.76 80.7907 368.382 80.6602 369.041 80.6602C369.712 80.6602 370.365 80.7907 370.999 81.0518C371.645 81.3129 372.211 81.6734 372.696 82.1334L371.819 83.1404C371.446 82.755 371.018 82.4566 370.533 82.2453C370.048 82.0339 369.557 81.9283 369.059 81.9283C368.587 81.9283 368.139 82.0215 367.717 82.208C367.294 82.3945 366.927 82.6493 366.617 82.9726C366.318 83.2958 366.082 83.675 365.908 84.1101C365.734 84.5452 365.647 85.0114 365.647 85.5087C365.647 86.0185 365.734 86.4971 365.908 86.9447C366.094 87.3798 366.337 87.759 366.635 88.0822C366.946 88.393 367.313 88.6416 367.735 88.8281C368.158 89.0146 368.606 89.1079 369.078 89.1079ZM374.965 79.0564C374.717 79.0564 374.499 78.9632 374.313 78.7767C374.126 78.5902 374.033 78.3727 374.033 78.124C374.033 77.8629 374.126 77.6454 374.313 77.4713C374.499 77.2848 374.717 77.1916 374.965 77.1916C375.226 77.1916 375.444 77.2848 375.618 77.4713C375.804 77.6454 375.898 77.8629 375.898 78.124C375.898 78.3727 375.804 78.5902 375.618 78.7767C375.444 78.9632 375.226 79.0564 374.965 79.0564ZM373.25 94.0683C373.076 94.0683 372.914 94.0559 372.765 94.031C372.616 94.0061 372.491 93.9813 372.392 93.9564V92.8002C372.504 92.8251 372.616 92.8437 372.727 92.8562C372.827 92.8686 372.945 92.8748 373.082 92.8748C373.504 92.8748 373.809 92.7753 373.996 92.5764C374.182 92.3775 374.275 92.0543 374.275 91.6067V80.8467H375.655V91.7186C375.655 92.4645 375.444 93.0426 375.021 93.4529C374.599 93.8632 374.008 94.0683 373.25 94.0683ZM380.955 90.3573C379.936 90.3573 379.103 90.0962 378.456 89.5741C377.822 89.0519 377.505 88.3744 377.505 87.5414C377.505 86.6711 377.841 85.9812 378.512 85.4714C379.183 84.9493 380.091 84.6882 381.235 84.6882C381.732 84.6882 382.211 84.7442 382.671 84.856C383.143 84.9679 383.578 85.1233 383.976 85.3223V84.0915C383.976 83.3455 383.765 82.7861 383.342 82.4131C382.919 82.0277 382.304 81.835 381.496 81.835C381.036 81.835 380.57 81.9034 380.097 82.0402C379.637 82.1645 379.127 82.3696 378.568 82.6555L378.046 81.5926C378.717 81.2694 379.339 81.0331 379.911 80.884C380.483 80.7348 381.054 80.6602 381.626 80.6602C382.807 80.6602 383.715 80.9399 384.349 81.4994C384.995 82.0588 385.319 82.8607 385.319 83.905V90.1895H383.976V89.2757C383.553 89.6362 383.087 89.9097 382.577 90.0962C382.08 90.2703 381.539 90.3573 380.955 90.3573ZM378.829 87.5041C378.829 88.0263 379.047 88.4552 379.482 88.7908C379.929 89.1141 380.501 89.2757 381.197 89.2757C381.757 89.2757 382.267 89.1887 382.727 89.0146C383.187 88.8406 383.603 88.5671 383.976 88.1941V86.4411C383.591 86.1801 383.174 85.9936 382.727 85.8817C382.291 85.7574 381.807 85.6952 381.272 85.6952C380.526 85.6952 379.929 85.8631 379.482 86.1987C379.047 86.522 378.829 86.9571 378.829 87.5041Z" fill="#005650"/>
</svg>
