<svg width="343" height="156" viewBox="0 0 343 156" fill="none" xmlns="http://www.w3.org/2000/svg">
<g clip-path="url(#clip0)">
<path d="M43.244 144.048C43.0668 144.667 42.8896 145.287 42.7124 145.907C42.6237 145.907 42.5351 145.907 42.4465 145.907C43.3327 142.897 42.6237 140.152 41.2945 137.408C40.9401 136.611 40.497 135.902 39.9653 135.194C38.6361 133.423 38.9906 131.476 40.9401 130.236C43.0668 128.82 45.1049 127.314 46.3455 125.101C46.8772 124.127 47.2317 122.976 47.6748 121.825C48.0292 120.94 48.3837 119.966 48.5609 118.904C46.1683 120.674 43.7757 122.445 41.4718 124.304C39.6109 125.721 38.1044 127.403 37.3955 129.616C36.5094 132.184 35.8004 134.84 35.2687 137.496C35.0029 138.913 35.1801 140.506 35.1801 142.1C34.9143 141.215 34.6484 140.329 34.3826 139.355C33.8509 140.506 33.3192 141.569 32.7875 142.631C32.6989 142.631 32.6103 142.543 32.5217 142.543C34.294 139.09 34.6484 135.283 35.5346 131.564C33.3192 131.653 32.5217 132.184 29.3316 135.371C30.0405 133.512 31.3697 132.184 32.9648 131.741C34.9143 131.21 36.1549 130.413 36.598 128.288C36.8638 127.226 37.4841 126.341 38.0158 125.101C34.7371 126.341 31.5469 127.403 28.4454 128.643C26.4073 129.439 25.1667 131.21 23.9261 132.892C22.9513 134.22 21.7107 135.283 20.5588 136.434C20.4701 136.345 20.3815 136.257 20.2043 136.168C20.3815 135.991 20.4701 135.814 20.6474 135.637C20.8246 135.46 21.0904 135.371 21.2677 135.194C22.1538 134.043 23.04 132.804 24.0147 131.653C24.9009 130.502 25.8756 129.439 26.8504 128.111C24.1033 128.465 21.6221 129.616 18.9637 130.325C21.0018 129.439 23.04 128.465 25.0781 127.58C25.0781 127.492 24.9895 127.403 24.9895 127.314C21.7107 127.757 18.432 128.288 15.1533 128.731C15.0647 128.643 15.0647 128.643 14.9761 128.554C15.1533 128.465 15.3305 128.2 15.5964 128.2C18.8751 127.58 22.0652 126.96 25.3439 126.518C26.0529 126.429 26.7618 126.606 27.3821 126.695C29.0657 126.872 30.6608 126.341 32.0786 125.632C34.1168 124.481 36.2435 123.596 38.5475 123.419C40.1425 123.242 41.0287 122.091 42.0921 121.206C44.396 119.523 46.5228 117.664 48.9154 115.982C50.156 115.097 50.156 113.857 50.2446 112.795C50.599 109.43 50.6877 105.977 50.9535 102.613C51.1307 99.6913 51.3966 96.8582 51.5738 93.9365C51.751 91.0148 52.0169 88.0931 52.1941 85.1715C52.3713 83.0466 52.3713 83.0466 50.5104 82.0727C45.2822 79.3281 40.0539 76.5835 34.7371 74.016C31.8128 72.5994 28.6227 71.6255 25.6098 70.2089C23.9261 69.3236 22.4197 69.6777 20.8246 70.0319C15.3305 71.1828 9.92503 72.3338 4.43094 73.4848C3.72202 73.6618 3.01311 73.6618 2.21558 73.8389C2.12696 73.5733 2.03835 73.2191 1.94973 72.865C8.32997 71.1828 14.6216 69.5892 21.0018 67.907C19.7612 66.756 18.6092 65.7821 17.4573 64.7197C15.9508 63.2146 14.4444 61.798 13.0265 60.2044C11.9632 59.0534 11.1656 57.5483 10.0136 56.4859C9.39334 55.9547 8.32997 55.8661 7.35521 55.6891C4.87401 55.3349 2.30419 55.0693 -0.265625 54.8037C-0.265625 54.0954 -0.177011 53.4757 -0.177011 52.7674C2.48142 53.033 5.05124 53.2101 7.8869 53.4757C7.08937 52.1476 6.29184 50.9967 5.58293 49.7572C4.43094 47.7208 3.27895 45.7731 2.21558 43.6482C1.68389 42.1431 1.86112 41.1692 2.65865 39.8412C3.81064 41.966 4.96262 44.0909 6.29184 46.4813C6.46907 45.9501 6.6463 45.596 6.6463 45.2418C6.82353 42.9399 6.91214 40.7265 7.08937 38.4246C7.35521 35.68 7.79829 32.9354 8.15274 30.1908C8.15274 29.9252 8.32997 29.6596 8.41859 29.3939C8.5072 29.3939 8.59582 29.3939 8.68443 29.3939C8.86166 30.6334 9.1275 31.8729 9.1275 33.1124C9.03889 36.1227 8.68443 39.2214 8.5072 42.2316C8.41859 44.6221 8.24136 46.924 8.32997 49.3145C8.32997 50.0228 8.95027 50.8196 9.48196 51.4393C12.0518 54.6266 14.7102 57.8139 17.3686 60.9127C17.4573 61.0012 17.5459 60.9127 17.8117 61.0012C18.6979 57.7254 19.4068 54.4496 20.4701 51.2623C21.4449 48.5177 20.4701 46.0387 19.9385 43.4711C18.9637 39.3099 18.3434 35.1488 18.5206 30.8991C18.5206 30.1022 18.6979 29.3054 18.8751 28.5971C18.9637 28.5971 19.0523 28.5971 19.1409 28.5971C19.4068 29.8366 19.584 31.0761 19.8498 32.3156C20.3815 35.1488 20.8246 38.0704 21.4449 40.9036C21.9766 43.2941 22.6855 45.6845 23.2172 48.1635C23.3944 48.9603 23.04 49.9342 22.8627 50.8196C21.888 54.8037 20.9132 58.7878 20.0271 62.6834C19.9385 63.0375 20.2929 63.4802 20.5588 63.7458C23.5716 66.579 27.2935 68.1726 31.1925 69.5006C34.4712 70.6516 37.75 72.1567 41.0287 73.4848C43.6871 74.6357 46.3455 75.7867 49.2698 77.1147C48.7381 76.2294 48.3837 75.6096 48.1178 74.9899C44.7505 68.4382 41.4718 61.798 38.193 55.2464C37.9272 54.7152 37.8386 53.9183 37.9272 53.2986C38.1044 51.0852 38.3703 48.8718 38.5475 46.6584C38.5475 46.3928 38.6361 46.1272 38.7247 45.8616C38.8133 45.0648 38.7247 44.3565 38.1044 43.6482C35.3574 40.5494 32.6103 37.5392 30.0405 34.2634C29.0657 33.0239 28.7113 31.4303 28.1796 29.9252C27.1162 26.5608 26.1415 23.1964 25.1667 19.8321C24.3692 17.176 23.483 14.5199 22.5969 11.7753C23.1286 11.4212 23.6603 10.9785 24.2806 10.5358C24.9009 12.4836 25.4325 14.4314 26.0529 16.2907C27.3821 20.2748 28.7113 24.2589 30.1291 28.243C30.5722 29.571 31.1039 30.8105 31.6356 32.05C31.7242 32.4042 31.9014 32.6698 32.1672 32.9354C34.3826 35.2373 36.598 37.5392 38.9019 39.8412C38.9906 39.9297 39.1678 40.0182 39.4336 40.2838C39.5222 39.3985 39.6995 38.6017 39.7881 37.8048C39.9653 36.0341 40.0539 34.3519 40.2312 32.5812C40.3198 31.4303 40.6742 30.2793 40.5856 29.1283C40.497 27.8888 40.1425 26.7379 39.6995 25.4984C38.193 21.4257 36.598 17.4416 35.1801 13.369C34.3826 11.1556 33.8509 8.85365 33.2306 6.55172C33.3192 6.55172 33.4078 6.46318 33.5851 6.46318C36.0663 11.8639 38.5475 17.176 41.1173 22.7538C41.9148 16.2021 42.801 9.82754 43.5985 3.5415C43.7757 3.5415 43.8643 3.5415 44.0416 3.5415C44.1302 4.781 44.2188 6.0205 44.3074 7.26001C44.3074 7.79122 44.1302 8.32244 44.1302 8.94219C44.0416 11.8639 44.0416 14.7855 43.8643 17.7072C43.6871 20.8945 43.4213 24.1703 43.244 27.3576C43.0668 30.1022 42.801 32.8468 42.6237 35.5914C42.3579 39.2214 42.0921 42.8514 41.7376 46.4813C41.5604 48.5177 41.2945 50.4655 41.1173 52.5018C41.1173 53.1215 41.2945 53.9183 41.5604 54.4496C43.3327 57.991 45.1936 61.4439 46.9658 64.8968C49.4471 69.5892 51.8396 74.2816 54.3208 78.974C54.4095 79.2396 54.6753 79.3281 55.0298 79.7708C55.207 77.9115 55.3842 76.3179 55.5614 74.7243C55.8273 72.1567 56.0931 69.5892 56.359 67.0216C56.5362 65.2509 56.8907 63.4802 56.7134 61.7095C56.6248 60.5585 55.7387 59.4961 55.1184 58.4337C52.1941 53.6527 49.2698 48.8718 46.4342 44.0023C45.9025 43.0285 45.548 41.966 45.1049 40.9036C45.1936 40.8151 45.3708 40.7265 45.4594 40.7265C46.8772 42.8514 48.3837 44.9762 49.8015 47.1011C52.2827 50.6425 54.6753 54.184 57.1565 57.7254C57.3337 57.9025 57.3337 58.2566 57.3337 58.5222C57.4223 67.1102 57.511 75.7867 57.511 84.3747C57.511 103.675 57.511 122.888 57.511 142.189C57.511 143.251 57.2451 144.402 57.1565 145.464C57.0679 146.615 56.9793 147.678 56.9793 148.917C56.8907 148.563 56.7134 148.209 56.6248 147.855C56.5362 147.855 56.4476 147.855 56.359 147.766C55.7387 150.511 55.1184 153.255 54.4981 156C54.7639 153.964 55.0298 151.927 55.2956 149.626C54.4981 150.245 53.7005 150.865 52.8144 151.485C52.8144 151.485 52.8144 151.485 52.7258 151.485C53.7005 150.422 54.8525 149.448 55.5614 148.297C56.2704 147.058 56.4476 145.464 56.802 144.048C55.5614 144.667 54.4095 145.287 53.3461 145.818C53.3461 145.818 53.3461 145.73 53.2575 145.73C54.3208 145.022 55.3842 144.402 56.359 143.605C56.6248 143.339 56.8907 142.808 56.8907 142.454C56.802 140.064 56.6248 137.673 56.5362 135.106C54.9411 136.522 53.5233 137.762 52.1055 139.001C52.0169 139.001 52.0169 138.913 51.9283 138.913C52.3713 138.47 52.8144 138.027 53.2575 137.585C53.7892 137.053 54.3208 136.434 54.9411 135.902C55.8273 135.106 56.4476 134.309 56.0931 132.892C55.4728 130.236 55.207 127.58 54.7639 125.013C54.1436 125.455 53.4347 125.986 52.6372 126.429C51.2193 127.314 51.1307 128.82 50.6877 130.148C50.156 132.007 49.8015 133.955 49.1812 135.814C49.6243 133.246 49.9787 130.59 50.4218 128.023C46.8772 133.158 46.9658 138.913 47.4975 144.756C47.2317 142.72 46.9658 140.683 46.7 138.47C46.0797 139.532 45.4594 140.418 44.9277 141.303C45.0163 141.126 45.0163 140.949 45.1049 140.86C45.9911 138.824 46.7 136.788 46.8772 134.574C47.0545 132.095 47.6748 129.705 49.0926 127.58C50.2446 125.721 51.5738 123.95 52.8144 122.091C51.9283 121.471 51.0421 121.56 50.5104 122.445C50.0674 123.065 49.7129 123.773 49.2698 124.393C48.2064 125.809 47.2317 127.403 45.9911 128.643C44.9277 129.705 43.5099 130.325 42.1807 131.122C40.3198 132.272 39.9653 133.158 41.2059 135.017C42.801 137.496 43.5099 140.152 43.5099 143.162C43.0668 143.339 43.1554 143.694 43.244 144.048Z" fill="#28AE66"/>
<path d="M82.766 1.59364C83.1204 1.2395 83.6521 0.708286 84.2724 0C85.4244 1.2395 86.5764 2.39047 87.5512 3.62997C89.4121 5.9319 91.0071 8.49943 92.2477 11.244C93.3111 13.6345 94.02 16.1135 94.2859 18.7696C94.4631 20.8059 94.4631 22.7537 94.4631 24.79C94.4631 25.4098 94.3745 26.0295 94.2859 26.6493C93.9314 28.8627 95.3492 30.5448 96.4126 32.1385C97.7418 34.1748 99.3369 36.0341 100.932 37.8933C101.995 39.1328 103.413 40.1067 104.477 41.3462C106.072 43.1169 106.692 44.8876 105.54 46.8354C104.831 48.0749 103.679 48.9603 102.616 49.9342C101.641 50.731 101.464 51.1737 101.995 52.3246C102.438 53.1215 102.881 54.0068 103.236 54.8036C104.211 56.9285 104.211 58.8763 102.261 60.5585C103.236 62.5062 103.147 64.277 101.729 65.9591C100.843 66.933 100.843 67.9955 101.375 69.1464C102.438 71.4484 102.793 73.8388 102.261 76.4064C101.641 79.0624 99.9572 80.3905 97.3874 81.0102C93.7542 81.8956 90.0324 81.2758 86.3992 81.0988C84.0066 80.9217 81.614 81.0988 79.2214 81.2758C77.715 81.3644 76.2085 81.7185 74.6135 81.8956C74.4362 81.2758 74.1704 80.479 73.9932 79.6822C76.4744 78.7968 79.0442 78.3541 81.7026 78.2656C83.7407 78.2656 85.7789 78.0885 87.817 78.0885C89.6779 78.0885 91.5388 78.2656 93.3997 78.2656C94.4631 78.2656 95.5265 78.0885 96.5898 77.8229C98.7166 77.2032 99.5141 75.6095 98.9824 73.3961C98.628 72.0681 98.2735 70.7401 97.7418 69.412C96.9443 67.4642 97.3874 65.6935 98.628 64.1884C99.6913 62.8604 99.2483 62.0636 97.9191 61.4438C96.9443 60.9126 96.7671 60.2043 96.9443 59.4075C97.1215 58.5221 97.8304 57.9909 98.8052 57.9024C100.134 57.8138 100.312 57.4597 99.78 56.2202C99.2483 55.0692 98.5394 53.9183 98.0077 52.6788C97.1215 50.4654 98.3621 48.5176 99.78 47.2781C100.4 46.7469 101.021 46.2157 101.641 45.773C102.261 45.3303 102.261 44.7991 101.729 44.2679C101.109 43.5596 100.577 42.8513 99.8686 42.2316C96.2354 39.2213 93.6656 35.3258 91.4502 31.3417C90.4754 29.6595 90.2982 27.9773 90.6527 26.118C91.1844 23.462 91.0071 20.8944 90.6527 18.3269C90.2096 15.3167 89.4121 12.4835 87.9056 9.916C86.5764 6.99432 84.7155 4.51532 82.766 1.59364Z" fill="#28AE66"/>
<path d="M48.2065 1.06241C48.4724 1.06241 48.7382 0.973874 49.0041 0.885338C49.8902 0.619731 50.1561 0.973873 50.2447 1.85923C50.4219 3.62995 50.4219 5.40066 50.9536 7.08284C51.308 8.32234 52.2828 9.38477 53.0803 10.5357C54.1437 12.0408 55.2071 13.4574 56.1818 14.9625C56.4477 15.3167 56.5363 15.7593 56.6249 16.202C56.6249 19.3893 56.6249 22.6651 56.6249 25.8524C56.7135 30.899 56.8021 35.9455 56.8021 40.992C56.8021 41.3462 56.8021 41.7003 56.7135 42.0545C56.5363 40.6379 56.3591 39.2213 56.1818 37.8048C55.916 34.9716 55.4729 32.1385 55.3843 29.3053C55.2071 25.5868 55.2957 21.9568 55.2957 18.2383C55.2957 17.9727 55.2071 17.7071 55.0298 17.5301C53.3462 14.874 51.4853 12.3065 49.8902 9.56184C49.2699 8.58795 49.0041 7.43698 48.7382 6.28602C48.4724 4.5153 48.3838 2.83312 48.2065 1.06241Z" fill="#28AE66"/>
<path d="M47.7636 15.3167C51.0423 15.9364 53.2577 17.8842 52.0171 21.9568C48.7384 21.4256 46.7002 19.5664 47.7636 15.3167Z" fill="#28AE66"/>
<path d="M36.2436 25.1443C36.7753 26.915 36.8639 28.5972 35.7119 29.8367C34.8257 30.722 33.5851 31.1647 32.4332 31.7845C32.3445 31.7845 31.8129 31.2533 31.8129 30.9876C31.6356 28.243 32.1673 26.6494 35.003 25.4984C35.3574 25.3214 35.8005 25.2328 36.2436 25.1443Z" fill="#28AE66"/>
<path d="M41.3829 6.02051C41.9146 7.87976 41.826 9.65048 40.4968 10.9785C39.6993 11.7753 38.37 12.1295 37.3067 12.7492C35.8002 8.85366 38.37 5.93198 41.3829 6.02051Z" fill="#28AE66"/>
<path d="M57.1566 47.9864C52.7258 49.1373 51.0422 47.101 50.2446 44.0022C51.7511 43.471 53.3461 43.294 54.764 44.1793C56.0932 44.9761 56.8021 46.3927 57.1566 47.9864Z" fill="#28AE66"/>
<path d="M23.04 56.1316C24.1034 52.5902 26.4074 51.4392 30.1292 52.7672C29.1544 56.3972 26.2302 57.5482 23.04 56.1316Z" fill="#28AE66"/>
<path d="M33.2305 59.7615C35.9775 58.522 39.1676 59.4074 40.1424 63.5686C37.484 64.5425 34.5597 64.3654 33.2305 59.7615Z" fill="#28AE66"/>
<path d="M13.8241 68.2612C9.65919 68.7924 7.44383 67.3758 7.2666 64.0115C10.9884 62.772 13.4696 64.8083 13.8241 68.2612Z" fill="#28AE66"/>
<path d="M10.0136 73.5732C11.077 77.0261 10.1022 79.3281 6.29182 80.479C4.96261 77.9115 5.67152 74.3701 10.0136 73.5732Z" fill="#28AE66"/>
<path d="M26.9388 16.9104C25.8754 13.3689 27.6477 10.8014 31.1923 10.1816C32.3443 13.9001 30.3062 16.4677 26.9388 16.9104Z" fill="#28AE66"/>
<path d="M37.6615 48.0749C33.4967 48.6061 31.9016 46.3041 31.813 42.9398C35.3576 42.4086 37.7502 44.3564 37.6615 48.0749Z" fill="#28AE66"/>
<path d="M10.1021 40.4608C10.811 36.3882 13.7352 35.1487 16.7481 36.2111C16.1278 39.5755 14.0897 41.5232 10.1021 40.4608Z" fill="#28AE66"/>
<path d="M13.7354 47.3667C18.0775 48.5177 19.1409 49.8457 18.6978 53.6527C13.9126 53.1215 13.3809 50.6425 13.7354 47.3667Z" fill="#28AE66"/>
<path d="M46.7886 63.4802C45.7252 61.0012 46.7 57.6368 51.2193 57.0171C51.8396 61.0012 50.5104 62.8604 46.7886 63.4802Z" fill="#28AE66"/>
<path d="M24.458 23.5505C23.1287 23.462 21.7995 23.462 20.5589 23.2849C19.3183 23.1078 17.546 20.7173 17.7233 19.4778C17.7233 19.2122 18.255 18.8581 18.6094 18.8581C21.9768 18.504 23.749 19.832 24.458 23.5505Z" fill="#28AE66"/>
<path d="M27.5594 35.5029C28.357 39.5756 26.3188 41.6119 22.9515 41.789C22.3312 38.0705 23.5718 36.0341 27.5594 35.5029Z" fill="#28AE66"/>
<path d="M0.354898 61.4439C-0.0881745 58.2566 2.12719 55.6891 5.84899 56.0432C6.46929 59.142 4.16532 61.9751 0.354898 61.4439Z" fill="#28AE66"/>
<path d="M49.0925 32.581C49.5356 35.9454 47.3202 38.5129 43.5984 37.9817C42.8895 34.7944 45.4593 32.3154 49.0925 32.581Z" fill="#28AE66"/>
<path d="M56.9792 15.4053C57.0282 15.4053 57.0679 13.8594 57.0679 11.9524C57.0679 10.0454 57.0282 8.49951 56.9792 8.49951C56.9303 8.49951 56.8906 10.0454 56.8906 11.9524C56.8906 13.8594 56.9303 15.4053 56.9792 15.4053Z" fill="#28AE66"/>
</g>
<path d="M225.2 101.3C225.2 101.8 225.4 102.2 225.8 102.6C226.2 102.9 226.8 103.1 227.5 103.1C228 103.1 228.6 103 229 102.8C229.5 102.6 229.9 102.4 230.2 102V100.2C229.8 99.9001 229.4 99.8001 229 99.7001C228.6 99.6 228.1 99.5001 227.6 99.5001C226.9 99.5001 226.3 99.7001 225.8 100C225.4 100.3 225.2 100.7 225.2 101.3ZM227.3 104.1C226.3 104.1 225.5 103.8 224.8 103.3C224.2 102.8 223.9 102.1 223.9 101.3C223.9 100.4 224.2 99.8 224.9 99.3C225.6 98.8 226.5 98.5001 227.6 98.5001C228.1 98.5001 228.6 98.6001 229 98.7001C229.5 98.8001 229.9 99.0001 230.3 99.2001V98.0001C230.3 97.3001 230.1 96.7 229.7 96.4C229.3 96 228.7 95.8 227.9 95.8C227.4 95.8 227 95.9001 226.5 96.0001C226 96.1001 225.5 96.3001 225 96.6001L224.5 95.6001C225.2 95.3001 225.8 95.1 226.3 94.9C226.9 94.8 227.4 94.7001 228 94.7001C229.2 94.7001 230.1 95.0001 230.7 95.5001C231.3 96.0001 231.7 96.8 231.7 97.9V104.1H230.4V103.2C230 103.6 229.5 103.8 229 104C228.4 104 227.9 104.1 227.3 104.1ZM217.7 95.8C217.1 95.8 216.6 95.9001 216.1 96.1001C215.6 96.3001 215.2 96.6001 214.9 97.0001V101.5C215.2 101.9 215.6 102.2 216.1 102.4C216.6 102.6 217.1 102.7 217.7 102.7C218.7 102.7 219.5 102.4 220.1 101.7C220.8 101 221.1 100.2 221.1 99.2001C221.1 98.7001 221 98.2 220.8 97.8C220.6 97.4 220.4 97.0001 220.1 96.7001C219.8 96.4001 219.4 96.1 219 95.9C218.6 95.9 218.2 95.8 217.7 95.8ZM222.4 99.3C222.4 100 222.3 100.6 222 101.2C221.8 101.8 221.4 102.3 221 102.7C220.6 103.1 220.1 103.4 219.5 103.7C218.9 103.9 218.3 104.1 217.7 104.1C217.2 104.1 216.6 104 216.1 103.8C215.6 103.6 215.1 103.4 214.7 103V103.9H213.4V91.1001L214.8 90.8V95.7001C215.2 95.3001 215.6 95.1 216.1 94.9C216.6 94.7 217.2 94.6001 217.7 94.6001C218.3 94.6001 219 94.7001 219.5 95.0001C220.1 95.2001 220.6 95.6001 221 96.0001C221.4 96.4001 221.7 96.9001 222 97.5001C222.3 98.0001 222.4 98.7 222.4 99.3ZM204.7 94.7001V100.2C204.7 101 204.9 101.6 205.4 102.1C205.9 102.6 206.5 102.8 207.3 102.8C207.8 102.8 208.3 102.7 208.8 102.4C209.2 102.1 209.6 101.8 209.9 101.3V94.6001H211.3V103.8H209.9V102.7C209.5 103.1 209.1 103.4 208.6 103.6C208.1 103.8 207.6 103.9 207 103.9C205.9 103.9 205.1 103.6 204.4 102.9C203.7 102.2 203.4 101.4 203.4 100.3V94.5001H204.7V94.7001ZM191.9 103.9V102.9L200.1 92.3H192V91.1001H201.9V92.1001L193.7 102.7H202V103.9H191.9ZM180 101.3C180 101.8 180.2 102.2 180.6 102.6C181 102.9 181.6 103.1 182.3 103.1C182.8 103.1 183.4 103 183.8 102.8C184.3 102.6 184.7 102.4 185 102V100.2C184.6 99.9001 184.2 99.8001 183.8 99.7001C183.4 99.6 182.9 99.5001 182.4 99.5001C181.7 99.5001 181.1 99.7001 180.6 100C180.2 100.3 180 100.7 180 101.3ZM182.1 104.1C181.1 104.1 180.3 103.8 179.6 103.3C179 102.8 178.7 102.1 178.7 101.3C178.7 100.4 179 99.8 179.7 99.3C180.4 98.8 181.3 98.5001 182.4 98.5001C182.9 98.5001 183.4 98.6001 183.8 98.7001C184.3 98.8001 184.7 99.0001 185.1 99.2001V98.0001C185.1 97.3001 184.9 96.7 184.5 96.4C184.1 96 183.5 95.8 182.7 95.8C182.2 95.8 181.8 95.9001 181.3 96.0001C180.8 96.1001 180.3 96.3001 179.8 96.6001L179.3 95.6001C180 95.3001 180.6 95.1 181.1 94.9C181.6 94.7 182.2 94.7001 182.8 94.7001C184 94.7001 184.9 95.0001 185.5 95.5001C186.1 96.0001 186.5 96.8 186.5 97.9V104.1H185.2V103.2C184.8 103.6 184.3 103.8 183.8 104C183.2 104 182.7 104.1 182.1 104.1ZM173.6 101.9V95.9H171.6V94.7001H173.6V92.4L174.9 92.1001V94.8H177.7V96.0001H174.9V101.6C174.9 102.1 175 102.4 175.2 102.7C175.4 102.9 175.8 103 176.3 103C176.6 103 176.8 103 177 102.9C177.2 102.9 177.4 102.8 177.7 102.7V103.9C177.5 104 177.2 104 176.9 104.1C176.6 104.1 176.3 104.2 176.1 104.2C175.3 104.2 174.7 104 174.3 103.6C173.8 103.1 173.6 102.6 173.6 101.9ZM164.2 101.3C164.2 101.8 164.4 102.2 164.8 102.6C165.2 102.9 165.8 103.1 166.5 103.1C167 103.1 167.6 103 168 102.8C168.5 102.6 168.9 102.4 169.2 102V100.2C168.8 99.9001 168.4 99.8001 168 99.7001C167.6 99.6 167.1 99.5001 166.6 99.5001C165.9 99.5001 165.3 99.7001 164.8 100C164.4 100.3 164.2 100.7 164.2 101.3ZM166.3 104.1C165.3 104.1 164.5 103.8 163.8 103.3C163.2 102.8 162.9 102.1 162.9 101.3C162.9 100.4 163.2 99.8 163.9 99.3C164.6 98.8 165.5 98.5001 166.6 98.5001C167.1 98.5001 167.6 98.6001 168 98.7001C168.5 98.8001 168.9 99.0001 169.3 99.2001V98.0001C169.3 97.3001 169.1 96.7 168.7 96.4C168.3 96 167.7 95.8 166.9 95.8C166.4 95.8 166 95.9001 165.5 96.0001C165 96.1001 164.5 96.3001 164 96.6001L163.5 95.6001C164.2 95.3001 164.8 95.1 165.3 94.9C165.8 94.7 166.4 94.7001 167 94.7001C168.2 94.7001 169.1 95.0001 169.7 95.5001C170.3 96.0001 170.7 96.8 170.7 97.9V104.1H169.4V103.2C169 103.6 168.5 103.8 168 104C167.4 104 166.9 104.1 166.3 104.1ZM153.4 103.9V94.7001H154.8V95.8C155.2 95.4 155.6 95.1 156.1 94.9C156.6 94.7 157.1 94.6001 157.7 94.6001C158.7 94.6001 159.6 94.9001 160.2 95.6001C160.9 96.3001 161.2 97.1001 161.2 98.2001V104H159.9V98.5001C159.9 97.7001 159.7 97.1001 159.2 96.6001C158.7 96.1001 158.1 95.9 157.3 95.9C156.8 95.9 156.3 96 155.8 96.3C155.4 96.5 155 96.9 154.8 97.3V104.1H153.4V103.9ZM147.1 95.8C146.3 95.8 145.6 96.1001 145 96.6001C144.4 97.1001 144.1 97.8001 144 98.7001H150.1C150 97.9001 149.6 97.2001 149.1 96.7001C148.5 96.1001 147.8 95.8 147.1 95.8ZM150.7 102.9C150.2 103.3 149.6 103.6 149.1 103.8C148.6 104 147.9 104.1 147.3 104.1C146.7 104.1 146 104 145.4 103.7C144.8 103.5 144.3 103.1 143.9 102.7C143.5 102.3 143.2 101.8 142.9 101.2C142.7 100.6 142.5 100 142.5 99.3C142.5 98.6 142.6 98 142.8 97.4C143 96.8 143.4 96.3 143.8 95.9C144.2 95.5 144.7 95.1 145.2 94.9C145.8 94.7 146.4 94.5001 147 94.5001C147.6 94.5001 148.2 94.6 148.7 94.9C149.2 95.1 149.7 95.5 150.1 95.9C150.5 96.3 150.8 96.8 151 97.4C151.2 98 151.3 98.6 151.3 99.3V99.7001H143.8C143.9 100.6 144.3 101.4 144.9 102C145.5 102.6 146.3 102.9 147.2 102.9C147.7 102.9 148.1 102.8 148.6 102.7C149.1 102.6 149.4 102.3 149.7 102.1L150.7 102.9ZM137.4 92.4H133.4V97.2001H137.4C138.3 97.2001 138.9 97.0001 139.5 96.5001C140 96.0001 140.3 95.5001 140.3 94.7001C140.3 93.9001 140 93.4 139.5 92.9C139 92.4 138.3 92.4 137.4 92.4ZM132 103.9V91.1001H137.5C138.7 91.1001 139.8 91.4001 140.5 92.1001C141.3 92.8001 141.7 93.7 141.7 94.8C141.7 95.6 141.4 96.4001 140.9 97.0001C140.4 97.6001 139.8 98 138.9 98.3L141.8 104H140.2L137.5 98.5001H133.4V104H132V103.9Z" fill="#005650"/>
<path d="M328.9 71.8C328.9 72.5 329.2 73 329.8 73.4C330.4 73.8 331.2 74 332.1 74C332.9 74 333.6 73.9 334.2 73.7C334.9 73.5 335.4 73.2 336 72.9V70.3C335.4 70.1 334.8 69.9 334.2 69.8C333.6 69.7 333 69.6 332.3 69.6C331.2 69.6 330.4 69.8 329.8 70.2C329.1 70.6 328.9 71.1 328.9 71.8ZM330.8 77.3C328.9 77.3 327.4 76.8 326.2 75.8C325 74.8 324.4 73.5 324.4 71.9C324.4 70.2 325 68.9 326.3 68C327.6 67.1 329.3 66.6 331.6 66.6C332.3 66.6 333 66.7 333.8 66.8C334.5 66.9 335.2 67.1 335.9 67.3V66.1C335.9 65.1 335.6 64.3 335 63.8C334.4 63.3 333.5 63 332.2 63C331.5 63 330.7 63.1 329.8 63.4C328.9 63.6 328 64 326.9 64.5L325.2 61.1C326.6 60.5 327.9 60 329.2 59.7C330.5 59.4 331.8 59.2 333 59.2C335.4 59.2 337.2 59.8 338.5 60.9C339.8 62 340.5 63.6 340.5 65.7V77.1H336V75.9C335.3 76.4 334.5 76.8 333.6 77C332.8 77.2 331.9 77.3 330.8 77.3ZM316 73.3C316.8 73.3 317.5 73.1 318.2 72.8C318.9 72.5 319.6 72 320.2 71.3L323 74.2C322.1 75.2 321 76 319.8 76.5C318.5 77 317.2 77.3 315.9 77.3C314.6 77.3 313.4 77.1 312.3 76.6C311.2 76.1 310.2 75.5 309.4 74.7C308.6 73.9 308 72.9 307.5 71.8C307 70.7 306.8 69.5 306.8 68.2C306.8 66.9 307 65.7 307.5 64.6C308 63.5 308.6 62.5 309.4 61.7C310.2 60.9 311.2 60.2 312.3 59.7C313.4 59.2 314.7 59 315.9 59C317.3 59 318.6 59.3 319.9 59.8C321.2 60.3 322.3 61.1 323.2 62.1L320.4 65.1C319.8 64.4 319.1 63.9 318.4 63.5C317.7 63.1 316.9 63 316.1 63C314.8 63 313.7 63.5 312.7 64.5C311.8 65.5 311.4 66.7 311.4 68.1C311.4 69.5 311.9 70.7 312.8 71.7C313.5 72.8 314.6 73.3 316 73.3ZM303.8 59.5V77H299.2V59.5H303.8ZM301.5 57.4C300.8 57.4 300.2 57.1 299.6 56.6C299 56.1 298.8 55.5 298.8 54.7C298.8 53.9 299.1 53.4 299.6 52.8C300.1 52.3 300.7 52 301.5 52C302.2 52 302.8 52.3 303.4 52.8C303.9 53.3 304.2 53.9 304.2 54.7C304.2 55.5 303.9 56 303.4 56.6C302.8 57.1 302.2 57.4 301.5 57.4ZM281.8 68.1C281.8 69.5 282.3 70.7 283.2 71.7C284.2 72.7 285.4 73.2 286.8 73.2C287.6 73.2 288.4 73.1 289.1 72.8C289.8 72.5 290.4 72.1 290.9 71.6V64.7C290.4 64.2 289.8 63.8 289.1 63.6C288.4 63.3 287.6 63.2 286.8 63.2C285.4 63.2 284.2 63.7 283.2 64.6C282.3 65.5 281.8 66.7 281.8 68.1ZM286.1 77.1C284.9 77.1 283.7 76.9 282.6 76.4C281.5 75.9 280.6 75.3 279.8 74.5C279 73.7 278.4 72.8 277.9 71.7C277.5 70.6 277.2 69.4 277.2 68.2C277.2 67 277.4 65.8 277.9 64.7C278.4 63.6 279 62.6 279.8 61.8C280.6 61 281.6 60.4 282.7 59.9C283.8 59.4 285 59.2 286.2 59.2C287.1 59.2 287.9 59.3 288.7 59.6C289.5 59.8 290.3 60.2 291 60.6V59.5H295.5V77C295.5 79.3 294.7 81.1 293.2 82.3C291.7 83.6 289.6 84.2 286.8 84.2C285.5 84.2 284.2 84.1 282.9 83.8C281.7 83.5 280.5 83.1 279.5 82.6L281.1 79C282.1 79.5 283 79.8 283.9 80C284.8 80.2 285.7 80.4 286.7 80.4C288.1 80.4 289.1 80.1 289.8 79.5C290.5 78.9 290.9 78.1 290.9 76.9V75.5C290.2 76 289.4 76.4 288.6 76.7C287.8 77 287 77.1 286.1 77.1ZM265.7 73.3C267 73.3 268.2 72.8 269.1 71.8C270 70.8 270.5 69.6 270.5 68.2C270.5 66.8 270 65.6 269.1 64.6C268.2 63.6 267 63.1 265.7 63.1C264.4 63.1 263.2 63.6 262.3 64.6C261.4 65.6 260.9 66.8 260.9 68.2C260.9 69.6 261.4 70.8 262.3 71.8C263.2 72.8 264.4 73.3 265.7 73.3ZM256.4 68.2C256.4 66.9 256.6 65.7 257.1 64.6C257.6 63.5 258.3 62.5 259.1 61.7C260 60.9 261 60.2 262.1 59.7C263.2 59.2 264.5 59 265.8 59C267.1 59 268.3 59.2 269.5 59.7C270.6 60.2 271.6 60.8 272.5 61.7C273.4 62.5 274 63.5 274.5 64.6C275 65.7 275.2 66.9 275.2 68.2C275.2 69.5 275 70.7 274.5 71.8C274 72.9 273.4 73.9 272.5 74.7C271.7 75.5 270.7 76.1 269.5 76.6C268.4 77.1 267.1 77.3 265.8 77.3C264.5 77.3 263.3 77.1 262.1 76.6C261 76.1 260 75.5 259.1 74.7C258.3 73.9 257.6 72.9 257.1 71.8C256.6 70.7 256.4 69.5 256.4 68.2ZM253.6 52.4V77H249V53.4L253.6 52.4ZM236.8 73.3C238.1 73.3 239.3 72.8 240.2 71.8C241.1 70.8 241.6 69.6 241.6 68.2C241.6 66.8 241.1 65.6 240.2 64.6C239.3 63.6 238.1 63.1 236.8 63.1C235.5 63.1 234.3 63.6 233.4 64.6C232.5 65.6 232 66.8 232 68.2C232 69.6 232.5 70.8 233.4 71.8C234.3 72.8 235.4 73.3 236.8 73.3ZM227.4 68.2C227.4 66.9 227.6 65.7 228.1 64.6C228.6 63.5 229.3 62.5 230.1 61.7C231 60.9 232 60.2 233.1 59.7C234.2 59.2 235.5 59 236.8 59C238.1 59 239.3 59.2 240.5 59.7C241.6 60.2 242.6 60.8 243.5 61.7C244.4 62.5 245 63.5 245.5 64.6C246 65.7 246.2 66.9 246.2 68.2C246.2 69.5 246 70.7 245.5 71.8C245 72.9 244.4 73.9 243.5 74.7C242.7 75.5 241.7 76.1 240.5 76.6C239.4 77.1 238.1 77.3 236.8 77.3C235.5 77.3 234.3 77.1 233.1 76.6C232 76.1 231 75.5 230.1 74.7C229.3 73.9 228.6 72.9 228.1 71.8C227.7 70.7 227.4 69.5 227.4 68.2ZM208.3 77V53.4L212.9 52.4V60.8C213.6 60.2 214.3 59.8 215.1 59.5C215.9 59.2 216.8 59.1 217.8 59.1C219.8 59.1 221.5 59.8 222.8 61.1C224.1 62.4 224.8 64.1 224.8 66.1V77H220.2V66.8C220.2 65.7 219.9 64.8 219.2 64.1C218.5 63.4 217.7 63.1 216.6 63.1C215.8 63.1 215.1 63.3 214.5 63.6C213.9 63.9 213.4 64.3 213 64.9V77H208.3ZM199 73.3C199.8 73.3 200.5 73.1 201.2 72.8C201.9 72.5 202.6 72 203.2 71.3L206 74.2C205.1 75.2 204 76 202.8 76.5C201.5 77 200.2 77.3 198.9 77.3C197.6 77.3 196.4 77.1 195.3 76.6C194.2 76.1 193.2 75.5 192.4 74.7C191.6 73.9 191 72.9 190.5 71.8C190 70.7 189.8 69.5 189.8 68.2C189.8 66.9 190 65.7 190.5 64.6C191 63.5 191.6 62.5 192.4 61.7C193.2 60.9 194.2 60.2 195.3 59.7C196.4 59.2 197.7 59 198.9 59C200.3 59 201.6 59.3 202.9 59.8C204.2 60.3 205.3 61.1 206.2 62.1L203.4 65.1C202.8 64.4 202.1 63.9 201.4 63.5C200.7 63.1 199.9 63 199.1 63C197.8 63 196.7 63.5 195.7 64.5C194.8 65.5 194.4 66.7 194.4 68.1C194.4 69.5 194.9 70.7 195.8 71.7C196.5 72.8 197.6 73.3 199 73.3ZM176.4 77.8L176.7 77.2L169.9 59.5H175L179.3 71.4L184.3 59.5H189.3L181.2 78.4C180.3 80.5 179.3 82 178.1 82.9C176.9 83.8 175.4 84.2 173.5 84.2C173.1 84.2 172.7 84.2 172.3 84.1C171.9 84.1 171.6 84 171.4 84V80C171.6 80 171.9 80.1 172.1 80.1C172.3 80.1 172.6 80.1 173 80.1C173.8 80.1 174.5 79.9 175.1 79.5C175.6 79.2 176.1 78.6 176.4 77.8ZM154 74.9L156.3 71.8C157.3 72.5 158.3 73 159.2 73.3C160.1 73.6 161 73.8 162 73.8C163 73.8 163.9 73.6 164.5 73.3C165.1 73 165.4 72.5 165.4 72C165.4 71.6 165.2 71.2 164.9 70.9C164.6 70.6 164 70.4 163.3 70.3L159.9 69.8C158.2 69.5 156.8 69 155.9 68.1C155 67.2 154.6 66.1 154.6 64.7C154.6 63 155.3 61.7 156.6 60.7C157.9 59.7 159.7 59.2 161.9 59.2C163.2 59.2 164.4 59.4 165.6 59.8C166.8 60.2 168 60.7 169.1 61.4L166.9 64.4C165.9 63.8 165 63.4 164.1 63.2C163.2 62.9 162.3 62.8 161.4 62.8C160.6 62.8 159.9 63 159.4 63.3C158.9 63.6 158.7 64 158.7 64.5C158.7 65 158.9 65.3 159.2 65.6C159.6 65.8 160.2 66 161.1 66.1L164.5 66.6C166.2 66.8 167.5 67.4 168.4 68.3C169.3 69.2 169.8 70.3 169.8 71.6C169.8 72.4 169.6 73.2 169.2 73.9C168.8 74.6 168.3 75.2 167.6 75.7C166.9 76.2 166.1 76.6 165.2 76.9C164.3 77.2 163.2 77.3 162.1 77.3C160.5 77.3 159 77.1 157.6 76.7C156.2 76.3 155 75.7 154 74.9ZM144.1 57.6H137.7V64H144.1C145.2 64 146 63.7 146.6 63.1C147.3 62.5 147.6 61.7 147.6 60.8C147.6 59.9 147.3 59.1 146.6 58.5C146 57.9 145.2 57.6 144.1 57.6ZM132.9 77V53.4H144.7C145.8 53.4 146.9 53.6 147.9 54C148.9 54.4 149.7 54.9 150.4 55.5C151.1 56.1 151.6 56.9 152 57.9C152.4 58.8 152.6 59.8 152.6 60.9C152.6 62 152.4 62.9 152 63.8C151.6 64.7 151.1 65.4 150.4 66.1C149.7 66.8 148.9 67.3 147.9 67.6C146.9 67.9 145.9 68.1 144.7 68.1H137.8V77H132.9Z" fill="#1F1F1F"/>
<defs>
<clipPath id="clip0">
<rect width="343" height="156" fill="white"/>
</clipPath>
</defs>
</svg>
