<svg width="327" height="347" viewBox="0 0 327 347" fill="none" xmlns="http://www.w3.org/2000/svg">
<g opacity="0.05">
<path d="M176.139 173.327C161.766 186.539 137.433 183.266 137.433 183.266C137.433 183.266 136.231 158.725 150.603 145.513C164.976 132.301 189.309 135.575 189.309 135.575C189.309 135.575 190.258 160.16 176.139 173.327Z" fill="#005650"/>
<path d="M60.4124 280.531C43.9597 291.051 20.5659 283.61 20.5659 283.61C20.5659 283.61 23.6508 259.234 40.1036 248.714C56.5563 238.193 79.9501 245.635 79.9501 245.635C79.9501 245.635 76.6081 270.011 60.4124 280.531Z" fill="#005650"/>
<path d="M37.5209 136.852C48.0609 153.274 40.6058 176.624 40.6058 176.624C40.6058 176.624 16.1838 173.545 5.64373 157.123C-4.89631 140.701 2.55883 117.351 2.55883 117.351C2.55883 117.351 26.9809 120.687 37.5209 136.852Z" fill="#005650"/>
<path d="M104.36 152.247C114.9 168.669 107.445 192.019 107.445 192.019C107.445 192.019 83.023 188.94 72.483 172.518C61.943 156.096 69.3981 132.746 69.3981 132.746C69.3981 132.746 93.8202 136.082 104.36 152.247Z" fill="#005650"/>
<path d="M68.1246 192.263C51.6719 181.743 28.2782 189.184 28.2782 189.184C28.2782 189.184 31.363 213.56 47.8158 224.08C64.2685 234.601 87.6623 227.16 87.6623 227.16C87.6623 227.16 84.5774 202.527 68.1246 192.263Z" fill="#005650"/>
<path d="M60.4124 79.3627C43.9597 68.8425 20.5659 76.2836 20.5659 76.2836C20.5659 76.2836 23.6508 100.66 40.1036 111.18C56.5563 121.7 79.9501 114.259 79.9501 114.259C79.9501 114.259 76.8652 89.6264 60.4124 79.3627Z" fill="#005650"/>
<path d="M139.541 108.403C135.361 89.3517 113.547 78.1025 113.547 78.1025C113.547 78.1025 98.4595 97.5163 102.64 116.567C106.821 135.618 128.635 146.867 128.635 146.867C128.635 146.867 143.904 127.272 139.541 108.403Z" fill="#005650"/>
<path d="M106.122 36.557C101.941 17.506 80.1275 6.25684 80.1275 6.25684C80.1275 6.25684 65.0398 25.6707 69.2207 44.7216C73.4017 63.7726 95.2151 75.0217 95.2151 75.0217C95.2151 75.0217 110.485 55.4265 106.122 36.557Z" fill="#005650"/>
<path d="M95.6204 257.45C85.0804 273.872 92.5355 297.222 92.5355 297.222C92.5355 297.222 116.958 294.143 127.498 277.721C138.038 261.299 130.582 237.949 130.582 237.949C130.582 237.949 105.903 241.028 95.6204 257.45Z" fill="#005650"/>
<path fill-rule="evenodd" clip-rule="evenodd" d="M169.604 238.078V204.592C169.604 201.758 171.906 199.461 174.746 199.461H177.494C183.103 199.461 187.678 203.948 187.775 209.546L190.079 341.78C190.129 344.648 187.813 347.001 184.939 347.001H167.354C164.392 347.001 162.043 344.51 162.222 341.559L167.098 261.043L133.226 227.181C129.216 223.172 129.218 216.678 133.232 212.672L135.055 210.852C137.063 208.847 140.319 208.847 142.326 210.852L169.604 238.078Z" fill="#005650"/>
<path d="M220.377 8.78774C196.358 0.340145 170.218 0.0390294 146.011 7.93109L142.346 9.12613C138.972 10.2261 137.13 13.8479 138.232 17.2156L140.626 24.5329C141.729 27.9006 145.357 29.7389 148.731 28.6389L152.397 27.4439C172.3 20.9549 193.793 21.2024 213.542 28.1482C233.29 35.094 250.19 48.3499 261.622 65.8599C272.433 82.4208 277.781 101.912 276.966 121.606C276.797 125.703 277.619 130.008 279.743 133.952L303.457 177.996C304.08 179.153 303.24 180.556 301.924 180.556C289.605 180.556 279.618 190.524 279.618 202.82V236.752C279.618 238.371 278.134 239.585 276.543 239.268L255.877 235.142C241.56 232.284 228.203 243.214 228.203 257.787V289.607C228.203 293.15 231.081 296.022 234.63 296.022H242.342C245.892 296.022 248.769 293.15 248.769 289.607V257.787C248.769 256.168 250.253 254.954 251.844 255.271L272.51 259.396C286.826 262.254 300.184 251.325 300.184 236.752V202.82C300.184 201.861 300.963 201.083 301.924 201.083C318.795 201.083 329.559 183.112 321.573 168.279L297.859 124.235C297.654 123.854 297.481 123.259 297.515 122.452C298.506 98.5004 292.002 74.795 278.852 54.6532C264.949 33.3573 244.395 17.2353 220.377 8.78774Z" fill="#005650"/>
<path fill-rule="evenodd" clip-rule="evenodd" d="M219.639 10.8861C196.081 2.60068 170.443 2.30533 146.701 10.0459L143.035 11.2409C140.827 11.9608 139.627 14.3276 140.346 16.5238L142.741 23.8411C143.46 26.0391 145.832 27.2446 148.042 26.5241L151.707 25.3291C172.076 18.6886 194.07 18.9419 214.28 26.0499C234.489 33.1579 251.785 46.7236 263.484 64.6439C274.549 81.593 280.023 101.541 279.189 121.698C279.034 125.438 279.786 129.34 281.702 132.898L305.416 176.942C306.84 179.587 304.917 182.78 301.924 182.78C290.829 182.78 281.842 191.756 281.842 202.82V236.752C281.842 239.779 279.069 242.04 276.108 241.449L255.442 237.324C242.496 234.739 230.427 244.623 230.427 257.787V289.607C230.427 291.917 232.305 293.797 234.63 293.797H242.342C244.667 293.797 246.545 291.917 246.545 289.607V257.787C246.545 254.759 249.318 252.498 252.279 253.09L272.945 257.215C285.891 259.799 297.959 249.916 297.959 236.752V202.82C297.959 200.628 299.738 198.859 301.924 198.859C317.119 198.859 326.799 182.678 319.614 169.333L295.9 125.29C295.488 124.524 295.244 123.527 295.292 122.36C296.264 98.8708 289.886 75.6228 276.99 55.8692C263.355 34.9836 243.196 19.1715 219.639 10.8861ZM145.322 5.81629C169.994 -2.22727 196.635 -1.92039 221.115 6.68939C245.594 15.2992 266.544 31.731 280.715 53.4372C294.118 73.9672 300.747 98.1299 299.737 122.544C299.719 122.98 299.814 123.174 299.817 123.181L323.531 167.224C332.242 183.403 320.676 202.963 302.408 203.303V236.752C302.408 252.733 287.762 264.709 272.074 261.578L251.409 257.452C251.189 257.409 250.993 257.576 250.993 257.787V289.607C250.993 294.382 247.116 298.246 242.342 298.246H234.63C229.856 298.246 225.979 294.382 225.979 289.607V257.787C225.979 241.806 240.625 229.829 256.313 232.961L276.978 237.086C277.198 237.13 277.394 236.962 277.394 236.752V202.82C277.394 189.561 287.947 178.769 301.118 178.344L277.785 135.007C275.452 130.675 274.56 125.967 274.744 121.514C275.539 102.282 270.317 83.2486 259.759 67.0758C248.596 49.9762 232.091 37.0302 212.804 30.2466C193.516 23.463 172.525 23.2212 153.086 29.5587L149.421 30.7537C144.883 32.2332 139.997 29.7621 138.512 25.2247L136.118 17.9074C134.632 13.3682 137.116 8.49142 141.656 7.01133L145.322 5.81629ZM301.499 179.051C301.498 179.05 301.498 179.049 301.497 179.048L301.499 179.051Z" fill="#005650"/>
</g>
</svg>
