<svg width="480" height="156" viewBox="0 0 480 156" fill="none" xmlns="http://www.w3.org/2000/svg">
<path d="M79.1865 76.9396C72.7251 82.8793 61.7858 81.4076 61.7858 81.4076C61.7858 81.4076 61.245 70.375 67.7065 64.4352C74.1679 58.4955 85.1072 59.9672 85.1072 59.9672C85.1072 59.9672 85.5342 71.0199 79.1865 76.9396Z" fill="#28AE66"/>
<path d="M27.1595 125.135C19.7629 129.865 9.2458 126.519 9.2458 126.519C9.2458 126.519 10.6327 115.561 18.0293 110.831C25.426 106.101 35.9431 109.447 35.9431 109.447C35.9431 109.447 34.4406 120.406 27.1595 125.135Z" fill="#28AE66"/>
<path d="M16.8682 60.5414C21.6067 67.9242 18.2551 78.4215 18.2551 78.4215C18.2551 78.4215 7.27572 77.0373 2.53724 69.6545C-2.20123 62.2718 1.15037 51.7744 1.15037 51.7744C1.15037 51.7744 12.1298 53.274 16.8682 60.5414Z" fill="#28AE66"/>
<path d="M46.9171 67.4628C51.6556 74.8455 48.304 85.3429 48.304 85.3429C48.304 85.3429 37.3246 83.9586 32.5861 76.5759C27.8476 69.1931 31.1992 58.6957 31.1992 58.6957C31.1992 58.6957 42.1786 60.1954 46.9171 67.4628Z" fill="#28AE66"/>
<path d="M30.6267 85.4526C23.2301 80.723 12.713 84.0683 12.713 84.0683C12.713 84.0683 14.0998 95.0271 21.4965 99.7566C28.8931 104.486 39.4102 101.141 39.4102 101.141C39.4102 101.141 38.0234 90.0668 30.6267 85.4526Z" fill="#28AE66"/>
<path d="M27.1595 34.6961C19.7629 29.9665 9.2458 33.3118 9.2458 33.3118C9.2458 33.3118 10.6327 44.2706 18.0293 49.0002C25.426 53.7298 35.9431 50.3844 35.9431 50.3844C35.9431 50.3844 34.5562 39.3103 27.1595 34.6961Z" fill="#28AE66"/>
<path d="M62.7335 47.7515C60.8539 39.1868 51.0472 34.1295 51.0472 34.1295C51.0472 34.1295 44.2643 42.8574 46.1439 51.4221C48.0235 59.9868 57.8302 65.0441 57.8302 65.0441C57.8302 65.0441 64.6948 56.2347 62.7335 47.7515Z" fill="#28AE66"/>
<path d="M47.7091 15.4519C45.8295 6.88723 36.0228 1.82996 36.0228 1.82996C36.0228 1.82996 29.2399 10.5578 31.1195 19.1225C32.9991 27.6873 42.8058 32.7445 42.8058 32.7445C42.8058 32.7445 49.6704 23.9351 47.7091 15.4519Z" fill="#28AE66"/>
<path d="M42.988 114.759C38.2495 122.141 41.6011 132.639 41.6011 132.639C41.6011 132.639 52.5805 131.254 57.3189 123.872C62.0574 116.489 58.7058 105.992 58.7058 105.992C58.7058 105.992 47.6109 107.376 42.988 114.759Z" fill="#28AE66"/>
<path fill-rule="evenodd" clip-rule="evenodd" d="M76.2488 106.05V90.9954C76.2488 89.7213 77.2837 88.6883 78.5603 88.6883H79.7957C82.3175 88.6883 84.374 90.7056 84.4179 93.2223L85.4537 152.671C85.4762 153.96 84.4349 155.018 83.1426 155.018H75.2371C73.9056 155.018 72.8495 153.898 72.9298 152.572L75.1221 116.374L59.8943 101.151C58.0914 99.3482 58.0925 96.4286 59.8969 94.6276L60.7166 93.8094C61.6193 92.9084 63.0828 92.9084 63.9855 93.8094L76.2488 106.05Z" fill="#28AE66"/>
<path fill-rule="evenodd" clip-rule="evenodd" d="M66.0491 3.96642C76.5834 0.568243 88.024 0.681515 98.445 4.30623C108.866 8.04423 117.815 15.0671 123.931 24.3555C129.708 33.1907 132.54 43.4985 132.087 53.9196C132.087 54.3727 132.2 54.7125 132.313 55.0523L145 72.2697C148.851 78.1599 145.793 85.8624 136.844 85.8624C134.013 85.8624 133.22 88.6942 133.22 89.4871L133.446 102.627C133.446 108.743 129.368 112.028 121.892 112.028H112.604C110.792 112.028 110.565 112.595 110.565 113.727V127.773C110.565 129.019 109.546 130.039 108.3 130.039H104.902C103.656 130.039 102.636 129.019 102.636 127.773V113.727C102.636 107.951 104.902 104.326 113.397 104.326C113.963 104.326 114.416 104.326 115.096 104.326H123.478C125.404 104.326 125.517 103.759 125.517 102.627L125.291 89.4871C125.291 84.3899 127.783 78.3864 136.844 78.3864C137.864 78.3864 139.223 77.5935 137.977 76.0077L125.291 58.7903C124.384 57.0912 124.045 55.3921 124.158 53.5798C124.498 44.7445 122.119 36.0225 117.362 28.6598C112.264 20.844 104.675 14.8406 95.8398 11.7822C87.0045 8.72386 77.3763 8.61059 68.5411 11.5557L66.9553 12.122C65.8225 12.4619 64.4633 11.8955 64.1235 10.6495L62.9907 7.36459C62.6509 6.23187 63.2173 4.8726 64.4633 4.53278L66.0491 3.96642ZM65.5665 2.54599L65.5886 2.53885C76.4314 -0.95882 88.2066 -0.843107 98.9378 2.88949L98.9447 2.89187L98.9515 2.89432C109.678 6.74187 118.889 13.9706 125.184 23.5305L125.187 23.5346C131.127 32.6196 134.045 43.2223 133.587 53.9459C133.59 54.0732 133.611 54.181 133.666 54.3587L146.233 71.4137L146.255 71.4488C148.444 74.7965 148.733 78.7759 147.049 81.9738C145.345 85.2112 141.775 87.3624 136.844 87.3624C136.023 87.3624 135.542 87.7361 135.208 88.2244C135.03 88.4854 134.901 88.7747 134.819 89.0363C134.778 89.1653 134.752 89.2782 134.736 89.3659C134.724 89.4368 134.721 89.4769 134.72 89.4869L134.946 102.614V102.627C134.946 106.043 133.79 108.861 131.418 110.786C129.098 112.669 125.82 113.528 121.892 113.528H112.604C112.365 113.528 112.191 113.54 112.068 113.556C112.066 113.604 112.065 113.661 112.065 113.727V127.773C112.065 129.848 110.374 131.539 108.3 131.539H104.902C102.827 131.539 101.136 129.848 101.136 127.773V113.727C101.136 110.688 101.724 107.845 103.77 105.8C105.809 103.76 108.983 102.826 113.397 102.826H123.478C123.712 102.826 123.887 102.816 124.016 102.802C124.017 102.754 124.017 102.7 124.017 102.639L123.791 89.5001V89.4871C123.791 86.7257 124.462 83.5679 126.51 81.0734C128.591 78.5391 131.916 76.905 136.762 76.8866L124.018 59.5923L123.967 59.4962C122.93 57.5507 122.533 55.5798 122.66 53.5048C122.984 44.9818 120.688 36.5722 116.103 29.4763C111.184 21.9352 103.863 16.1467 95.3491 13.1997C86.8242 10.2488 77.5412 10.1405 69.0304 12.9737L67.4234 13.5477L67.3863 13.5588C65.6117 14.0911 63.315 13.262 62.6913 11.0975L61.5628 7.82478L61.554 7.79561C61.0224 6.02347 61.8486 3.73061 64.0064 3.10316L65.5665 2.54599ZM64.4633 4.53278C63.2173 4.8726 62.6509 6.23187 62.9908 7.36459L64.1235 10.6495C64.4633 11.8955 65.8226 12.4618 66.9553 12.122L68.5411 11.5557C77.3764 8.61059 87.0045 8.72386 95.8398 11.7822C104.675 14.8406 112.264 20.844 117.362 28.6598C122.119 36.0225 124.498 44.7445 124.158 53.5798C124.045 55.3921 124.384 57.0912 125.291 58.7903L137.977 76.0077C139.223 77.5935 137.864 78.3864 136.844 78.3864C127.783 78.3864 125.291 84.3899 125.291 89.4871L125.517 102.627C125.517 103.759 125.404 104.326 123.478 104.326H113.397C104.902 104.326 102.636 107.951 102.636 113.727V127.773C102.636 129.019 103.656 130.039 104.902 130.039H108.3C109.546 130.039 110.565 129.019 110.565 127.773V113.727C110.565 112.595 110.792 112.028 112.604 112.028H121.892C129.368 112.028 133.446 108.743 133.446 102.627L133.22 89.4871C133.22 88.6942 134.013 85.8624 136.844 85.8624C145.793 85.8624 148.851 78.1599 145 72.2697L132.314 55.0523C132.2 54.7125 132.087 54.3727 132.087 53.9196C132.54 43.4985 129.708 33.1907 123.931 24.3555C117.815 15.0671 108.866 8.04422 98.445 4.30623C88.024 0.681515 76.5835 0.568242 66.0491 3.96642L64.4633 4.53278Z" fill="#28AE66"/>
<path d="M182.362 79.7589V46.3403H199.119C200.742 46.3403 202.238 46.6108 203.606 47.1519C205.007 47.6611 206.2 48.3773 207.187 49.3002C208.173 50.2232 208.937 51.3372 209.478 52.6421C210.051 53.9152 210.338 55.3156 210.338 56.8433C210.338 58.3392 210.051 59.7237 209.478 60.9968C208.937 62.238 208.158 63.3201 207.139 64.2431C206.152 65.1661 204.975 65.8822 203.606 66.3915C202.238 66.9007 200.742 67.1553 199.119 67.1553H189.284V79.7589H182.362ZM198.355 52.3079H189.284V61.4264H198.355C199.851 61.4264 201.044 61.0127 201.935 60.1852C202.858 59.3577 203.32 58.2596 203.32 56.891C203.32 55.5225 202.858 54.4244 201.935 53.5969C201.044 52.7376 199.851 52.3079 198.355 52.3079ZM212.327 76.799L215.573 72.4546C217.037 73.4094 218.422 74.1255 219.727 74.6029C221.032 75.0485 222.336 75.2713 223.641 75.2713C225.105 75.2713 226.267 75.0326 227.126 74.5552C228.018 74.0777 228.463 73.4412 228.463 72.6455C228.463 72.009 228.209 71.4997 227.699 71.1178C227.222 70.7359 226.442 70.4654 225.36 70.3062L220.586 69.5901C218.135 69.2082 216.257 68.4125 214.953 67.2031C213.679 65.9936 213.043 64.3864 213.043 62.3812C213.043 59.9942 213.982 58.0846 215.86 56.6523C217.737 55.2201 220.252 54.504 223.403 54.504C225.217 54.504 226.983 54.7745 228.702 55.3156C230.421 55.8248 232.06 56.5887 233.619 57.6072L230.468 61.8083C229.1 61.0127 227.795 60.4239 226.554 60.0419C225.312 59.6282 224.055 59.4213 222.782 59.4213C221.604 59.4213 220.65 59.6441 219.918 60.0897C219.217 60.5353 218.867 61.1241 218.867 61.8561C218.867 62.5245 219.122 63.0496 219.631 63.4315C220.172 63.7816 221.047 64.0363 222.257 64.1954L227.031 64.9115C229.45 65.2616 231.312 66.0573 232.617 67.2985C233.953 68.5398 234.622 70.1153 234.622 72.0249C234.622 73.2025 234.335 74.3005 233.762 75.319C233.221 76.3057 232.473 77.165 231.519 77.897C230.564 78.629 229.418 79.2019 228.081 79.6157C226.745 80.0294 225.296 80.2363 223.737 80.2363C221.477 80.2363 219.361 79.9499 217.387 79.377C215.414 78.7723 213.727 77.9129 212.327 76.799ZM244.143 80.9047L244.525 79.9976L234.834 54.8859H242.043L248.201 71.8339L255.267 54.8859H262.333L250.875 81.7163C249.602 84.708 248.122 86.8405 246.435 88.1136C244.748 89.3866 242.552 90.0232 239.847 90.0232C239.274 90.0232 238.717 89.9914 238.176 89.9277C237.667 89.8959 237.253 89.8322 236.935 89.7367V84.1033C237.253 84.167 237.587 84.2147 237.937 84.2466C238.287 84.2784 238.717 84.2943 239.226 84.2943C240.404 84.2943 241.39 84.0078 242.186 83.435C243.014 82.8621 243.666 82.0186 244.143 80.9047ZM276.16 74.5074C277.274 74.5074 278.309 74.2846 279.264 73.839C280.25 73.3935 281.189 72.6933 282.08 71.7384L285.995 75.7964C284.722 77.1968 283.194 78.2949 281.412 79.0905C279.63 79.8544 277.784 80.2363 275.874 80.2363C274.06 80.2363 272.341 79.9021 270.718 79.2338C269.127 78.5654 267.742 77.6583 266.564 76.5125C265.419 75.3668 264.512 74.0141 263.843 72.4546C263.175 70.8632 262.841 69.1604 262.841 67.3463C262.841 65.5321 263.175 63.8453 263.843 62.2858C264.512 60.6944 265.419 59.3258 266.564 58.18C267.742 57.0024 269.127 56.0794 270.718 55.4111C272.341 54.7427 274.06 54.4085 275.874 54.4085C277.847 54.4085 279.741 54.8064 281.555 55.602C283.369 56.3659 284.913 57.448 286.186 58.8484L282.176 63.0974C281.285 62.1107 280.33 61.3628 279.311 60.8535C278.293 60.3443 277.195 60.0897 276.017 60.0897C274.139 60.0897 272.548 60.7899 271.243 62.1903C269.97 63.5907 269.333 65.3093 269.333 67.3463C269.333 69.3832 269.986 71.086 271.291 72.4546C272.628 73.8231 274.251 74.5074 276.16 74.5074ZM289.395 79.7589V46.3403L295.936 44.9081V56.8433C296.891 56.0476 297.941 55.4429 299.087 55.0291C300.264 54.6154 301.538 54.4085 302.906 54.4085C305.771 54.4085 308.126 55.3315 309.972 57.1775C311.818 59.0235 312.741 61.3946 312.741 64.2909V79.7589H306.2V65.2457C306.2 63.6862 305.723 62.429 304.768 61.4742C303.845 60.5193 302.604 60.0419 301.044 60.0419C299.962 60.0419 298.975 60.2647 298.084 60.7103C297.225 61.1241 296.509 61.7288 295.936 62.5245V79.7589H289.395ZM316.549 67.3463C316.549 65.5321 316.883 63.8453 317.552 62.2858C318.252 60.6944 319.191 59.3258 320.368 58.18C321.578 57.0024 322.994 56.0794 324.617 55.4111C326.241 54.7427 327.975 54.4085 329.821 54.4085C331.667 54.4085 333.402 54.7427 335.025 55.4111C336.648 56.0794 338.048 57.0024 339.226 58.18C340.435 59.3258 341.374 60.6944 342.043 62.2858C342.743 63.8453 343.093 65.5321 343.093 67.3463C343.093 69.1604 342.743 70.8632 342.043 72.4546C341.374 74.0141 340.435 75.3668 339.226 76.5125C338.048 77.6583 336.648 78.5654 335.025 79.2338C333.402 79.9021 331.667 80.2363 329.821 80.2363C327.975 80.2363 326.241 79.9021 324.617 79.2338C322.994 78.5654 321.578 77.6583 320.368 76.5125C319.191 75.3668 318.252 74.0141 317.552 72.4546C316.883 70.8632 316.549 69.1604 316.549 67.3463ZM329.821 74.5552C331.731 74.5552 333.354 73.855 334.691 72.4546C336.027 71.0542 336.696 69.3514 336.696 67.3463C336.696 65.3093 336.027 63.5907 334.691 62.1903C333.354 60.7899 331.731 60.0897 329.821 60.0897C327.911 60.0897 326.288 60.7899 324.952 62.1903C323.615 63.5907 322.946 65.3093 322.946 67.3463C322.946 69.3514 323.615 71.0542 324.952 72.4546C326.288 73.855 327.911 74.5552 329.821 74.5552ZM353.654 44.9081V79.7589H347.113V46.3403L353.654 44.9081ZM357.623 67.3463C357.623 65.5321 357.957 63.8453 358.626 62.2858C359.326 60.6944 360.265 59.3258 361.442 58.18C362.652 57.0024 364.068 56.0794 365.691 55.4111C367.314 54.7427 369.049 54.4085 370.895 54.4085C372.741 54.4085 374.476 54.7427 376.099 55.4111C377.722 56.0794 379.122 57.0024 380.3 58.18C381.509 59.3258 382.448 60.6944 383.117 62.2858C383.817 63.8453 384.167 65.5321 384.167 67.3463C384.167 69.1604 383.817 70.8632 383.117 72.4546C382.448 74.0141 381.509 75.3668 380.3 76.5125C379.122 77.6583 377.722 78.5654 376.099 79.2338C374.476 79.9021 372.741 80.2363 370.895 80.2363C369.049 80.2363 367.314 79.9021 365.691 79.2338C364.068 78.5654 362.652 77.6583 361.442 76.5125C360.265 75.3668 359.326 74.0141 358.626 72.4546C357.957 70.8632 357.623 69.1604 357.623 67.3463ZM370.895 74.5552C372.805 74.5552 374.428 73.855 375.765 72.4546C377.101 71.0542 377.77 69.3514 377.77 67.3463C377.77 65.3093 377.101 63.5907 375.765 62.1903C374.428 60.7899 372.805 60.0897 370.895 60.0897C368.985 60.0897 367.362 60.7899 366.025 62.1903C364.689 63.5907 364.02 65.3093 364.02 67.3463C364.02 69.3514 364.689 71.0542 366.025 72.4546C367.362 73.855 368.985 74.5552 370.895 74.5552ZM399.832 79.9021C398.081 79.9021 396.426 79.5679 394.867 78.8996C393.339 78.2312 392.002 77.3241 390.856 76.1783C389.742 75.0326 388.851 73.6958 388.183 72.1681C387.546 70.6086 387.228 68.9377 387.228 67.1553C387.228 65.4048 387.562 63.7657 388.231 62.238C388.899 60.6785 389.806 59.3258 390.952 58.18C392.098 57.0343 393.45 56.1431 395.01 55.5066C396.569 54.8382 398.24 54.504 400.023 54.504C401.264 54.504 402.441 54.679 403.555 55.0291C404.701 55.3792 405.767 55.8726 406.754 56.5091V54.8859H413.199V79.7589C413.199 83.0371 412.133 85.5674 410 87.3497C407.9 89.132 404.86 90.0232 400.882 90.0232C398.972 90.0232 397.126 89.8322 395.344 89.4503C393.593 89.0684 391.986 88.5114 390.522 87.7794L392.814 82.6711C394.182 83.3395 395.519 83.8328 396.824 84.1511C398.129 84.5012 399.434 84.6762 400.739 84.6762C402.68 84.6762 404.144 84.2466 405.131 83.3872C406.149 82.5597 406.659 81.3344 406.659 79.7112V77.6583C405.672 78.3903 404.59 78.9473 403.412 79.3292C402.266 79.7112 401.073 79.9021 399.832 79.9021ZM393.673 67.1553C393.673 69.1604 394.357 70.8632 395.726 72.2636C397.126 73.664 398.829 74.3642 400.834 74.3642C402.012 74.3642 403.094 74.1732 404.081 73.7913C405.067 73.3776 405.927 72.8206 406.659 72.1204V62.3335C405.958 61.6333 405.099 61.0922 404.081 60.7103C403.062 60.2966 401.996 60.0897 400.882 60.0897C398.877 60.0897 397.174 60.774 395.774 62.1425C394.373 63.5111 393.673 65.182 393.673 67.1553ZM421.598 51.926C420.58 51.926 419.704 51.56 418.972 50.828C418.24 50.0959 417.874 49.2207 417.874 48.2022C417.874 47.1837 418.24 46.3085 418.972 45.5765C419.704 44.8444 420.58 44.4784 421.598 44.4784C422.617 44.4784 423.492 44.8444 424.224 45.5765C424.956 46.3085 425.322 47.1837 425.322 48.2022C425.322 49.2207 424.956 50.0959 424.224 50.828C423.492 51.56 422.617 51.926 421.598 51.926ZM424.892 54.8859V79.7589H418.352V54.8859H424.892ZM442.181 74.5074C443.295 74.5074 444.329 74.2846 445.284 73.839C446.271 73.3935 447.21 72.6933 448.101 71.7384L452.016 75.7964C450.743 77.1968 449.215 78.2949 447.433 79.0905C445.65 79.8544 443.804 80.2363 441.895 80.2363C440.08 80.2363 438.362 79.9021 436.739 79.2338C435.147 78.5654 433.763 77.6583 432.585 76.5125C431.439 75.3668 430.532 74.0141 429.864 72.4546C429.196 70.8632 428.861 69.1604 428.861 67.3463C428.861 65.5321 429.196 63.8453 429.864 62.2858C430.532 60.6944 431.439 59.3258 432.585 58.18C433.763 57.0024 435.147 56.0794 436.739 55.4111C438.362 54.7427 440.08 54.4085 441.895 54.4085C443.868 54.4085 445.762 54.8064 447.576 55.602C449.39 56.3659 450.934 57.448 452.207 58.8484L448.196 63.0974C447.305 62.1107 446.35 61.3628 445.332 60.8535C444.314 60.3443 443.215 60.0897 442.038 60.0897C440.16 60.0897 438.569 60.7899 437.264 62.1903C435.991 63.5907 435.354 65.3093 435.354 67.3463C435.354 69.3832 436.007 71.086 437.312 72.4546C438.648 73.8231 440.271 74.5074 442.181 74.5074ZM463.293 80.1886C460.62 80.1886 458.44 79.4884 456.753 78.088C455.066 76.6558 454.223 74.8098 454.223 72.55C454.223 70.1948 455.13 68.3488 456.944 67.0121C458.758 65.6754 461.256 65.007 464.439 65.007C465.458 65.007 466.476 65.0866 467.495 65.2457C468.513 65.4048 469.516 65.6435 470.502 65.9618V64.1954C470.502 62.7632 470.057 61.681 469.165 60.949C468.274 60.217 466.969 59.851 465.251 59.851C464.2 59.851 463.055 60.026 461.813 60.3761C460.604 60.6944 459.219 61.2036 457.66 61.9038L455.273 57.082C457.214 56.1908 459.092 55.5225 460.906 55.0769C462.752 54.6313 464.566 54.4085 466.349 54.4085C469.691 54.4085 472.285 55.2201 474.131 56.8433C476.008 58.4347 476.947 60.6944 476.947 63.6225V79.7589H470.502V78.0402C469.452 78.7723 468.338 79.3133 467.16 79.6634C466.015 80.0135 464.726 80.1886 463.293 80.1886ZM460.477 72.4068C460.477 73.3616 460.89 74.1255 461.718 74.6984C462.545 75.2394 463.643 75.51 465.012 75.51C466.094 75.51 467.081 75.3827 467.972 75.128C468.895 74.8416 469.738 74.4438 470.502 73.9345V70.2107C469.707 69.8925 468.863 69.6697 467.972 69.5424C467.113 69.3832 466.206 69.3037 465.251 69.3037C463.755 69.3037 462.577 69.5901 461.718 70.163C460.89 70.7041 460.477 71.452 460.477 72.4068Z" fill="white"/>
<path d="M181.135 116.259V98.0589H188.935C190.703 98.0589 192.133 98.5442 193.225 99.5149C194.317 100.468 194.863 101.725 194.863 103.285C194.863 104.481 194.508 105.512 193.797 106.379C193.104 107.246 192.168 107.844 190.989 108.173L195.071 116.259H192.861L188.961 108.433H183.137V116.259H181.135ZM188.805 99.8529H183.137V106.743H188.805C190.019 106.743 190.998 106.431 191.743 105.807C192.489 105.166 192.861 104.325 192.861 103.285C192.861 102.245 192.489 101.413 191.743 100.789C190.998 100.165 190.019 99.8529 188.805 99.8529ZM207.714 114.881C206.986 115.418 206.223 115.826 205.426 116.103C204.646 116.363 203.788 116.493 202.852 116.493C201.916 116.493 201.032 116.32 200.2 115.973C199.385 115.626 198.675 115.15 198.068 114.543C197.479 113.936 197.011 113.226 196.664 112.411C196.317 111.579 196.144 110.686 196.144 109.733C196.144 108.797 196.309 107.922 196.638 107.107C196.985 106.292 197.444 105.582 198.016 104.975C198.588 104.368 199.264 103.892 200.044 103.545C200.841 103.198 201.682 103.025 202.566 103.025C203.433 103.025 204.239 103.198 204.984 103.545C205.747 103.892 206.397 104.368 206.934 104.975C207.489 105.582 207.922 106.292 208.234 107.107C208.563 107.922 208.728 108.797 208.728 109.733V110.331H198.042C198.181 111.614 198.709 112.68 199.628 113.529C200.547 114.378 201.647 114.803 202.93 114.803C203.606 114.803 204.265 114.699 204.906 114.491C205.547 114.283 206.085 113.988 206.518 113.607L207.714 114.881ZM202.514 104.715C201.387 104.715 200.408 105.096 199.576 105.859C198.761 106.622 198.267 107.601 198.094 108.797H206.804C206.631 107.653 206.137 106.691 205.322 105.911C204.525 105.114 203.589 104.715 202.514 104.715ZM211.418 116.259V103.233H213.342V104.767C213.844 104.178 214.442 103.736 215.136 103.441C215.829 103.129 216.6 102.973 217.45 102.973C218.923 102.973 220.128 103.441 221.064 104.377C222 105.313 222.468 106.526 222.468 108.017V116.259H220.57V108.407C220.57 107.263 220.24 106.353 219.582 105.677C218.923 105.001 218.039 104.663 216.93 104.663C216.15 104.663 215.448 104.836 214.824 105.183C214.217 105.53 213.723 106.024 213.342 106.665V116.259H211.418ZM229.795 116.493C228.374 116.493 227.213 116.129 226.311 115.401C225.427 114.673 224.985 113.728 224.985 112.567C224.985 111.354 225.453 110.392 226.389 109.681C227.325 108.953 228.591 108.589 230.185 108.589C230.879 108.589 231.546 108.667 232.187 108.823C232.846 108.979 233.453 109.196 234.007 109.473V107.757C234.007 106.717 233.713 105.937 233.123 105.417C232.534 104.88 231.676 104.611 230.549 104.611C229.908 104.611 229.258 104.706 228.599 104.897C227.958 105.07 227.247 105.356 226.467 105.755L225.739 104.273C226.675 103.822 227.542 103.493 228.339 103.285C229.137 103.077 229.934 102.973 230.731 102.973C232.378 102.973 233.643 103.363 234.527 104.143C235.429 104.923 235.879 106.041 235.879 107.497V116.259H234.007V114.985C233.418 115.488 232.768 115.869 232.057 116.129C231.364 116.372 230.61 116.493 229.795 116.493ZM226.831 112.515C226.831 113.243 227.135 113.841 227.741 114.309C228.365 114.76 229.163 114.985 230.133 114.985C230.913 114.985 231.624 114.864 232.265 114.621C232.907 114.378 233.487 113.997 234.007 113.477V111.033C233.47 110.669 232.889 110.409 232.265 110.253C231.659 110.08 230.983 109.993 230.237 109.993C229.197 109.993 228.365 110.227 227.741 110.695C227.135 111.146 226.831 111.752 226.831 112.515ZM240.198 113.347V104.871H237.39V103.233H240.198V99.9309L242.096 99.4369V103.233H246.022V104.871H242.096V112.853C242.096 113.546 242.252 114.049 242.564 114.361C242.876 114.656 243.387 114.803 244.098 114.803C244.462 114.803 244.782 114.777 245.06 114.725C245.354 114.673 245.666 114.586 245.996 114.465V116.155C245.666 116.276 245.294 116.363 244.878 116.415C244.479 116.467 244.089 116.493 243.708 116.493C242.581 116.493 241.714 116.224 241.108 115.687C240.501 115.15 240.198 114.37 240.198 113.347ZM252.19 116.493C250.768 116.493 249.607 116.129 248.706 115.401C247.822 114.673 247.38 113.728 247.38 112.567C247.38 111.354 247.848 110.392 248.784 109.681C249.72 108.953 250.985 108.589 252.58 108.589C253.273 108.589 253.94 108.667 254.582 108.823C255.24 108.979 255.847 109.196 256.402 109.473V107.757C256.402 106.717 256.107 105.937 255.518 105.417C254.928 104.88 254.07 104.611 252.944 104.611C252.302 104.611 251.652 104.706 250.994 104.897C250.352 105.07 249.642 105.356 248.862 105.755L248.134 104.273C249.07 103.822 249.936 103.493 250.734 103.285C251.531 103.077 252.328 102.973 253.126 102.973C254.772 102.973 256.038 103.363 256.922 104.143C257.823 104.923 258.274 106.041 258.274 107.497V116.259H256.402V114.985C255.812 115.488 255.162 115.869 254.452 116.129C253.758 116.372 253.004 116.493 252.19 116.493ZM249.226 112.515C249.226 113.243 249.529 113.841 250.136 114.309C250.76 114.76 251.557 114.985 252.528 114.985C253.308 114.985 254.018 114.864 254.66 114.621C255.301 114.378 255.882 113.997 256.402 113.477V111.033C255.864 110.669 255.284 110.409 254.66 110.253C254.053 110.08 253.377 109.993 252.632 109.993C251.592 109.993 250.76 110.227 250.136 110.695C249.529 111.146 249.226 111.752 249.226 112.515ZM266.06 116.259V114.829L277.63 99.8269H266.164V98.0589H280.256V99.4889L268.634 114.491H280.464V116.259H266.06ZM284.357 103.233V111.085C284.357 112.229 284.687 113.139 285.345 113.815C286.004 114.491 286.888 114.829 287.997 114.829C288.777 114.829 289.471 114.656 290.077 114.309C290.701 113.945 291.204 113.442 291.585 112.801V103.233H293.509V116.259H291.585V114.751C291.083 115.34 290.485 115.782 289.791 116.077C289.115 116.372 288.353 116.519 287.503 116.519C286.013 116.519 284.799 116.051 283.863 115.115C282.927 114.179 282.459 112.966 282.459 111.475V103.233H284.357ZM309.443 109.733C309.443 110.669 309.27 111.553 308.923 112.385C308.594 113.217 308.134 113.936 307.545 114.543C306.956 115.132 306.254 115.6 305.439 115.947C304.642 116.294 303.784 116.467 302.865 116.467C302.102 116.467 301.357 116.337 300.629 116.077C299.918 115.817 299.268 115.444 298.679 114.959V116.259H296.781V98.0589L298.705 97.6169V104.611C299.242 104.091 299.866 103.701 300.577 103.441C301.305 103.164 302.076 103.025 302.891 103.025C303.81 103.025 304.668 103.198 305.465 103.545C306.262 103.892 306.956 104.368 307.545 104.975C308.134 105.564 308.594 106.275 308.923 107.107C309.27 107.922 309.443 108.797 309.443 109.733ZM302.709 104.715C301.894 104.715 301.132 104.88 300.421 105.209C299.728 105.521 299.156 105.963 298.705 106.535V112.983C299.156 113.538 299.736 113.98 300.447 114.309C301.158 114.621 301.912 114.777 302.709 114.777C304.078 114.777 305.222 114.3 306.141 113.347C307.077 112.376 307.545 111.18 307.545 109.759C307.545 109.048 307.415 108.39 307.155 107.783C306.912 107.159 306.574 106.622 306.141 106.171C305.708 105.72 305.196 105.365 304.607 105.105C304.018 104.845 303.385 104.715 302.709 104.715ZM316.352 116.493C314.931 116.493 313.769 116.129 312.868 115.401C311.984 114.673 311.542 113.728 311.542 112.567C311.542 111.354 312.01 110.392 312.946 109.681C313.882 108.953 315.147 108.589 316.742 108.589C317.435 108.589 318.103 108.667 318.744 108.823C319.403 108.979 320.009 109.196 320.564 109.473V107.757C320.564 106.717 320.269 105.937 319.68 105.417C319.091 104.88 318.233 104.611 317.106 104.611C316.465 104.611 315.815 104.706 315.156 104.897C314.515 105.07 313.804 105.356 313.024 105.755L312.296 104.273C313.232 103.822 314.099 103.493 314.896 103.285C315.693 103.077 316.491 102.973 317.288 102.973C318.935 102.973 320.2 103.363 321.084 104.143C321.985 104.923 322.436 106.041 322.436 107.497V116.259H320.564V114.985C319.975 115.488 319.325 115.869 318.614 116.129C317.921 116.372 317.167 116.493 316.352 116.493ZM313.388 112.515C313.388 113.243 313.691 113.841 314.298 114.309C314.922 114.76 315.719 114.985 316.69 114.985C317.47 114.985 318.181 114.864 318.822 114.621C319.463 114.378 320.044 113.997 320.564 113.477V111.033C320.027 110.669 319.446 110.409 318.822 110.253C318.215 110.08 317.539 109.993 316.794 109.993C315.754 109.993 314.922 110.227 314.298 110.695C313.691 111.146 313.388 111.752 313.388 112.515Z" fill="white"/>
</svg>
