<svg id="a6283b9c-90a3-4df1-8fec-8deee9a3df9b" data-name="Layer 1" xmlns="http://www.w3.org/2000/svg" xmlns:xlink="http://www.w3.org/1999/xlink" viewBox="0 0 382.31 143.29"><defs><style>.ebc80b7e-f873-43d8-b383-1ca59fbc0ee1{fill:#c4c4c4;}.b4967165-3d2e-4d57-b81e-6fe9d9a86398{fill:#28ae66;}.f4f04838-d96c-4be7-b92b-a173e64ab4e2{mask:url(#fbfc9bb7-4cf4-426d-a6d7-3ed3ace69efd);}.b648e7c0-516f-4a84-bce3-4281ee693ae2{fill:#fff;}</style><mask id="fbfc9bb7-4cf4-426d-a6d7-3ed3ace69efd" x="-3.01" y="29.99" width="98" height="113.3" maskUnits="userSpaceOnUse"><g transform="translate(-3.01 0)"><g id="f91de970-c496-4ba9-a80a-8574f2e517ff" data-name="mask0"><rect class="ebc80b7e-f873-43d8-b383-1ca59fbc0ee1" y="29.99" width="98" height="48"/></g></g></mask></defs><path class="b4967165-3d2e-4d57-b81e-6fe9d9a86398" d="M50.4,51.19c-3.9,3.5-10.4,2.6-10.4,2.6s-.3-6.6,3.5-10.2S53.9,41,53.9,41,54.2,47.59,50.4,51.19Z" transform="translate(-3.01 0)"/><path class="b4967165-3d2e-4d57-b81e-6fe9d9a86398" d="M19.2,80c-4.4,2.8-10.7.8-10.7.8s.8-6.6,5.3-9.4,10.7-.8,10.7-.8S23.6,77.19,19.2,80Z" transform="translate(-3.01 0)"/><path class="b4967165-3d2e-4d57-b81e-6fe9d9a86398" d="M13.1,41.39c2.8,4.4.8,10.7.8,10.7s-6.6-.8-9.4-5.2-.8-10.8-.8-10.8S10.3,37,13.1,41.39Z" transform="translate(-3.01 0)"/><path class="b4967165-3d2e-4d57-b81e-6fe9d9a86398" d="M31.1,45.49c2.8,4.4.8,10.7.8,10.7s-6.6-.8-9.4-5.2-.8-10.7-.8-10.7S28.2,41.09,31.1,45.49Z" transform="translate(-3.01 0)"/><path class="b4967165-3d2e-4d57-b81e-6fe9d9a86398" d="M21.3,56.29c-4.4-2.8-10.7-.8-10.7-.8s.8,6.6,5.3,9.4,10.7.8,10.7.8S25.7,59,21.3,56.29Z" transform="translate(-3.01 0)"/><path class="b4967165-3d2e-4d57-b81e-6fe9d9a86398" d="M19.2,25.89c-4.4-2.8-10.7-.8-10.7-.8s.8,6.6,5.3,9.4,10.7.8,10.7.8S23.7,28.69,19.2,25.89Z" transform="translate(-3.01 0)"/><path class="b4967165-3d2e-4d57-b81e-6fe9d9a86398" d="M40.5,33.69c-1.1-5.1-7-8.1-7-8.1s-4.1,5.2-2.9,10.3,7,8.1,7,8.1S41.7,38.79,40.5,33.69Z" transform="translate(-3.01 0)"/><path class="b4967165-3d2e-4d57-b81e-6fe9d9a86398" d="M31.5,14.39c-1.1-5.1-7-8.1-7-8.1s-4.1,5.2-2.9,10.3,7,8.1,7,8.1S32.7,19.49,31.5,14.39Z" transform="translate(-3.01 0)"/><path class="b4967165-3d2e-4d57-b81e-6fe9d9a86398" d="M28.7,73.79c-2.8,4.4-.8,10.7-.8,10.7s6.6-.8,9.4-5.2.8-10.7.8-10.7S31.5,69.39,28.7,73.79Z" transform="translate(-3.01 0)"/><path class="b4967165-3d2e-4d57-b81e-6fe9d9a86398" d="M63.1,78.79a1.94,1.94,0,0,0-1.3,2.3,1.85,1.85,0,0,0,2.3,1.3l-.5-1.8Z" transform="translate(-3.01 0)"/><path class="b4967165-3d2e-4d57-b81e-6fe9d9a86398" d="M91.8,49.49a2.34,2.34,0,0,0-.2-1.1,11.1,11.1,0,0,0-1.4-2.5,36.2,36.2,0,0,0-2.9-2.8,32.91,32.91,0,0,1-4.3-5.4l-.9-1.5-.4-.8-.1-.1-.1-.1v-1a12.31,12.31,0,0,0,.2-2,18.75,18.75,0,0,0-.1-4.1c-.1-.7-.2-1.4-.3-2V26c-.1-.5-.2-1.2-.4-1.9a22.3,22.3,0,0,0-1.3-3.9v-.1c-.1-.2-.2-.3-.3-.5a27.73,27.73,0,0,0-2.6-4.8,30.93,30.93,0,0,0-16-13,32.28,32.28,0,0,0-20.6-.2l-1,.4a1.15,1.15,0,0,0-.7,1.3l.7,2.1a1.15,1.15,0,0,0,1.3.7l1-.4a28.51,28.51,0,0,1,17.8.1,28.16,28.16,0,0,1,10.4,6.5c.3.3,1.9,2.2,2.7,3.2a29,29,0,0,1,1.9,2.9,4.67,4.67,0,0,1,.5,1,30.24,30.24,0,0,1,1.9,5l.1.3c.1.5.2,1.1.3,1.7s.1,1.1.2,1.7a19.29,19.29,0,0,1,0,3.4,9.85,9.85,0,0,1-.2,1.7v.1A5.93,5.93,0,0,0,77,36v.4a1.69,1.69,0,0,0,.2.5l.1.3a.1.1,0,0,0,.1.1l.1.2a.1.1,0,0,0,.1.1l.5.8a15.05,15.05,0,0,0,1,1.7,41.85,41.85,0,0,0,4.9,6.4A29.25,29.25,0,0,1,86.5,49c.1.2.3.3.3.5a9.23,9.23,0,0,1-.9.8,12,12,0,0,0-1.7,1.6l.8.7-.8-.7-.1.1a10.55,10.55,0,0,0-.8,1.3,3.86,3.86,0,0,0-.3,2.1v.1a8.35,8.35,0,0,0,.9,2.5v.1a10.93,10.93,0,0,1,.8,1.5.37.37,0,0,1,.1.3,2.42,2.42,0,0,0-2.5,1.5,2.48,2.48,0,0,0,1.2,3.1.31.31,0,0,1,.2.1l.1.1.1.1c.1.1.2.2.2.3v.1a1.38,1.38,0,0,0-.3.4c-.1.2-.3.4-.4.6a7.5,7.5,0,0,0-.8,1.8,4.71,4.71,0,0,0,.1,2.4v.1c.1.2.2.5.3.7a1.42,1.42,0,0,1,.2.6c.3.7.5,1.4.7,2a5,5,0,0,1,.1,1.7,1.33,1.33,0,0,1-.4,1l-.1.1-.3.2c-.1,0-.2.1-.3.1h-.3l-.6.2h-.9a1.49,1.49,0,0,0-.6.1H78.2c-1.5,0-3.3-.1-5-.1a45.2,45.2,0,0,0-5.2.2,25.12,25.12,0,0,0-2.7.4h-.1c-.2.1-.4.1-.6.2s-.4.1-.6.2h-.1v0l-1.2.4.6,1.8.5,1.8,1.1-.3c.4-.1.8-.1,1.1-.2l2.3-.3a36.84,36.84,0,0,1,4.7,0l5,.3h2.7a9.23,9.23,0,0,0,1.5-.1h.2a1.09,1.09,0,0,0,.5-.1l.6-.2.3-.1c.1,0,.2-.1.3-.1l.3-.1a5.9,5.9,0,0,0,.8-.4h.1l.6-.4A.1.1,0,0,0,86,80v-.3l.4.6a4,4,0,0,0,.7-.7A5.89,5.89,0,0,0,88.7,76a11.26,11.26,0,0,0-.2-3.2,22.88,22.88,0,0,0-.8-2.8c0-.1-.1-.1-.1-.2s-.1-.2-.1-.3-.1-.1-.1-.2v-.2c0-.1.1-.2.2-.4s.4-.5.7-1a.1.1,0,0,1,.1-.1,4.61,4.61,0,0,0,.8-2.2l-.9-.1.9.1v-.1a7,7,0,0,0-.4-2.1,2.65,2.65,0,0,0,.5-.6,3.6,3.6,0,0,0,.7-2.2,6.33,6.33,0,0,0-.7-2.8c-.3-.7-.7-1.4-.9-1.8l-.9.5.9-.5-.3-.6V55l.4-.4c.2-.2.5-.4.6-.5a8.88,8.88,0,0,0,1.8-1.7v-.1a7.23,7.23,0,0,0,.4-.7l.1-.3a.37.37,0,0,0,.1-.3l-1-.3,1,.3.1-.3a2.25,2.25,0,0,0,.1-.7v-.2C91.8,49.59,91.8,49.59,91.8,49.49ZM80.7,35.19l.7-.5Zm3.7,29.6v0Zm0,.3v0Zm2.6,4.1-.5-.2Z" transform="translate(-3.01 0)"/><g class="f4f04838-d96c-4be7-b92b-a173e64ab4e2"><path class="b4967165-3d2e-4d57-b81e-6fe9d9a86398" d="M53.1,94.69c-.2-.8-.4-33.8-.4-33.8,0-1.5-.5-2.7-2-2.7H48.6v10.4l-8.3-8.3-3.4,3.4L49,76.49a16.76,16.76,0,0,1-1.7,10.7l-1.7,7.4c-.1,1.3-.2,2.7-1.5,3.6-2.6,1.8-5.1,4-7.7,5.9-1.3.9-2.2,2.3-4,2.5a19.22,19.22,0,0,0-7.3,2.5,8.85,8.85,0,0,1-5.3,1.2,9.34,9.34,0,0,0-2.3-.2c-3.7.6-7.3,1.3-11,1.9-.2,0-.4.3-.7.4l.2.2c3.7-.5,7.4-1.1,11.1-1.6,0,.1.1.2.1.3-2.3,1-4.6,2.1-6.9,3.1,3-.8,5.8-2.1,8.9-2.5-1.1,1.4-2.2,2.7-3.2,4s-2,2.7-3.1,4a4.23,4.23,0,0,1-.7.5,2.65,2.65,0,0,0-.5.6,1.38,1.38,0,0,0,.4.3,47.48,47.48,0,0,0,3.8-4c1.4-1.9,2.8-3.9,5.1-4.8,3.5-1.4,7.1-2.7,10.8-4-.6,1.4-1.4,2.4-1.6,3.6-.5,2.3-1.9,3.3-4.1,3.9a6,6,0,0,0-4.1,4.1c3.6-3.5,4.6-4.1,7-4.3-1,4.2-1.4,8.5-3.4,12.4.1,0,.2.1.3.1.6-1.2,1.1-2.4,1.8-3.7.3,1.1.6,2.1.9,3.1a22.51,22.51,0,0,1,.1-5.2,68.78,68.78,0,0,1,2.4-8.9,13,13,0,0,1,4.6-6c2.7-2,5.4-4,8-6.1a15.92,15.92,0,0,1-1,3.3c-.5,1.2-.9,2.5-1.5,3.7a17,17,0,0,1-6.1,5.8c-2.2,1.5-2.7,3.6-1.1,5.6a12.75,12.75,0,0,1,1.5,2.5c1.5,3,2.3,6.2,1.3,9.6h.3l.6-2.1a4.25,4.25,0,0,1-.2-1.1,16.89,16.89,0,0,0-2.6-9.2c-1.3-2.1-1-3.1,1.1-4.4a21.22,21.22,0,0,0,4.3-2.8,43.7,43.7,0,0,0,3.7-4.8c.5-.7.9-1.5,1.4-2.2A1.71,1.71,0,0,1,48,105c-1.4,2.1-2.9,4.1-4.2,6.2a16.72,16.72,0,0,0-2.5,7.9,18,18,0,0,1-2,7.1c-.1.2-.1.4-.2.5.6-1,1.3-2.1,2-3.2.3,2.5.6,4.8.9,7.1-.7-6.6-.8-13.1,3.3-18.9-.5,2.9-.9,5.9-1.4,8.8.7-2.1,1.1-4.3,1.7-6.4.4-1.5.6-3.3,2.2-4.2.8-.5,1.6-1.1,2.4-1.6.5,2.9.8,5.9,1.5,8.9.4,1.6-.3,2.4-1.3,3.4a17,17,0,0,0-1.9,1.9L47,124c.1,0,.1.1.2.1,1.6-1.4,3.2-2.8,5-4.4.2,2.9.3,5.6.4,8.3a1.61,1.61,0,0,1-.6,1.3c-1.1.9-2.3,1.6-3.5,2.4a.1.1,0,0,0,.1.1c1.2-.6,2.5-1.3,3.9-2a30.21,30.21,0,0,1-1.4,4.8,21.72,21.72,0,0,1-3.2,3.6H48c.9-.7,1.9-1.4,2.8-2.1-.3,2.5-.6,4.8-.9,7.2L52,134a.37.37,0,0,1,.3.1c.1.4.3.8.4,1.2,0-1.3.1-2.6.2-3.9s.4-2.5.4-3.7V96.49" transform="translate(-3.01 0)"/></g><path class="b4967165-3d2e-4d57-b81e-6fe9d9a86398" d="M50.42,65.16a24.14,24.14,0,0,1-.31,4.64c-.24,2.25,1.85-11.67,1.62-9.43-.15,1.39-.46,2.94-.62,4.57L49,71c-.23,2.55.08,5.16-.07,7.71s-.39,5-.54,7.58c-.24,2.94-.31,6-.62,8.9A3.29,3.29,0,0,1,46.63,98c-2,1.4-4,3.1-6,4.57-1,.69-1.7,1.78-3.09,1.93a14.91,14.91,0,0,0-5.65,1.94,6.85,6.85,0,0,1-4.1.92,7.47,7.47,0,0,0-1.78-.15c-2.86.46-5.65,1-8.51,1.47-.15,0-.31.23-.54.31l.15.15c2.87-.38,5.73-.85,8.59-1.23,0,.07.08.15.08.23-1.78.77-3.56,1.62-5.34,2.4,2.32-.62,4.49-1.63,6.89-1.94-.86,1.08-1.71,2.09-2.48,3.1s-1.55,2.09-2.4,3.09a3.8,3.8,0,0,1-.54.39,2.27,2.27,0,0,0-.39.46,1,1,0,0,0,.31.23,35.48,35.48,0,0,0,2.94-3.09c1.09-1.47,2.17-3,4-3.71,2.7-1.09,5.49-2.09,8.35-3.1a14.55,14.55,0,0,0-1.24,2.79c-.38,1.78-1.47,2.55-3.17,3a4.66,4.66,0,0,0-3.17,3.17c2.79-2.7,3.56-3.17,5.42-3.32-.78,3.25-1.09,6.57-2.63,9.59.07,0,.15.08.23.08.46-.93.85-1.86,1.39-2.86.23.85.46,1.62.7,2.39a17.37,17.37,0,0,1,.07-4,54.59,54.59,0,0,1,1.86-6.88,10,10,0,0,1,3.56-4.64c2.09-1.55,4.18-3.1,6.19-4.72a12.48,12.48,0,0,1-.78,2.55c-.38.93-.69,1.93-1.16,2.86a13,13,0,0,1-4.72,4.49c-1.7,1.16-2.08,2.78-.85,4.33A9.79,9.79,0,0,1,40,116.68a10,10,0,0,1,1,7.43h.23c.16-.54.31-1.08.47-1.62a3.26,3.26,0,0,1-.16-.85,13.07,13.07,0,0,0-2-7.12c-1-1.63-.77-2.4.85-3.41A16.14,16.14,0,0,0,43.69,109a34.81,34.81,0,0,0,2.86-3.71c.39-.55.69-1.16,1.08-1.71a1.33,1.33,0,0,1,2-.31c-1.08,1.63-2.24,3.18-3.25,4.8a12.9,12.9,0,0,0-1.93,6.11,14,14,0,0,1-1.55,5.49c-.07.16-.07.31-.15.39.46-.77,1-1.62,1.55-2.47.23,1.93.46,3.71.69,5.49-.54-5.11-.62-10.14,2.55-14.62-.38,2.24-.69,4.56-1.08,6.8.54-1.62.85-3.32,1.32-4.95.31-1.16.46-2.55,1.7-3.25.62-.38,1.24-.85,1.85-1.23.39,2.24.62,4.56,1.16,6.88.31,1.24-.23,1.86-1,2.63A13.6,13.6,0,0,0,50,116.76c-.39.39-.77.78-1.16,1.16.08,0,.08.08.15.08l3.87-3.4c.16,2.24.23,4.33.31,6.42a1.24,1.24,0,0,1-.46,1A32.4,32.4,0,0,1,50,123.88a.08.08,0,0,0,.08.08c.92-.47,1.93-1,3-1.55A22.85,22.85,0,0,1,52,126.12a17.09,17.09,0,0,1-2.47,2.79h.07c.7-.55,1.47-1.09,2.17-1.63-.23,1.93-.47,3.71-.7,5.57.54-2.4,1.09-4.8,1.63-7.19a.31.31,0,0,1,.23.07c.08.31.23.62.31.93,0-1,.08-2,.15-3s.31-1.94.31-2.87c0-16.86-.74-34.12-.74-51,0-7.5-1.81-.31-1.89-7.81a1.09,1.09,0,0,0-.15-.7Z" transform="translate(-3.01 0)"/><path class="b648e7c0-516f-4a84-bce3-4281ee693ae2" d="M320.9,54.79a1.8,1.8,0,0,0,.9,1.6,4.14,4.14,0,0,0,2.3.6,6.65,6.65,0,0,0,2.1-.3,9.82,9.82,0,0,0,1.8-.8v-2.6a12.09,12.09,0,0,0-1.8-.5,11.08,11.08,0,0,0-1.9-.2,4.4,4.4,0,0,0-2.5.6A1.62,1.62,0,0,0,320.9,54.79Zm1.9,5.5a6.88,6.88,0,0,1-4.6-1.5,4.84,4.84,0,0,1-1.8-3.9,4.41,4.41,0,0,1,1.9-3.9,9,9,0,0,1,5.3-1.4,18,18,0,0,1,2.2.2,16,16,0,0,1,2.1.5v-1.2a2.87,2.87,0,0,0-.9-2.3,4.25,4.25,0,0,0-2.8-.8,7.51,7.51,0,0,0-2.4.4,15.26,15.26,0,0,0-2.9,1.1l-1.7-3.4a24,24,0,0,1,4-1.4,17.26,17.26,0,0,1,3.8-.5,8.22,8.22,0,0,1,5.5,1.7,6,6,0,0,1,2,4.8v11.4H328v-1.2a6.59,6.59,0,0,1-2.4,1.1A11.43,11.43,0,0,1,322.8,60.29Zm-14.8-4a5.45,5.45,0,0,0,2.2-.5,5.54,5.54,0,0,0,2-1.5l2.8,2.9a9,9,0,0,1-3.2,2.3,10.87,10.87,0,0,1-3.9.8,8.57,8.57,0,0,1-3.6-.7,8.5,8.5,0,0,1-4.8-4.8,9.61,9.61,0,0,1,0-7.2,9.72,9.72,0,0,1,1.9-2.9,10,10,0,0,1,2.9-2,8.89,8.89,0,0,1,3.6-.7,11,11,0,0,1,4,.8,8.56,8.56,0,0,1,3.3,2.3l-2.8,3a7.42,7.42,0,0,0-2-1.6,4.56,4.56,0,0,0-2.3-.5,4.63,4.63,0,0,0-3.4,1.5,5.15,5.15,0,0,0-1.3,3.6,5.24,5.24,0,0,0,1.4,3.6A3.53,3.53,0,0,0,308,56.29Zm-12.2-13.8V60h-4.6V42.49Zm-2.3-2.1a2.93,2.93,0,0,1-1.9-.8,2.24,2.24,0,0,1-.8-1.9,2.73,2.73,0,0,1,.8-1.9,2.56,2.56,0,0,1,1.9-.8,2.93,2.93,0,0,1,1.9.8,2.56,2.56,0,0,1,.8,1.9,2.73,2.73,0,0,1-.8,1.9A2.93,2.93,0,0,1,293.5,40.39Zm-19.7,10.7a5.24,5.24,0,0,0,1.4,3.6,4.91,4.91,0,0,0,3.6,1.5,5.87,5.87,0,0,0,2.3-.4,5.67,5.67,0,0,0,1.8-1.2v-6.9a4.18,4.18,0,0,0-1.8-1.1,5.87,5.87,0,0,0-2.3-.4,5.24,5.24,0,0,0-3.6,1.4A4.83,4.83,0,0,0,273.8,51.09Zm4.3,9a8.42,8.42,0,0,1-3.5-.7,9,9,0,0,1-4.7-4.7,10.39,10.39,0,0,1-.7-3.5,8.42,8.42,0,0,1,.7-3.5,8.5,8.5,0,0,1,4.8-4.8,8.42,8.42,0,0,1,3.5-.7,6.9,6.9,0,0,1,2.5.4,9.43,9.43,0,0,1,2.3,1v-1.1h4.5V60a6.46,6.46,0,0,1-2.3,5.3c-1.5,1.3-3.6,1.9-6.4,1.9a17.22,17.22,0,0,1-3.9-.4,17,17,0,0,1-3.4-1.2l1.6-3.6a11.86,11.86,0,0,0,2.8,1,12.61,12.61,0,0,0,2.8.4,4.59,4.59,0,0,0,3.1-.9,3.17,3.17,0,0,0,1.1-2.6v-1.4a10.08,10.08,0,0,1-2.3,1.2A6.9,6.9,0,0,1,278.1,60.09Zm-20.4-3.8a4.48,4.48,0,0,0,3.4-1.5,5.33,5.33,0,0,0,0-7.2,4.6,4.6,0,0,0-6.8,0,5.33,5.33,0,0,0,0,7.2A4.48,4.48,0,0,0,257.7,56.29Zm-9.3-5.1a8.57,8.57,0,0,1,.7-3.6,10,10,0,0,1,2-2.9,12.09,12.09,0,0,1,3-2,9,9,0,0,1,3.7-.7,9.37,9.37,0,0,1,3.7.7,9.85,9.85,0,0,1,3,2,8.37,8.37,0,0,1,2,2.9,9.61,9.61,0,0,1,0,7.2,8.37,8.37,0,0,1-2,2.9,9.75,9.75,0,0,1-6.7,2.6,9.37,9.37,0,0,1-3.7-.7,11.73,11.73,0,0,1-3-1.9,10,10,0,0,1-2-2.9A8.57,8.57,0,0,1,248.4,51.19Zm-2.8-15.8V60H241V36.39Zm-16.8,20.9a4.48,4.48,0,0,0,3.4-1.5,5.33,5.33,0,0,0,0-7.2,4.6,4.6,0,0,0-6.8,0,5.33,5.33,0,0,0,0,7.2A4.33,4.33,0,0,0,228.8,56.29Zm-9.4-5.1a8.57,8.57,0,0,1,.7-3.6,10,10,0,0,1,2-2.9,12.09,12.09,0,0,1,3-2,9,9,0,0,1,3.7-.7,9.37,9.37,0,0,1,3.7.7,9.85,9.85,0,0,1,3,2,8.37,8.37,0,0,1,2,2.9,9.61,9.61,0,0,1,0,7.2,8.37,8.37,0,0,1-2,2.9,9.75,9.75,0,0,1-6.7,2.6,9.37,9.37,0,0,1-3.7-.7,11.73,11.73,0,0,1-3-1.9,10,10,0,0,1-2-2.9A10.48,10.48,0,0,1,219.4,51.19ZM200.3,60V36.39l4.6-1v8.4a7.1,7.1,0,0,1,2.2-1.3,7.66,7.66,0,0,1,2.7-.4,6.84,6.84,0,0,1,7,7V60h-4.6V49.79a3.62,3.62,0,0,0-1-2.7,3.39,3.39,0,0,0-2.6-1,4.65,4.65,0,0,0-2.1.5,3.74,3.74,0,0,0-1.5,1.3V60Zm-9.3-3.7a5.45,5.45,0,0,0,2.2-.5,5.54,5.54,0,0,0,2-1.5l2.8,2.9a9,9,0,0,1-3.2,2.3,10.87,10.87,0,0,1-3.9.8,8.57,8.57,0,0,1-3.6-.7,8.5,8.5,0,0,1-4.8-4.8,9.61,9.61,0,0,1,0-7.2,9.72,9.72,0,0,1,1.9-2.9,10,10,0,0,1,2.9-2,8.89,8.89,0,0,1,3.6-.7,11,11,0,0,1,4,.8,8.56,8.56,0,0,1,3.3,2.3l-2.8,3a7.42,7.42,0,0,0-2-1.6,4.56,4.56,0,0,0-2.3-.5,4.63,4.63,0,0,0-3.4,1.5,5.15,5.15,0,0,0-1.3,3.6,5.24,5.24,0,0,0,1.4,3.6A3.53,3.53,0,0,0,191,56.29Zm-22.6,4.5.3-.6-6.8-17.7H167l4.3,11.9,5-11.9h5l-8.1,18.9a10.77,10.77,0,0,1-3.1,4.5,7.38,7.38,0,0,1-4.6,1.3,4.87,4.87,0,0,1-1.2-.1c-.4,0-.7-.1-.9-.1V63c.2,0,.5.1.7.1h.9a3.7,3.7,0,0,0,2.1-.6A3.36,3.36,0,0,0,168.4,60.79ZM146,57.89l2.3-3.1a11.5,11.5,0,0,0,2.9,1.5,8.68,8.68,0,0,0,2.8.5,5.83,5.83,0,0,0,2.5-.5,1.48,1.48,0,0,0,.9-1.3,1.61,1.61,0,0,0-.5-1.1,3,3,0,0,0-1.6-.6l-3.4-.5a7.39,7.39,0,0,1-4-1.7,4.52,4.52,0,0,1-1.3-3.4,4.79,4.79,0,0,1,2-4,8.55,8.55,0,0,1,5.3-1.5,11.48,11.48,0,0,1,3.7.6,15.76,15.76,0,0,1,3.5,1.6l-2.2,3a9.45,9.45,0,0,0-2.8-1.2,8.42,8.42,0,0,0-2.7-.4,3.94,3.94,0,0,0-2,.5,1.31,1.31,0,0,0-.7,1.2,1.43,1.43,0,0,0,.5,1.1,5.61,5.61,0,0,0,1.9.5l3.4.5a6.42,6.42,0,0,1,3.9,1.7,4.53,4.53,0,0,1,1.4,3.3,4.65,4.65,0,0,1-.6,2.3,5.48,5.48,0,0,1-1.6,1.8,9,9,0,0,1-2.4,1.2,10.12,10.12,0,0,1-3.1.4,16.31,16.31,0,0,1-4.5-.6A10.15,10.15,0,0,1,146,57.89Zm-9.9-17.3h-6.4V47h6.4a3.33,3.33,0,0,0,2.5-.9,3.15,3.15,0,0,0,0-4.6A3.33,3.33,0,0,0,136.1,40.59ZM124.9,60V36.39h11.8a8.74,8.74,0,0,1,5.7,2.1,6,6,0,0,1,1.6,2.4,7.31,7.31,0,0,1,.6,3,6.84,6.84,0,0,1-.6,2.9,7.33,7.33,0,0,1-1.6,2.3,5.79,5.79,0,0,1-2.5,1.5,10.73,10.73,0,0,1-3.2.5h-6.9V60Z" transform="translate(-3.01 0)"/><path class="b648e7c0-516f-4a84-bce3-4281ee693ae2" d="M126.34,90.19v-13H132a4.36,4.36,0,0,1,3.05,1,3.77,3.77,0,0,1,0,5.46,4.33,4.33,0,0,1-3,1h-4.24v5.5Zm5.55-11.77h-4.12v5h4.12a3.16,3.16,0,0,0,2.11-.67,2.35,2.35,0,0,0,.78-1.85,2.3,2.3,0,0,0-.78-1.83A3.16,3.16,0,0,0,131.89,78.42ZM137.2,88.9,138,88a4.67,4.67,0,0,0,1.41.93,4.46,4.46,0,0,0,1.63.32,3.26,3.26,0,0,0,1.82-.47,1.38,1.38,0,0,0,.71-1.21,1.1,1.1,0,0,0-.43-.93,2.51,2.51,0,0,0-1.3-.49l-1.62-.22a4,4,0,0,1-2.09-.82,2.23,2.23,0,0,1-.67-1.7,2.37,2.37,0,0,1,1-1.94A4,4,0,0,1,141,80.7a5.91,5.91,0,0,1,1.9.3,6.21,6.21,0,0,1,1.78.93l-.73.93a6.51,6.51,0,0,0-1.53-.78,4.25,4.25,0,0,0-1.49-.26,2.65,2.65,0,0,0-1.57.43,1.29,1.29,0,0,0-.6,1.11,1.17,1.17,0,0,0,.41.94,2.86,2.86,0,0,0,1.33.44l1.62.23a3.63,3.63,0,0,1,2.09.84,2.17,2.17,0,0,1,.71,1.69,2.31,2.31,0,0,1-.3,1.14,2.89,2.89,0,0,1-.8.92,4.48,4.48,0,0,1-1.2.59,5.06,5.06,0,0,1-1.49.21A6.28,6.28,0,0,1,139,90,5.48,5.48,0,0,1,137.2,88.9Zm11.27,2.5.54-1.23-3.8-9.32h1.53l3,7.66L153,80.85h1.49l-4.64,10.74a5.36,5.36,0,0,1-1.32,1.94,2.81,2.81,0,0,1-1.85.59,4,4,0,0,1-.5,0,2.77,2.77,0,0,1-.38-.06V92.78l.36.06.43,0a1.68,1.68,0,0,0,1.08-.36A2.75,2.75,0,0,0,148.47,91.4Zm11.32-2.29a3.57,3.57,0,0,0,1.44-.3,4.29,4.29,0,0,0,1.29-.88l.86.94A5.81,5.81,0,0,1,161.7,90a5,5,0,0,1-1.94.39,4.74,4.74,0,0,1-1.87-.38,4.53,4.53,0,0,1-1.51-1,4.81,4.81,0,0,1-1-1.55,4.88,4.88,0,0,1-.38-1.9,5.07,5.07,0,0,1,1.38-3.43,4.79,4.79,0,0,1,3.38-1.42,5.15,5.15,0,0,1,2,.39,5.31,5.31,0,0,1,1.69,1.08l-.87,1a4,4,0,0,0-1.29-.89,3.55,3.55,0,0,0-1.47-.32,3.27,3.27,0,0,0-1.35.28,3.39,3.39,0,0,0-1.1.76,4.14,4.14,0,0,0-.71,1.14,3.83,3.83,0,0,0-.26,1.4,4,4,0,0,0,.26,1.43,3.91,3.91,0,0,0,.73,1.14,3.7,3.7,0,0,0,1.1.75A3.42,3.42,0,0,0,159.79,89.11Zm5.2,1.08v-13l1.38-.32V82a3.34,3.34,0,0,1,1.29-1,3.91,3.91,0,0,1,1.66-.34,3.46,3.46,0,0,1,3.6,3.62v5.91h-1.36V84.56a2.69,2.69,0,0,0-.71-2,2.52,2.52,0,0,0-1.9-.73,3.09,3.09,0,0,0-1.52.38,2.91,2.91,0,0,0-1.06,1.06v6.88Zm9.81-4.68a4.84,4.84,0,0,1,.37-1.9,4.89,4.89,0,0,1,1-1.55,4.75,4.75,0,0,1,3.39-1.4,4.72,4.72,0,0,1,4.38,3,4.85,4.85,0,0,1,.38,1.9,4.94,4.94,0,0,1-.38,1.92A4.69,4.69,0,0,1,181.42,90a4.57,4.57,0,0,1-1.85.38,4.65,4.65,0,0,1-1.86-.38,4.77,4.77,0,0,1-1.53-1,5,5,0,0,1-1-1.55A4.94,4.94,0,0,1,174.8,85.51Zm4.77,3.64a3.3,3.3,0,0,0,1.33-.28A3.37,3.37,0,0,0,182,88.1a3.74,3.74,0,0,0,.73-1.16,4,4,0,0,0,.26-1.43,3.9,3.9,0,0,0-.26-1.42,3.48,3.48,0,0,0-.73-1.15,3.23,3.23,0,0,0-1.08-.77,3.14,3.14,0,0,0-1.33-.28,3.22,3.22,0,0,0-1.34.28,3.44,3.44,0,0,0-1.08.77,3.83,3.83,0,0,0-.73,1.15,3.9,3.9,0,0,0-.26,1.42,4,4,0,0,0,.26,1.43,3.69,3.69,0,0,0,.71,1.16,3.58,3.58,0,0,0,1.1.77A3.39,3.39,0,0,0,179.57,89.15Zm7.16-1.05V82h-2V80.85h2V78.48l1.36-.36v2.73h2.81V82h-2.81v5.73a1.52,1.52,0,0,0,.33,1.08,1.59,1.59,0,0,0,1.1.32,3.47,3.47,0,0,0,.69-.06,3.89,3.89,0,0,0,.68-.19v1.21a3.7,3.7,0,0,1-.81.19,5.93,5.93,0,0,1-.84.06,2.76,2.76,0,0,1-1.86-.58A2.15,2.15,0,0,1,186.73,88.1ZM200,89.2a5.48,5.48,0,0,1-3.49,1.16,4.88,4.88,0,0,1-1.9-.38A4.83,4.83,0,0,1,193,89a4.85,4.85,0,0,1-1.38-3.45A4.93,4.93,0,0,1,193,82.1a4.43,4.43,0,0,1,3.27-1.4,4,4,0,0,1,1.73.37,4.11,4.11,0,0,1,1.4,1,4.55,4.55,0,0,1,.93,1.53,4.88,4.88,0,0,1,.36,1.88v.43H193a3.53,3.53,0,0,0,1.14,2.29,3.37,3.37,0,0,0,2.37.92,4.59,4.59,0,0,0,1.42-.23,3.26,3.26,0,0,0,1.15-.63Zm-3.73-7.29a3,3,0,0,0-2.11.82,3.48,3.48,0,0,0-1.06,2.11h6.25a3.53,3.53,0,0,0-1.07-2.07A2.76,2.76,0,0,0,196.23,81.91Zm6.39,8.28V80.85H204v1.32a2.93,2.93,0,0,1,2.61-1.53,2.13,2.13,0,0,1,.46,0,1.43,1.43,0,0,1,.41.09V82a2.77,2.77,0,0,0-.48-.11,2,2,0,0,0-.49-.06,2.4,2.4,0,0,0-1.51.51,3,3,0,0,0-1,1.41v6.4Zm8.9.17a3.82,3.82,0,0,1-2.5-.79,2.49,2.49,0,0,1-1-2,2.46,2.46,0,0,1,1-2.07,4.36,4.36,0,0,1,2.73-.78,5.66,5.66,0,0,1,1.43.17,5.78,5.78,0,0,1,1.31.46V84.09a2.12,2.12,0,0,0-.64-1.68,2.65,2.65,0,0,0-1.84-.58,4.9,4.9,0,0,0-1.4.21,7.55,7.55,0,0,0-1.53.62l-.52-1.07a10.71,10.71,0,0,1,1.86-.71,6.82,6.82,0,0,1,1.72-.22,4,4,0,0,1,2.72.84,3,3,0,0,1,1,2.4v6.29h-1.34v-.91a4.6,4.6,0,0,1-1.4.82A5,5,0,0,1,211.52,90.36Zm-2.13-2.86a1.56,1.56,0,0,0,.65,1.29,2.89,2.89,0,0,0,1.72.49,4.17,4.17,0,0,0,1.53-.27,3.35,3.35,0,0,0,1.25-.82V86.44a3.9,3.9,0,0,0-1.25-.56,5.48,5.48,0,0,0-1.45-.18,2.91,2.91,0,0,0-1.8.5A1.55,1.55,0,0,0,209.39,87.5Zm8.8,6.51V80.85h1.36v1a3.8,3.8,0,0,1,1.36-.85,4.64,4.64,0,0,1,5,1.1,4.49,4.49,0,0,1,1,1.53,4.89,4.89,0,0,1,.37,1.88,5.06,5.06,0,0,1-.37,1.9,4.65,4.65,0,0,1-4.35,2.93,4.46,4.46,0,0,1-1.58-.28,4.76,4.76,0,0,1-1.4-.8V94Zm4.25-12.1a3.92,3.92,0,0,0-1.64.35,3.24,3.24,0,0,0-1.23.95v4.63a3.43,3.43,0,0,0,1.25,1,4.05,4.05,0,0,0,1.62.34,3.3,3.3,0,0,0,2.46-1,3.57,3.57,0,0,0,1-2.57,3.71,3.71,0,0,0-.28-1.42A3.63,3.63,0,0,0,224.9,83a3.55,3.55,0,0,0-1.1-.76A3.28,3.28,0,0,0,222.44,81.91Zm7.44-2.85a1,1,0,0,1-.94-.94.88.88,0,0,1,.28-.65.9.9,0,0,1,.66-.28,1,1,0,0,1,.93.93.9.9,0,0,1-.28.66A.88.88,0,0,1,229.88,79.06Zm.69,1.79v9.34h-1.38V80.85Zm5.3,9.51a3.8,3.8,0,0,1-2.5-.79,2.49,2.49,0,0,1-1-2,2.46,2.46,0,0,1,1-2.07,4.36,4.36,0,0,1,2.73-.78,5.66,5.66,0,0,1,1.43.17,6,6,0,0,1,1.31.46V84.09a2.12,2.12,0,0,0-.64-1.68,2.67,2.67,0,0,0-1.84-.58A4.9,4.9,0,0,0,235,82a7.55,7.55,0,0,0-1.53.62L233,81.59a10.71,10.71,0,0,1,1.86-.71,6.76,6.76,0,0,1,1.72-.22,4,4,0,0,1,2.72.84,3,3,0,0,1,1,2.4v6.29h-1.34v-.91a4.72,4.72,0,0,1-1.4.82A5,5,0,0,1,235.87,90.36Zm-2.13-2.86a1.56,1.56,0,0,0,.65,1.29,2.89,2.89,0,0,0,1.72.49,4.17,4.17,0,0,0,1.53-.27,3.43,3.43,0,0,0,1.25-.82V86.44a3.9,3.9,0,0,0-1.25-.56,5.51,5.51,0,0,0-1.46-.18,2.9,2.9,0,0,0-1.79.5A1.55,1.55,0,0,0,233.74,87.5Zm13.49-8.44a.92.92,0,0,1-.65-.28.9.9,0,0,1-.28-.66.85.85,0,0,1,.28-.65.88.88,0,0,1,.65-.28.83.83,0,0,1,.65.28.85.85,0,0,1,.28.65.9.9,0,0,1-.28.66A.87.87,0,0,1,247.23,79.06Zm.69,1.79v9.34h-1.38V80.85Zm6.62,9.34v-13h5.67a4.37,4.37,0,0,1,3.06,1,3.77,3.77,0,0,1,0,5.46,4.34,4.34,0,0,1-3,1H256v5.5Zm5.56-11.77H256v5h4.12a3.2,3.2,0,0,0,2.11-.67,2.35,2.35,0,0,0,.78-1.85,2.3,2.3,0,0,0-.78-1.83A3.2,3.2,0,0,0,260.1,78.42Zm5.3,10.48.84-.89a4.84,4.84,0,0,0,1.42.93,4.45,4.45,0,0,0,1.62.32,3.27,3.27,0,0,0,1.83-.47,1.4,1.4,0,0,0,.71-1.21,1.1,1.1,0,0,0-.43-.93,2.55,2.55,0,0,0-1.31-.49l-1.62-.22a4,4,0,0,1-2.09-.82,2.27,2.27,0,0,1-.67-1.7,2.36,2.36,0,0,1,1-1.94,4,4,0,0,1,2.52-.78,6,6,0,0,1,1.9.3,6,6,0,0,1,1.77.93l-.73.93a6.66,6.66,0,0,0-1.52-.78,4.31,4.31,0,0,0-1.5-.26,2.64,2.64,0,0,0-1.56.43,1.29,1.29,0,0,0-.6,1.11,1.17,1.17,0,0,0,.41.94,2.82,2.82,0,0,0,1.32.44l1.63.23a3.63,3.63,0,0,1,2.09.84,2.16,2.16,0,0,1,.7,1.69,2.3,2.3,0,0,1-.29,1.14,2.93,2.93,0,0,1-.81.92,4.27,4.27,0,0,1-1.19.59,5.11,5.11,0,0,1-1.49.21,6.28,6.28,0,0,1-2.18-.38A5.53,5.53,0,0,1,265.4,88.9Zm11.28,2.5.54-1.23-3.81-9.32h1.53l3,7.66,3.27-7.66h1.49l-4.64,10.74a5.25,5.25,0,0,1-1.33,1.94,2.78,2.78,0,0,1-1.84.59,4.12,4.12,0,0,1-.51,0A2.6,2.6,0,0,1,274,94V92.78l.35.06.43,0a1.64,1.64,0,0,0,1.08-.36A2.87,2.87,0,0,0,276.68,91.4ZM288,89.11a3.57,3.57,0,0,0,1.44-.3,4.13,4.13,0,0,0,1.28-.88l.86.94A5.68,5.68,0,0,1,289.9,90a4.94,4.94,0,0,1-1.94.39A4.69,4.69,0,0,1,286.1,90a4.53,4.53,0,0,1-1.51-1,5,5,0,0,1-1-1.55,4.87,4.87,0,0,1-.37-1.9,4.71,4.71,0,0,1,.37-1.88,4.89,4.89,0,0,1,1-1.55A4.79,4.79,0,0,1,288,80.66a5.08,5.08,0,0,1,2,.39,5.25,5.25,0,0,1,1.7,1.08l-.88,1a3.89,3.89,0,0,0-1.28-.89,3.56,3.56,0,0,0-1.48-.32,3.22,3.22,0,0,0-1.34.28,3.39,3.39,0,0,0-1.1.76,3.91,3.91,0,0,0-.71,1.14,3.83,3.83,0,0,0-.26,1.4,4,4,0,0,0,.26,1.43,3.91,3.91,0,0,0,.73,1.14,3.7,3.7,0,0,0,1.1.75A3.39,3.39,0,0,0,288,89.11Zm5.2,1.08v-13l1.38-.32V82a3.34,3.34,0,0,1,1.29-1,3.87,3.87,0,0,1,1.65-.34,3.45,3.45,0,0,1,3.6,3.62v5.91h-1.36V84.56a2.65,2.65,0,0,0-.71-2,2.5,2.5,0,0,0-1.9-.73,3.05,3.05,0,0,0-1.51.38,2.84,2.84,0,0,0-1.06,1.06v6.88ZM303,85.51a4.84,4.84,0,0,1,.37-1.9,4.69,4.69,0,0,1,4.4-3,4.52,4.52,0,0,1,1.84.37,4.59,4.59,0,0,1,1.52,1,4.75,4.75,0,0,1,1,1.55,4.84,4.84,0,0,1,.37,1.9,4.94,4.94,0,0,1-.37,1.92,4.86,4.86,0,0,1-1,1.55,4.72,4.72,0,0,1-1.52,1,4.52,4.52,0,0,1-1.84.38,4.74,4.74,0,0,1-1.87-.38,4.61,4.61,0,0,1-2.53-2.57A4.94,4.94,0,0,1,303,85.51Zm4.77,3.64a3.28,3.28,0,0,0,2.4-1.05,3.57,3.57,0,0,0,.73-1.16,3.75,3.75,0,0,0,.26-1.43,3.7,3.7,0,0,0-.26-1.42,3.33,3.33,0,0,0-.73-1.15,3.13,3.13,0,0,0-1.08-.77,3.1,3.1,0,0,0-1.32-.28,3.22,3.22,0,0,0-1.34.28,3.6,3.6,0,0,0-1.09.77,3.81,3.81,0,0,0-.72,1.15,3.7,3.7,0,0,0-.26,1.42,3.75,3.75,0,0,0,.26,1.43,3.69,3.69,0,0,0,.71,1.16,3.46,3.46,0,0,0,1.1.77A3.39,3.39,0,0,0,307.78,89.15Zm14.56,0a5.48,5.48,0,0,1-3.49,1.16A4.88,4.88,0,0,1,317,90a4.83,4.83,0,0,1-1.53-1A4.85,4.85,0,0,1,314,85.51a4.82,4.82,0,0,1,1.34-3.41,4.43,4.43,0,0,1,3.27-1.4,4,4,0,0,1,1.73.37,4.11,4.11,0,0,1,1.4,1,4.55,4.55,0,0,1,.93,1.53,4.88,4.88,0,0,1,.36,1.88v.43H315.4a3.53,3.53,0,0,0,1.14,2.29,3.37,3.37,0,0,0,2.37.92,4.64,4.64,0,0,0,1.42-.23,3.26,3.26,0,0,0,1.15-.63Zm-3.73-7.29a3,3,0,0,0-2.11.82,3.48,3.48,0,0,0-1.06,2.11h6.25a3.53,3.53,0,0,0-1.07-2.07A2.76,2.76,0,0,0,318.61,81.91Zm13.69,8.28v-1a4.08,4.08,0,0,1-1.38.86,4.59,4.59,0,0,1-1.64.28,4.72,4.72,0,0,1-1.84-.37,4.62,4.62,0,0,1-2.5-2.56,5.06,5.06,0,0,1-.36-1.9,4.88,4.88,0,0,1,.36-1.88,4.79,4.79,0,0,1,2.5-2.56,4.64,4.64,0,0,1,1.86-.37,4.44,4.44,0,0,1,1.57.28,4.39,4.39,0,0,1,1.42.78V77.14l1.38-.32V90.19ZM326,85.49a3.84,3.84,0,0,0,.26,1.44,3.61,3.61,0,0,0,.74,1.15,3.41,3.41,0,0,0,1.1.77,3.49,3.49,0,0,0,1.37.28,4,4,0,0,0,1.62-.34,3.46,3.46,0,0,0,1.25-1V83.2a3.39,3.39,0,0,0-1.25-.94,3.9,3.9,0,0,0-1.62-.35,3.31,3.31,0,0,0-2.47,1A3.48,3.48,0,0,0,326,85.49Zm11.39-4.64v5.63a2.67,2.67,0,0,0,.71,2,2.53,2.53,0,0,0,1.9.72,2.86,2.86,0,0,0,2.57-1.45V80.85h1.38v9.34h-1.38V89.11a3.44,3.44,0,0,1-1.29,1,4.07,4.07,0,0,1-1.64.32A3.45,3.45,0,0,1,336,86.76V80.85Zm8.91,9.34v-13l1.38-.32v8.24l4.88-4.21h1.68l-5.13,4.44,5.37,4.9h-1.88l-4.92-4.48v4.48Zm11.8.17a3.8,3.8,0,0,1-2.5-.79,2.49,2.49,0,0,1-.95-2,2.46,2.46,0,0,1,1-2.07,4.34,4.34,0,0,1,2.73-.78,5.66,5.66,0,0,1,1.43.17,6,6,0,0,1,1.31.46V84.09a2.12,2.12,0,0,0-.64-1.68,2.67,2.67,0,0,0-1.84-.58,4.9,4.9,0,0,0-1.4.21,7.55,7.55,0,0,0-1.53.62l-.52-1.07a10.71,10.71,0,0,1,1.86-.71,6.71,6.71,0,0,1,1.72-.22,4,4,0,0,1,2.72.84,3,3,0,0,1,1,2.4v6.29h-1.34v-.91a4.72,4.72,0,0,1-1.4.82A5,5,0,0,1,358.05,90.36Zm-2.13-2.86a1.56,1.56,0,0,0,.65,1.29,2.89,2.89,0,0,0,1.72.49,4.17,4.17,0,0,0,1.53-.27,3.43,3.43,0,0,0,1.25-.82V86.44a4,4,0,0,0-1.25-.56,5.51,5.51,0,0,0-1.46-.18,2.9,2.9,0,0,0-1.79.5A1.55,1.55,0,0,0,355.92,87.5Zm13.16,1.61a3.53,3.53,0,0,0,1.43-.3,4.29,4.29,0,0,0,1.29-.88l.86.94A5.81,5.81,0,0,1,371,90a5,5,0,0,1-1.94.39,4.65,4.65,0,0,1-1.86-.38,4.43,4.43,0,0,1-1.51-1,4.94,4.94,0,0,1-1.38-3.45,4.94,4.94,0,0,1,1.38-3.43A4.79,4.79,0,0,1,369,80.66a5.15,5.15,0,0,1,2,.39,5.47,5.47,0,0,1,1.7,1.08l-.88,1a3.83,3.83,0,0,0-1.29-.89,3.48,3.48,0,0,0-1.47-.32,3.22,3.22,0,0,0-1.34.28,3.28,3.28,0,0,0-1.1.76,3.71,3.71,0,0,0-.71,1.14,3.63,3.63,0,0,0-.26,1.4,3.62,3.62,0,0,0,1,2.57,3.65,3.65,0,0,0,1.09.75A3.47,3.47,0,0,0,369.08,89.11Zm5.88-10a1,1,0,0,1-.93-.94.88.88,0,0,1,.28-.65.9.9,0,0,1,.65-.28.85.85,0,0,1,.66.28.88.88,0,0,1,.28.65.94.94,0,0,1-.28.66A.89.89,0,0,1,375,79.06Zm-1.71,15a2.39,2.39,0,0,1-.48,0l-.38-.07V92.8c.11,0,.23,0,.34.06h.35a1.23,1.23,0,0,0,.92-.29,1.44,1.44,0,0,0,.27-1V80.85h1.38V91.72a2.31,2.31,0,0,1-.63,1.73A2.43,2.43,0,0,1,373.25,94.07Zm7.7-3.71a3.79,3.79,0,0,1-2.49-.79,2.49,2.49,0,0,1-.95-2,2.46,2.46,0,0,1,1-2.07,4.33,4.33,0,0,1,2.72-.78,5.68,5.68,0,0,1,1.44.17,6,6,0,0,1,1.31.46V84.09a2.12,2.12,0,0,0-.64-1.68,2.67,2.67,0,0,0-1.84-.58,4.9,4.9,0,0,0-1.4.21,7.55,7.55,0,0,0-1.53.62l-.52-1.07a10.71,10.71,0,0,1,1.86-.71,6.71,6.71,0,0,1,1.72-.22,4,4,0,0,1,2.72.84,3,3,0,0,1,1,2.4v6.29H384v-.91a4.72,4.72,0,0,1-1.4.82A5,5,0,0,1,381,90.36Zm-2.12-2.86a1.56,1.56,0,0,0,.65,1.29,2.89,2.89,0,0,0,1.72.49,4.17,4.17,0,0,0,1.53-.27,3.43,3.43,0,0,0,1.25-.82V86.44a4,4,0,0,0-1.25-.56,5.51,5.51,0,0,0-1.46-.18,2.9,2.9,0,0,0-1.79.5A1.55,1.55,0,0,0,378.83,87.5Z" transform="translate(-3.01 0)"/></svg>