<svg width="143" height="278" viewBox="0 0 143 278" fill="none" xmlns="http://www.w3.org/2000/svg">
<path opacity="0.3" fill-rule="evenodd" clip-rule="evenodd" d="M0 143.569V108.485C6.54905 108.001 11.3691 108.65 11.3691 108.65C11.3691 108.65 12.4499 130.702 0 143.569ZM52.1022 0H54.4373C55.3099 2.98606 60.6894 23.1597 51.3727 37.6755C41.5347 53.3867 17.9235 56.3326 17.9235 56.3326C17.9235 56.3326 10.791 33.9931 20.8749 18.2819C29.0685 5.51592 46.0306 1.17784 52.1022 0ZM0 51.2451L15.3943 66.6347C19.2312 70.4704 19.2287 76.6835 15.3889 80.5162L13.6443 82.2575C11.7233 84.1749 8.60875 84.1749 6.68777 82.2575L0 75.5823V51.2451ZM123.179 12.6472C123.179 12.6472 100.798 5.52811 85.0572 15.5931C69.5623 25.6582 66.365 48.9796 66.365 48.9796C66.365 48.9796 88.7464 56.0987 104.487 46.0337C120.228 35.9686 123.179 12.6472 123.179 12.6472ZM106.958 153.055C96.8742 137.344 104.007 115.004 104.007 115.004C104.007 115.004 127.372 117.95 137.456 133.661C147.54 149.373 140.407 171.712 140.407 171.712C140.407 171.712 117.042 168.521 106.958 153.055ZM40.0597 100.275C40.0597 100.275 32.9272 122.614 43.0111 138.326C53.0951 153.792 76.4604 156.983 76.4604 156.983C76.4604 156.983 83.5929 134.643 73.5089 118.932C63.425 103.221 40.0597 100.275 40.0597 100.275ZM77.6787 100.042C93.4195 110.107 115.801 102.988 115.801 102.988C115.801 102.988 112.85 79.6661 97.1087 69.6011C81.368 59.5361 58.9865 66.6552 58.9865 66.6552C58.9865 66.6552 61.9379 90.2221 77.6787 100.042ZM123.179 211.002C123.179 211.002 100.798 218.122 85.0572 208.057C69.3164 198.237 66.365 174.67 66.365 174.67C66.365 174.67 88.7465 167.551 104.487 177.616C120.228 187.681 123.179 211.002 123.179 211.002ZM9.35222 180.273C13.3522 198.5 34.2217 209.262 34.2217 209.262C34.2217 209.262 48.6565 190.688 44.6565 172.462C40.6565 154.235 19.787 143.473 19.787 143.473C19.787 143.473 5.1783 162.22 9.35222 180.273ZM66.1953 277.999C66.1953 277.999 45.3257 267.237 41.3257 249.01C37.1518 230.957 51.7605 212.21 51.7605 212.21C51.7605 212.21 72.63 222.972 76.63 241.199C80.63 259.425 66.1953 277.999 66.1953 277.999Z" fill="#C4C4C4"/>
</svg>
