<svg width="56" height="56" viewBox="0 0 56 56" fill="none" xmlns="http://www.w3.org/2000/svg">
<path d="M48.5625 30.625V25.375C48.5625 23.0544 47.6406 20.8288 45.9997 19.1878C44.3587 17.5469 42.1331 16.625 39.8125 16.625C37.4919 16.625 35.2663 17.5469 33.6253 19.1878C31.9844 20.8288 31.0625 23.0544 31.0625 25.375V30.625H35.4375V25.375C35.4375 24.2147 35.8984 23.1019 36.7189 22.2814C37.5394 21.4609 38.6522 21 39.8125 21C40.9728 21 42.0856 21.4609 42.9061 22.2814C43.7266 23.1019 44.1875 24.2147 44.1875 25.375V30.625H48.5625Z" fill="#4ABD7F"/>
<path d="M51.1875 32.375H28.4375C27.7413 32.375 27.0736 32.6516 26.5813 33.1438C26.0891 33.6361 25.8125 34.3038 25.8125 35V52.5C25.8125 53.1962 26.0891 53.8639 26.5813 54.3562C27.0736 54.8484 27.7413 55.125 28.4375 55.125H51.1875C51.8837 55.125 52.5514 54.8484 53.0437 54.3562C53.5359 53.8639 53.8125 53.1962 53.8125 52.5V35C53.8125 34.3038 53.5359 33.6361 53.0437 33.1438C52.5514 32.6516 51.8837 32.375 51.1875 32.375ZM40.6875 44.464V49C40.6875 49.2321 40.5953 49.4546 40.4312 49.6187C40.2671 49.7828 40.0446 49.875 39.8125 49.875C39.5804 49.875 39.3579 49.7828 39.1938 49.6187C39.0297 49.4546 38.9375 49.2321 38.9375 49V44.464C38.3537 44.2576 37.8616 43.8514 37.5483 43.3173C37.235 42.7832 37.1206 42.1555 37.2253 41.5452C37.33 40.9349 37.6471 40.3813 38.1205 39.9822C38.594 39.583 39.1933 39.3641 39.8125 39.3641C40.4317 39.3641 41.031 39.583 41.5045 39.9822C41.9779 40.3813 42.295 40.9349 42.3997 41.5452C42.5044 42.1555 42.39 42.7832 42.0767 43.3173C41.7634 43.8514 41.2713 44.2576 40.6875 44.464Z" fill="#4ABD7F"/>
<path d="M45.0639 42.8751H41.5639C41.3318 42.8751 41.1093 42.7829 40.9452 42.6188C40.7811 42.4547 40.6889 42.2322 40.6889 42.0001V14.8751C40.6917 11.4681 39.4512 8.17717 37.2002 5.61977C34.9491 3.06237 31.8422 1.41427 28.4624 0.984721C25.0826 0.555172 21.6622 1.37369 18.843 3.2867C16.0238 5.19971 13.9995 8.07572 13.15 11.3751H9.06464C8.85167 10.5503 8.34519 9.83144 7.64013 9.35333C6.93508 8.87522 6.07985 8.67066 5.23477 8.778C4.38968 8.88534 3.61275 9.29721 3.04961 9.9364C2.48647 10.5756 2.17578 11.3982 2.17578 12.2501C2.17578 13.102 2.48647 13.9246 3.04961 14.5638C3.61275 15.203 4.38968 15.6149 5.23477 15.7222C6.07985 15.8295 6.93508 15.625 7.64013 15.1469C8.34519 14.6688 8.85167 13.9499 9.06464 13.1251H12.8105C12.7332 13.7053 12.6926 14.2898 12.6889 14.8751V19.8626L9.33589 24.8921C9.21253 25.078 9.16484 25.304 9.20257 25.5239C9.24031 25.7438 9.36061 25.941 9.53889 26.0751L12.6889 28.4376V34.1251C12.6889 34.4698 12.7568 34.8112 12.8887 35.1296C13.0206 35.4481 13.214 35.7375 13.4577 35.9813C13.7015 36.225 13.9909 36.4184 14.3093 36.5503C14.6278 36.6822 14.9692 36.7501 15.3139 36.7501H20.5639V42.0001C20.5639 42.2322 20.4717 42.4547 20.3076 42.6188C20.1435 42.7829 19.921 42.8751 19.6889 42.8751H13.5639C13.3318 42.8751 13.1093 42.9673 12.9452 43.1314C12.7811 43.2955 12.6889 43.518 12.6889 43.7501C12.6889 43.9822 12.7811 44.2047 12.9452 44.3688C13.1093 44.5329 13.3318 44.6251 13.5639 44.6251H19.6889C20.3851 44.6251 21.0528 44.3485 21.545 43.8563C22.0373 43.364 22.3139 42.6963 22.3139 42.0001V35.8751C22.3139 35.643 22.2217 35.4205 22.0576 35.2564C21.8935 35.0923 21.671 35.0001 21.4389 35.0001H15.3139C15.0818 35.0001 14.8593 34.9079 14.6952 34.7438C14.5311 34.5797 14.4389 34.3572 14.4389 34.1251V28.0001C14.4389 27.8643 14.4073 27.7303 14.3465 27.6088C14.2858 27.4873 14.1976 27.3816 14.0889 27.3001L11.2504 25.1721L14.2919 20.6107C14.3875 20.4668 14.4386 20.2979 14.4389 20.1251V14.8751C14.4433 14.2892 14.4901 13.7043 14.5789 13.1251H17.9389V16.6251C17.9389 16.8572 18.0311 17.0797 18.1952 17.2438C18.3593 17.4079 18.5818 17.5001 18.8139 17.5001C19.046 17.5001 19.2685 17.4079 19.4326 17.2438C19.5967 17.0797 19.6889 16.8572 19.6889 16.6251V13.1251H20.5639C20.796 13.1251 21.0185 13.2173 21.1826 13.3814C21.3467 13.5455 21.4389 13.768 21.4389 14.0001V17.5001C21.4389 17.7322 21.5311 17.9547 21.6952 18.1188C21.8593 18.2829 22.0818 18.3751 22.3139 18.3751C22.546 18.3751 22.7685 18.2829 22.9326 18.1188C23.0967 17.9547 23.1889 17.7322 23.1889 17.5001V14.0001C23.1889 13.3039 22.9123 12.6362 22.42 12.1439C21.9278 11.6517 21.2601 11.3751 20.5639 11.3751H14.9551C15.7994 8.55977 17.6278 6.14184 20.1066 4.56252C22.5854 2.98319 25.5494 2.34777 28.4578 2.7722C31.3662 3.19663 34.0251 4.65261 35.9492 6.87446C37.8733 9.09631 38.9344 11.9359 38.9389 14.8751V42.0001C38.9389 42.6963 39.2155 43.364 39.7077 43.8563C40.2 44.3485 40.8677 44.6251 41.5639 44.6251H45.0639C45.296 44.6251 45.5185 44.5329 45.6826 44.3688C45.8467 44.2047 45.9389 43.9822 45.9389 43.7501C45.9389 43.518 45.8467 43.2955 45.6826 43.1314C45.5185 42.9673 45.296 42.8751 45.0639 42.8751ZM5.68889 14.0001C5.34277 14.0001 5.00443 13.8975 4.71664 13.7052C4.42886 13.5129 4.20456 13.2396 4.0721 12.9198C3.93965 12.6 3.90499 12.2482 3.97252 11.9087C4.04004 11.5692 4.20671 11.2574 4.45145 11.0127C4.6962 10.7679 5.00802 10.6013 5.34748 10.5337C5.68695 10.4662 6.03882 10.5009 6.35859 10.6333C6.67836 10.7658 6.95167 10.9901 7.14396 11.2779C7.33626 11.5656 7.43889 11.904 7.43889 12.2501C7.43889 12.7142 7.25452 13.1594 6.92633 13.4875C6.59814 13.8157 6.15302 14.0001 5.68889 14.0001Z" fill="#005650"/>
<path d="M29.3123 8.75002C28.6493 8.7484 27.9995 8.9356 27.439 9.28973C26.8785 9.64385 26.4304 10.1503 26.1472 10.7497C25.8639 11.3492 25.7572 12.0169 25.8395 12.6748C25.9218 13.3326 26.1898 13.9535 26.612 14.4646L25.8245 20.0008C25.8068 20.1246 25.8158 20.2508 25.8509 20.3709C25.8861 20.491 25.9466 20.6021 26.0284 20.6969C26.1101 20.7916 26.2113 20.8676 26.3249 20.9199C26.4386 20.9722 26.5622 20.9995 26.6873 21H31.9373C32.0627 21 32.1866 20.9731 32.3007 20.921C32.4148 20.8689 32.5164 20.7929 32.5985 20.6982C32.6807 20.6034 32.7415 20.4921 32.7769 20.3718C32.8122 20.2514 32.8213 20.1249 32.8035 20.0008L32.016 14.4646C32.4385 13.9532 32.7064 13.3321 32.7886 12.6739C32.8708 12.0157 32.7638 11.3477 32.4802 10.7481C32.1965 10.1485 31.7479 9.64218 31.1868 9.28832C30.6258 8.93445 29.9756 8.74773 29.3123 8.75002ZM30.2205 14.2975L30.9284 19.25H27.6962L28.404 14.2975C28.424 14.157 28.4096 14.0137 28.3619 13.88C28.3141 13.7463 28.2346 13.6262 28.1302 13.5301C27.9514 13.3682 27.8085 13.1707 27.7107 12.9502C27.6128 12.7297 27.5623 12.4912 27.5623 12.25C27.5623 11.7859 27.7466 11.3408 28.0748 11.0126C28.403 10.6844 28.8481 10.5 29.3123 10.5C29.7764 10.5 30.2215 10.6844 30.5497 11.0126C30.8779 11.3408 31.0623 11.7859 31.0623 12.25C31.0622 12.4912 31.0117 12.7297 30.9139 12.9502C30.8161 13.1707 30.6732 13.3682 30.4944 13.5301C30.3899 13.6262 30.3104 13.7463 30.2627 13.88C30.215 14.0137 30.2005 14.157 30.2205 14.2975Z" fill="#005650"/>
</svg>
