<svg width="348" height="369" viewBox="0 0 348 369" fill="none" xmlns="http://www.w3.org/2000/svg">
<g opacity="0.1">
<path d="M187.306 184.316C172.022 198.365 146.146 194.884 146.146 194.884C146.146 194.884 144.867 168.788 160.151 154.738C175.435 140.689 201.31 144.17 201.31 144.17C201.31 144.17 202.32 170.313 187.306 184.316Z" fill="#F4F5F7"/>
<path d="M64.2425 298.316C46.7466 309.503 21.8698 301.59 21.8698 301.59C21.8698 301.59 25.1503 275.669 42.6461 264.482C60.1419 253.294 85.0188 261.207 85.0188 261.207C85.0188 261.207 81.4649 287.129 64.2425 298.316Z" fill="#F4F5F7"/>
<path d="M39.8997 145.528C51.1079 162.991 43.1801 187.821 43.1801 187.821C43.1801 187.821 17.2098 184.547 6.00153 167.084C-5.20673 149.621 2.72105 124.791 2.72105 124.791C2.72105 124.791 28.6914 128.338 39.8997 145.528Z" fill="#F4F5F7"/>
<path d="M110.976 161.899C122.185 179.362 114.257 204.193 114.257 204.193C114.257 204.193 88.2866 200.918 77.0783 183.455C65.87 165.992 73.7978 141.162 73.7978 141.162C73.7978 141.162 99.7682 144.709 110.976 161.899Z" fill="#F4F5F7"/>
<path d="M72.4436 204.452C54.9478 193.265 30.0709 201.178 30.0709 201.178C30.0709 201.178 33.3514 227.099 50.8472 238.286C68.3431 249.474 93.2199 241.561 93.2199 241.561C93.2199 241.561 89.9395 215.366 72.4436 204.452Z" fill="#F4F5F7"/>
<path d="M64.2425 84.394C46.7466 73.2067 21.8698 81.1196 21.8698 81.1196C21.8698 81.1196 25.1502 107.041 42.6461 118.228C60.1419 129.416 85.0188 121.503 85.0188 121.503C85.0188 121.503 81.7383 95.3083 64.2425 84.394Z" fill="#F4F5F7"/>
<path d="M148.388 115.275C143.942 95.0162 120.746 83.0539 120.746 83.0539C120.746 83.0539 104.702 103.699 109.148 123.957C113.594 144.216 136.79 156.178 136.79 156.178C136.79 156.178 153.027 135.341 148.388 115.275Z" fill="#F4F5F7"/>
<path d="M112.85 38.8744C108.404 18.6157 85.2074 6.65332 85.2074 6.65332C85.2074 6.65332 69.1632 27.298 73.6092 47.5567C78.0552 67.8155 101.252 79.7778 101.252 79.7778C101.252 79.7778 117.489 58.9402 112.85 38.8744Z" fill="#F4F5F7"/>
<path d="M101.683 273.772C90.4743 291.235 98.4021 316.065 98.4021 316.065C98.4021 316.065 124.372 312.791 135.581 295.328C146.789 277.865 138.861 253.034 138.861 253.034C138.861 253.034 112.617 256.309 101.683 273.772Z" fill="#F4F5F7"/>
<path fill-rule="evenodd" clip-rule="evenodd" d="M180.357 253.172V217.563C180.357 214.549 182.805 212.106 185.824 212.106H188.747C194.712 212.106 199.576 216.877 199.68 222.83L202.13 363.448C202.183 366.498 199.72 369 196.663 369H177.964C174.814 369 172.316 366.351 172.506 363.213L177.692 277.592L141.672 241.584C137.408 237.32 137.41 230.414 141.678 226.154L143.618 224.219C145.753 222.088 149.215 222.088 151.35 224.219L180.357 253.172Z" fill="#F4F5F7"/>
<path d="M234.351 9.34487C208.81 0.36171 181.013 0.0415038 155.271 8.43391L151.373 9.70471C147.785 10.8744 145.827 14.7259 146.999 18.3071L149.545 26.0883C150.717 29.6695 154.576 31.6243 158.164 30.4546L162.062 29.1838C183.227 22.2834 206.083 22.5466 227.083 29.9328C248.083 37.319 266.055 51.4152 278.211 70.0353C289.708 87.6461 295.395 108.373 294.529 129.315C294.348 133.672 295.223 138.25 297.481 142.445L322.699 189.281C323.361 190.511 322.468 192.002 321.069 192.002C307.968 192.002 297.348 202.603 297.348 215.678V251.761C297.348 253.483 295.77 254.775 294.078 254.437L272.103 250.05C256.878 247.011 242.674 258.634 242.674 274.13V307.968C242.674 311.735 245.734 314.789 249.508 314.789H257.709C261.484 314.789 264.544 311.735 264.544 307.968V274.13C264.544 272.409 266.122 271.117 267.814 271.455L289.789 275.842C305.014 278.881 319.218 267.258 319.218 251.761V215.678C319.218 214.658 320.047 213.831 321.069 213.831C339.009 213.831 350.456 194.721 341.963 178.948L316.746 132.112C316.527 131.706 316.344 131.074 316.38 130.216C317.433 104.745 310.517 79.5369 296.534 58.1181C281.75 35.4721 259.892 18.328 234.351 9.34487Z" fill="#F4F5F7"/>
<path fill-rule="evenodd" clip-rule="evenodd" d="M233.566 11.5762C208.516 2.76555 181.252 2.45149 156.004 10.6828L152.106 11.9536C149.758 12.7191 148.483 15.2359 149.247 17.5714L151.793 25.3526C152.558 27.69 155.08 28.9719 157.43 28.2057L161.328 26.9349C182.988 19.8734 206.377 20.1428 227.868 27.7014C249.359 35.2601 267.751 49.6858 280.192 68.7422C291.958 86.7659 297.779 107.979 296.892 129.413C296.727 133.391 297.527 137.54 299.564 141.323L324.782 188.159C326.296 190.972 324.251 194.368 321.069 194.368C309.27 194.368 299.714 203.913 299.714 215.678V251.761C299.714 254.981 296.765 257.385 293.615 256.757L271.639 252.37C257.873 249.621 245.039 260.131 245.039 274.13V307.968C245.039 310.424 247.036 312.424 249.508 312.424H257.709C260.182 312.424 262.178 310.424 262.178 307.968V274.13C262.178 270.911 265.127 268.506 268.277 269.135L290.253 273.522C304.019 276.27 316.853 265.76 316.853 251.761V215.678C316.853 213.348 318.744 211.466 321.069 211.466C337.227 211.466 347.521 194.259 339.88 180.069L314.663 133.233C314.225 132.419 313.965 131.358 314.016 130.118C315.05 105.139 308.267 80.4171 294.553 59.4112C280.054 37.2015 258.617 20.3869 233.566 11.5762ZM154.538 6.18503C180.774 -2.36848 209.105 -2.04213 235.136 7.11348C261.168 16.2691 283.446 33.7427 298.515 56.8251C312.767 78.6566 319.817 104.351 318.743 130.313C318.724 130.777 318.825 130.983 318.828 130.99L344.046 177.826C353.309 195.03 341.009 215.83 321.583 216.192V251.761C321.583 268.756 306.009 281.492 289.326 278.161L267.35 273.774C267.117 273.728 266.909 273.906 266.909 274.13V307.968C266.909 313.046 262.786 317.154 257.709 317.154H249.508C244.432 317.154 240.309 313.046 240.309 307.968V274.13C240.309 257.136 255.883 244.4 272.566 247.73L294.542 252.117C294.775 252.164 294.983 251.985 294.983 251.761V215.678C294.983 201.578 306.205 190.102 320.212 189.651L295.399 143.566C292.919 138.96 291.969 133.954 292.165 129.217C293.011 108.767 287.458 88.5264 276.23 71.3283C264.359 53.1446 246.808 39.3778 226.298 32.1642C205.788 24.9505 183.466 24.6934 162.795 31.4327L158.897 32.7035C154.071 34.2768 148.876 31.6489 147.297 26.8239L144.751 19.0427C143.171 14.2158 145.812 9.02977 150.64 7.45584L154.538 6.18503ZM320.616 190.402C320.616 190.401 320.615 190.4 320.615 190.399L320.616 190.402Z" fill="#F4F5F7"/>
</g>
</svg>
