<svg width="143" height="278" viewBox="0 0 143 278" fill="none" xmlns="http://www.w3.org/2000/svg">
<path opacity="0.3" fill-rule="evenodd" clip-rule="evenodd" d="M142.855 143.569V108.485C136.306 108.001 131.486 108.65 131.486 108.65C131.486 108.65 130.406 130.702 142.855 143.569ZM90.7533 0H88.4181C87.5455 2.98607 82.1661 23.1597 91.4827 37.6755C101.321 53.3867 124.932 56.3326 124.932 56.3326C124.932 56.3326 132.064 33.9931 121.981 18.2819C113.787 5.51593 96.8249 1.17784 90.7533 0ZM142.855 51.2451L127.461 66.6347C123.624 70.4704 123.627 76.6835 127.467 80.5162L129.211 82.2575C131.132 84.1749 134.247 84.1749 136.168 82.2575L142.855 75.5823V51.2451ZM19.676 12.6472C19.676 12.6472 42.0575 5.5281 57.7983 15.5931C73.2931 25.6582 76.4905 48.9796 76.4905 48.9796C76.4905 48.9796 54.109 56.0987 38.3682 46.0337C22.6274 35.9687 19.676 12.6472 19.676 12.6472ZM35.8973 153.055C45.9813 137.344 38.8487 115.004 38.8487 115.004C38.8487 115.004 15.4835 117.95 5.39951 133.661C-4.68443 149.373 2.4481 171.712 2.4481 171.712C2.4481 171.712 25.8134 168.521 35.8973 153.055ZM102.796 100.275C102.796 100.275 109.928 122.614 99.8443 138.326C89.7604 153.792 66.3951 156.983 66.3951 156.983C66.3951 156.983 59.2626 134.643 69.3465 118.932C79.4305 103.221 102.796 100.275 102.796 100.275ZM65.1768 100.042C49.436 110.107 27.0545 102.988 27.0545 102.988C27.0545 102.988 30.0059 79.6661 45.7467 69.6011C61.4875 59.5361 83.869 66.6552 83.869 66.6552C83.869 66.6552 80.9176 90.2221 65.1768 100.042ZM19.676 211.002C19.676 211.002 42.0575 218.122 57.7983 208.057C73.5391 198.237 76.4905 174.67 76.4905 174.67C76.4905 174.67 54.109 167.551 38.3682 177.616C22.6274 187.681 19.676 211.002 19.676 211.002ZM133.503 180.273C129.503 198.5 108.634 209.262 108.634 209.262C108.634 209.262 94.1989 190.688 98.1989 172.462C102.199 154.235 123.069 143.473 123.069 143.473C123.069 143.473 137.677 162.22 133.503 180.273ZM76.6602 277.999C76.6602 277.999 97.5297 267.237 101.53 249.01C105.704 230.957 91.095 212.21 91.095 212.21C91.095 212.21 70.2254 222.972 66.2254 241.199C62.2254 259.425 76.6602 277.999 76.6602 277.999Z" fill="#C4C4C4"/>
</svg>
