<svg width="24" height="24" viewBox="0 0 24 24" fill="none" xmlns="http://www.w3.org/2000/svg">
<path d="M21.4219 0H2.57812C1.15655 0 0 1.15655 0 2.57812V21.4219C0 22.8435 1.15655 24 2.57812 24H21.4219C22.8435 24 24 22.8435 24 21.4219V2.57812C24 1.15655 22.8435 0 21.4219 0ZM22.5938 21.4219C22.5938 22.068 22.068 22.5938 21.4219 22.5938H2.57812C1.93195 22.5938 1.40625 22.068 1.40625 21.4219V2.57812C1.40625 1.93195 1.93195 1.40625 2.57812 1.40625H21.4219C22.068 1.40625 22.5938 1.93195 22.5938 2.57812V21.4219Z" fill="#4ABD7F"/>
<path d="M15.9245 5.70478C14.9712 4.77675 13.7194 4.26562 12.3993 4.26562H8.22266C8.03581 4.26562 7.85661 4.34002 7.72466 4.47234C7.59327 4.60416 7.51962 4.7827 7.51962 4.96875H7.51953V19.9688C7.51953 20.3571 7.83434 20.6719 8.22266 20.6719C8.61097 20.6719 8.92578 20.3571 8.92578 19.9688V14.1525C9.87678 14.1471 11.5922 14.1379 12.3993 14.1379C13.7194 14.1379 14.9713 13.6267 15.9245 12.6987C16.8878 11.7608 17.4184 10.5188 17.4184 9.20175C17.4184 7.88466 16.8878 6.64275 15.9245 5.70478ZM14.9435 11.6912C14.2543 12.3622 13.3508 12.7317 12.3993 12.7317C11.5984 12.7317 9.90955 12.7407 8.95081 12.7462C8.94533 11.7661 8.93103 6.68963 8.92798 5.67192H12.3994C13.3509 5.67192 14.2544 6.04144 14.9435 6.71241C15.6326 7.38337 16.0122 8.26748 16.0122 9.2018C16.0122 10.1361 15.6326 11.0202 14.9435 11.6912Z" fill="#4ABD7F"/>
</svg>
