<svg width="87" height="87" viewBox="0 0 87 87" fill="none" xmlns="http://www.w3.org/2000/svg">
<g filter="url(#filter0_d)">
<path fill-rule="evenodd" clip-rule="evenodd" d="M33.9367 15C25.6874 15 19 21.6874 19 29.9367V36.1927V42.4487C19 50.698 25.6874 57.3854 33.9367 57.3854C35.7515 57.3854 37.4356 58.3297 38.3822 59.8781L38.6254 60.2759C40.9816 64.1299 46.5793 64.1299 48.9354 60.2759L49.4711 59.3996C50.236 58.1484 51.5968 57.3854 53.0633 57.3854C61.3126 57.3854 68 50.698 68 42.4487V29.9367C68 21.6874 61.3126 15 53.0633 15H33.9367Z" fill="#4ABD7F"/>
</g>
<path d="M43.8449 38.7516C42.5873 39.9076 40.4583 39.6212 40.4583 39.6212C40.4583 39.6212 40.3531 37.474 41.6106 36.318C42.8681 35.162 44.9972 35.4484 44.9972 35.4484C44.9972 35.4484 45.0802 37.5995 43.8449 38.7516Z" fill="white"/>
<path d="M33.7194 48.1314C32.2798 49.0519 30.233 48.4008 30.233 48.4008C30.233 48.4008 30.5029 46.268 31.9425 45.3476C33.382 44.4271 35.4288 45.0782 35.4288 45.0782C35.4288 45.0782 35.1364 47.211 33.7194 48.1314Z" fill="white"/>
<path d="M31.7165 35.5602C32.6387 36.997 31.9864 39.04 31.9864 39.04C31.9864 39.04 29.8496 38.7706 28.9274 37.3338C28.0052 35.897 28.6575 33.854 28.6575 33.854C28.6575 33.854 30.7943 34.1458 31.7165 35.5602Z" fill="white"/>
<path d="M37.5646 36.9072C38.4868 38.3441 37.8345 40.3871 37.8345 40.3871C37.8345 40.3871 35.6977 40.1177 34.7755 38.6808C33.8533 37.244 34.5056 35.201 34.5056 35.201C34.5056 35.201 36.6424 35.4929 37.5646 36.9072Z" fill="white"/>
<path d="M34.3942 40.4084C32.9546 39.4879 30.9078 40.139 30.9078 40.139C30.9078 40.139 31.1777 42.2718 32.6172 43.1923C34.0568 44.1127 36.1036 43.4617 36.1036 43.4617C36.1036 43.4617 35.8337 41.3064 34.3942 40.4084Z" fill="white"/>
<path d="M33.7194 30.5302C32.2798 29.6097 30.233 30.2608 30.233 30.2608C30.233 30.2608 30.5029 32.3936 31.9425 33.314C33.382 34.2345 35.4288 33.5835 35.4288 33.5835C35.4288 33.5835 35.1589 31.4282 33.7194 30.5302Z" fill="white"/>
<path d="M40.6428 33.071C40.277 31.4042 38.3684 30.4199 38.3684 30.4199C38.3684 30.4199 37.0483 32.1185 37.4141 33.7854C37.7799 35.4523 39.6885 36.4365 39.6885 36.4365C39.6885 36.4365 41.0245 34.722 40.6428 33.071Z" fill="white"/>
<path d="M37.7187 26.7849C37.3529 25.118 35.4444 24.1338 35.4444 24.1338C35.4444 24.1338 34.1243 25.8324 34.4901 27.4993C34.8559 29.1661 36.7644 30.1504 36.7644 30.1504C36.7644 30.1504 38.1004 28.4359 37.7187 26.7849Z" fill="white"/>
<path d="M36.7999 46.1119C35.8777 47.5488 36.53 49.5918 36.53 49.5918C36.53 49.5918 38.6668 49.3224 39.589 47.8855C40.5112 46.4487 39.8589 44.4057 39.8589 44.4057C39.8589 44.4057 37.6996 44.6751 36.7999 46.1119Z" fill="white"/>
<path fill-rule="evenodd" clip-rule="evenodd" d="M43.2731 44.417V41.4872C43.2731 41.2392 43.4745 41.0382 43.723 41.0382H43.9634C44.4542 41.0382 44.8545 41.4308 44.863 41.9206L45.0646 53.4904C45.069 53.7414 44.8663 53.9472 44.6148 53.9472H43.0762C42.8171 53.9472 42.6116 53.7293 42.6272 53.4711L43.0539 46.4263L40.0902 43.4636C39.7393 43.1128 39.7396 42.5446 40.0907 42.1941L40.2503 42.0348C40.4259 41.8595 40.7108 41.8595 40.8864 42.0348L43.2731 44.417Z" fill="white"/>
<path d="M47.7146 24.3558C45.6131 23.6167 43.326 23.5903 41.208 24.2808L40.8872 24.3854C40.592 24.4816 40.4309 24.7985 40.5273 25.0932L40.7368 25.7334C40.8333 26.0281 41.1507 26.1889 41.4459 26.0927L41.7667 25.9881C43.5081 25.4204 45.3887 25.442 47.1165 26.0497C48.8444 26.6575 50.3231 27.8173 51.3233 29.3493C52.2693 30.7983 52.7372 32.5037 52.6659 34.2268C52.6511 34.5853 52.723 34.962 52.9088 35.3071L54.9837 39.1607C55.0382 39.262 54.9647 39.3846 54.8496 39.3846C53.7717 39.3846 52.8979 40.2568 52.8979 41.3327V44.3015C52.8979 44.4432 52.768 44.5494 52.6288 44.5217L50.8207 44.1607C49.568 43.9106 48.3993 44.867 48.3993 46.142V48.9261C48.3993 49.2361 48.6511 49.4874 48.9617 49.4874H49.6364C49.947 49.4874 50.1988 49.2361 50.1988 48.9261V46.142C50.1988 46.0003 50.3286 45.8941 50.4678 45.9219L52.276 46.2828C53.5286 46.5329 54.6973 45.5766 54.6973 44.3015V41.3327C54.6973 41.2487 54.7655 41.1807 54.8496 41.1807C56.3257 41.1807 57.2675 39.6083 56.5687 38.3105L54.4939 34.4569C54.4759 34.4235 54.4608 34.3715 54.4638 34.3009C54.5505 32.2052 53.9814 30.1311 52.8309 28.3688C51.6145 26.5055 49.8161 25.0949 47.7146 24.3558Z" fill="white"/>
<path fill-rule="evenodd" clip-rule="evenodd" d="M47.65 24.5394C45.5889 23.8145 43.3456 23.7886 41.2683 24.4659L40.9476 24.5704C40.7544 24.6334 40.6494 24.8405 40.7123 25.0327L40.9218 25.6729C40.9847 25.8652 41.1923 25.9707 41.3856 25.9076L41.7063 25.8031C43.4885 25.2221 45.4129 25.2442 47.1811 25.8662C48.9493 26.4881 50.4626 27.675 51.4863 29.2429C52.4544 30.7259 52.9333 32.4713 52.8603 34.2348C52.8468 34.5621 52.9126 34.9035 53.0802 35.2148L55.1551 39.0684C55.2797 39.2999 55.1114 39.5792 54.8496 39.5792C53.8788 39.5792 53.0925 40.3646 53.0925 41.3327V44.3015C53.0925 44.5664 52.8499 44.7642 52.5907 44.7125L50.7826 44.3516C49.6499 44.1254 48.594 44.9902 48.594 46.142V48.9261C48.594 49.1282 48.7582 49.2927 48.9617 49.2927H49.6364C49.8399 49.2927 50.0041 49.1282 50.0041 48.9261V46.142C50.0041 45.8771 50.2468 45.6793 50.5059 45.731L52.3141 46.092C53.4467 46.3181 54.5027 45.4533 54.5027 44.3015V41.3327C54.5027 41.1409 54.6583 40.986 54.8496 40.986C56.179 40.986 57.026 39.5703 56.3974 38.4027L54.3225 34.5491C54.2864 34.4822 54.2651 34.3949 54.2693 34.2928C54.3543 32.2376 53.7963 30.2035 52.6679 28.4752C51.4749 26.6478 49.7111 25.2643 47.65 24.5394ZM41.1476 24.0958C43.3063 23.392 45.6373 23.4189 47.7791 24.1722C49.921 24.9255 51.754 26.3632 52.9939 28.2624C54.1665 30.0587 54.7466 32.1728 54.6582 34.3089C54.6566 34.3471 54.6649 34.364 54.6652 34.3646L56.7401 38.2182C57.5022 39.6337 56.4903 41.3451 54.8919 41.3749V44.3015C54.8919 45.6998 53.6105 46.7477 52.2379 46.4737L50.4297 46.1127C50.4105 46.1089 50.3934 46.1236 50.3934 46.142V48.9261C50.3934 49.3439 50.0541 49.682 49.6364 49.682H48.9617C48.544 49.682 48.2047 49.3439 48.2047 48.9261V46.142C48.2047 44.7437 49.4862 43.6958 50.8588 43.9698L52.6669 44.3308C52.6862 44.3346 52.7033 44.3199 52.7033 44.3015V41.3327C52.7033 40.1725 53.6266 39.2283 54.7791 39.1911L52.7375 35.3994C52.5334 35.0204 52.4553 34.6084 52.4714 34.2188C52.541 32.5361 52.0841 30.8708 51.1603 29.4557C50.1836 27.9596 48.7395 26.8269 47.052 26.2333C45.3644 25.6398 43.5278 25.6187 41.827 26.1732L41.5063 26.2777C41.1092 26.4072 40.6818 26.1909 40.5519 25.794L40.3423 25.1537C40.2124 24.7566 40.4297 24.3299 40.8269 24.2004L41.1476 24.0958ZM54.8123 39.253C54.8123 39.2529 54.8123 39.2528 54.8122 39.2527L54.8123 39.253Z" fill="white"/>
<defs>
<filter id="filter0_d" x="0" y="0" width="87" height="86.1664" filterUnits="userSpaceOnUse" color-interpolation-filters="sRGB">
<feFlood flood-opacity="0" result="BackgroundImageFix"/>
<feColorMatrix in="SourceAlpha" type="matrix" values="0 0 0 0 0 0 0 0 0 0 0 0 0 0 0 0 0 0 127 0"/>
<feMorphology radius="1" operator="dilate" in="SourceAlpha" result="effect1_dropShadow"/>
<feOffset dy="4"/>
<feGaussianBlur stdDeviation="9"/>
<feColorMatrix type="matrix" values="0 0 0 0 0.133333 0 0 0 0 0.176471 0 0 0 0 0.611765 0 0 0 0.09 0"/>
<feBlend mode="normal" in2="BackgroundImageFix" result="effect1_dropShadow"/>
<feBlend mode="normal" in="SourceGraphic" in2="effect1_dropShadow" result="shape"/>
</filter>
</defs>
</svg>
