<svg width="56" height="56" viewBox="0 0 56 56" fill="none" xmlns="http://www.w3.org/2000/svg">
<path d="M53.3916 34.51C53.0845 33.3585 53.7233 31.6085 52.899 30.1858C52.0748 28.763 50.1865 28.392 49.399 27.601C48.6115 26.81 48.2414 24.9261 46.8151 24.101C45.3731 23.2663 43.6415 23.9155 42.4909 23.6075C41.426 23.324 40.1747 21.875 38.5 21.875C36.8252 21.875 35.5749 23.324 34.51 23.6075C33.3559 23.9146 31.605 23.2776 30.1849 24.101C28.7648 24.9244 28.3946 26.8065 27.601 27.601C26.8074 28.3955 24.9261 28.7578 24.101 30.1849C23.2645 31.6286 23.9164 33.3576 23.6075 34.5091C23.3214 35.588 21.875 36.8174 21.875 38.5C21.875 40.1826 23.324 41.4269 23.6084 42.4909C23.9155 43.6406 23.2776 45.3924 24.1001 46.8142C24.9226 48.2361 26.8126 48.608 27.6001 49.399C28.3876 50.19 28.7569 52.0739 30.184 52.899C31.6277 53.7329 33.3567 53.0845 34.5082 53.3925C35.574 53.676 36.8252 55.125 38.5 55.125C40.1747 55.125 41.4251 53.676 42.49 53.3925C43.6415 53.0854 45.3915 53.7224 46.8151 52.899C48.2387 52.0756 48.6054 50.1918 49.399 49.399C50.1926 48.6063 52.0748 48.2414 52.899 46.8151C53.7338 45.374 53.0845 43.6415 53.3916 42.4909C53.6804 41.4129 55.125 40.1809 55.125 38.5C55.125 36.8191 53.6769 35.5722 53.3916 34.51ZM35.6501 44.3354C35.5707 44.4236 35.4741 44.4947 35.3662 44.5444C35.2584 44.5941 35.1416 44.6214 35.0229 44.6245C34.9042 44.6276 34.7861 44.6065 34.6758 44.5625C34.5655 44.5185 34.4654 44.4526 34.3814 44.3686L29.1314 39.1186C28.972 38.9536 28.8838 38.7326 28.8858 38.5031C28.8878 38.2737 28.9798 38.0543 29.142 37.892C29.3043 37.7298 29.5237 37.6378 29.7531 37.6358C29.9826 37.6338 30.2036 37.722 30.3686 37.8814L34.9668 42.4786L42.2249 34.4146C42.3815 34.2475 42.5974 34.1484 42.8263 34.1386C43.0551 34.1289 43.2787 34.2093 43.4489 34.3626C43.6192 34.5159 43.7225 34.7298 43.7367 34.9584C43.751 35.187 43.675 35.4121 43.5251 35.5854L35.6501 44.3354ZM47.9001 35.5854L40.0251 44.3354C39.949 44.4234 39.8561 44.4953 39.7518 44.5469C39.6475 44.5986 39.534 44.6289 39.4179 44.6361C39.3017 44.6434 39.1853 44.6274 39.0754 44.5891C38.9656 44.5508 38.8644 44.491 38.7779 44.4131C38.6915 44.3352 38.6214 44.2409 38.5718 44.1356C38.5222 44.0304 38.4942 43.9163 38.4892 43.8C38.4843 43.6837 38.5026 43.5677 38.543 43.4586C38.5835 43.3495 38.6453 43.2495 38.7249 43.1646L46.5999 34.4146C46.7565 34.2475 46.9724 34.1484 47.2013 34.1386C47.4301 34.1289 47.6537 34.2093 47.8239 34.3626C47.9942 34.5159 48.0975 34.7298 48.1117 34.9584C48.126 35.187 48.05 35.4121 47.9001 35.5854Z" fill="#4ABD7F"/>
<path d="M42 6.125H40.2501C39.5539 6.125 38.8862 6.40156 38.3939 6.89384C37.9016 7.38613 37.6251 8.05381 37.6251 8.75V33.25C37.6236 33.3854 37.6535 33.5193 37.7126 33.6411L40.3375 38.8911C40.4101 39.0367 40.5218 39.1592 40.6602 39.2448C40.7985 39.3305 40.958 39.3758 41.1207 39.3758C41.2834 39.3758 41.4428 39.3305 41.5812 39.2448C41.7195 39.1592 41.8312 39.0367 41.9038 38.8911L44.5288 33.6411C44.5909 33.52 44.6238 33.3861 44.625 33.25V8.75C44.625 8.05381 44.3485 7.38613 43.8562 6.89384C43.3639 6.40156 42.6962 6.125 42 6.125ZM40.2501 7.875H42C42.2321 7.875 42.4547 7.96719 42.6188 8.13128C42.7829 8.29538 42.875 8.51794 42.875 8.75V11.375H39.3751V8.75C39.3751 8.51794 39.4672 8.29538 39.6313 8.13128C39.7954 7.96719 40.018 7.875 40.2501 7.875ZM41.125 36.5435L39.3751 33.0435V13.125H42.875V33.0435L41.125 36.5435Z" fill="#1F1F1F"/>
<path d="M1.75 44.625H28C29.6239 44.6231 31.1807 43.9772 32.329 42.829C33.4772 41.6807 34.1231 40.1239 34.125 38.5V7C34.1264 5.8401 34.5878 4.72811 35.4079 3.90794C36.2281 3.08777 37.3401 2.62639 38.5 2.625C38.7321 2.625 38.9546 2.53281 39.1187 2.36872C39.2828 2.20462 39.375 1.98206 39.375 1.75C39.375 1.51794 39.2828 1.29538 39.1187 1.13128C38.9546 0.967187 38.7321 0.875 38.5 0.875H12.25C10.6261 0.876853 9.06928 1.52276 7.92102 2.67102C6.77276 3.81928 6.12685 5.37612 6.125 7V38.5C6.12361 39.6599 5.66223 40.7719 4.84206 41.5921C4.02189 42.4122 2.9099 42.8736 1.75 42.875C1.51794 42.875 1.29538 42.9672 1.13128 43.1313C0.967187 43.2954 0.875 43.5179 0.875 43.75C0.875 43.9821 0.967187 44.2046 1.13128 44.3687C1.29538 44.5328 1.51794 44.625 1.75 44.625ZM7.875 38.5V7C7.87639 5.8401 8.33777 4.72811 9.15794 3.90794C9.97811 3.08777 11.0901 2.62639 12.25 2.625H34.2125C33.6298 3.19476 33.1671 3.87538 32.8515 4.62675C32.5359 5.37812 32.3739 6.18505 32.375 7V38.5C32.3736 39.6599 31.9122 40.7719 31.0921 41.5921C30.2719 42.4122 29.1599 42.8736 28 42.875H6.0375C6.62018 42.3052 7.08294 41.6246 7.39851 40.8732C7.71409 40.1219 7.8761 39.3149 7.875 38.5Z" fill="#1F1F1F"/>
<path d="M14.875 7.875H25.375C25.6071 7.875 25.8296 7.78281 25.9937 7.61872C26.1578 7.45462 26.25 7.23206 26.25 7C26.25 6.76794 26.1578 6.54538 25.9937 6.38128C25.8296 6.21719 25.6071 6.125 25.375 6.125H14.875C14.6429 6.125 14.4204 6.21719 14.2563 6.38128C14.0922 6.54538 14 6.76794 14 7C14 7.23206 14.0922 7.45462 14.2563 7.61872C14.4204 7.78281 14.6429 7.875 14.875 7.875Z" fill="#1F1F1F"/>
<path d="M12.25 15.75H28C28.2321 15.75 28.4546 15.6578 28.6187 15.4937C28.7828 15.3296 28.875 15.1071 28.875 14.875C28.875 14.6429 28.7828 14.4204 28.6187 14.2563C28.4546 14.0922 28.2321 14 28 14H12.25C12.0179 14 11.7954 14.0922 11.6313 14.2563C11.4672 14.4204 11.375 14.6429 11.375 14.875C11.375 15.1071 11.4672 15.3296 11.6313 15.4937C11.7954 15.6578 12.0179 15.75 12.25 15.75Z" fill="#1F1F1F"/>
<path d="M12.25 21H28C28.2321 21 28.4546 20.9078 28.6187 20.7437C28.7828 20.5796 28.875 20.3571 28.875 20.125C28.875 19.8929 28.7828 19.6704 28.6187 19.5063C28.4546 19.3422 28.2321 19.25 28 19.25H12.25C12.0179 19.25 11.7954 19.3422 11.6313 19.5063C11.4672 19.6704 11.375 19.8929 11.375 20.125C11.375 20.3571 11.4672 20.5796 11.6313 20.7437C11.7954 20.9078 12.0179 21 12.25 21Z" fill="#1F1F1F"/>
<path d="M12.25 26.25H28C28.2321 26.25 28.4546 26.1578 28.6187 25.9937C28.7828 25.8296 28.875 25.6071 28.875 25.375C28.875 25.1429 28.7828 24.9204 28.6187 24.7563C28.4546 24.5922 28.2321 24.5 28 24.5H12.25C12.0179 24.5 11.7954 24.5922 11.6313 24.7563C11.4672 24.9204 11.375 25.1429 11.375 25.375C11.375 25.6071 11.4672 25.8296 11.6313 25.9937C11.7954 26.1578 12.0179 26.25 12.25 26.25Z" fill="#1F1F1F"/>
<path d="M28.875 30.625C28.875 30.3929 28.7828 30.1704 28.6187 30.0063C28.4546 29.8422 28.2321 29.75 28 29.75H12.25C12.0179 29.75 11.7954 29.8422 11.6313 30.0063C11.4672 30.1704 11.375 30.3929 11.375 30.625C11.375 30.8571 11.4672 31.0796 11.6313 31.2437C11.7954 31.4078 12.0179 31.5 12.25 31.5H28C28.2321 31.5 28.4546 31.4078 28.6187 31.2437C28.7828 31.0796 28.875 30.8571 28.875 30.625Z" fill="#1F1F1F"/>
<path d="M28.875 35.875C28.875 35.6429 28.7828 35.4204 28.6187 35.2563C28.4546 35.0922 28.2321 35 28 35H20.125C19.8929 35 19.6704 35.0922 19.5063 35.2563C19.3422 35.4204 19.25 35.6429 19.25 35.875C19.25 36.1071 19.3422 36.3296 19.5063 36.4937C19.6704 36.6578 19.8929 36.75 20.125 36.75H28C28.2321 36.75 28.4546 36.6578 28.6187 36.4937C28.7828 36.3296 28.875 36.1071 28.875 35.875Z" fill="#1F1F1F"/>
</svg>
