<svg width="293" height="450" viewBox="0 0 293 450" fill="none" xmlns="http://www.w3.org/2000/svg">
<g opacity="0.05">
<path d="M20.3808 191.521C42.5985 171.098 80.2134 176.158 80.2134 176.158C80.2134 176.158 82.0728 214.094 59.8551 234.518C37.6374 254.941 0.0224609 249.881 0.0224609 249.881C0.0224609 249.881 -1.4455 211.876 20.3808 191.521Z" fill="#005650"/>
<path d="M199.276 25.8009C224.709 9.53821 260.872 21.041 260.872 21.041C260.872 21.041 256.104 58.7229 230.67 74.9856C205.237 91.2482 169.074 79.7454 169.074 79.7454C169.074 79.7454 174.24 42.0636 199.276 25.8009Z" fill="#005650"/>
<path d="M234.663 247.907C218.369 222.521 229.894 186.426 229.894 186.426C229.894 186.426 267.646 191.185 283.94 216.571C300.233 241.957 288.709 278.052 288.709 278.052C288.709 278.052 250.956 272.896 234.663 247.907Z" fill="#005650"/>
<path d="M131.339 224.107C115.046 198.722 126.571 162.627 126.571 162.627C126.571 162.627 164.323 167.386 180.617 192.772C196.91 218.158 185.385 254.253 185.385 254.253C185.385 254.253 147.633 249.096 131.339 224.107Z" fill="#005650"/>
<path d="M187.354 162.25C212.787 178.512 248.95 167.009 248.95 167.009C248.95 167.009 244.182 129.328 218.748 113.065C193.315 96.8022 157.152 108.305 157.152 108.305C157.152 108.305 161.921 146.383 187.354 162.25Z" fill="#005650"/>
<path d="M199.276 336.776C224.709 353.039 260.872 341.536 260.872 341.536C260.872 341.536 256.104 303.854 230.67 287.591C205.237 271.328 169.074 282.831 169.074 282.831C169.074 282.831 173.842 320.91 199.276 336.776Z" fill="#005650"/>
<path d="M76.9547 291.885C83.4177 321.334 117.138 338.724 117.138 338.724C117.138 338.724 140.461 308.713 133.998 279.263C127.535 249.814 93.8147 232.424 93.8147 232.424C93.8147 232.424 70.2106 262.715 76.9547 291.885Z" fill="#005650"/>
<path d="M128.616 402.947C135.079 432.397 168.799 449.786 168.799 449.786C168.799 449.786 192.123 419.775 185.66 390.326C179.197 360.876 145.476 343.486 145.476 343.486C145.476 343.486 121.872 373.778 128.616 402.947Z" fill="#005650"/>
<path d="M144.85 61.4807C161.143 36.095 149.619 -0.000244141 149.619 -0.000244141C149.619 -0.000244141 111.866 4.75961 95.5726 30.1453C79.2794 55.5309 90.8039 91.6261 90.8039 91.6261C90.8039 91.6261 128.954 86.8663 144.85 61.4807Z" fill="#005650"/>
</g>
</svg>
