<svg width="52" height="52" viewBox="0 0 52 52" fill="none" xmlns="http://www.w3.org/2000/svg">
<path d="M45.4998 23.5625H40.9538C40.8209 23.5624 40.69 23.5951 40.5728 23.6577C40.4555 23.7203 40.3555 23.8108 40.2816 23.9213C40.2078 24.0319 40.1623 24.1589 40.1493 24.2912C40.1364 24.4235 40.1562 24.5569 40.2072 24.6797C40.5229 25.4576 40.6626 26.2957 40.616 27.134C40.5695 27.9722 40.338 28.7898 39.9381 29.528C39.5382 30.2662 38.9799 30.9067 38.3031 31.4035C37.6264 31.9003 36.848 32.2412 36.0239 32.4016C35.1999 32.562 34.3505 32.538 33.5368 32.3312C32.7231 32.1245 31.9653 31.7402 31.3177 31.2059C30.6701 30.6716 30.1488 30.0006 29.7913 29.241C29.4338 28.4814 29.2488 27.652 29.2498 26.8125C29.2493 26.0841 29.39 25.3626 29.6642 24.6878C29.7155 24.5647 29.7358 24.4309 29.7231 24.2981C29.7105 24.1653 29.6654 24.0377 29.5918 23.9264C29.5181 23.8152 29.4182 23.7238 29.3009 23.6604C29.1836 23.5969 29.0525 23.5633 28.9191 23.5625H21.9373C21.2908 23.5625 20.6708 23.8193 20.2137 24.2764C19.7566 24.7335 19.4998 25.3535 19.4998 26V31.1187C18.5552 30.8345 17.5526 30.8026 16.5918 31.0261C15.8398 31.1881 15.1285 31.5009 14.5008 31.9456C13.8732 32.3904 13.3422 32.9578 12.9402 33.6136C12.5381 34.2695 12.2733 35 12.1617 35.7611C12.0501 36.5223 12.0941 37.2981 12.291 38.0417C12.4878 38.7854 12.8335 39.4814 13.3071 40.0876C13.7807 40.6938 14.3723 41.1976 15.0462 41.5686C15.7201 41.9396 16.4622 42.17 17.2277 42.2459C17.9932 42.3218 18.7661 42.2417 19.4998 42.0103V48.75C19.4998 49.3965 19.7566 50.0165 20.2137 50.4736C20.6708 50.9307 21.2908 51.1875 21.9373 51.1875H45.4998C46.1463 51.1875 46.7662 50.9307 47.2234 50.4736C47.6805 50.0165 47.9373 49.3965 47.9373 48.75V26C47.9373 25.3535 47.6805 24.7335 47.2234 24.2764C46.7662 23.8193 46.1463 23.5625 45.4998 23.5625Z" fill="#4ABD7F"/>
<path d="M37.3751 39.8125H34.1251C33.9096 39.8125 33.7029 39.7269 33.5506 39.5745C33.3982 39.4222 33.3126 39.2155 33.3126 39V13.8125C33.3126 10.3647 31.9429 7.05808 29.505 4.62011C27.067 2.18214 23.7604 0.8125 20.3126 0.8125C16.8648 0.8125 13.5582 2.18214 11.1202 4.62011C8.68222 7.05808 7.31258 10.3647 7.31258 13.8125V18.4438L4.19908 23.1116C4.0838 23.2844 4.0391 23.4948 4.07416 23.6996C4.10922 23.9043 4.22137 24.0879 4.38758 24.2125L7.31258 26.4062V31.6875C7.31258 32.334 7.56939 32.954 8.02651 33.4111C8.48363 33.8682 9.10362 34.125 9.75008 34.125H14.6251V39C14.6251 39.2155 14.5395 39.4222 14.3871 39.5745C14.2347 39.7269 14.0281 39.8125 13.8126 39.8125H8.12508C7.9096 39.8125 7.70293 39.8981 7.55056 40.0505C7.39819 40.2028 7.31258 40.4095 7.31258 40.625C7.31258 40.8405 7.39819 41.0472 7.55056 41.1995C7.70293 41.3519 7.9096 41.4375 8.12508 41.4375H13.8126C14.459 41.4375 15.079 41.1807 15.5362 40.7236C15.9933 40.2665 16.2501 39.6465 16.2501 39V33.3125C16.2501 33.097 16.1645 32.8903 16.0121 32.738C15.8597 32.5856 15.6531 32.5 15.4376 32.5H9.75008C9.5346 32.5 9.32793 32.4144 9.17556 32.262C9.02319 32.1097 8.93758 31.903 8.93758 31.6875V26C8.93758 25.8739 8.90822 25.7495 8.85181 25.6366C8.7954 25.5238 8.71349 25.4257 8.61258 25.35L5.97765 23.374L8.80108 19.1384C8.88986 19.0048 8.93733 18.848 8.93758 18.6875V17.0625H11.3751C11.5906 17.0625 11.7972 16.9769 11.9496 16.8245C12.102 16.6722 12.1876 16.4655 12.1876 16.25V13.8125C12.1876 13.3815 12.3588 12.9682 12.6635 12.6635C12.9683 12.3587 13.3816 12.1875 13.8126 12.1875C14.2436 12.1875 14.6569 12.3587 14.9616 12.6635C15.2664 12.9682 15.4376 13.3815 15.4376 13.8125V16.25C15.4376 16.4655 15.5232 16.6722 15.6756 16.8245C15.8279 16.9769 16.0346 17.0625 16.2501 17.0625H19.5001V20.3125H17.8751C17.0131 20.3125 16.1865 20.6549 15.577 21.2644C14.9675 21.8739 14.6251 22.7005 14.6251 23.5625C14.6251 24.4245 14.9675 25.2511 15.577 25.8606C16.1865 26.4701 17.0131 26.8125 17.8751 26.8125H19.5001V30.875C19.5001 31.0905 19.5857 31.2972 19.7381 31.4495C19.8904 31.6019 20.0971 31.6875 20.3126 31.6875C20.5281 31.6875 20.7347 31.6019 20.8871 31.4495C21.0395 31.2972 21.1251 31.0905 21.1251 30.875V26C21.1251 25.7845 21.0395 25.5778 20.8871 25.4255C20.7347 25.2731 20.5281 25.1875 20.3126 25.1875H17.8751C17.4441 25.1875 17.0308 25.0163 16.726 24.7115C16.4213 24.4068 16.2501 23.9935 16.2501 23.5625C16.2501 23.1315 16.4213 22.7182 16.726 22.4135C17.0308 22.1087 17.4441 21.9375 17.8751 21.9375H20.3126C20.5281 21.9375 20.7347 21.8519 20.8871 21.6995C21.0395 21.5472 21.1251 21.3405 21.1251 21.125V17.0625H23.5626V18.6875C23.5626 19.5495 23.905 20.3761 24.5145 20.9856C25.124 21.5951 25.9506 21.9375 26.8126 21.9375C27.6745 21.9375 28.5012 21.5951 29.1107 20.9856C29.7202 20.3761 30.0626 19.5495 30.0626 18.6875V17.0625H31.6876V39C31.6876 39.6465 31.9444 40.2665 32.4015 40.7236C32.8586 41.1807 33.4786 41.4375 34.1251 41.4375H37.3751C37.5906 41.4375 37.7972 41.3519 37.9496 41.1995C38.102 41.0472 38.1876 40.8405 38.1876 40.625C38.1876 40.4095 38.102 40.2028 37.9496 40.0505C37.7972 39.8981 37.5906 39.8125 37.3751 39.8125ZM17.0626 15.4375V13.8125C17.0626 12.9505 16.7202 12.1239 16.1107 11.5144C15.5012 10.9049 14.6745 10.5625 13.8126 10.5625C12.9506 10.5625 12.124 10.9049 11.5145 11.5144C10.905 12.1239 10.5626 12.9505 10.5626 13.8125V15.4375H8.93758V13.8125C8.94205 10.9388 10.0335 8.17325 11.9927 6.07101C13.9519 3.96877 16.6339 2.68553 19.5001 2.47894V6.5C19.5001 6.71549 19.5857 6.92215 19.7381 7.07452C19.8904 7.2269 20.0971 7.3125 20.3126 7.3125H22.7501C23.1811 7.3125 23.5944 7.48371 23.8991 7.78845C24.2039 8.0932 24.3751 8.50652 24.3751 8.9375C24.3751 9.36848 24.2039 9.7818 23.8991 10.0865C23.5944 10.3913 23.1811 10.5625 22.7501 10.5625H20.3126C20.0971 10.5625 19.8904 10.6481 19.7381 10.8005C19.5857 10.9528 19.5001 11.1595 19.5001 11.375V15.4375H17.0626ZM29.2501 15.4375C29.0346 15.4375 28.8279 15.5231 28.6756 15.6755C28.5232 15.8278 28.4376 16.0345 28.4376 16.25V18.6875C28.4376 19.1185 28.2664 19.5318 27.9616 19.8365C27.6569 20.1413 27.2436 20.3125 26.8126 20.3125C26.3816 20.3125 25.9683 20.1413 25.6635 19.8365C25.3588 19.5318 25.1876 19.1185 25.1876 18.6875V16.25C25.1876 16.0345 25.102 15.8278 24.9496 15.6755C24.7972 15.5231 24.5906 15.4375 24.3751 15.4375H21.1251V12.1875H22.7501C23.612 12.1875 24.4387 11.8451 25.0482 11.2356C25.6577 10.6261 26.0001 9.79945 26.0001 8.9375C26.0001 8.07555 25.6577 7.2489 25.0482 6.6394C24.4387 6.02991 23.612 5.6875 22.7501 5.6875H21.1251V2.47894C23.9913 2.68553 26.6733 3.96877 28.6325 6.07101C30.5917 8.17325 31.6831 10.9388 31.6876 13.8125V15.4375H29.2501Z" fill="#005650"/>
</svg>
