<svg width="191" height="62" viewBox="0 0 191 62" fill="none" xmlns="http://www.w3.org/2000/svg">
<path d="M30.6925 30.9697C28.1881 33.2719 23.948 32.7015 23.948 32.7015C23.948 32.7015 23.7384 28.4253 26.2429 26.1231C28.7473 23.8209 32.9874 24.3913 32.9874 24.3913C32.9874 24.3913 33.1528 28.6753 30.6925 30.9697Z" fill="#4ABD7F"/>
<path d="M10.527 49.6502C7.66005 51.4834 3.58365 50.1867 3.58365 50.1867C3.58365 50.1867 4.1212 45.9391 6.98812 44.106C9.85504 42.2728 13.9314 43.5694 13.9314 43.5694C13.9314 43.5694 13.3491 47.817 10.527 49.6502Z" fill="#4ABD7F"/>
<path d="M6.53808 24.6138C8.37471 27.4754 7.07563 31.5441 7.07563 31.5441C7.07563 31.5441 2.82005 31.0076 0.983429 28.1461C-0.853191 25.2845 0.44588 21.2158 0.44588 21.2158C0.44588 21.2158 4.70146 21.797 6.53808 24.6138Z" fill="#4ABD7F"/>
<path d="M18.1849 27.2965C20.0216 30.1581 18.7225 34.2268 18.7225 34.2268C18.7225 34.2268 14.4669 33.6903 12.6303 30.8287C10.7937 27.9672 12.0927 23.8985 12.0927 23.8985C12.0927 23.8985 16.3483 24.4797 18.1849 27.2965Z" fill="#4ABD7F"/>
<path d="M11.8708 34.2693C9.00392 32.4362 4.92752 33.7328 4.92752 33.7328C4.92752 33.7328 5.46507 37.9804 8.33199 39.8136C11.1989 41.6467 15.2753 40.3501 15.2753 40.3501C15.2753 40.3501 14.7378 36.0578 11.8708 34.2693Z" fill="#4ABD7F"/>
<path d="M10.527 14.5962C7.66005 12.7631 3.58365 14.0597 3.58365 14.0597C3.58365 14.0597 4.1212 18.3073 6.98812 20.1405C9.85504 21.9737 13.9314 20.677 13.9314 20.677C13.9314 20.677 13.3939 16.3847 10.527 14.5962Z" fill="#4ABD7F"/>
<path d="M24.3153 19.6565C23.5868 16.3368 19.7858 14.3767 19.7858 14.3767C19.7858 14.3767 17.1567 17.7596 17.8853 21.0792C18.6138 24.3989 22.4148 26.3591 22.4148 26.3591C22.4148 26.3591 25.0756 22.9446 24.3153 19.6565Z" fill="#4ABD7F"/>
<path d="M18.4919 7.13727C17.7634 3.81761 13.9624 1.85742 13.9624 1.85742C13.9624 1.85742 11.3333 5.24032 12.0618 8.55998C12.7904 11.8796 16.5914 13.8398 16.5914 13.8398C16.5914 13.8398 19.2521 10.4253 18.4919 7.13727Z" fill="#4ABD7F"/>
<path d="M16.662 45.6283C14.8254 48.4898 16.1245 52.5586 16.1245 52.5586C16.1245 52.5586 20.3801 52.022 22.2167 49.1605C24.0533 46.2989 22.7542 42.2302 22.7542 42.2302C22.7542 42.2302 18.4539 42.7667 16.662 45.6283Z" fill="#4ABD7F"/>
<path fill-rule="evenodd" clip-rule="evenodd" d="M29.5539 42.2527V36.4177C29.5539 35.9239 29.955 35.5235 30.4498 35.5235H30.9286C31.9061 35.5235 32.7032 36.3054 32.7202 37.2809L33.1217 60.3229C33.1304 60.8228 32.7268 61.2327 32.2259 61.2327H29.1617C28.6456 61.2327 28.2363 60.7986 28.2674 60.2845L29.1172 46.2543L23.2149 40.3538C22.5161 39.6552 22.5165 38.5236 23.2159 37.8256L23.5336 37.5084C23.8835 37.1592 24.4508 37.1592 24.8006 37.5084L29.5539 42.2527Z" fill="#4ABD7F"/>
<path d="M38.4018 2.29886C34.2165 0.826849 29.6616 0.774379 25.4435 2.14958L24.8047 2.35782C24.2168 2.5495 23.8959 3.1806 24.0879 3.76743L24.5052 5.04248C24.6972 5.62931 25.3295 5.94964 25.9174 5.75796L26.5561 5.54973C30.0244 4.419 33.7696 4.46214 37.2108 5.67246C40.6519 6.88278 43.5969 9.19263 45.5888 12.2438C47.4727 15.1295 48.4046 18.5259 48.2626 21.9576C48.2331 22.6715 48.3764 23.4217 48.7465 24.109L52.8787 31.7837C52.9873 31.9854 52.8409 32.2297 52.6116 32.2297C50.4649 32.2297 48.7247 33.9667 48.7247 36.1093V42.022C48.7247 42.3041 48.466 42.5157 48.1889 42.4604L44.5878 41.7415C42.0931 41.2435 39.7655 43.1481 39.7655 45.6874V51.2321C39.7655 51.8494 40.2669 52.3499 40.8854 52.3499H42.2293C42.8478 52.3499 43.3492 51.8495 43.3492 51.2321V45.6874C43.3492 45.4053 43.6078 45.1937 43.885 45.249L47.486 45.9679C49.9808 46.4659 52.3083 44.5613 52.3083 42.022V36.1093C52.3083 35.9421 52.4441 35.8066 52.6116 35.8066C55.5513 35.8066 57.427 32.6751 56.0354 30.0905L51.9032 22.4158C51.8674 22.3494 51.8374 22.2457 51.8432 22.1051C52.0159 17.9314 50.8825 13.8007 48.5912 10.291C46.1687 6.58015 42.587 3.77086 38.4018 2.29886Z" fill="#4ABD7F"/>
<path fill-rule="evenodd" clip-rule="evenodd" d="M38.2732 2.6645C34.1683 1.22075 29.7008 1.16929 25.5636 2.51809L24.9249 2.72633C24.5401 2.85178 24.331 3.26419 24.4563 3.64688L24.8735 4.92193C24.9989 5.30494 25.4122 5.515 25.7973 5.38945L26.436 5.18122C29.9852 4.02409 33.8178 4.06824 37.3394 5.30682C40.8609 6.5454 43.8747 8.90925 45.9133 12.0319C47.8414 14.9853 48.7952 18.4614 48.6499 21.9736C48.6229 22.6254 48.754 23.3054 49.0878 23.9253L53.22 31.6C53.4681 32.0609 53.133 32.6173 52.6116 32.6173C50.6783 32.6173 49.1123 34.1814 49.1123 36.1093V42.022C49.1123 42.5496 48.6291 42.9435 48.113 42.8405L44.5119 42.1216C42.2561 41.6713 40.1531 43.3935 40.1531 45.6874V51.2321C40.1531 51.6347 40.4803 51.9623 40.8854 51.9623H42.2293C42.6344 51.9623 42.9616 51.6347 42.9616 51.2321V45.6874C42.9616 45.1599 43.4448 44.7659 43.9609 44.8689L47.5619 45.5878C49.8177 46.0381 51.9207 44.3159 51.9207 42.022V36.1093C51.9207 35.7274 52.2307 35.419 52.6116 35.419C55.2592 35.419 56.9461 32.5995 55.6941 30.2742L51.5619 22.5995C51.4901 22.4661 51.4475 22.2924 51.4559 22.0891C51.6253 17.996 50.5138 13.945 48.2667 10.5029C45.8908 6.86353 42.378 4.10824 38.2732 2.6645ZM25.3233 1.78108C29.6224 0.379472 34.2648 0.432948 38.5304 1.93322C42.796 3.43349 46.4465 6.29676 48.9158 10.0791C51.2512 13.6565 52.4065 17.8669 52.2305 22.1211C52.2273 22.1971 52.2439 22.2309 52.2444 22.232L56.3766 29.9067C57.8945 32.7258 55.8791 36.1342 52.6959 36.1934V42.022C52.6959 44.8068 50.1438 46.8937 47.4102 46.348L43.8091 45.6291C43.7708 45.6215 43.7368 45.6507 43.7368 45.6874V51.2321C43.7368 52.0642 43.0612 52.7375 42.2293 52.7375H40.8854C40.0536 52.7375 39.3779 52.0642 39.3779 51.2321V45.6874C39.3779 42.9027 41.93 40.8157 44.6637 41.3615L48.2647 42.0803C48.303 42.0879 48.3371 42.0587 48.3371 42.022V36.1093C48.3371 33.7989 50.176 31.9183 52.4711 31.8444L48.4052 24.2928C47.9988 23.538 47.8432 22.7176 47.8753 21.9415C48.014 18.5905 47.104 15.2738 45.2642 12.4557C43.319 9.47602 40.443 7.22016 37.0822 6.0381C33.7213 4.85604 30.0636 4.81391 26.6763 5.91823L26.0376 6.12647C25.2468 6.38428 24.3955 5.95367 24.1368 5.16303L23.7195 3.88798C23.4607 3.09702 23.8935 2.24722 24.6846 1.98931L25.3233 1.78108ZM52.5374 31.9675C52.5373 31.9673 52.5372 31.9672 52.5372 31.967L52.5374 31.9675Z" fill="#4ABD7F"/>
<path d="M71.2563 31.772V20.4104L69.7574 20.2068V19.0041H72.4221C72.7551 19.0041 73.1499 18.9856 73.6063 18.9486C74.4205 18.8992 75.0867 18.8745 75.6048 18.8745C77.2085 18.8745 78.4359 19.1891 79.2871 19.8182C80.1507 20.4474 80.5824 21.5145 80.5824 23.0195C80.5824 23.957 80.348 24.7774 79.8793 25.4805C79.4105 26.1714 78.7813 26.7018 77.9918 27.0719C77.2023 27.442 76.3388 27.627 75.4012 27.627H74.476C74.0196 27.627 73.705 27.6394 73.5323 27.664V31.772L75.8638 32.0681V33.0303H69.5909V32.0681L71.2563 31.772ZM73.5323 26.3873C73.9271 26.4489 74.513 26.4798 75.2902 26.4798C76.2031 26.4798 76.9309 26.2084 77.4737 25.6656C78.0165 25.1228 78.2879 24.2346 78.2879 23.001C78.2879 22.0141 77.998 21.2677 77.4182 20.762C76.8507 20.2562 76.0489 20.0156 75.0126 20.0403C74.3095 20.0896 73.816 20.1452 73.5323 20.2068V26.3873ZM83.1643 30.2731L83.6269 31.3464C83.96 31.6425 84.2684 31.8583 84.5522 31.994C84.8359 32.1174 85.1875 32.1791 85.6069 32.1791C86.2114 32.1791 86.6863 32.0557 87.0317 31.809C87.3771 31.5499 87.5498 31.1737 87.5498 30.6802C87.5375 30.3102 87.3648 30.0079 87.0317 29.7735C86.711 29.5391 86.2052 29.2677 85.5144 28.9593L85.0518 28.7558C84.1266 28.3117 83.4049 27.8368 82.8868 27.331C82.3687 26.8252 82.1096 26.2022 82.1096 25.462C82.1096 24.8452 82.307 24.3209 82.7017 23.8892C83.0965 23.4574 83.5961 23.1367 84.2006 22.927C84.8174 22.7172 85.4465 22.6124 86.088 22.6124C86.6308 22.6124 87.1798 22.6741 87.7349 22.7974C88.29 22.9085 88.7341 23.0442 89.0672 23.2045V25.351H88.0125L87.5869 24.2963C87.1551 23.8398 86.6616 23.6116 86.1065 23.6116C85.5761 23.6116 85.1443 23.7226 84.8112 23.9447C84.4905 24.1544 84.3301 24.4751 84.3301 24.9069C84.3301 25.2277 84.435 25.5114 84.6447 25.7581C84.8667 25.9925 85.1135 26.1837 85.3848 26.3317C85.6686 26.4798 86.1559 26.7203 86.8467 27.0534C87.4882 27.3495 87.9939 27.6147 88.364 27.8491C88.7465 28.0835 89.0672 28.3857 89.3263 28.7558C89.5853 29.1135 89.7148 29.5576 89.7148 30.0881C89.7148 31.1243 89.3139 31.9139 88.5121 32.4566C87.7102 32.9871 86.6863 33.2523 85.4404 33.2523C84.8729 33.2523 84.2869 33.1783 83.6825 33.0303C83.0903 32.8946 82.5722 32.7034 82.1281 32.4566V30.2731H83.1643ZM91.7786 35.8244C92.0747 35.9108 92.3893 35.9478 92.7224 35.9354C93.2651 35.9354 93.7709 35.7072 94.2397 35.2508C94.7085 34.7943 95.0909 34.048 95.387 33.0118H94.9429L91.353 24.3148L90.4648 24.1112V22.927H95.0539V24.1112L93.8511 24.3148L95.8311 29.9401L96.2752 31.4204L96.7193 29.9216L98.4032 24.2963L97.0523 24.1112V22.927H101.197V24.1112L100.254 24.2778C99.5874 26.2145 98.9213 28.0711 98.2551 29.8475C97.589 31.624 97.1325 32.8206 96.8858 33.4374C96.4417 34.5476 96.0099 35.4112 95.5905 36.028C95.1711 36.6448 94.6838 37.0704 94.1287 37.3048C93.7463 37.6132 93.2898 37.7674 92.7594 37.7674C92.5743 37.7674 92.3769 37.755 92.1672 37.7303C91.9699 37.7057 91.8403 37.6748 91.7786 37.6378V35.8244ZM107.233 22.6494C107.739 22.6247 108.257 22.6556 108.787 22.7419C109.33 22.8283 109.731 22.9455 109.99 23.0935V25.5361H108.843L108.288 24.1852C107.979 23.9509 107.523 23.8337 106.918 23.8337C106.116 23.8337 105.463 24.1667 104.957 24.8329C104.463 25.499 104.217 26.3996 104.217 27.5345C104.217 28.4474 104.359 29.2246 104.642 29.866C104.938 30.5075 105.327 30.9886 105.808 31.3094C106.289 31.6301 106.813 31.7905 107.381 31.7905C107.85 31.7905 108.331 31.7411 108.824 31.6425C109.318 31.5314 109.688 31.3957 109.934 31.2354L110.323 32.1421C109.928 32.4875 109.392 32.7589 108.713 32.9563C108.047 33.1413 107.325 33.2338 106.548 33.2338C105.598 33.2338 104.778 33.0179 104.087 32.5862C103.396 32.1544 102.866 31.5561 102.496 30.7913C102.138 30.0141 101.959 29.132 101.959 28.1452C101.959 27.0596 102.187 26.1097 102.644 25.2955C103.1 24.469 103.723 23.8275 104.513 23.3711C105.315 22.9146 106.221 22.6741 107.233 22.6494ZM113.087 31.883V20.0958L111.644 19.7072V18.7265L114.901 18.3379L115.363 18.523L115.345 22.6679L115.252 24.0187C115.746 23.5993 116.307 23.2785 116.936 23.0565C117.565 22.8221 118.158 22.7049 118.713 22.7049C119.539 22.7049 120.168 22.8776 120.6 23.223C121.044 23.5684 121.346 24.0804 121.507 24.7589C121.667 25.4374 121.741 26.3441 121.729 27.479V31.883L123.024 32.0866V33.0303H118.01V32.0866L119.453 31.883V28.1452C119.453 27.1829 119.416 26.4428 119.342 25.9246C119.268 25.3942 119.089 24.9871 118.805 24.7034C118.522 24.4073 118.084 24.2593 117.491 24.2593C116.653 24.2593 115.943 24.469 115.363 24.8884V31.883L116.511 32.0866V33.0303H111.755V32.0866L113.087 31.883ZM129.546 22.6124C131.075 22.6124 132.241 23.0812 133.043 24.0187C133.845 24.9439 134.246 26.1837 134.246 27.7381C134.246 28.8236 134.03 29.7859 133.598 30.6247C133.166 31.4512 132.574 32.0989 131.822 32.5677C131.069 33.0241 130.218 33.2523 129.268 33.2523C127.677 33.2523 126.474 32.765 125.66 31.7905C124.846 30.8036 124.438 29.5206 124.438 27.9416C124.438 26.856 124.667 25.9123 125.123 25.1105C125.58 24.3086 126.19 23.6918 126.955 23.26C127.732 22.8283 128.596 22.6124 129.546 22.6124ZM129.361 23.7226C127.695 23.7226 126.863 25.0426 126.863 27.6825C126.863 28.8915 127.072 29.9277 127.492 30.7913C127.911 31.6548 128.534 32.0927 129.361 32.1051C130.261 32.1174 130.896 31.7596 131.267 31.0318C131.649 30.304 131.84 29.2616 131.84 27.9046C131.84 26.6586 131.637 25.6533 131.23 24.8884C130.835 24.1112 130.212 23.7226 129.361 23.7226ZM137.283 31.883V20.0958L135.932 19.7072V18.7265L139.133 18.3379L139.559 18.523V31.8645L141.169 32.0866V33.0303H135.914V32.0866L137.283 31.883ZM147.417 22.6124C148.947 22.6124 150.113 23.0812 150.915 24.0187C151.717 24.9439 152.117 26.1837 152.117 27.7381C152.117 28.8236 151.902 29.7859 151.47 30.6247C151.038 31.4512 150.446 32.0989 149.693 32.5677C148.941 33.0241 148.09 33.2523 147.14 33.2523C145.548 33.2523 144.346 32.765 143.532 31.7905C142.717 30.8036 142.31 29.5206 142.31 27.9416C142.31 26.856 142.538 25.9123 142.995 25.1105C143.451 24.3086 144.062 23.6918 144.827 23.26C145.604 22.8283 146.468 22.6124 147.417 22.6124ZM147.232 23.7226C145.567 23.7226 144.734 25.0426 144.734 27.6825C144.734 28.8915 144.944 29.9277 145.363 30.7913C145.783 31.6548 146.406 32.0927 147.232 32.1051C148.133 32.1174 148.768 31.7596 149.138 31.0318C149.521 30.304 149.712 29.2616 149.712 27.9046C149.712 26.6586 149.508 25.6533 149.101 24.8884C148.707 24.1112 148.084 23.7226 147.232 23.7226ZM158.504 22.5754C159.651 22.5754 160.57 22.8283 161.261 23.3341C161.508 22.9393 162.057 22.7419 162.908 22.7419H163.889V24.4073H162.094C162.304 24.8267 162.408 25.3263 162.408 25.9061C162.408 26.6833 162.217 27.3495 161.835 27.9046C161.452 28.4597 160.94 28.8792 160.299 29.1629C159.657 29.4343 158.942 29.57 158.152 29.57C157.511 29.57 156.913 29.4836 156.358 29.3109C156.284 29.5083 156.247 29.7118 156.247 29.9216C156.247 30.1313 156.247 30.2485 156.247 30.2731C156.247 30.6186 156.339 30.8776 156.524 31.0503C156.721 31.223 157.03 31.3155 157.449 31.3279C157.856 31.3526 158.609 31.3649 159.707 31.3649C161.187 31.3649 162.199 31.6178 162.742 32.1236C163.284 32.6293 163.556 33.3387 163.556 34.2516C163.556 34.9917 163.334 35.627 162.89 36.1575C162.445 36.7003 161.829 37.1135 161.039 37.3973C160.262 37.681 159.368 37.8229 158.356 37.8229C157.061 37.8229 155.994 37.6132 155.155 37.1937C154.316 36.7743 153.896 36.0896 153.896 35.1398C153.896 34.634 154.045 34.159 154.341 33.7149C154.649 33.2832 155.013 32.9439 155.432 32.6972C155.112 32.5862 154.877 32.4505 154.729 32.2901C154.581 32.1174 154.489 31.9447 154.452 31.772C154.427 31.5869 154.415 31.3526 154.415 31.0688C154.415 30.8098 154.526 30.4705 154.748 30.0511C154.97 29.6193 155.241 29.2616 155.562 28.9778C154.526 28.3857 154.008 27.4667 154.008 26.2207C154.008 25.4189 154.217 24.7465 154.637 24.2038C155.056 23.661 155.605 23.2539 156.284 22.9825C156.962 22.7111 157.702 22.5754 158.504 22.5754ZM158.152 23.6301C157.573 23.6301 157.11 23.8028 156.765 24.1482C156.419 24.4937 156.247 25.0241 156.247 25.7396C156.247 26.5415 156.419 27.1891 156.765 27.6825C157.11 28.176 157.653 28.4227 158.393 28.4227C159.047 28.4227 159.516 28.2253 159.799 27.8306C160.083 27.4358 160.225 26.856 160.225 26.0912C160.225 24.4505 159.534 23.6301 158.152 23.6301ZM156.395 32.9192C156.111 33.3263 155.969 33.8383 155.969 34.4551C155.969 35.1953 156.228 35.7442 156.746 36.102C157.264 36.4721 157.924 36.6571 158.726 36.6571C159.664 36.6571 160.373 36.5091 160.854 36.213C161.348 35.9169 161.594 35.4482 161.594 34.8067C161.594 34.3749 161.526 34.0295 161.391 33.7704C161.255 33.5114 161.014 33.3202 160.669 33.1968C160.324 33.0734 159.83 33.0118 159.189 33.0118L157.893 32.9933C157.252 32.9933 156.752 32.9686 156.395 32.9192ZM167.379 17.8753C167.835 17.8753 168.181 17.9987 168.415 18.2454C168.662 18.4798 168.785 18.8005 168.785 19.2076C168.785 19.664 168.619 20.0403 168.286 20.3364C167.952 20.6324 167.564 20.7805 167.12 20.7805C166.737 20.7805 166.404 20.6571 166.121 20.4104C165.849 20.1637 165.713 19.8429 165.713 19.4482C165.713 19.0164 165.886 18.6463 166.232 18.3379C166.577 18.0295 166.959 17.8753 167.379 17.8753ZM168.582 22.89V31.883L169.988 32.0866V33.0303H164.936V32.0866L166.361 31.883V25.129L165.14 24.2408V23.5746L168.045 22.7049L168.582 22.89ZM176.515 22.6494C177.021 22.6247 177.539 22.6556 178.07 22.7419C178.612 22.8283 179.013 22.9455 179.272 23.0935V25.5361H178.125L177.57 24.1852C177.262 23.9509 176.805 23.8337 176.201 23.8337C175.399 23.8337 174.745 24.1667 174.239 24.8329C173.746 25.499 173.499 26.3996 173.499 27.5345C173.499 28.4474 173.641 29.2246 173.925 29.866C174.221 30.5075 174.609 30.9886 175.09 31.3094C175.572 31.6301 176.096 31.7905 176.663 31.7905C177.132 31.7905 177.613 31.7411 178.107 31.6425C178.6 31.5314 178.97 31.3957 179.217 31.2354L179.606 32.1421C179.211 32.4875 178.674 32.7589 177.996 32.9563C177.329 33.1413 176.608 33.2338 175.831 33.2338C174.881 33.2338 174.06 33.0179 173.37 32.5862C172.679 32.1544 172.148 31.5561 171.778 30.7913C171.42 30.0141 171.242 29.132 171.242 28.1452C171.242 27.0596 171.47 26.1097 171.926 25.2955C172.383 24.469 173.006 23.8275 173.795 23.3711C174.597 22.9146 175.504 22.6741 176.515 22.6494ZM185.423 22.7049C186.62 22.7049 187.545 22.9701 188.199 23.5006C188.853 24.031 189.179 24.9193 189.179 26.1652V32.0866H190.327V32.8267C190.105 32.9624 189.815 33.0673 189.457 33.1413C189.099 33.2277 188.748 33.2708 188.402 33.2708C187.958 33.2708 187.637 33.1845 187.44 33.0118C187.243 32.8267 187.138 32.5307 187.125 32.1236C186.447 32.8884 185.491 33.2708 184.257 33.2708C183.628 33.2708 183.067 33.1536 182.573 32.9192C182.08 32.6725 181.698 32.3333 181.426 31.9015C181.155 31.4697 181.019 30.9825 181.019 30.4397C181.019 29.6255 181.321 28.9532 181.926 28.4227C182.53 27.8923 183.283 27.5098 184.183 27.2755C185.084 27.0287 185.991 26.9054 186.903 26.9054V26.3502C186.903 25.5114 186.712 24.9254 186.33 24.5923C185.947 24.2593 185.38 24.0927 184.627 24.0927C184.22 24.0927 183.758 24.1606 183.24 24.2963C182.721 24.432 182.271 24.6047 181.889 24.8144L181.463 23.7967C181.883 23.4512 182.481 23.186 183.258 23.001C184.048 22.8036 184.769 22.7049 185.423 22.7049ZM186.903 28.0156C185.978 28.0156 185.146 28.1822 184.405 28.5152C183.678 28.8483 183.314 29.3788 183.314 30.1066C183.314 31.3032 183.949 31.9015 185.22 31.9015C185.516 31.9015 185.818 31.8398 186.126 31.7165C186.447 31.5931 186.7 31.4451 186.885 31.2724L186.903 28.0156Z" fill="white"/>
<path d="M69.7054 46.9697H70.4461V44.2135H72.764L74.0992 46.9697H74.9508L73.5198 44.0321C73.9262 43.8675 74.2386 43.6005 74.457 43.231C74.6753 42.8615 74.7845 42.4399 74.7845 41.9662C74.7845 41.3985 74.6317 40.9098 74.326 40.4999C74.0203 40.0901 73.5836 39.8416 73.0159 39.7542C72.9252 39.7374 72.8345 39.7273 72.7438 39.724C72.6565 39.7173 72.5775 39.7139 72.507 39.7139H69.7054V46.9697ZM70.4461 43.5081V40.4244H72.4868C72.5473 40.4244 72.6178 40.4277 72.6985 40.4344C72.7824 40.4378 72.8614 40.4479 72.9353 40.4647C73.3081 40.5453 73.5819 40.7317 73.7566 41.024C73.9346 41.3129 74.0237 41.627 74.0237 41.9662C74.0237 42.3021 73.9346 42.6162 73.7566 42.9085C73.5819 43.2007 73.3081 43.3855 72.9353 43.4627C72.8614 43.4795 72.7824 43.4913 72.6985 43.498C72.6178 43.5047 72.5473 43.5081 72.4868 43.5081H70.4461ZM78.3657 47.1209C78.893 47.1209 79.365 46.9916 79.7815 46.7329C80.2014 46.4742 80.5189 46.1064 80.7339 45.6294L80.0436 45.3624C79.6976 46.0611 79.1282 46.4104 78.3354 46.4104C77.7912 46.4104 77.3646 46.2408 77.0556 45.9015C76.7499 45.5622 76.5819 45.0802 76.5517 44.4554H80.8397C80.8666 43.4947 80.6566 42.7422 80.2098 42.198C79.7664 41.6505 79.1416 41.3767 78.3354 41.3767C77.8114 41.3767 77.3562 41.4943 76.9699 41.7294C76.587 41.9646 76.2897 42.2988 76.0781 42.7321C75.8664 43.1655 75.7606 43.6794 75.7606 44.274C75.7606 44.8484 75.8664 45.3489 76.0781 45.7755C76.293 46.2022 76.5954 46.533 76.985 46.7682C77.3781 47.0033 77.8383 47.1209 78.3657 47.1209ZM78.3556 42.0569C79.3801 42.0569 79.9495 42.6498 80.0637 43.8356H76.5668C76.6239 43.2612 76.8053 42.8211 77.111 42.5155C77.4167 42.2098 77.8315 42.0569 78.3556 42.0569ZM81.8052 46.9697H82.551V44.0674C82.551 43.4527 82.6887 42.9706 82.9642 42.6213C83.2396 42.2719 83.6394 42.0972 84.1634 42.0972C84.543 42.0972 84.8487 42.1896 85.0804 42.3744C85.3122 42.5558 85.4802 42.8043 85.5843 43.1201C85.6884 43.4359 85.7405 43.7936 85.7405 44.1934V46.9697H86.4863V43.9767C86.4863 43.671 86.4476 43.3653 86.3704 43.0596C86.2965 42.754 86.1755 42.4751 86.0076 42.2232C85.8396 41.9713 85.6162 41.7697 85.3374 41.6186C85.0586 41.4674 84.7143 41.3918 84.3045 41.3918C83.9148 41.3918 83.5621 41.4674 83.2463 41.6186C82.9339 41.7664 82.6769 41.9881 82.4754 42.2837V41.5279H81.8052V46.9697ZM89.3508 47.1209C90.3014 47.1209 90.9918 46.7699 91.4217 46.0678V46.9697H92.0818V43.5887C92.0818 43.3872 92.0717 43.189 92.0516 42.9941C92.0314 42.7993 91.9877 42.6229 91.9206 42.4651C91.7761 42.1124 91.5292 41.8436 91.1799 41.6589C90.8339 41.4708 90.4123 41.3767 89.9151 41.3767C89.3172 41.3767 88.8301 41.5111 88.4539 41.7798C88.0777 42.0485 87.8257 42.4264 87.6981 42.9135L88.4186 43.1251C88.5228 42.7624 88.7025 42.497 88.9578 42.329C89.2164 42.1611 89.5322 42.0771 89.9051 42.0771C90.4224 42.0771 90.7919 42.198 91.0136 42.4399C91.2353 42.6784 91.3495 43.0428 91.3562 43.5333C91.1144 43.5669 90.8473 43.6022 90.5551 43.6391C90.2662 43.6761 89.9756 43.718 89.6834 43.7651C89.3911 43.8121 89.1224 43.8658 88.8771 43.9263C88.4707 44.0338 88.1381 44.2135 87.8795 44.4655C87.6208 44.714 87.4915 45.0617 87.4915 45.5085C87.4915 45.7974 87.5604 46.0644 87.6981 46.3096C87.8358 46.5549 88.0424 46.7514 88.3178 46.8992C88.5967 47.047 88.941 47.1209 89.3508 47.1209ZM89.4365 46.481C89.1442 46.481 88.9091 46.4339 88.731 46.3399C88.5563 46.2425 88.4287 46.1199 88.3481 45.9721C88.2708 45.8209 88.2322 45.6664 88.2322 45.5085C88.2322 45.2129 88.3313 44.9912 88.5295 44.8434C88.7277 44.6956 88.9427 44.5881 89.1744 44.5209C89.4734 44.4403 89.8211 44.3748 90.2175 44.3244C90.6138 44.274 90.9901 44.227 91.3461 44.1833C91.3461 44.3076 91.3411 44.4503 91.331 44.6116C91.3243 44.7695 91.3058 44.9156 91.2756 45.05C91.2051 45.4598 91.0102 45.8007 90.6911 46.0728C90.3753 46.3449 89.9571 46.481 89.4365 46.481ZM96.3563 46.9697V46.3197C95.9667 46.3835 95.6391 46.3936 95.3738 46.35C95.1118 46.3063 94.9203 46.1719 94.7994 45.9469C94.7355 45.8293 94.7003 45.6949 94.6935 45.5438C94.6902 45.3892 94.6885 45.1978 94.6885 44.9693V42.1627H96.3563V41.5279H94.6885V40.0162H93.9528V41.5279H92.7889V42.1627H93.9528V44.9996C93.9528 45.2649 93.9562 45.5018 93.9629 45.71C93.973 45.9183 94.0267 46.1215 94.1242 46.3197C94.2451 46.5616 94.4214 46.7396 94.6532 46.8538C94.8884 46.968 95.1537 47.0319 95.4494 47.0453C95.7483 47.0587 96.0506 47.0336 96.3563 46.9697ZM98.9855 47.1209C99.9361 47.1209 100.626 46.7699 101.056 46.0678V46.9697H101.716V43.5887C101.716 43.3872 101.706 43.189 101.686 42.9941C101.666 42.7993 101.622 42.6229 101.555 42.4651C101.411 42.1124 101.164 41.8436 100.815 41.6589C100.469 41.4708 100.047 41.3767 99.5498 41.3767C98.9519 41.3767 98.4648 41.5111 98.0886 41.7798C97.7123 42.0485 97.4604 42.4264 97.3328 42.9135L98.0533 43.1251C98.1574 42.7624 98.3371 42.497 98.5924 42.329C98.8511 42.1611 99.1669 42.0771 99.5397 42.0771C100.057 42.0771 100.427 42.198 100.648 42.4399C100.87 42.6784 100.984 43.0428 100.991 43.5333C100.749 43.5669 100.482 43.6022 100.19 43.6391C99.9008 43.6761 99.6103 43.718 99.318 43.7651C99.0258 43.8121 98.757 43.8658 98.5118 43.9263C98.1054 44.0338 97.7728 44.2135 97.5141 44.4655C97.2555 44.714 97.1262 45.0617 97.1262 45.5085C97.1262 45.7974 97.195 46.0644 97.3328 46.3096C97.4705 46.5549 97.6771 46.7514 97.9525 46.8992C98.2313 47.047 98.5756 47.1209 98.9855 47.1209ZM99.0711 46.481C98.7789 46.481 98.5437 46.4339 98.3657 46.3399C98.191 46.2425 98.0634 46.1199 97.9828 45.9721C97.9055 45.8209 97.8669 45.6664 97.8669 45.5085C97.8669 45.2129 97.966 44.9912 98.1641 44.8434C98.3623 44.6956 98.5773 44.5881 98.8091 44.5209C99.1081 44.4403 99.4558 44.3748 99.8521 44.3244C100.249 44.274 100.625 44.227 100.981 44.1833C100.981 44.3076 100.976 44.4503 100.966 44.6116C100.959 44.7695 100.941 44.9156 100.91 45.05C100.84 45.4598 100.645 45.8007 100.326 46.0728C100.01 46.3449 99.5918 46.481 99.0711 46.481ZM104.844 46.9697H109.989V46.2643H106.079L110.024 39.8852V39.7139H104.945V40.4244H108.81L104.844 46.8135V46.9697ZM113.317 47.1058C113.707 47.1058 114.058 47.0319 114.37 46.8841C114.686 46.7329 114.944 46.5095 115.146 46.2139V46.9697H115.811V41.5279H115.07V44.4302C115.07 45.0449 114.933 45.527 114.657 45.8763C114.382 46.2257 113.982 46.4003 113.458 46.4003C113.078 46.4003 112.773 46.3096 112.541 46.1283C112.309 45.9435 112.141 45.6932 112.037 45.3775C111.933 45.0617 111.881 44.704 111.881 44.3042V41.5279H111.135V44.5209C111.135 44.8266 111.172 45.1323 111.246 45.4379C111.323 45.7436 111.446 46.0224 111.614 46.2744C111.782 46.5263 112.005 46.7279 112.284 46.879C112.566 47.0302 112.91 47.1058 113.317 47.1058ZM117.214 46.9697H117.88V46.2089C118.074 46.491 118.321 46.7144 118.62 46.879C118.919 47.0403 119.267 47.1209 119.663 47.1209C120.174 47.1209 120.609 46.9949 120.968 46.743C121.328 46.4877 121.601 46.1434 121.79 45.71C121.981 45.2767 122.077 44.7879 122.077 44.2438C122.077 43.7029 121.981 43.2158 121.79 42.7825C121.601 42.3492 121.329 42.0065 120.973 41.7546C120.617 41.5027 120.191 41.3767 119.693 41.3767C119.317 41.3767 118.983 41.4472 118.691 41.5883C118.402 41.726 118.158 41.9192 117.96 42.1678V39.7139H117.214V46.9697ZM119.588 46.4306C119.201 46.4306 118.882 46.3365 118.63 46.1484C118.378 45.9569 118.19 45.6966 118.066 45.3674C117.942 45.0382 117.88 44.6637 117.88 44.2438C117.88 43.6022 118.019 43.0798 118.298 42.6767C118.58 42.2702 119.005 42.067 119.573 42.067C119.962 42.067 120.283 42.1627 120.535 42.3542C120.79 42.5457 120.98 42.806 121.104 43.1352C121.229 43.4644 121.291 43.8339 121.291 44.2438C121.291 44.6569 121.227 45.0281 121.099 45.3573C120.975 45.6865 120.787 45.9485 120.535 46.1434C120.283 46.3348 119.967 46.4306 119.588 46.4306ZM124.74 47.1209C125.691 47.1209 126.381 46.7699 126.811 46.0678V46.9697H127.471V43.5887C127.471 43.3872 127.461 43.189 127.441 42.9941C127.421 42.7993 127.377 42.6229 127.31 42.4651C127.166 42.1124 126.919 41.8436 126.569 41.6589C126.223 41.4708 125.802 41.3767 125.305 41.3767C124.707 41.3767 124.22 41.5111 123.843 41.7798C123.467 42.0485 123.215 42.4264 123.088 42.9135L123.808 43.1251C123.912 42.7624 124.092 42.497 124.347 42.329C124.606 42.1611 124.922 42.0771 125.295 42.0771C125.812 42.0771 126.181 42.198 126.403 42.4399C126.625 42.6784 126.739 43.0428 126.746 43.5333C126.504 43.5669 126.237 43.6022 125.945 43.6391C125.656 43.6761 125.365 43.718 125.073 43.7651C124.781 43.8121 124.512 43.8658 124.267 43.9263C123.86 44.0338 123.528 44.2135 123.269 44.4655C123.01 44.714 122.881 45.0617 122.881 45.5085C122.881 45.7974 122.95 46.0644 123.088 46.3096C123.225 46.5549 123.432 46.7514 123.707 46.8992C123.986 47.047 124.33 47.1209 124.74 47.1209ZM124.826 46.481C124.534 46.481 124.299 46.4339 124.12 46.3399C123.946 46.2425 123.818 46.1199 123.738 45.9721C123.66 45.8209 123.622 45.6664 123.622 45.5085C123.622 45.2129 123.721 44.9912 123.919 44.8434C124.117 44.6956 124.332 44.5881 124.564 44.5209C124.863 44.4403 125.211 44.3748 125.607 44.3244C126.003 44.274 126.38 44.227 126.736 44.1833C126.736 44.3076 126.731 44.4503 126.72 44.6116C126.714 44.7695 126.695 44.9156 126.665 45.05C126.595 45.4598 126.4 45.8007 126.081 46.0728C125.765 46.3449 125.347 46.481 124.826 46.481Z" fill="white"/>
</svg>
