<svg width="36" height="36" viewBox="0 0 36 36" fill="none" xmlns="http://www.w3.org/2000/svg">
<path d="M26.8125 5.34375C27.6138 5.34375 28.2656 4.69188 28.2656 3.8906V1.45315C28.2656 0.651867 27.6138 0 26.8125 0H14.0683C10.5758 0 7.73438 2.8414 7.73438 6.33403V7.39758C7.73438 7.65689 7.87704 7.89511 8.10562 8.01745C8.20962 8.07314 8.32366 8.1007 8.43743 8.1007C8.57377 8.1007 8.70975 8.06112 8.82731 7.98272C9.76155 7.36024 10.8486 7.03125 11.9711 7.03125H12.2417V9.57157C11.144 12.3633 10.4371 15.2911 10.1421 18.2768C10.1039 18.6633 10.3862 19.0075 10.7726 19.0457C10.7961 19.048 10.8195 19.0491 10.8427 19.0491C11.1998 19.0491 11.5057 18.7781 11.5415 18.4151C11.8133 15.6641 12.4505 12.9643 13.4353 10.3828H19.5542V11.6316C19.5542 14.2429 21.2122 16.5712 23.68 17.4252C25.5817 18.0833 26.8594 19.8776 26.8594 21.8899V31.9219C26.8594 33.3951 25.6608 34.5938 24.1876 34.5938H14.0625C12.5892 34.5938 11.3906 33.3951 11.3906 31.9219V24.6716C11.3906 24.2833 11.0758 23.9685 10.6875 23.9685C10.2992 23.9685 9.98438 24.2833 9.98438 24.6716V31.9219C9.98438 34.1705 11.8138 36 14.0625 36H24.1875C26.4362 36 28.2656 34.1705 28.2656 31.9219V21.8899C28.2656 19.2786 26.6076 16.9502 24.1398 16.0962C22.2382 15.4382 20.9604 13.6439 20.9604 11.6316V9.78082C22.003 11.0501 23.5307 11.9046 25.2629 12.0615C25.2842 12.0634 25.3055 12.0644 25.3266 12.0644C25.5987 12.0644 25.8491 11.9065 25.9647 11.6559C26.0893 11.386 26.0307 11.0668 25.8182 10.8588C24.8676 9.92834 24.3442 8.6838 24.3442 7.35455V5.34375H26.8125ZM26.8594 1.45315V3.89067C26.8594 3.91655 26.8384 3.93757 26.8125 3.93757H24.8086V1.40625H26.8125C26.8384 1.40625 26.8594 1.42727 26.8594 1.45315ZM9.14203 6.21443C9.20573 3.55226 11.3912 1.40625 14.0683 1.40625H23.4023V3.9375H22.1836C22.0132 3.9375 21.8485 3.99938 21.7203 4.11173L19.9929 5.625H11.9711C10.9896 5.625 10.0297 5.82659 9.14203 6.21443ZM19.5541 7.03125V8.97652H13.6479V7.03125H19.5541ZM21.0049 6.60797L22.448 5.34375H22.938V7.35448C22.938 8.33449 23.159 9.27858 23.5779 10.1315C22.2411 9.43741 21.2666 8.1462 21.0049 6.60797Z" fill="#1F1F1F"/>
<path d="M20.6719 20.8359H17.5781C17.1898 20.8359 16.875 21.1507 16.875 21.5391V23.2266H15.1875C14.7992 23.2266 14.4844 23.5414 14.4844 23.9297V27.0234C14.4844 27.4118 14.7992 27.7266 15.1875 27.7266H16.875V29.4141C16.875 29.8024 17.1898 30.1172 17.5781 30.1172H20.6719C21.0602 30.1172 21.375 29.8024 21.375 29.4141V27.7266H23.0625C23.4508 27.7266 23.7656 27.4118 23.7656 27.0234V23.9297C23.7656 23.5414 23.4508 23.2266 23.0625 23.2266H21.375V21.5391C21.375 21.1507 21.0602 20.8359 20.6719 20.8359ZM22.3594 24.6328V26.3203H20.6719C20.2835 26.3203 19.9688 26.6351 19.9688 27.0234V28.7109H18.2812V27.0234C18.2812 26.6351 17.9665 26.3203 17.5781 26.3203H15.8906V24.6328H17.5781C17.9665 24.6328 18.2812 24.318 18.2812 23.9297V22.2422H19.9688V23.9297C19.9688 24.318 20.2835 24.6328 20.6719 24.6328H22.3594Z" fill="#1F1F1F"/>
<path d="M10.7188 22.2103C10.9037 22.2103 11.0851 22.1358 11.2159 22.005C11.3466 21.8735 11.4219 21.6928 11.4219 21.5072C11.4219 21.3223 11.3466 21.1416 11.2159 21.0101C11.0851 20.8793 10.9037 20.8047 10.7188 20.8047C10.5331 20.8047 10.3524 20.8792 10.2216 21.0101C10.0909 21.1409 10.0156 21.3223 10.0156 21.5072C10.0156 21.6928 10.0909 21.8742 10.2216 22.005C10.3524 22.1358 10.5331 22.2103 10.7188 22.2103Z" fill="#1F1F1F"/>
</svg>
