<svg width="52" height="52" viewBox="0 0 52 52" fill="none" xmlns="http://www.w3.org/2000/svg">
<path d="M41.8438 18.2812C40.2268 18.2848 38.6293 18.6337 37.158 19.3044C35.6867 19.9752 34.3757 20.9524 33.3125 22.1707C32.2493 20.9524 30.9383 19.9752 29.467 19.3044C27.9957 18.6337 26.3982 18.2848 24.7812 18.2812C19.5423 18.2812 15.4375 23.0669 15.4375 29.1761C15.4375 35.7914 20.0614 44.5014 33.0403 49.1091C33.2164 49.1717 33.4086 49.1717 33.5847 49.1091C46.5636 44.5014 51.1875 35.7914 51.1875 29.1761C51.1875 23.0669 47.0828 18.2812 41.8438 18.2812ZM29.0989 41.8023C28.9333 41.8576 28.7542 41.8576 28.5886 41.8023C23.6844 40.1773 21.9375 37.0378 21.9375 34.6418C21.9118 34.1131 21.9917 33.5847 22.1726 33.0873C22.3536 32.5899 22.6318 32.1336 22.9912 31.7451C23.3505 31.3565 23.7838 31.0435 24.2655 30.8244C24.7472 30.6052 25.2679 30.4843 25.7969 30.4688C26.9127 30.4637 27.9936 30.8583 28.8438 31.5811C29.6939 30.8583 30.7748 30.4637 31.8906 30.4688C32.4196 30.4843 32.9403 30.6052 33.422 30.8244C33.9037 31.0435 34.337 31.3565 34.6963 31.7451C35.0557 32.1336 35.3339 32.5899 35.5149 33.0873C35.6958 33.5847 35.7757 34.1131 35.75 34.6418C35.75 37.0378 34.0031 40.1773 29.0989 41.8023ZM47.125 29.9886C46.9095 29.9886 46.7028 29.903 46.5505 29.7506C46.3981 29.5982 46.3125 29.3916 46.3125 29.1761C46.3125 26.2169 44.6404 23.1563 41.8438 23.1563C41.6283 23.1563 41.4216 23.0706 41.2692 22.9183C41.1169 22.7659 41.0312 22.5592 41.0312 22.3438C41.0312 22.1283 41.1169 21.9216 41.2692 21.7692C41.4216 21.6169 41.6283 21.5313 41.8438 21.5313C45.6576 21.5313 47.9375 25.4183 47.9375 29.1761C47.9375 29.3916 47.8519 29.5982 47.6995 29.7506C47.5472 29.903 47.3405 29.9886 47.125 29.9886Z" fill="#4ABD7F"/>
<path d="M31.89 32.0939C31.4353 32.0922 30.9859 32.1914 30.5741 32.3843C30.1623 32.5772 29.7984 32.859 29.5086 33.2094C29.4302 33.3105 29.3299 33.3924 29.2151 33.4489C29.1004 33.5054 28.9743 33.535 28.8464 33.5355C28.7185 33.536 28.5921 33.5073 28.477 33.4516C28.3618 33.396 28.2609 33.3148 28.1818 33.2143C27.8934 32.8608 27.5294 32.5766 27.1165 32.3827C26.7036 32.1888 26.2524 32.0901 25.7963 32.0939C25.4809 32.1106 25.1721 32.1902 24.8879 32.3281C24.6038 32.466 24.3502 32.6594 24.142 32.8969C23.9338 33.1343 23.7752 33.411 23.6755 33.7107C23.5759 34.0104 23.5373 34.327 23.5619 34.6419C23.5619 35.2634 23.8195 38.4078 28.8431 40.1725C33.8668 38.4078 34.1244 35.2626 34.1244 34.6419C34.149 34.327 34.1104 34.0104 34.0107 33.7107C33.9111 33.411 33.7525 33.1343 33.5443 32.8969C33.3361 32.6594 33.0824 32.466 32.7983 32.3281C32.5142 32.1902 32.2054 32.1106 31.89 32.0939Z" fill="#4ABD7F"/>
<path d="M36.4934 18.1186C37.3072 17.5696 37.965 16.8194 38.4028 15.9408C38.8407 15.0623 39.0437 14.0854 38.9921 13.1051C38.9406 12.1249 38.6362 11.1746 38.1086 10.3469C37.581 9.5191 36.8482 8.84198 35.9813 8.38136C35.1145 7.92075 34.1432 7.69233 33.1619 7.71831C32.1807 7.74429 31.2228 8.0238 30.3816 8.52965C29.5404 9.03549 28.8444 9.75045 28.3613 10.605C27.8783 11.4595 27.6246 12.4245 27.625 13.4061C27.6261 13.6212 27.6391 13.836 27.664 14.0496C26.6919 13.5946 25.6748 13.2428 24.6293 12.9999C25.5616 12.2704 26.2431 11.2682 26.5787 10.133C26.9143 8.99776 26.8874 7.78611 26.5016 6.66695C26.1158 5.54779 25.3904 4.57691 24.4265 3.88965C23.4627 3.20239 22.3084 2.83301 21.1246 2.83301C19.9408 2.83301 18.7865 3.20239 17.8227 3.88965C16.8588 4.57691 16.1334 5.54779 15.7476 6.66695C15.3618 7.78611 15.3348 8.99776 15.6705 10.133C16.0061 11.2682 16.6875 12.2704 17.6199 12.9999C16.5747 13.2424 15.5578 13.594 14.586 14.0488C14.6113 13.8355 14.6243 13.6209 14.625 13.4061C14.6254 12.4245 14.3717 11.4595 13.8887 10.605C13.4056 9.75045 12.7096 9.03549 11.8684 8.52965C11.0272 8.0238 10.0693 7.74429 9.08805 7.71831C8.10679 7.69233 7.1355 7.92075 6.26868 8.38136C5.40185 8.84198 4.66899 9.5191 4.14139 10.3469C3.61379 11.1746 3.3094 12.1249 3.25785 13.1051C3.2063 14.0854 3.40932 15.0623 3.84718 15.9408C4.28505 16.8194 4.94283 17.5696 5.75656 18.1186C4.29114 18.7437 3.04148 19.7852 2.16259 21.114C1.2837 22.4429 0.814256 24.0004 0.8125 25.5936V33.7186C0.8125 34.3651 1.06931 34.9851 1.52643 35.4422C1.98355 35.8993 2.60353 36.1561 3.25 36.1561H11.375C12.0215 36.1561 12.6415 35.8993 13.0986 35.4422C13.5557 34.9851 13.8125 34.3651 13.8125 33.7186V25.8219L15.4375 26.2282V33.7186C15.4375 34.3651 15.6943 34.9851 16.1514 35.4422C16.6085 35.8993 17.2285 36.1561 17.875 36.1561H24.375C25.0215 36.1561 25.6415 35.8993 26.0986 35.4422C26.5557 34.9851 26.8125 34.3651 26.8125 33.7186V26.2282L28.4375 25.8219V33.7186C28.4375 34.3651 28.6943 34.9851 29.1514 35.4422C29.6085 35.8993 30.2285 36.1561 30.875 36.1561H39C39.6465 36.1561 40.2665 35.8993 40.7236 35.4422C41.1807 34.9851 41.4375 34.3651 41.4375 33.7186V25.5936C41.4357 24.0004 40.9663 22.4429 40.0874 21.114C39.2085 19.7852 37.9589 18.7437 36.4934 18.1186ZM33.3125 9.34361C34.116 9.34361 34.9014 9.58187 35.5695 10.0283C36.2376 10.4747 36.7583 11.1091 37.0658 11.8515C37.3732 12.5938 37.4537 13.4106 37.2969 14.1987C37.1402 14.9867 36.7533 15.7106 36.1851 16.2787C35.617 16.8469 34.8931 17.2338 34.1051 17.3906C33.317 17.5473 32.5002 17.4669 31.7578 17.1594C31.0155 16.8519 30.381 16.3312 29.9347 15.6631C29.4883 14.995 29.25 14.2096 29.25 13.4061C29.2513 12.3291 29.6797 11.2965 30.4413 10.5349C31.2029 9.77333 32.2355 9.3449 33.3125 9.34361ZM17.0625 8.53111C17.0625 7.72762 17.3008 6.94218 17.7472 6.27411C18.1935 5.60603 18.828 5.08533 19.5703 4.77785C20.3127 4.47037 21.1295 4.38992 21.9176 4.54667C22.7056 4.70342 23.4295 5.09034 23.9976 5.65849C24.5658 6.22664 24.9527 6.95051 25.1094 7.73856C25.2662 8.52661 25.1857 9.34344 24.8783 10.0858C24.5708 10.8281 24.0501 11.4626 23.382 11.909C22.7139 12.3553 21.9285 12.5936 21.125 12.5936C20.048 12.5923 19.0154 12.1639 18.2538 11.4023C17.4922 10.6407 17.0638 9.60816 17.0625 8.53111ZM4.875 13.4061C4.875 12.6026 5.11326 11.8172 5.55965 11.1491C6.00605 10.481 6.64052 9.96033 7.38285 9.65285C8.12517 9.34537 8.94201 9.26492 9.73005 9.42167C10.5181 9.57842 11.242 9.96534 11.8101 10.5335C12.3783 11.1016 12.7652 11.8255 12.9219 12.6136C13.0787 13.4016 12.9982 14.2184 12.6908 14.9608C12.3833 15.7031 11.8626 16.3376 11.1945 16.784C10.5264 17.2304 9.74099 17.4686 8.9375 17.4686C7.86045 17.4673 6.82789 17.0389 6.0663 16.2773C5.30472 15.5157 4.87629 14.4832 4.875 13.4061ZM15.4375 24.5528L13.1966 23.993C13.0769 23.9631 12.9519 23.9609 12.8312 23.9866C12.7105 24.0122 12.5972 24.065 12.4999 24.141C12.4026 24.217 12.3239 24.3141 12.2698 24.425C12.2157 24.5359 12.1875 24.6577 12.1875 24.7811V33.7186C12.1875 33.9341 12.1019 34.1408 11.9495 34.2931C11.7972 34.4455 11.5905 34.5311 11.375 34.5311H3.25C3.03451 34.5311 2.82785 34.4455 2.67548 34.2931C2.5231 34.1408 2.4375 33.9341 2.4375 33.7186V25.5936C2.43946 23.8923 3.10749 22.2593 4.29854 21.0444C5.48959 19.8295 7.10897 19.1293 8.80994 19.0936L13.7703 20.7479C14.2558 20.9096 14.6782 21.22 14.9774 21.6352C15.2767 22.0504 15.4376 22.5493 15.4375 23.0611V24.5528ZM25.1875 23.0611V33.7186C25.1875 33.9341 25.1019 34.1408 24.9495 34.2931C24.7972 34.4455 24.5905 34.5311 24.375 34.5311H17.875C17.6595 34.5311 17.4528 34.4455 17.3005 34.2931C17.1481 34.1408 17.0625 33.9341 17.0625 33.7186V23.0611C17.0633 22.2082 16.7953 21.3769 16.2966 20.6851C15.7979 19.9933 15.0939 19.4762 14.2846 19.2074L11.7301 18.355C12.5905 17.8664 13.3094 17.1629 13.8166 16.3132C16.0085 14.9449 18.5406 14.2194 21.1246 14.2194C23.7086 14.2194 26.2407 14.9449 28.4326 16.3132C28.9396 17.1637 29.6589 17.8679 30.5199 18.3567L27.9654 19.2074C27.1561 19.4762 26.4521 19.9933 25.9534 20.6851C25.4547 21.3769 25.1867 22.2082 25.1875 23.0611ZM39.8125 33.7186C39.8125 33.9341 39.7269 34.1408 39.5745 34.2931C39.4222 34.4455 39.2155 34.5311 39 34.5311H30.875C30.6595 34.5311 30.4528 34.4455 30.3005 34.2931C30.1481 34.1408 30.0625 33.9341 30.0625 33.7186V24.7811C30.0625 24.6577 30.0343 24.5359 29.9802 24.425C29.9261 24.3141 29.8474 24.217 29.7501 24.141C29.6528 24.065 29.5395 24.0122 29.4188 23.9866C29.2981 23.9609 29.1731 23.9631 29.0534 23.993L26.8125 24.5528V23.0611C26.8125 22.5494 26.9736 22.0507 27.2728 21.6357C27.5721 21.2207 27.9943 20.9104 28.4797 20.7487L33.436 19.0944C35.1375 19.1291 36.7578 19.8287 37.9497 21.0436C39.1416 22.2584 39.8103 23.8917 39.8125 25.5936V33.7186Z" fill="#005650"/>
</svg>
