<svg width="187" height="219" viewBox="0 0 187 219" fill="none" xmlns="http://www.w3.org/2000/svg">
<path opacity="0.1" fill-rule="evenodd" clip-rule="evenodd" d="M59.6201 0C60.4806 17.2773 55.7695 32.0323 55.7695 32.0323C55.7695 32.0323 18.0168 27.2725 1.72363 1.8869C1.32397 1.26416 0.94104 0.634949 0.574219 0H59.6201ZM96.7034 0C97.5475 8.65021 99.92 17.6982 105.047 25.6859C121.34 51.0715 159.093 55.8314 159.093 55.8314C159.093 55.8314 169.013 24.7611 157.433 0H96.7034ZM186.999 128.35C174.969 131.204 152.191 138.808 140.813 156.977C124.52 182.363 136.045 218.458 136.045 218.458C136.045 218.458 169.48 214.243 186.999 192.588V128.35ZM24.791 197.417C24.791 197.417 60.9541 208.92 86.3875 192.657C111.423 176.394 116.59 138.713 116.59 138.713C116.59 138.713 80.4265 127.21 54.9932 143.472C29.5598 159.735 24.791 197.417 24.791 197.417ZM98.3093 56.2085C72.876 39.9458 36.7129 51.4486 36.7129 51.4486C36.7129 51.4486 41.4817 89.1305 66.915 105.393C92.3484 121.656 128.511 110.153 128.511 110.153C128.511 110.153 123.743 72.0745 98.3093 56.2085Z" fill="#C4C4C4"/>
</svg>
