<svg width="184" height="503" viewBox="0 0 184 503" fill="none" xmlns="http://www.w3.org/2000/svg">
<path opacity="0.1" fill-rule="evenodd" clip-rule="evenodd" d="M102.718 503H37.6613C39.0543 494.646 46.5274 458.15 72.926 441.27C102.844 422.14 145.384 435.671 145.384 435.671C145.384 435.671 139.307 479.998 109.856 499.128C107.544 500.607 105.156 501.89 102.718 503ZM184 445.13V503H163.793C163.002 488.91 164.631 471.566 173.88 457.157C176.729 452.606 180.186 448.619 184 445.13ZM184 258.431V335.837C169.52 332.097 144.833 323.009 131.806 302.713C112.64 272.851 126.196 230.391 126.196 230.391C126.196 230.391 162.931 235.408 184 258.431ZM184 34.6359V107.601C178.611 118.405 173.143 125.422 173.143 125.422C173.143 125.422 133.476 104.966 125.874 70.3229C118.271 35.6799 145.707 0.376953 145.707 0.376953C145.707 0.376953 169.765 12.7836 184 34.6359ZM37.3979 127.716C37.3979 127.716 79.938 114.185 109.856 133.316C139.775 151.979 145.384 196.773 145.384 196.773C145.384 196.773 102.844 210.304 72.9259 191.174C43.0076 172.043 37.3979 127.716 37.3979 127.716ZM68.2295 237.856C87.3959 267.718 73.8392 310.179 73.8392 310.179C73.8392 310.179 29.4292 304.579 10.2628 274.717C-8.90365 244.855 4.65307 202.395 4.65307 202.395C4.65307 202.395 49.0631 208.461 68.2295 237.856ZM123.881 338.618C93.9623 319.488 51.4221 333.019 51.4221 333.019C51.4221 333.019 57.0318 377.346 86.9501 396.476C116.868 415.606 159.409 402.075 159.409 402.075C159.409 402.075 153.799 357.282 123.881 338.618Z" fill="#C4C4C4"/>
</svg>
